<svg version="1.1" xmlns="http://www.w3.org/2000/svg" xmlns:xlink="http://www.w3.org/1999/xlink" x="0px" y="0px"
	 viewBox="0 0 150 150" style="enable-background:new 0 0 150 150;" xml:space="preserve">
<style type="text/css">
	.st0{fill:#2B2D42;}
	.st1{fill:#EDE0CA;}
	.st2{fill:#131F5B;}
	.st3{fill:#7C1515;}
	.st4{fill:#A01818;}
	.st5{fill:#378907;}
	.st6{fill:#30990E;}
</style>
<g id="Layer_6">
	<polygon class="st0" points="75,9.7 32.9,25 10.6,63.7 18.3,107.8 52.6,136.6 97.4,136.6 131.7,107.8 139.4,63.7 117.1,25 	"/>
	<polygon class="st1" points="75.6,16 37.3,29.9 17,65.2 24.1,105.2 55.2,131.4 95.9,131.4 127.1,105.2 134.1,65.2 113.8,29.9 	"/>
</g>
<g id="Layer_3">
	<path class="st0" d="M66.9,37.7L48.3,46c-2.8,1.2-4.5,4-4.5,7v16.3c0,18.8,12.5,36.4,29.6,41.8c0.7,0.2,1.5,0.3,2.2,0.3V35.9
		C72.6,35.9,69.6,36.5,66.9,37.7z"/>
	<path class="st2" d="M107.4,53v16.3c0,18.8-12.5,36.4-29.6,41.8c-0.7,0.2-1.5,0.3-2.3,0.3V35.9c3,0,5.9,0.6,8.7,1.8l18.6,8.3
		C105.6,47.3,107.4,50,107.4,53z"/>
</g>
<g id="Layer_2">
	<g>
		<path class="st3" d="M94.2,72.7c0,10.5-8.6,21.2-19.1,21.2h-0.1l0.4-34.8C85.8,59.2,94.2,62.4,94.2,72.7z"/>
		<path class="st4" d="M75.5,59.2L75.1,94c-10.4-0.1-18.7-10.8-18.7-21.2c0-10.5,8.4-13.6,18.8-13.6C75.3,59.2,75.4,59.2,75.5,59.2z
			"/>
		<path class="st5" d="M79.1,61.4c-0.1,0.1-0.1,0.2-0.2,0.3c-2.1,2.2-5,2.8-8,0c-2.6-2.4-4.4-9.9-4.8-11.7L79.1,61.4z"/>
		<path class="st6" d="M79.1,61.4L66,49.9c-0.1-0.3-0.1-0.4-0.1-0.4s9.4,1.3,12.4,4.1C81.2,56.3,80.9,59.2,79.1,61.4z"/>
	</g>
</g>
</svg>
