<svg version="1.1" xmlns="http://www.w3.org/2000/svg" xmlns:xlink="http://www.w3.org/1999/xlink" x="0px" y="0px"
	 viewBox="0 0 150 150" style="enable-background:new 0 0 150 150;" xml:space="preserve">
<style type="text/css">
	.st0{fill:#0D2801;}
	.st1{fill:#ABC6AB;stroke:#FFFEFD;stroke-width:3;stroke-miterlimit:10;}
	.st2{fill:#8C7D73;}
	.st3{fill:#68574D;}
	.st4{fill:none;stroke:#4C2409;stroke-width:1.0173;stroke-miterlimit:10;}
	.st5{fill:#81B8EA;}
	.st6{fill:#4EA4E5;}
	.st7{fill:#EDE837;}
	.st8{fill:#C1B92B;}
	.st9{fill:none;}
	.st10{fill:#3A3708;}
</style>
<g id="Layer_2">
	<g>
		<polygon class="st0" points="77.4,11.5 25.2,36.7 12.3,93.2 48.5,138.5 106.4,138.5 142.5,93.2 129.6,36.7 		"/>
		<polygon class="st1" points="77.4,17.9 30.4,40.5 18.8,91.3 51.4,132.1 103.5,132.1 136,91.3 124.4,40.5 		"/>
	</g>
</g>
<g id="Layer_3">
	<g>
		<g>
			<polygon class="st2" points="77.4,118.7 71.7,123.8 71.7,112.4 77.4,107.3 			"/>
			<polygon class="st3" points="77.4,118.7 83.1,123.8 83.1,112.4 77.4,107.3 			"/>
			<line class="st4" x1="77.4" y1="121.1" x2="77.4" y2="38.6"/>
			<g>
				<polygon class="st5" points="77.4,30.7 77.4,41.6 73.1,41.6 75.3,36.2 				"/>
				<polygon class="st6" points="81.8,41.6 77.4,41.6 77.4,30.7 79.6,36.2 				"/>
			</g>
		</g>
		<g>
			<polygon class="st2" points="90.6,115.6 87.2,122.5 82.9,111.9 86.2,105 			"/>
			<polygon class="st3" points="90.6,115.6 97.8,118.1 93.4,107.5 86.2,105 			"/>
			<line class="st4" x1="91.5" y1="117.8" x2="60.1" y2="41.5"/>
			<g>
				<polygon class="st5" points="57.1,34.2 61.2,44.3 57.2,46 57.1,40.1 				"/>
				<polygon class="st6" points="65.3,42.7 61.2,44.3 57.1,34.2 61.2,38.4 				"/>
			</g>
		</g>
		<g>
			<polygon class="st2" points="64.3,115.6 67.6,122.5 72,111.9 68.6,105 			"/>
			<polygon class="st3" points="64.3,115.6 57.1,118.1 61.4,107.5 68.6,105 			"/>
			<line class="st4" x1="63.4" y1="117.8" x2="94.8" y2="41.5"/>
			<g>
				<polygon class="st5" points="97.8,34.2 93.6,44.3 97.6,46 97.7,40.1 				"/>
				<polygon class="st6" points="89.6,42.7 93.6,44.3 97.8,34.2 93.7,38.4 				"/>
			</g>
		</g>
	</g>
</g>
<g id="Layer_6">
	<g>
		<g>
			<path class="st7" d="M106.3,88l1.8,3.4c-0.2,0-0.4,0.1-0.6,0.1c-12.5,2.6-25.2-2.3-31-13c-4.4-8.2-3.9-17.9,0.7-26
				c0.6-1.2,1.4-2.3,2.2-3.4l2.4,4.4c-2,6.8-1.5,14.1,2,20.5C88.3,82.2,96.6,87.1,106,88C106.1,88,106.2,88,106.3,88z"/>
			<path class="st7" d="M107.8,88.1c-0.1,0.7-0.2,1.5-0.2,2.3l-1.3-2.4C106.8,88.1,107.3,88.1,107.8,88.1z"/>
			<path class="st8" d="M110.6,86.4c-0.2,1.5-0.3,3-0.2,4.5c-0.7,0.2-1.4,0.4-2.2,0.6l-0.6-1c0-0.8,0.1-1.5,0.2-2.3
				c-0.5,0-1,0-1.5-0.1c-0.1,0-0.3,0-0.4,0c-9.3-0.9-17.7-5.7-22.2-13.9c-3.5-6.4-4-13.7-2-20.5l0.1,0.1l3.9-2.1
				c-2.4,7-2.1,14.5,1.5,21.1c4.3,8,12.5,12.7,21.5,13.5C109.4,86.3,110,86.3,110.6,86.4z"/>
			<line class="st9" x1="81.8" y1="53.6" x2="81.4" y2="52.7"/>
			<path class="st10" d="M86.6,49.4c-0.3,0.7-0.6,1.5-0.8,2.2l-3.9,2.1l-2.5-4.6c0.5-0.6,1-1.3,1.5-1.9
				C82.7,48.2,84.6,48.9,86.6,49.4z"/>
			<path class="st10" d="M110.6,86.4c-0.2,1.5-0.3,3-0.2,4.5c-0.7,0.2-1.4,0.4-2.2,0.6l-2-3.7l2.6-1.4
				C109.4,86.3,110,86.3,110.6,86.4z"/>
		</g>
		<g>
			<path class="st7" d="M96.9,99.2l1.1,4.3c-0.2,0-0.5,0-0.7,0c-14.8-0.8-27.6-9.9-30.9-23.6c-2.6-10.4,0.9-21.1,8.4-28.9
				c1.1-1.1,2.2-2.2,3.4-3.2l1.4,5.7c-4.2,7-5.8,15.3-3.8,23.5c2.6,10.5,10.5,18.4,20.7,22.1C96.6,99.1,96.8,99.2,96.9,99.2z"/>
			<path class="st7" d="M98.6,99.8c-0.3,0.8-0.6,1.6-0.9,2.5l-0.7-3C97.5,99.4,98,99.6,98.6,99.8z"/>
			<path class="st8" d="M102.1,98.6c-0.7,1.6-1.2,3.3-1.6,4.9c-0.9,0-1.7,0-2.6,0l-0.3-1.3c0.3-0.8,0.6-1.7,0.9-2.5
				c-0.6-0.2-1.1-0.3-1.6-0.5c-0.1,0-0.3-0.1-0.4-0.1C86.3,95.4,78.4,87.5,75.8,77c-2-8.2-0.4-16.4,3.8-23.5l0,0.2l4.9-1.2
				c-4.7,7.1-6.6,15.7-4.5,24.1c2.5,10.2,10.2,17.8,20.1,21.4C100.8,98.2,101.5,98.4,102.1,98.6z"/>
			<line class="st9" x1="79.5" y1="53.5" x2="79.3" y2="52.4"/>
			<path class="st10" d="M86.1,50.2c-0.6,0.7-1.1,1.5-1.6,2.2l-4.9,1.2l-1.4-5.9c0.7-0.6,1.4-1.1,2.2-1.7
				C82.1,47.7,84,49.1,86.1,50.2z"/>
			<path class="st10" d="M102.1,98.6c-0.7,1.6-1.2,3.3-1.6,4.9c-0.9,0-1.7,0-2.6,0l-1.2-4.8l3.3-0.8
				C100.8,98.2,101.5,98.4,102.1,98.6z"/>
		</g>
		<g>
			<path class="st7" d="M74.9,103.9l-1,4.3c-0.2-0.1-0.4-0.2-0.6-0.4c-12.8-7.4-20-21.4-16.7-35.1C59,62.2,66.9,54.3,77.2,50.8
				c1.5-0.5,3-0.9,4.5-1.2l-1.3,5.7c-7,4.3-12.2,11-14.1,19.2c-2.5,10.5,1,21.2,8.3,29.1C74.7,103.6,74.8,103.8,74.9,103.9z"/>
			<path class="st7" d="M76.1,105.1c-0.7,0.6-1.3,1.2-1.9,1.8l0.7-3C75.3,104.3,75.7,104.7,76.1,105.1z"/>
			<path class="st8" d="M79.8,105.7c-1.3,1.1-2.5,2.4-3.7,3.7c-0.8-0.4-1.5-0.8-2.3-1.2l0.3-1.3c0.6-0.6,1.3-1.2,1.9-1.8
				c-0.4-0.4-0.8-0.8-1.2-1.2c-0.1-0.1-0.2-0.2-0.3-0.3c-7.4-7.9-10.8-18.6-8.3-29.1c1.9-8.2,7.1-14.8,14.1-19.2l0,0.2l4.9,1.2
				c-7.4,4.2-13,10.9-15,19.4c-2.4,10.2,0.9,20.5,8.1,28.3C78.8,104.7,79.3,105.2,79.8,105.7z"/>
			<line class="st9" x1="80.3" y1="55.2" x2="80.6" y2="54.2"/>
			<path class="st10" d="M87.6,55.3c-0.8,0.4-1.6,0.8-2.4,1.3l-4.9-1.2l1.4-5.9c0.9-0.2,1.8-0.4,2.7-0.5
				C85.2,51.3,86.3,53.3,87.6,55.3z"/>
			<path class="st10" d="M79.8,105.7c-1.3,1.1-2.5,2.4-3.7,3.7c-0.8-0.4-1.5-0.8-2.3-1.2l1.1-4.8l3.3,0.8
				C78.8,104.7,79.3,105.2,79.8,105.7z"/>
		</g>
	</g>
</g>
</svg>
