<svg version="1.1" id="Layer_1" xmlns="http://www.w3.org/2000/svg" xmlns:xlink="http://www.w3.org/1999/xlink" x="0px" y="0px"
	 viewBox="0 0 500 500" style="enable-background:new 0 0 500 500;" xml:space="preserve">
<style type="text/css">
	.st0{fill:#EAB215;}
	.st1{fill:#CCCAC8;}
	.st2{fill:#FFFFFF;}
	.st3{fill:none;}
	.st4{fill:none;stroke:#000000;stroke-width:3;stroke-miterlimit:10;}
	.st5{fill:#CE9915;}
	.st6{fill:#D8B421;}
	.st7{fill:#FFC817;}
	.st8{fill:none;stroke:#010200;stroke-width:5;stroke-miterlimit:10;}
	.st9{fill:none;stroke:#010200;stroke-width:3;stroke-miterlimit:10;}
	.st10{fill:#010200;}
	.st11{fill:none;stroke:#010200;stroke-miterlimit:10;}
	.st12{fill:#600D0D;}
	.st13{fill:#891918;}
	.st14{fill:#FFFFFF;stroke:#000000;stroke-width:1.8459;stroke-miterlimit:10;}
	.st15{fill:#E8E2E2;}
	.st16{fill:none;stroke:#000000;stroke-width:1.8459;stroke-miterlimit:10;}
	.st17{fill:none;stroke:#000000;stroke-width:1.8459;stroke-linecap:round;stroke-miterlimit:10;}
	.st18{fill:#FFFFFF;stroke:#000000;stroke-width:2;stroke-miterlimit:10;}
	.st19{fill:#FFFFFF;stroke:#000000;stroke-width:1.9463;stroke-miterlimit:10;}
	.st20{fill:none;stroke:#000000;stroke-width:2;stroke-miterlimit:10;}
</style>
<path class="st0" d="M351.3,227.6c1.9,1.4,2.9,3.8,2.4,6.2c-0.2,0.9-5,21.2-24.2,30.2c-15.7,7.3-35.9,4.7-59.9-7.7
	c-2.9-1.5-4.1-5.1-2.6-8.1c1.5-2.9,5.1-4.1,8.1-2.6c20.5,10.6,37.1,13.1,49.2,7.5c13.9-6.4,17.6-21.9,17.7-22c0.8-3.2,4-5.2,7.2-4.5
	C350,226.8,350.7,227.1,351.3,227.6z"/>
<g>
	<path d="M275.1,245.6c25,12.1,55.8,17.6,65.7-15.6c2.7-7.7,14-6.1,14.5,2.1c0.1,1.2-0.3,2.4-0.6,3.6c-2.6,8.3-7.1,16-13.5,21.9
		c-14.6,14.1-36.7,13.6-54.5,6.7c-5.9-2.2-11.7-4.9-17.2-8c7.6,3.5,15.4,6.7,23.6,8.6c15.7,4.1,34.2,2.6,46.2-9.3
		c5.9-5.6,10.2-12.9,12.5-20.7c1.4-3.3-0.5-7.1-4.3-6.9c-2,0.1-3.9,1.7-4.2,3.7c-2.9,9.9-9.8,19.1-19.5,23
		C307.4,260.9,289.5,253.5,275.1,245.6L275.1,245.6z"/>
</g>
<g>
	<g>
		<path class="st1" d="M325.6,456.1c-0.5,5.1-2.3,9.2-2.7,9.9c-0.9,1.9-3.7,7.6-10,11.1c-9.6,5.2-20.2,1.3-26.6-1.1
			c-6.9-2.6-11-5.9-18.8-12.2c-10.6-8.6-16-13-17.2-20.5c-0.1-1-1-6.8,2-12.3c0.4-0.7,0.8-1.4,1.3-2.1c1-1.3,3.6-4.8,7.7-5.5
			c3.5-0.6,5.3,1.2,11.6,3.9c5.5,2.3,9.8,3.3,14.4,4.4c8.2,2,8.9,0.8,15.5,2.2c8,1.8,15.7,3.5,19.9,10
			C325.5,447.8,326,452.2,325.6,456.1z"/>
		<path class="st2" d="M325.6,456.1c-0.2,0.5-0.4,0.9-0.5,1c-0.9,1.9-3.7,7.6-10,11.1c-9.6,5.2-20.2,1.3-26.6-1.1
			c-6.9-2.6-11-5.9-18.8-12.2c-10.6-8.6-16-13-17.2-20.5c-0.1-0.4-0.2-1.7-0.2-3.5c0.4-0.7,0.8-1.4,1.3-2.1c1-1.3,3.6-4.8,7.7-5.5
			c3.5-0.6,5.3,1.2,11.6,3.9c5.5,2.3,9.8,3.3,14.4,4.4c8.2,2,8.9,0.8,15.5,2.2c8,1.8,15.7,3.5,19.9,10
			C325.5,447.8,326,452.2,325.6,456.1z"/>
		<path class="st3" d="M325.6,456.1c-0.5,5.1-2.3,9.2-2.7,9.9c-0.9,1.9-3.7,7.6-10,11.1c-9.6,5.2-20.2,1.3-26.6-1.1
			c-6.9-2.6-11-5.9-18.8-12.2c-10.6-8.6-16-13-17.2-20.5c-0.1-1-1-6.8,2-12.3c0.4-0.7,0.8-1.4,1.3-2.1c1-1.3,3.6-4.8,7.7-5.5
			c3.5-0.6,5.3,1.2,11.6,3.9c5.5,2.3,9.8,3.3,14.4,4.4c8.2,2,8.9,0.8,15.5,2.2c8,1.8,15.7,3.5,19.9,10
			C325.5,447.8,326,452.2,325.6,456.1z"/>
		<path class="st4" d="M325.6,456.1c-0.5,5.1-2.3,9.2-2.7,9.9c-0.9,1.9-3.7,7.6-10,11.1c-9.6,5.2-20.2,1.3-26.6-1.1
			c-6.9-2.6-11-5.9-18.8-12.2c-10.6-8.6-16-13-17.2-20.5c-0.1-1-1-6.8,2-12.3c0.4-0.7,0.8-1.4,1.3-2.1c1-1.3,3.6-4.8,7.7-5.5
			c3.5-0.6,5.3,1.2,11.6,3.9c5.5,2.3,9.8,3.3,14.4,4.4c8.2,2,8.9,0.8,15.5,2.2c8,1.8,15.7,3.5,19.9,10
			C325.5,447.8,326,452.2,325.6,456.1z"/>
		<g>
			<path d="M280.4,444.4c3.4-9,17.5-10.6,25.9-10.9c0,0,0,2.3,0,2.3l-3.6-0.1C295.2,435.8,284,436.7,280.4,444.4L280.4,444.4z"/>
		</g>
		<g>
			<path d="M254.8,440.3c3.2,3.7,6.8,7.2,10.3,10.7C260.6,448.8,256.8,444.9,254.8,440.3L254.8,440.3z"/>
		</g>
		<g>
			<path d="M296.7,469.7c7.5,1.1,15.4,0.6,21.8-3.8C313.1,471.7,303.8,472.4,296.7,469.7L296.7,469.7z"/>
		</g>
		<path class="st1" d="M306.9,438.9c-4.9,0-9.2,2.6-11.7,6.4c1.9-0.9,3.9-1.5,6.1-1.5c7.6,0,13.8,6.2,13.8,13.8
			c0,2.7-0.8,5.3-2.2,7.4c4.6-2.3,7.7-7,7.7-12.4C320.8,445,314.6,438.9,306.9,438.9z"/>
		<g>
			<path d="M313.1,465.1c7.7-4.2,9.6-14.9,3.7-21.2c-5.7-6.6-16.6-5.7-21.5,1.5c3.2-5.8,10.8-8.4,17-6
				C323.7,443.7,324.4,460.1,313.1,465.1L313.1,465.1z"/>
		</g>
		<ellipse class="st2" cx="274.8" cy="425" rx="20.5" ry="13.3"/>
		<g>
			<path d="M258.5,433c-6.3-4.2-6.3-12.2-0.6-17c5-4.4,11.9-6,18.4-5.8c6.5,0.3,13.4,2.5,17.6,7.8c4.8,6.1,1.7,13.5-4.8,16.5
				c9.2-7,5.8-16.2-4.2-19.6c-5.5-2-11.8-2.2-17.5-0.8C258,416.3,250.4,424.5,258.5,433L258.5,433z"/>
		</g>
	</g>
	<ellipse cx="275" cy="423.5" rx="9.5" ry="8.2"/>
	<path class="st5" d="M275.3,429.8c-1,0-1.9-0.2-2.9-0.5c-4.7-1.6-7.2-6.7-5.6-11.4c13.5-39.5,1.9-64.2,1.8-64.4
		c-2.2-4.5-0.3-9.9,4.2-12c4.5-2.2,9.9-0.3,12,4.2c0.6,1.3,14.9,31.7-1,78.1C282.5,427.5,279,429.8,275.3,429.8z"/>
	<g>
		<path d="M284.8,345.6c7,14.9,8.4,31.9,7,48.2c-0.4,4.3-1.2,9.4-2,13.6c-0.4,1.7-1.5,6.2-1.9,8c-0.7,2.5-1.6,5.3-2.4,7.9
			c-1.8,7.8-11.6,10.8-17.4,5.2c-2.9-2.7-4-7.1-2.7-10.9c4.7-13.8,7.6-28.3,7-42.9c-0.3-7.2-1.3-14.4-3.8-21.2
			c1.6,3.3,2.6,6.8,3.5,10.3c2.5,10.7,2.7,21.8,1.2,32.7c-1,7.5-2.9,14.8-5.2,22c-0.1,0.5-0.3,1.1-0.3,1.7
			c-0.5,9.4,12.6,11.4,14.9,2.2c1.3-4,2.8-8.8,3.7-12.9c0.9-3.4,1.5-7.1,2.2-10.5C291.3,381.2,291.1,362.6,284.8,345.6L284.8,345.6z
			"/>
	</g>
</g>
<g>
	<path class="st6" d="M235.3,99.3c-4.5,2.6-16.1,10-23,25.5c-3.7,8.3-4.7,16-5,21.1"/>
	<path class="st5" d="M396.3,399.8c-1.7,4-4.4,7-4.9,7.7c-5.3,6.5-12.7,8.2-17,8.8c-0.4,0.1-0.9,0.1-1.2,0.2
		c-87.5,11.9-140.8-24.7-140.8-24.7c-12.5-8.6-71.7-49.3-84.1-130.4c-9.1-59.7,12.7-106.2,19.2-119.1c2.3-4.5,24.5-47.1,60.8-67.4
		c20.6-11.6,39.5-14.6,39.5-14.6c12.1-1.9,12.5,0.2,18.2-2.2c20.9-9,18.4-39.7,34.4-43.8c0.5-0.1,0.9-0.2,1.4-0.3
		c8.5-1.3,17.6,5.5,21.9,12.6c3.8,6.3,5.9,16.5,2,21.4c-1.6,2-3.5,2.1-6.1,2.4c-1.4,0.2-3.1,0.3-5.1,1c-0.8,0.2-1.6,0.6-2.4,0.9
		c-8.8,3.9-15.6,13.5-17.8,21.6c-3.8,13.7,6.3,20.1,6.1,36c-0.3,16.6-11.5,26.9-19.2,37.1c-28.2,37.3-22.9,95.6-22.3,101.1
		c7.6,69.3,70.4,114.2,85.6,119.7c6.9,2.5,11,5,19.2,10.1c0.8,0.5,1.5,1,2.2,1.4c9,5.8,10.8,8.7,11.4,11.5
		C398.2,393.9,397.5,397.1,396.3,399.8z"/>
	<path class="st0" d="M396.3,399.8c-15.1-8.5-50.9-6.8-84.4-17.6c-6.1-2-16.2-5.6-28.4-12.4c-11.6-5.5-35.9-19.1-54.7-48.3
		c-16.8-26.1-20.7-51.4-22.8-65.7c-7.5-51.8,8.4-91.7,19.2-119.1c11.3-28.4,22.9-57.8,43-61.2c6.9-1.2,16.5,0.3,27.3-6.7
		c2.7-1.8,10.6-6.9,15.2-16.9c1.8-3.8,1.3-4.5,3-7.9c4.9-9.4,14.9-16,18.2-13.5c3.7,2.9-1.5,16.6,0.1,21.7
		c-8.8,3.9-15.6,13.5-17.8,21.6c-1.6,5.8-0.7,10.3,0.8,14.8c2.1,6,5.4,12,5.2,21.2c-0.3,16.6-11.5,26.9-19.2,37.1
		c-28.2,37.3-22.9,95.6-22.3,101.1c7.6,69.3,70.4,114.2,85.6,119.7c6.9,2.5,11,5,19.2,10.1c0.8,0.5,1.5,1,2.2,1.4
		c2.5,1.6,4.5,3,6,4.2c3.9,3.2,5,5.2,5.4,7.3C398.2,393.9,397.5,397.1,396.3,399.8z"/>
	<path class="st7" d="M392.1,383.4c-4.1-1-8.2-2.1-12.3-3.4c-6.1-2-16.2-5.6-28.4-12.4c-34.7-19.3-54.7-48.3-54.7-48.3
		c-19.6-28.4-25-56.7-26.4-64.8c-2.7-15.9-10.7-62.8,12-95.4c9-12.9,19.5-18.8,27-38.8c4.7-12.6,5.8-24.1,6-31.7
		c2.5,4.8,5.4,12.2,5.2,21.2c-0.3,16.6-11.5,26.9-19.2,37.1c-28.2,37.3-22.9,95.6-22.3,101.1c7.6,69.3,70.4,114.2,85.6,119.7
		c6.9,2.5,11,5,19.2,10.1c0.8,0.5,1.5,1,2.2,1.4C388.6,380.8,390.6,382.2,392.1,383.4z"/>
	<path class="st8" d="M396.4,399.8c-1.7,4-4.4,7-4.9,7.7c-5.3,6.5-12.7,8.2-17,8.8c-0.5,0.1-0.9,0.1-1.2,0.2
		c-87.5,11.9-140.8-24.7-140.8-24.7c-12.5-8.6-71.7-49.3-84.1-130.4c-9.1-59.7,12.7-106.2,19.2-119.1c2.3-4.5,24.5-47.1,60.8-67.4
		c20.6-11.6,39.5-14.6,39.5-14.6c12.1-1.9,12.6,0.2,18.2-2.3c20.9-9,18.4-39.7,34.4-43.8c0.5-0.1,0.9-0.2,1.4-0.3
		c8.5-1.3,17.6,5.5,21.9,12.6c3.8,6.3,5.9,16.5,2,21.4c-1.6,2-3.5,2.1-6.1,2.4c-1.4,0.2-3.1,0.4-5.1,1c-0.8,0.3-1.6,0.6-2.4,0.9
		c-8.8,3.9-15.6,13.5-17.8,21.5c-0.7,2.6-0.9,4.9-0.8,7c0,0.2,0,0.4,0,0.6c0,0.3,0,0.6,0.1,0.8c0,0.3,0.1,0.6,0.1,0.8
		c0,0.1,0,0.2,0.1,0.3c0,0.3,0.1,0.7,0.2,1c0.1,0.3,0.1,0.5,0.2,0.8c0.1,0.3,0.1,0.5,0.2,0.8c0.2,0.9,0.5,1.8,0.8,2.7
		c0.2,0.7,0.5,1.5,0.8,2.2c0.9,2.5,2,5,2.8,7.9c0.1,0.3,0.2,0.5,0.2,0.8c0.2,0.7,0.4,1.3,0.5,2c0,0.2,0.1,0.4,0.1,0.7
		c0.1,0.3,0.1,0.7,0.2,1c0.1,0.4,0.1,0.8,0.2,1.3c0.1,0.6,0.2,1.3,0.2,1.9c0,0.3,0.1,0.7,0.1,1c0,0.1,0,0.2,0,0.3c0,0.5,0,1,0,1.5
		v0.6c-0.3,16.6-11.5,26.9-19.2,37.1c-28.2,37.3-22.9,95.6-22.3,101.1c7.6,69.3,70.4,114.2,85.6,119.7c6.9,2.5,11,5,19.2,10.1
		c0.8,0.5,1.5,1,2.2,1.4c1.7,1.1,3.1,2.1,4.4,3c0.2,0.2,0.4,0.3,0.6,0.4c0.2,0.1,0.4,0.3,0.6,0.4c0.2,0.1,0.3,0.3,0.5,0.4
		c0,0,0,0,0,0c0.3,0.3,0.7,0.6,1,0.8s0.6,0.5,0.8,0.8c0,0,0.1,0.1,0.1,0.1c0.2,0.2,0.4,0.4,0.6,0.6c0.3,0.4,0.7,0.7,0.9,1
		c0.2,0.2,0.3,0.4,0.4,0.6c0.4,0.5,0.7,1,0.9,1.5c0.1,0.2,0.2,0.5,0.3,0.7c0.1,0.4,0.2,0.8,0.3,1.2
		C398.2,393.9,397.5,397.1,396.4,399.8z"/>
	<path class="st9" d="M391.6,383c0.2,0.1,0.3,0.3,0.5,0.4c0,0,0,0,0,0C391.9,383.3,391.7,383.2,391.6,383z"/>
	<path class="st9" d="M392.1,383.4C392.1,383.4,392.1,383.4,392.1,383.4c-0.2-0.1-0.3-0.3-0.5-0.4
		C391.7,383.2,391.9,383.3,392.1,383.4z"/>
	<path class="st10" d="M391.4,407.6c-5.3,6.5-12.7,8.2-17,8.8c-3-4.6-4.8-10.3-4.8-17.2c0-14,6.6-18.6,16.4-19.9
		c9,5.8,10.8,8.7,11.4,11.5C399.3,398.7,392.4,406.4,391.4,407.6z"/>
	<path class="st10" d="M345.8,48c-1.6,2-3.5,2.1-6.1,2.4c-11.2-2.1-19.8-13-19.8-26c0-3.7,0.7-7.2,1.9-10.4
		c8.5-1.3,17.6,5.5,21.9,12.6C347.6,32.9,349.7,43.1,345.8,48z"/>
	<path class="st0" d="M235.3,99.3c-3.4-1.7-15.7,23.4-20,32.2c-7.2,14.6-7.1,17.4-6,18.9c2.8,3.9,14.8,1.3,20-6.7
		c2.4-3.7,2.1-6.7,3-16.6C234.1,106.7,237,100.1,235.3,99.3z"/>
	<path class="st5" d="M262.3,367.8c-0.6-5.3,1.8-11.7,6-14.4c10-6.4,20.7,14.3,46,15.5c6.3,0.3,12.3-0.7,20,3.3
		c5.4,2.8,12.8,8.7,12,13.3c-1.2,6.4-17.8,7.5-22,7.8C298.9,395,264.2,385.2,262.3,367.8z"/>
	<g>
		<path class="st10" d="M374.8,396.5c-26.6-4.5-53.3-9.9-78.5-19.8c6.4,2.1,12.9,3.7,19.5,5.2c13.1,2.9,26.4,4.9,39.7,6.6
			c6.6,0.8,13.3,1.5,20,2.1L374.8,396.5L374.8,396.5z"/>
	</g>
	<g>
		<path class="st10" d="M303.3,62.6c4.5-11.8,10.9-23.2,20.1-32.1c0,0,2.6,3,2.6,3c-4.8,3.7-9.1,8.3-12.8,13.2
			C309.5,51.7,306.1,57,303.3,62.6L303.3,62.6z"/>
	</g>
	<g>
		<path class="st10" d="M216.6,297.8c6.1,11.2,12.2,22.4,19.5,32.8c4.3,6.2,9.2,12.3,14.9,17.3C235.1,337.5,223,315.3,216.6,297.8
			L216.6,297.8z"/>
	</g>
	<g>
		<path class="st10" d="M238.3,106.3c2.2-12.1,10.9-22.7,21.8-28c1.5-0.8,3.2-1.3,4.8-2c-0.7,0.5-1.5,1-2.2,1.4
			C251.9,84.4,243.2,94.5,238.3,106.3L238.3,106.3z"/>
	</g>
	<path class="st7" d="M312.3,251.3"/>
</g>
<path d="M219.5,182.3c-3.6-0.7-7.6,2.4-10.9,7.7l2.1,4.1l3,5.7l-6.5-0.3l-2.9-0.1c-0.7,2.2-1.3,4.6-1.8,7.1
	c-2.9,14.6,0.1,27.5,6.6,28.8c6.5,1.3,14.1-9.6,16.9-24.2C228.9,196.5,226,183.6,219.5,182.3z"/>
<path class="st0" d="M231.9,182.3c0,0,2,13.3-1.3,15c-9,4.7-35.2-20.3-35.2-20.3"/>
<path class="st5" d="M228.9,175.3c0,0,2,13.3-1.3,15c-9,4.7-35.2-20.3-35.2-20.3"/>
<g>
	<path d="M231.9,182.3c0.8,3.9,2.5,12.5-0.6,15.5c-2,1.3-4.7,1.1-6.8,0.5c-7.1-2.1-13-6.7-18.6-11.3c-3.7-3.1-7.2-6.4-10.4-10
		c5.7,4.4,11.3,8.9,17.2,12.9c3.9,2.6,7.9,5.2,12.4,6.6c1.3,0.4,2.7,0.7,4,0.5c0.7-0.1,1.4-0.3,1.8-0.8c1.1-1.8,1.2-4.4,1.3-6.6
		C232,187.1,232,184.7,231.9,182.3L231.9,182.3z"/>
</g>
<path d="M253.3,182.3c3.6-0.7,7.6,2.4,10.9,7.7l-2.1,4.1l-3,5.7l6.5-0.3l2.9-0.1c0.7,2.2,1.3,4.6,1.8,7.1
	c2.9,14.6-0.1,27.5-6.6,28.8c-6.5,1.3-14.1-9.6-16.9-24.2C243.8,196.5,246.8,183.6,253.3,182.3z"/>
<path class="st0" d="M242.9,182.3c0,0-2,13.3,1.3,15c9,4.7,35.2-20.3,35.2-20.3"/>
<g>
	<path d="M242.9,182.3c-0.1,2.4-0.2,4.8-0.1,7.2c0.1,2.2,0.2,4.8,1.3,6.6c0.3,0.6,1.1,0.7,1.8,0.8c1.3,0.2,2.7,0,4-0.5
		c4.4-1.4,8.5-4,12.4-6.6c5.9-4,11.5-8.4,17.2-12.9c-3.2,3.6-6.7,6.9-10.4,10c-5.6,4.6-11.6,9.2-18.6,11.3c-2.2,0.6-4.8,0.9-6.8-0.5
		C240.4,194.8,242.1,186.2,242.9,182.3L242.9,182.3z"/>
</g>
<g>
	<g>
		<path class="st5" d="M170.7,262.9c0.5-0.8,1-1.7,1.5-2.5c0.1-0.2,0.3-0.4,0.4-0.6c0.1-0.1,0.2-0.3,0.1-0.1
			c0.1-0.1,0.1-0.2,0.2-0.3c0.3-0.4,0.6-0.8,1-1.1c0.6-0.7,1.3-1.3,2-2c0.2-0.2,0.4-0.3,0.5-0.4c0.1-0.1,0.2-0.2,0.3-0.3
			c-0.2,0.1,0,0,0.1-0.1c0.4-0.3,0.8-0.6,1.2-0.8c0.7-0.4,1-1.3,0.5-2.1c-0.4-0.7-1.3-1-2.1-0.5c-3.5,2.3-6.4,5.4-8.4,9.1
			c-0.4,0.7-0.2,1.7,0.5,2.1C169.3,263.8,170.3,263.7,170.7,262.9L170.7,262.9z"/>
	</g>
</g>
<g>
	<path class="st10" d="M291.5,153.9c4.9-7.8,11-14.4,15.6-22.3C305.5,139.9,298,148.7,291.5,153.9L291.5,153.9z"/>
</g>
<g>
	<path class="st10" d="M291.5,314.4c5.8,6.7,13.8,16.2,19.9,22.5c6.9,7.2,14,14.3,22.5,19.5C317.5,349.6,300.9,329.3,291.5,314.4
		L291.5,314.4z"/>
</g>
<path class="st11" d="M177.9,234.7"/>
<path class="st12" d="M178.3,233.8c-0.3,3-0.4,3.2,0.5,4.5c1.6,2.2,4.6,1.4,7.9-0.1c4.8-2.1,10.1-5.5,12.1-2.9
	c3.4,4.3,1.9,20,10,14.5c8-5.5,13.4-15.2,18-9.5c4.6,5.7,12,15,16,9s3.3-13.8,8.2-6.9c1.5,2.1,3.3,4.4,5.1,6.2
	c3.1,5.4,3.9,10.7,2.1,15.2c-1.8,4.4-7.6,7.5-15.3,9.3c-13.4,3.1-32.8,2-47.1-3.8c-22.2-9.1-21.5-28.5-18.5-34.5L178.3,233.8z"/>
<path class="st13" d="M243.3,268.8c0,1.5-0.2,3-0.4,4.3c-13.5,3.1-32.8,2-47.1-3.8c-13.3-5.5-17.9-12.1-19.5-20.5
	c-1.1-5.6,0.9-15.2,1-14c0.1,1.2,1,2.8,1.5,3.5c1.5,2.1,4.6,1.3,7.9-0.1c6.4,5.7,12,12.8,14.6,19.6
	C208.6,276.9,243.3,248.4,243.3,268.8z"/>
<g>
	<path class="st10" d="M264.8,249.3c-1.1,9.5-11.5-2.6-13.9-5.7c-0.9-1.1-1.7-2.5-2.9-3c-0.3,0-0.5,0.6-0.7,0.9c-1.2,3-2,6.3-4,9
		c-5.5,6.3-13.3-4.4-16.8-8.3c-1.2-1.5-2.3-2.9-4.3-1.7c-4.8,2.2-13.5,15.6-19,10.9c-0.9-0.8-1.4-1.7-1.7-2.5
		c-1.6-3.8-1.7-7.9-3.1-11.6c-0.3-0.6-0.6-1.2-0.8-1.3c-0.8-0.5-2.5,0-3.5,0.4c-2.9,1.1-5.7,2.7-8.9,3.8c-1.8,0.5-3.6,1-5.5,0.2
		c-7.4-3.1,2.9-27.4,5.2-33c-1.4,4.9-9.3,28.4-4.3,31c5.7,1.6,16.7-10.9,20.4-2.2c1,2.3,1.4,4.9,2,7.2c0.5,2,0.9,4.4,2.2,5.8
		c2.6,2,12.2-10,15.8-11.3c3.3-1.7,5.8-0.3,7.8,2.5c2.2,2.5,9.5,12.8,12.9,8.7c1.9-2.5,2.7-5.5,4.1-8.4c2.1-4.2,4.9-0.3,6.4,2.1
		C254.2,245.8,263.1,258.1,264.8,249.3L264.8,249.3z"/>
</g>
<g>
	<path class="st10" d="M256.1,248.6c15.8,27.1-26.8,29.1-43.8,26.1c-11.7-1.9-24.2-5.8-31.8-15.5c-6.3-8.3-6.2-19.3-2.1-28.5
		c-3.7,10.2-2.8,21.9,5.3,29.7c7.8,7.4,18.6,10.6,29,12.2c12.5,1.8,27.8,2,39.4-3.6C260.4,265.2,260,255.9,256.1,248.6L256.1,248.6z
		"/>
</g>
<path class="st0" d="M187.1,204.3l1.2-1.4c-16-10-16.3,19.6-16.3,19.6l2.5-3C175.5,212.2,178.4,201.3,187.1,204.3z"/>
<g>
	<path class="st10" d="M172,222.4c-1.1-7.8,1.3-25.4,12.7-21.7c1.3,0.5,2.5,1.3,3.5,2.2c-2.5-1-5.2-1.8-7.5-1.1
		C174.4,204.2,173.4,216.3,172,222.4L172,222.4z"/>
</g>
<path class="st5" d="M263.8,275.3c0,4.7-7.9,18.5-22.5,18.5c-13,0-27.2-9.8-30-14.3c9.6,4.1,32.6,10.9,51.6-6
	C263.5,273.8,263.8,274.4,263.8,275.3z"/>
<g>
	<path class="st10" d="M264.8,271.8c-10.6,13-27.9,16.7-43.7,12.1c-5.1-1.5-10-3.6-14.3-6.6c10.7,4.1,22.3,6.5,33.8,5.1
		c5-0.7,9.9-2.2,14.4-4.4C258.4,276.3,261.7,274.2,264.8,271.8L264.8,271.8z"/>
</g>
<g>
	<g>
		<path class="st1" d="M150.6,461.4c0.5,5.1,2.3,9.2,2.7,9.9c0.9,1.9,3.7,7.6,10,11.1c9.6,5.2,20.2,1.3,26.6-1.1
			c6.9-2.6,11-5.9,18.8-12.2c10.6-8.6,16-13,17.2-20.5c0.1-1,1-6.8-2-12.3c-0.4-0.7-0.8-1.4-1.3-2.1c-1-1.3-3.6-4.8-7.7-5.5
			c-3.5-0.6-5.3,1.2-11.6,3.9c-5.5,2.3-9.8,3.3-14.4,4.4c-8.2,2-8.9,0.8-15.5,2.2c-8,1.8-15.7,3.5-19.9,10
			C150.7,453.1,150.2,457.5,150.6,461.4z"/>
		<path class="st2" d="M150.6,461.4c0.2,0.5,0.4,0.9,0.5,1c0.9,1.9,3.7,7.6,10,11.1c9.6,5.2,20.2,1.3,26.6-1.1
			c6.9-2.6,11-5.9,18.8-12.2c10.6-8.6,16-13,17.2-20.5c0.1-0.4,0.2-1.7,0.2-3.5c-0.4-0.7-0.8-1.4-1.3-2.1c-1-1.3-3.6-4.8-7.7-5.5
			c-3.5-0.6-5.3,1.2-11.6,3.9c-5.5,2.3-9.8,3.3-14.4,4.4c-8.2,2-8.9,0.8-15.5,2.2c-8,1.8-15.7,3.5-19.9,10
			C150.7,453.1,150.2,457.5,150.6,461.4z"/>
		<path class="st3" d="M150.6,461.4c0.5,5.1,2.3,9.2,2.7,9.9c0.9,1.9,3.7,7.6,10,11.1c9.6,5.2,20.2,1.3,26.6-1.1
			c6.9-2.6,11-5.9,18.8-12.2c10.6-8.6,16-13,17.2-20.5c0.1-1,1-6.8-2-12.3c-0.4-0.7-0.8-1.4-1.3-2.1c-1-1.3-3.6-4.8-7.7-5.5
			c-3.5-0.6-5.3,1.2-11.6,3.9c-5.5,2.3-9.8,3.3-14.4,4.4c-8.2,2-8.9,0.8-15.5,2.2c-8,1.8-15.7,3.5-19.9,10
			C150.7,453.1,150.2,457.5,150.6,461.4z"/>
		<path class="st4" d="M150.6,461.4c0.5,5.1,2.3,9.2,2.7,9.9c0.9,1.9,3.7,7.6,10,11.1c9.6,5.2,20.2,1.3,26.6-1.1
			c6.9-2.6,11-5.9,18.8-12.2c10.6-8.6,16-13,17.2-20.5c0.1-1,1-6.8-2-12.3c-0.4-0.7-0.8-1.4-1.3-2.1c-1-1.3-3.6-4.8-7.7-5.5
			c-3.5-0.6-5.3,1.2-11.6,3.9c-5.5,2.3-9.8,3.3-14.4,4.4c-8.2,2-8.9,0.8-15.5,2.2c-8,1.8-15.7,3.5-19.9,10
			C150.7,453.1,150.2,457.5,150.6,461.4z"/>
		<g>
			<path d="M195.8,449.7c-3.6-7.7-14.8-8.6-22.3-8.7c0,0-3.6,0.1-3.6,0.1l0-2.3C178.3,439.2,192.4,440.7,195.8,449.7L195.8,449.7z"
				/>
		</g>
		<g>
			<path d="M221.4,445.6c-2,4.6-5.8,8.5-10.3,10.7C214.6,452.9,218.2,449.3,221.4,445.6L221.4,445.6z"/>
		</g>
		<g>
			<path d="M179.5,475c-7.1,2.8-16.4,2.1-21.8-3.8C164.1,475.6,172,476.1,179.5,475L179.5,475z"/>
		</g>
		<path class="st1" d="M169.3,444.2c4.9,0,9.2,2.6,11.7,6.4c-1.9-0.9-3.9-1.5-6.1-1.5c-7.6,0-13.8,6.2-13.8,13.8
			c0,2.7,0.8,5.3,2.2,7.4c-4.6-2.3-7.7-7-7.7-12.4C155.4,450.4,161.6,444.2,169.3,444.2z"/>
		<g>
			<path d="M163.1,470.4c-11.3-5-10.6-21.4,0.8-25.7c6.2-2.5,13.8,0.1,17,6c-4.9-7.2-15.8-8-21.5-1.5
				C153.5,455.5,155.5,466.2,163.1,470.4L163.1,470.4z"/>
		</g>
		<ellipse class="st2" cx="201.4" cy="430.3" rx="20.5" ry="13.3"/>
		<g>
			<path d="M217.7,438.3c8.1-8.5,0.5-16.8-8.8-18.9c-5.7-1.4-12-1.2-17.5,0.8c-10,3.4-13.5,12.6-4.2,19.6c-6.5-3-9.6-10.4-4.8-16.5
				c4.2-5.3,11.1-7.5,17.6-7.8c6.5-0.2,13.4,1.3,18.4,5.8C224,426.2,224,434.1,217.7,438.3L217.7,438.3z"/>
		</g>
	</g>
	<ellipse cx="201.2" cy="428.8" rx="9.5" ry="8.2"/>
</g>
<path class="st5" d="M201.3,434c-4.5,0-8.4-3.3-8.9-7.9c-8.4-69,12.9-104.2,13.9-105.6c2.6-4.2,8.2-5.5,12.4-2.9
	c4.2,2.6,5.5,8.1,2.9,12.4c-0.3,0.6-18.8,32.1-11.3,94c0.6,4.9-2.9,9.4-7.8,10C202,434,201.7,434,201.3,434z"/>
<g>
	<path d="M221.5,330c-9.3,19.7-11.6,41.9-11.8,63.5c0,4.2,0.2,10.3,0.5,14.4c0.2,4.2,0.9,10.1,1.3,14.4c0,0,0.2,1.8,0.2,1.8
		c0.6,5-2.9,9.9-7.8,11.1c-6,1.7-12.5-2.8-13-9c-0.4-4.5-1-9.2-1.3-13.6c-1.4-21.8-0.2-44.1,5.6-65.2c2.7-9.3,5.9-18.6,11-26.9
		c-2.3,4.3-4.1,8.8-5.6,13.3c-9.9,29.5-10.3,61.4-6.7,92c1.9,10.8,17.1,7.7,14.8-3.2c-1.2-12-1.9-24.4-1.1-36.5
		c0.7-12.1,2.4-24.3,5.8-35.9C215.4,343.2,217.9,336.2,221.5,330L221.5,330z"/>
</g>
<g>
	<path class="st5" d="M107,312.1c-2.3,0-4.6-1.4-5.5-3.7c-0.3-0.8-8.2-20.2,2.3-38.6c8.6-15.1,26.6-24.6,53.4-28.4
		c3.3-0.5,6.3,1.8,6.8,5.1s-1.8,6.3-5.1,6.8c-22.9,3.2-37.8,10.7-44.5,22.3c-7.6,13.2-1.8,28-1.7,28.2c1.2,3.1-0.2,6.6-3.3,7.8
		C108.6,311.9,107.8,312.1,107,312.1z"/>
	<g>
		<path d="M158.8,253.3c-27.4,4.6-55.8,17.9-44.6,50.7c2.2,7.9-7.9,13.1-13,6.7c-0.8-0.9-1.2-2.1-1.6-3.3
			c-2.7-8.2-3.4-17.1-1.7-25.7c3.8-20,22.1-32.3,40.6-37c6.1-1.6,12.4-2.7,18.7-3.4c-8.3,1.6-16.5,3.4-24.2,6.6
			c-15.2,5.7-29.4,17.6-32.3,34.3c-1.5,8-0.8,16.4,1.7,24.1c0.7,3.5,4.5,5.5,7.5,3.2c1.6-1.2,2.2-3.6,1.3-5.5
			c-3.3-9.7-3.1-21.2,2.7-30C123.6,259.5,142.4,255.2,158.8,253.3L158.8,253.3z"/>
	</g>
</g>
<g>
	<path class="st14" d="M344,245.9c5,4.4,7.5,9.7,5.6,11.9c-1.9,2.2-6-2.6-11-7s-9-6.8-7.1-8.9C333.4,239.7,339,241.5,344,245.9z"/>
	
		<ellipse transform="matrix(0.6606 -0.7508 0.7508 0.6606 -53.2054 344.7849)" class="st14" cx="354.7" cy="231.2" rx="21.3" ry="19.3"/>
	<path class="st2" d="M376,229.6c1.1,2.6,0.7,5.2,0.2,7.1c-0.2,0.8-0.5,1.5-0.7,2c-1.2,3.1-3.1,5-4.2,6c-2,1.9-4.6,4.4-7.7,3.9
		c-1.8-0.3-2.9-1.4-3.5-2.1c-3.4-3.4-2.9-8.4-2.8-8.9c0.2-1.9,0.9-3.7,2-5.4c3.2-5.1,9.4-8.5,13.2-7
		C374.5,226.2,375.6,228.7,376,229.6z"/>
	<path class="st14" d="M351,231.2"/>
	<path class="st15" d="M376.1,236.7c-0.2,0.8-0.5,1.5-0.7,2c-1.2,3.1-3.1,5-4.2,6c-2,1.9-4.6,4.4-7.7,3.9c-1.8-0.3-2.9-1.4-3.5-2.1
		c-3.4-3.4-2.9-8.4-2.8-8.9c0.2-1.9,0.9-3.7,2-5.4c1.7-0.4,3.7,0.1,4,1c0.5,1.3-2.7,2.8-2.5,5.3c0.2,1.9,2.3,3.1,2.5,3.3
		c2.4,1.3,5.5,0.4,7.3-1c2.3-1.8,2-3.8,3.7-4.2C374.7,236.4,375.4,236.5,376.1,236.7z"/>
	<path class="st16" d="M372.3,225.3c-3.8-1.5-10,1.9-13.2,7c-1,1.7-1.8,3.5-2,5.4c-0.1,0.5-0.5,5.6,2.8,8.9c0.6,0.6,1.8,1.8,3.5,2.1
		c3.1,0.5,5.7-2,7.7-3.9c1.1-1,3-2.9,4.2-6c0.2-0.5,0.5-1.2,0.7-2c0.6-1.9,0.9-4.5-0.2-7.1C375.6,228.7,374.5,226.2,372.3,225.3z"/>
	<path class="st15" d="M340.8,239.7c0.2-2.6,8.5-6,12.6-2.9c2.5,1.9,3,5.8,2.2,6.2c-0.8,0.5-2.6-3.4-6-3.4c-3.1-0.1-4.7,3.1-7,2.3
		C341.6,241.6,340.7,240.6,340.8,239.7z"/>
	<path class="st2" d="M374.7,219.5c0,0.2,0.1,0.3,0.1,0.4c1,5.4-3.7,9.9-7.7,13.6c-2,1.8-3.4,2.7-4.9,3.2c-0.9,0.3-4.9,1.6-8-0.6
		c-2.6-1.8-3.1-5-3.2-6.1c-0.8-5,2-9.7,5.2-12.9c1-1,2-1.8,2.9-2.5c2.1-1.5,4.6-3.2,7.8-2.8C370.7,212.5,373.8,216,374.7,219.5z"/>
	<path class="st15" d="M374.7,219.5c0,0.2,0.1,0.3,0.1,0.4c1,5.4-3.7,9.9-7.7,13.6c-2,1.8-3.4,2.7-4.9,3.2c-0.9,0.3-4.9,1.6-8-0.6
		c-2.6-1.8-3.1-5-3.2-6.1c-0.8-5,2-9.7,5.2-12.9c0.7-0.3,1.5-0.5,1.9-0.1c1.4,1.2-3.4,6.6-1.6,10.4c0.9,1.9,3.7,3.5,5.9,3
		c4.4-1,4.2-9.4,9.6-10.9C373,219.3,374,219.4,374.7,219.5z"/>
	<path class="st16" d="M366.9,211.9c-3.2-0.4-5.7,1.3-7.8,2.8c-0.9,0.7-2,1.5-2.9,2.5c-3.2,3.2-6,7.8-5.2,12.9
		c0.2,1.1,0.6,4.2,3.2,6.1c3.1,2.2,7.1,0.9,8,0.6c1.5-0.5,3-1.3,4.9-3.2c4-3.7,8.7-8.2,7.7-13.6c0-0.2-0.1-0.3-0.1-0.4
		C373.8,216,370.7,212.5,366.9,211.9z"/>
	<path class="st15" d="M359.3,204.7c4.7,4.1,4.6,11.8-0.2,17.2c-4.8,5.4-12.4,6.5-17.1,2.4c-0.9-0.8-1.5-1.5-1.9-2.2
		c-1.8-3.1,0.6-6,4.4-10.5c4-4.6,8.4-9.3,12.5-8.2C357.8,203.7,358.6,204.1,359.3,204.7z"/>
	<path class="st2" d="M357.1,203.5c0.6,2.9,1.8,9.9-2.2,14.8c-1.6,2-4.4,4.1-5.6,3.4c-1.3-0.8,0.3-4.3-0.9-5.1
		c-0.8-0.5-2.9,0.3-8.2,5.6c0.3-2.2,1-6.6,4.4-10.5C348.6,207.1,353,202.4,357.1,203.5z"/>
	<path class="st16" d="M359.3,204.7c4.7,4.1,4.6,11.8-0.2,17.2c-4.8,5.4-12.4,6.5-17.1,2.4c-0.9-0.8-1.5-1.5-1.9-2.2
		c-1.8-3.1,0.6-6,4.4-10.5c4-4.6,8.4-9.3,12.5-8.2C357.8,203.7,358.6,204.1,359.3,204.7z"/>
	<path class="st17" d="M343.7,224.2c0,0-2.5-3.3,5.1-9.4"/>
	<path class="st15" d="M348.9,224.4c4.1,5.4,4.6,11.9,1.1,14.6c-2.8,2.1-7.1,1.2-10.9-1.8c-1.1-0.9-2-1.9-2.9-3
		c-4.1-5.4-4.6-11.9-1.1-14.6c1.3-1,3-1.3,4.8-1.1C343,218.9,346.4,221,348.9,224.4z"/>
	<path class="st2" d="M342.9,221.5c4.1,5.4,4.6,11.9,1.1,14.6c-1.3,1-3,1.3-4.8,1.1c-1.1-0.9-2-1.9-2.9-3
		c-4.1-5.4-4.6-11.9-1.1-14.6c1.3-1,3-1.3,4.8-1.1C341,219.3,342,220.4,342.9,221.5z"/>
	<path class="st16" d="M333.1,227.2c-0.1-1-0.7-5.5,2-7.6c1.3-1,3-1.3,4.8-1.1c3,0.4,6.4,2.6,9,5.9c4.1,5.4,4.6,11.9,1.1,14.6
		c-2.8,2.1-7.1,1.2-10.9-1.8c-1.4-1.1-2.6-2.6-2.9-3c-0.7-0.8-1.6-2.1-2.4-4.1L333.1,227.2z"/>
</g>
<g>
	<path class="st18" d="M114.3,335.7c-11.1,1.9-22.2-8.1-24.2-20.4c-2.1-12.2,5.2-23.6,16.3-25.5c11.1-1.9,21.7,6.5,23.8,18.7
		C132.2,320.8,125.4,333.9,114.3,335.7z"/>
	<path class="st19" d="M113,312.2"/>
	<path class="st18" d="M105,295c-7.3,1.2-13.6-0.2-14.1-3.2s6.4-3.2,13.7-4.5c7.3-1.2,12.2-3,12.7,0S112.3,293.8,105,295z"/>
	<path class="st2" d="M138.2,317.8c-1.5,0.9-3.2,1.2-5.1,0.7c-0.1,0-0.2,0-0.3-0.1c-2-5.2-3.6-8.4-7.2-8.3c-0.7,0-1.4,0.1-2.2,0.4
		c-3.2-5.7-3-11.9,0.7-14.3c3.1-2,7.6-0.7,11.3,2.8c1,1,2,2.1,2.8,3.4C142.1,308.4,142.1,315.3,138.2,317.8z"/>
	<path class="st2" d="M104.9,335.8c-0.3,0.3-1.8,0.8-2.2,1c-1.8,0.9-4.2,0.1-5-0.1c-2.5-0.8-4.1-2.4-5.1-3.9
		c-0.5-0.6-0.8-1.2-1.1-1.6c-1.6-2.5-1.9-4.7-2.1-5.9c-0.3-2.3-0.8-5.3,1.2-6.9c1.1-0.9,2.6-1,3.3-1"/>
	<path class="st2" d="M122.2,335.3c-0.4,1.1-1,2.2-2,3.1c-3,2.8-7.9,3-11.4,1.4c-0.1-0.1-0.3-0.1-0.4-0.2c-1.9-1-3.2-2.6-4-4.5
		c-1.4-3.2-1.7-7.2-2-10.8c-0.1-1.3-0.1-2.3,0-3.2"/>
	<path class="st2" d="M125.6,310.2c3.6-0.1,5.2,3.1,7.2,8.3c0.1,0.3,0.2,0.6,0.4,1c2.3,6,4.5,12.4,1.5,15.7
		c-0.6,0.6-1.3,1.1-2.2,1.4c-3.4,1.3-7,0.7-10.1-1.3c-2.5-1.6-4.6-4.2-5.8-7.4c-0.9-2.3-1.2-4.7-1-6.9"/>
	<g>
		<path d="M103.7,336c0.8-0.2,0.2,0.3-0.1,0.4c-1.4,1.1-3.2,1.5-5,1.1c-5.8-0.8-9.7-6.6-10.2-12.1c-0.2-2.1-0.5-4.3,0.7-6.3
			c0.9-1.4,2.3-2,3.8-1.4c-2.8,0.1-3.5,3.1-3,5.5c0.5,6.4,5.4,14.6,12.7,13.3C102.8,336.5,104.8,335.9,103.7,336L103.7,336z"/>
	</g>
	<path class="st2" d="M138,317.9c-1.4,0.9-3.1,1-4.9,0.6c-0.1,0-0.2,0-0.3-0.1c-1.5-3.8-2.7-6.5-4.6-7.7c1.3-0.9,3.1-1.2,4.5-0.7
		c1.2,0.4,2.1,1.8,4.1,4.6c0.8,1.2,1.2,2,1.3,3C138,317.7,138,317.8,138,317.9z"/>
	<path class="st15" d="M138,317.9c-1.4,0.9-3.1,1-4.9,0.6c-0.1,0-0.2,0-0.3-0.1c-1.5-3.8-2.7-6.5-4.6-7.7c1.3-0.9,3.1-1.2,4.5-0.7
		c1.2,0.4,2.1,1.8,4.1,4.6c0.8,1.2,1.2,2,1.3,3C138,317.7,138,317.8,138,317.9z"/>
	<path class="st20" d="M123.1,297c3.1-2,8.6-1.5,12.3,2c1,1,2,2.1,2.8,3.4c3.9,6,3.9,12.9,0,15.4c-1.5,0.9-3.2,1.2-5.1,0.7
		c-0.1,0-0.2,0-0.3-0.1"/>
	<path class="st15" d="M120.7,337.8c-1,0-2.1-0.3-3-0.8c-2.9-1.7-3.9-5.5-2.2-8.4c0.2-0.4,0.5-0.7,0.8-1c0,0.1,0.1,0.2,0.1,0.4
		c1.2,3.2,3.3,5.8,5.8,7.4C121.9,336.2,121.4,337,120.7,337.8z"/>
	<path class="st3" d="M102.7,327.4c0.3,3.6,0.3,4.4,1.7,7.5c0.9,1.9,2.1,3.5,4,4.5c0.1,0.1,0.3,0.1,0.4,0.2
		c3.5,1.7,8.4,1.4,11.4-1.4c0.2-0.2,0.4-0.4,0.5-0.6"/>
	<g>
		<path d="M125.6,310.2c5-0.5,6.7,5.7,8.3,9.2c2.3,5.5,6.4,15.8-1.9,18.3c-6.9,2.1-14.1-3.3-15.7-9.8c2.7,5.7,8.9,10,15.1,8
			c6.7-2.1,2.3-11.3,1-15.9C131,316.3,130.3,310.6,125.6,310.2L125.6,310.2z"/>
	</g>
	<path class="st15" d="M104.8,335.8c-1.5,0.9-3.5,0.9-5.1,0c-2.5-1.4-3.3-4.6-1.9-7.1c1-1.7,2.9-2.6,4.7-2.6c0.3,3,0.7,6.2,1.9,8.8
		C104.5,335.3,104.6,335.5,104.8,335.8z"/>
	<g>
		<path d="M122.2,335.3c-1.1,5.7-8.2,7.7-13.1,5.7c-4.1-1.5-6.2-5.6-6.6-9.6c-0.1-1.3,0-2.6,0.2-3.9c0.4,1.2,0.6,2.5,0.9,3.7
			c1.2,3.2,2.8,6.7,6.2,8C114.2,340.8,120,339.7,122.2,335.3L122.2,335.3z"/>
	</g>
</g>
</svg>
