<svg version="1.1" id="Layer_1" xmlns="http://www.w3.org/2000/svg" xmlns:xlink="http://www.w3.org/1999/xlink" x="0px" y="0px"
	 viewBox="0 0 500 500" style="enable-background:new 0 0 500 500;" xml:space="preserve">
<style type="text/css">
	.st0{fill:#CCCAC8;}
	.st1{fill:#FFFFFF;}
	.st2{fill:none;}
	.st3{fill:none;stroke:#000000;stroke-width:3;stroke-miterlimit:10;}
	.st4{fill:#D17315;}
	.st5{fill:#FF931E;}
	.st6{fill:#F7A654;}
	.st7{fill:none;stroke:#000000;stroke-width:6;stroke-miterlimit:10;}
	.st8{fill:#EA8124;}
	.st9{fill:#140101;}
	.st10{fill:#74C610;}
	.st11{fill:#4E8A2A;}
	.st12{fill:#A0D37F;}
	.st13{fill:#A84C0E;}
	.st14{fill:#E8E2E2;}
</style>
<g>
	<g>
		<path class="st0" d="M359.8,459.5c0.5,5.1-0.6,9.5-0.8,10.2c-0.6,2.1-2.2,8.2-7.8,12.7c-8.5,6.9-19.6,4.9-26.3,3.7
			c-7.3-1.3-11.9-3.8-20.7-8.6c-12-6.5-18.1-9.9-20.6-17c-0.3-0.9-2.2-6.5-0.3-12.5c0.2-0.8,0.5-1.5,0.9-2.3
			c0.7-1.5,2.7-5.4,6.6-6.8c3.3-1.2,5.5,0.2,12.1,1.7c5.8,1.3,10.2,1.5,14.9,1.7c8.5,0.4,8.9-0.9,15.6-0.6
			c8.2,0.3,16.1,0.6,21.4,6.2C358.2,451.4,359.4,455.7,359.8,459.5z"/>
		<path class="st1" d="M359.8,459.5c-0.1,0.5-0.2,0.9-0.3,1.1c-0.6,2.1-2.2,8.2-7.8,12.7c-8.5,6.9-19.6,4.9-26.3,3.7
			c-7.3-1.3-11.9-3.8-20.7-8.6c-12-6.5-18.1-9.9-20.6-17c-0.1-0.4-0.5-1.6-0.8-3.4c0.2-0.8,0.5-1.5,0.9-2.3c0.7-1.5,2.7-5.4,6.6-6.8
			c3.3-1.2,5.5,0.2,12.1,1.7c5.8,1.3,10.2,1.5,14.9,1.7c8.5,0.4,8.9-0.9,15.6-0.6c8.2,0.3,16.1,0.6,21.4,6.2
			C358.2,451.4,359.4,455.7,359.8,459.5z"/>
		<path class="st2" d="M359.8,459.5c0.5,5.1-0.6,9.5-0.8,10.2c-0.6,2.1-2.2,8.2-7.8,12.7c-8.5,6.9-19.6,4.9-26.3,3.7
			c-7.3-1.3-11.9-3.8-20.7-8.6c-12-6.5-18.1-9.9-20.6-17c-0.3-0.9-2.2-6.5-0.3-12.5c0.2-0.8,0.5-1.5,0.9-2.3
			c0.7-1.5,2.7-5.4,6.6-6.8c3.3-1.2,5.5,0.2,12.1,1.7c5.8,1.3,10.2,1.5,14.9,1.7c8.5,0.4,8.9-0.9,15.6-0.6
			c8.2,0.3,16.1,0.6,21.4,6.2C358.2,451.4,359.4,455.7,359.8,459.5z"/>
		<path class="st3" d="M359.8,459.5c0.5,5.1-0.6,9.5-0.8,10.2c-0.6,2.1-2.2,8.2-7.8,12.7c-8.5,6.9-19.6,4.9-26.3,3.7
			c-7.3-1.3-11.9-3.8-20.7-8.6c-12-6.5-18.1-9.9-20.6-17c-0.3-0.9-2.2-6.5-0.3-12.5c0.2-0.8,0.5-1.5,0.9-2.3
			c0.7-1.5,2.7-5.4,6.6-6.8c3.3-1.2,5.5,0.2,12.1,1.7c5.8,1.3,10.2,1.5,14.9,1.7c8.5,0.4,8.9-0.9,15.6-0.6
			c8.2,0.3,16.1,0.6,21.4,6.2C358.2,451.4,359.4,455.7,359.8,459.5z"/>
		<g>
			<path d="M313.2,456.2c1.7-9.5,15.3-13.6,23.5-15.5c0,0,0.4,2.3,0.4,2.3l-3.6,0.6C326.2,445.1,315.3,448.1,313.2,456.2
				L313.2,456.2z"/>
		</g>
		<g>
			<path d="M287.3,456.9c3.9,3,8,5.9,12,8.7C294.5,464.1,290,461.1,287.3,456.9L287.3,456.9z"/>
		</g>
		<g>
			<path d="M333.8,478.2c7.6-0.3,15.3-2.2,20.8-7.7C350.3,477.2,341.3,479.6,333.8,478.2L333.8,478.2z"/>
		</g>
		<path class="st0" d="M338.3,446c-4.8,0.9-8.6,4.2-10.3,8.4c1.7-1.2,3.6-2.1,5.8-2.5c7.5-1.4,14.7,3.6,16.1,11.1
			c0.5,2.7,0.2,5.3-0.8,7.7c4.1-3.1,6.3-8.2,5.3-13.6C353,449.6,345.8,444.6,338.3,446z"/>
		<g>
			<path d="M349.1,470.7c6.8-5.5,6.8-16.4-0.2-21.6c-6.8-5.4-17.3-2.6-20.9,5.3c2.1-6.3,9.1-10.3,15.6-8.9
				C355.7,447.7,359.3,463.7,349.1,470.7L349.1,470.7z"/>
		</g>
		
			<ellipse transform="matrix(0.9835 -0.1812 0.1812 0.9835 -74.3525 62.3657)" class="st1" cx="304.2" cy="438.2" rx="20.5" ry="13.3"/>
		<g>
			<path d="M289.6,449c-7-3-8.4-10.8-3.7-16.6c4.1-5.2,10.6-8,17-9c6.5-0.8,13.6,0,18.7,4.5c5.8,5.1,4.1,13-1.8,17.1
				c7.8-8.6,2.7-17-7.7-18.6c-5.8-1-12,0-17.4,2.4C286.1,432.6,280.1,442.1,289.6,449L289.6,449z"/>
		</g>
	</g>
	<ellipse transform="matrix(0.9835 -0.1812 0.1812 0.9835 -74.0785 62.3162)" cx="304.1" cy="436.7" rx="9.5" ry="8.2"/>
	<path class="st4" d="M305.5,442.9c-1,0.2-1.9,0.2-3,0c-4.9-0.7-8.3-5.3-7.6-10.2c6.1-41.3-9.7-63.5-9.9-63.7
		c-2.9-4-2.1-9.6,1.9-12.6c4-2.9,9.6-2.1,12.6,1.9c0.8,1.1,20.4,28.5,13.2,77C312.2,439.2,309.2,442.2,305.5,442.9z"/>
	<g>
		<path d="M299.6,358.3c10.9,14.7,15.4,33.5,16.5,51.5c0.1,2.6,0.1,5.6,0.1,8.3c-0.1,1.7-0.3,6.4-0.4,8.2c-0.3,2.9-0.7,6-1,8.9
			c-0.8,8-10.2,12.4-16.8,7.9c-3.5-2.2-5.5-6.6-4.8-10.7c2.2-14.3,2.5-29.1-0.7-43.3c-1.6-7-3.7-13.9-7.3-20.2
			c4.3,5.9,7.1,12.8,9.2,19.7c4.2,14.1,4.5,29.1,2.6,43.7c-0.2,1.4-0.2,3,0.4,4.3c3.1,7,13.3,5,13.6-2.7c0.5-4.1,1.1-9.2,1.3-13.3
			c0.1-1.4,0.2-3.9,0.2-5.4C312.8,395.7,309.5,375.5,299.6,358.3L299.6,358.3z"/>
	</g>
</g>
<g>
	<g>
		<path class="st0" d="M147.5,457.8c-0.5,5.1,0.6,9.5,0.8,10.2c0.6,2.1,2.2,8.2,7.8,12.7c8.5,6.9,19.6,4.9,26.3,3.7
			c7.3-1.3,11.9-3.8,20.7-8.6c12-6.5,18.1-9.9,20.6-17c0.3-0.9,2.2-6.5,0.3-12.5c-0.2-0.8-0.5-1.5-0.9-2.3c-0.7-1.5-2.7-5.4-6.6-6.8
			c-3.3-1.2-5.5,0.2-12.1,1.7c-5.8,1.3-10.2,1.5-14.9,1.7c-8.5,0.4-8.9-0.9-15.6-0.6c-8.2,0.3-16.1,0.6-21.4,6.2
			C149.1,449.6,147.9,453.9,147.5,457.8z"/>
		<path class="st1" d="M147.5,457.8c0.1,0.5,0.2,0.9,0.3,1.1c0.6,2.1,2.2,8.2,7.8,12.7c8.5,6.9,19.6,4.9,26.3,3.7
			c7.3-1.3,11.9-3.8,20.7-8.6c12-6.5,18.1-9.9,20.6-17c0.1-0.4,0.5-1.6,0.8-3.4c-0.2-0.8-0.5-1.5-0.9-2.3c-0.7-1.5-2.7-5.4-6.6-6.8
			c-3.3-1.2-5.5,0.2-12.1,1.7c-5.8,1.3-10.2,1.5-14.9,1.7c-8.5,0.4-8.9-0.9-15.6-0.6c-8.2,0.3-16.1,0.6-21.4,6.2
			C149.1,449.6,147.9,453.9,147.5,457.8z"/>
		<path class="st2" d="M147.5,457.8c-0.5,5.1,0.6,9.5,0.8,10.2c0.6,2.1,2.2,8.2,7.8,12.7c8.5,6.9,19.6,4.9,26.3,3.7
			c7.3-1.3,11.9-3.8,20.7-8.6c12-6.5,18.1-9.9,20.6-17c0.3-0.9,2.2-6.5,0.3-12.5c-0.2-0.8-0.5-1.5-0.9-2.3c-0.7-1.5-2.7-5.4-6.6-6.8
			c-3.3-1.2-5.5,0.2-12.1,1.7c-5.8,1.3-10.2,1.5-14.9,1.7c-8.5,0.4-8.9-0.9-15.6-0.6c-8.2,0.3-16.1,0.6-21.4,6.2
			C149.1,449.6,147.9,453.9,147.5,457.8z"/>
		<path class="st3" d="M147.5,457.8c-0.5,5.1,0.6,9.5,0.8,10.2c0.6,2.1,2.2,8.2,7.8,12.7c8.5,6.9,19.6,4.9,26.3,3.7
			c7.3-1.3,11.9-3.8,20.7-8.6c12-6.5,18.1-9.9,20.6-17c0.3-0.9,2.2-6.5,0.3-12.5c-0.2-0.8-0.5-1.5-0.9-2.3c-0.7-1.5-2.7-5.4-6.6-6.8
			c-3.3-1.2-5.5,0.2-12.1,1.7c-5.8,1.3-10.2,1.5-14.9,1.7c-8.5,0.4-8.9-0.9-15.6-0.6c-8.2,0.3-16.1,0.6-21.4,6.2
			C149.1,449.6,147.9,453.9,147.5,457.8z"/>
		<g>
			<path d="M194.1,454.5c-2.1-8.2-13-11.1-20.3-12.6c0,0-3.6-0.6-3.6-0.6l0.4-2.3C178.8,440.9,192.4,444.9,194.1,454.5L194.1,454.5z
				"/>
		</g>
		<g>
			<path d="M220,455.1c-2.8,4.2-7.2,7.3-12,8.7C212,460.9,216.2,458.1,220,455.1L220,455.1z"/>
		</g>
		<g>
			<path d="M173.5,476.4c-7.5,1.4-16.5-1-20.8-7.6C158.2,474.2,165.9,476.1,173.5,476.4L173.5,476.4z"/>
		</g>
		<path class="st0" d="M169,444.2c4.8,0.9,8.6,4.2,10.3,8.4c-1.7-1.2-3.6-2.1-5.8-2.5c-7.5-1.4-14.7,3.6-16.1,11.1
			c-0.5,2.7-0.2,5.3,0.8,7.7c-4.1-3.1-6.3-8.2-5.3-13.6C154.3,447.8,161.5,442.8,169,444.2z"/>
		<g>
			<path d="M158.2,468.9c-10.2-6.9-6.6-22.9,5.5-25.2c6.5-1.3,13.6,2.6,15.6,8.9c-3.6-8-14.1-10.7-20.9-5.3
				C151.4,452.5,151.5,463.4,158.2,468.9L158.2,468.9z"/>
		</g>
		
			<ellipse transform="matrix(0.1812 -0.9835 0.9835 0.1812 -262.8991 557.0686)" class="st1" cx="203.1" cy="436.4" rx="13.3" ry="20.5"/>
		<g>
			<path d="M217.7,447.2c9.5-6.9,3.5-16.4-5.2-20.2c-5.4-2.4-11.6-3.4-17.4-2.4c-10.4,1.6-15.5,10-7.7,18.6
				c-5.9-4.1-7.6-12-1.8-17.1c5.1-4.5,12.3-5.3,18.7-4.5c6.4,1,13,3.8,17,9C226.1,436.4,224.7,444.2,217.7,447.2L217.7,447.2z"/>
		</g>
	</g>
	<ellipse transform="matrix(0.1812 -0.9835 0.9835 0.1812 -261.2901 555.9516)" cx="203.2" cy="434.9" rx="8.2" ry="9.5"/>
	<path class="st4" d="M201.8,441.1c1,0.2,1.9,0.2,3,0c4.9-0.7,8.3-5.3,7.6-10.2c-6.1-41.3,9.7-63.5,9.9-63.7c2.9-4,2.1-9.6-1.9-12.6
		c-4-2.9-9.6-2.1-12.6,1.9c-0.8,1.1-20.4,28.5-13.2,77C195.1,437.4,198.1,440.4,201.8,441.1z"/>
	<g>
		<path d="M207.7,356.5c-9.8,17.2-13.2,37.4-12.9,57c0,1.4,0.1,3.9,0.2,5.4c0.2,4.2,0.8,9.2,1.3,13.3c0.3,7.6,10.5,9.7,13.6,2.7
			c0.6-1.4,0.6-2.9,0.4-4.3c-1.9-14.5-1.5-29.5,2.6-43.7c2.1-7,4.9-13.9,9.2-19.7c-3.6,6.3-5.8,13.2-7.3,20.2
			c-3.2,14.2-2.8,29-0.7,43.3c0.6,4.1-1.3,8.4-4.8,10.7c-6.7,4.5-16.1,0.1-16.8-7.9c-0.3-2.9-0.7-6-1-8.9c-0.1-1.8-0.3-6.5-0.4-8.2
			c0.1-2.7,0-5.6,0.1-8.3C192.3,390,196.8,371.3,207.7,356.5L207.7,356.5z"/>
	</g>
</g>
<path class="st5" d="M413,253.8c0,92.5-64.5,155-157,155s-171-63-171-155.5s62.5-152.5,155-152.5S413,161.3,413,253.8z"/>
<path class="st4" d="M278,383.8c-92.5,0-171-63-171-155.5c0-35.5,9.2-66.2,25.7-90.5C102.6,164.4,85,204.3,85,253.3
	c0,92.5,78.5,155.5,171,155.5c56.9,0,103.1-23.6,130.3-63.3C359,369.9,321.7,383.8,278,383.8z"/>
<path class="st6" d="M240,100.8c-35.6,0-66.8,8.9-91.6,25.1c21.8-10.5,47.3-16.1,75.6-16.1c92.5,0,173,60.5,173,153
	c0,57.3-24.8,103.2-65.7,129.7c50.3-24.3,81.7-74.2,81.7-138.7C413,161.3,332.5,100.8,240,100.8z"/>
<path class="st7" d="M413,253.8c0,92.5-64.5,155-157,155s-171-63-171-155.5s62.5-152.5,155-152.5S413,161.3,413,253.8z"/>
<path class="st6" d="M219.6,366.5c-4.5,2.8-10.3,1.4-13.1-3.1c-0.6-1-1.1-2.2-1.3-3.3c-1,2.7-0.8,5.7,0.8,8.3
	c2.8,4.5,8.6,5.8,13.1,3.1c3.4-2.1,5-6,4.4-9.8C222.8,363.7,221.4,365.4,219.6,366.5z"/>
<path class="st6" d="M193.6,356.2c-5.2,0.5-9.9-3.4-10.3-8.6c-0.1-1.2,0-2.4,0.3-3.5c-2.1,1.9-3.2,4.8-3,7.8
	c0.5,5.2,5.1,9.1,10.3,8.6c4-0.4,7.2-3.2,8.2-6.8C197.8,355,195.8,356,193.6,356.2z"/>
<path class="st6" d="M172.8,339.6c-5.2,0.5-9.9-3.4-10.3-8.6c-0.1-1.2,0-2.4,0.3-3.5c-2.1,1.9-3.2,4.8-3,7.8
	c0.5,5.2,5.1,9.1,10.3,8.6c4-0.4,7.2-3.2,8.2-6.8C176.9,338.5,175,339.4,172.8,339.6z"/>
<path class="st6" d="M392.7,298.7c1.1,5.1-2.2,10.2-7.3,11.3c-1.2,0.3-2.4,0.3-3.6,0.1c2.2,1.8,5.1,2.7,8.1,2
	c5.1-1.1,8.4-6.2,7.3-11.3c-0.8-3.9-4-6.7-7.7-7.4C391.1,294.8,392.3,296.6,392.7,298.7z"/>
<path class="st6" d="M379.4,323.7c-1.3,5.1-6.5,8.2-11.5,6.9c-1.2-0.3-2.3-0.8-3.2-1.5c1.1,2.6,3.4,4.7,6.4,5.4
	c5.1,1.3,10.3-1.8,11.5-6.9c1-3.9-0.6-7.8-3.7-10C379.7,319.4,380,321.5,379.4,323.7z"/>
<path class="st6" d="M363.1,344.2c-1.3,5.1-6.5,8.2-11.5,6.9c-1.2-0.3-2.3-0.8-3.2-1.5c1.1,2.6,3.4,4.7,6.4,5.4
	c5.1,1.3,10.3-1.8,11.5-6.9c1-3.9-0.6-7.8-3.7-10C363.4,339.9,363.6,342.1,363.1,344.2z"/>
<path class="st4" d="M353.9,167.1c5.2,0.8,8.7,5.7,7.9,10.9c-0.2,1.2-0.6,2.3-1.2,3.3c2.5-1.4,4.3-3.8,4.8-6.8
	c0.8-5.2-2.7-10.1-7.9-10.9c-4-0.6-7.7,1.3-9.7,4.5C349.6,167.2,351.7,166.7,353.9,167.1z"/>
<path class="st4" d="M339.7,152.7c5.1-1.1,10.2,2.2,11.2,7.4c0.3,1.2,0.3,2.4,0.1,3.6c1.8-2.2,2.7-5.1,2.1-8.1
	c-1.1-5.1-6.1-8.4-11.2-7.4c-3.9,0.8-6.8,4-7.4,7.7C335.7,154.3,337.5,153.1,339.7,152.7z"/>
<path class="st4" d="M122.3,177c-1.7-5,1-10.4,6-12c1.2-0.4,2.4-0.5,3.5-0.5c-2.4-1.6-5.4-2.1-8.3-1.1c-5,1.7-7.7,7-6,12
	c1.3,3.8,4.7,6.3,8.5,6.5C124.3,180.8,123,179.1,122.3,177z"/>
<path class="st4" d="M116.1,196.3c-3.3-4.1-2.7-10,1.3-13.4c1-0.8,2-1.3,3.1-1.7c-2.8-0.6-5.8,0-8.1,1.9c-4.1,3.3-4.7,9.3-1.3,13.4
	c2.5,3.1,6.6,4.2,10.2,3C119.4,199,117.5,198,116.1,196.3z"/>
<path class="st4" d="M322.6,141.1c5.1-1.1,10.2,2.2,11.2,7.4c0.3,1.2,0.3,2.4,0.1,3.6c1.8-2.2,2.7-5.1,2.1-8.1
	c-1.1-5.1-6.1-8.4-11.2-7.4c-3.9,0.8-6.8,4-7.4,7.7C318.6,142.7,320.5,141.6,322.6,141.1z"/>
<path class="st8" d="M258,126.3c0,0.5-0.1,0.9-0.2,1.3c-23.4,5.8-41.8,2.6-52.8-1c0-0.1,0-0.2,0-0.4c0-5.8,11.9-10.5,26.5-10.5
	S258,120.5,258,126.3z"/>
<g>
	<path d="M270,122.9c-20.1,11.7-46.3,14-67.5,4.1c-3-1.5-5.9-3.1-8.5-5.3c3.1,1.2,6.2,2.2,9.3,3C225.3,130.7,248.1,128.3,270,122.9
		L270,122.9z"/>
</g>
<path d="M210.6,191.9c-6.6-0.3-12.6,12.1-15,29.2l19.1,12.1l-20,10.5c1,17.2,6.1,30,12.7,30.3c8,0.3,15.1-17.8,16-40.5
	S218.5,192.2,210.6,191.9z"/>
<path d="M283.8,192.5c6.6-0.1,12.2,12.5,14.1,29.7l-19.5,11.5l19.7,11.1c-1.6,17.2-7,29.8-13.6,29.8c-8,0.1-14.6-18.3-14.8-40.9
	C269.5,211,275.8,192.6,283.8,192.5z"/>
<path class="st5" d="M173.4,193c0,0,30.4,20.3,55,19.2s3.5-21.4,3.5-21.4"/>
<path class="st5" d="M320.9,194.8c0,0-31,19.3-55.6,17.4c-24.6-1.9-2.8-21.5-2.8-21.5"/>
<g>
	<path class="st9" d="M173.4,193c17.2,7.8,39.4,18.3,58.5,16.6c2.4-0.4,4.7-0.8,6.2-2.6c2.7-4.5-3.4-12.4-6.1-16.3
		c5.8,4.3,15.1,14.7,6.7,20.9c-4.6,3-9.9,2.9-15.1,3c0,0-3-0.2-3-0.2C203.2,212.3,186.7,203.9,173.4,193L173.4,193z"/>
</g>
<g>
	<path class="st9" d="M320.9,194.8c-13.6,10.5-30.4,18.4-47.8,19.8c0,0-3,0.2-3,0.2c-5.2-0.2-10.5-0.3-15-3.4
		c-8.2-6.4,1.5-16.5,7.4-20.6c-2.8,3.8-9.2,11.6-6.6,16.1c1.4,1.9,3.7,2.3,6.1,2.8C281,211.8,303.4,202,320.9,194.8L320.9,194.8z"/>
</g>
<g>
	<path d="M149,226.8c0.5,46.7,37.4,87.1,81.9,97.6c53.3,13.3,108-21.3,107.8-78.7c0.1-6.6-0.4-13.3-1.8-19.8
		c4.4,12.8,5.2,26.7,3.3,40.1c-4.9,35.4-35.5,62-69.9,67.9C208.7,344.8,142.3,291,149,226.8L149,226.8z"/>
</g>
<path class="st4" d="M288.5,344.8c-0.7,4-11.1,7-33,7c-22.6,0-33-1.8-33-6.1c0-0.1,0-0.1,0-0.2c6.3-2.5,16.5-4.7,32.4-4.2
	C270.3,341.7,281.2,343.3,288.5,344.8z"/>
<g>
	<path d="M301,348.7c-14.4-4.6-29.8-5.1-44.8-5.8c-13-0.3-26.7-0.2-38.6,5.5c-1.7,0.9-3.3,1.9-4.6,3.2c1.1-1.6,2.6-2.8,4.2-4
		c14.8-9.3,33.8-8.4,50.5-7.1C279.1,341.8,290.8,343.3,301,348.7L301,348.7z"/>
</g>
<g>
	<path class="st4" d="M347.4,229.2c-1.9-3.2-4.1-6.2-6.7-8c-4.3-3.1-10,4.5-13.8,11.1c-0.7-2.7-1-5.7-0.9-8.9c0-1.1,0.1-2.2,0.3-3.2
		c0,0,0,0,0,0c3.8-6.7,9.6-14.7,14.1-11.6c2.8,2,5.3,5.4,7.2,8.9c0.4,2.1,0.5,4.3,0.4,6.6C347.9,225.8,347.7,227.6,347.4,229.2z"/>
	<g>
		<path d="M352.4,228.5c-1.7-3.3-3.4-6.4-5.3-9.5c-2.3-3.5-4.7-7.4-8.2-9.5c-4.2-1.1-10,8.7-11.8,10.9c0,0,0,0,0,0l-0.1,0.2l0,0
			l-2.4,3.7l-2.4,3.7c0.7-2.7,2.3-6.5,3.2-8.3c2.8-5.7,9.9-18.4,17.2-11.1C348.1,214.1,350.8,221.2,352.4,228.5L352.4,228.5z"/>
	</g>
</g>
<path class="st4" d="M158.8,224.3c-2.7-2.5-5.7-4.7-8.7-5.8c-5-1.7-8.3,7.2-10,14.6c-1.4-2.4-2.6-5.2-3.5-8.3
	c-0.3-1.1-0.5-2.1-0.7-3.1c0,0,0,0,0,0c1.7-7.5,5-16.9,10.1-15.1c3.3,1.1,6.6,3.7,9.5,6.5c0.9,1.9,1.7,4,2.3,6.2
	C158.4,220.9,158.7,222.6,158.8,224.3z"/>
<g>
	<path d="M163.4,222.1c-2.5-2.6-5.1-5.2-7.8-7.6c-3.2-2.7-6.7-5.7-10.6-6.7c-4.4,0.1-7.1,11.1-8.2,13.9c0,0,0,0.2,0,0.2l0,0
		l-1.2,4.2l-1.2,4.2c-0.1-2.8,0.4-6.9,0.7-8.9c1.1-6.2,4.2-20.5,13.3-15.5C155.2,209.6,159.8,215.6,163.4,222.1L163.4,222.1z"/>
</g>
<g>
	<path class="st10" d="M231.7,54.7c-12.5,27.2,9.4,53.6,9.4,53.6s35.1-0.1,47.6-27.3S278,9.7,278,9.7S244.2,27.5,231.7,54.7z"/>
	<polygon class="st11" points="241.9,101.5 233.8,65.6 245.1,92.6 253,63 252.6,39.2 258.6,59 270.7,28.6 252,82.8 250.3,86.4 
		269.8,75.6 	"/>
	<path class="st11" d="M278,9.7c0,0,1,1.9,2.4,5.1c-10.4,6.6-30.3,21.6-39.8,41.2c-8.1,16.6-0.7,29.7,4.6,36.1
		c0.9,1,0.8,2.5-0.1,3.5c-3,3.4-4,12.7-4,12.7s-21.9-26.4-9.4-53.6S278,9.7,278,9.7z"/>
	<polygon points="243.6,109.2 271.8,26.3 238.7,107.4 243.6,109.2 	"/>
	<polygon points="277.3,70.9 248.3,86.1 249.6,88.3 277.3,70.9 	"/>
	<polygon points="259.4,62.8 252.8,39.8 256.9,63.4 259.4,62.8 	"/>
	<polygon points="246.6,94.6 238.2,75.7 244.1,95.5 246.6,94.6 	"/>
	<path class="st3" d="M231.7,54.7c-12.5,27.2,9.4,53.6,9.4,53.6s35.1-0.1,47.6-27.3S278,9.7,278,9.7S244.2,27.5,231.7,54.7z"/>
	<path class="st12" d="M284.1,38.6c0,0,8.1,23.6,4.5,31.4S277,56.1,284.1,38.6z"/>
</g>
<path class="st13" d="M235.7,130.3c7.4-13.2,10.4-30.6,7.1-45.8c-1.6-7.8-6-14-11.2-17.8c-1-0.7-2.1-1.3-3.3-1.8
	c0,0-0.4,0.6-0.4,0.6c0.6,1.4,1.2,2.6,1.9,3.8c1.2,2.4,2.4,4.8,3.5,7.3c1.6,3.5,3,7.2,4.3,10.9c2.8,7.5,3.1,16.6,2,25.1
	c-0.8,5.9-2.2,11.8-4.3,17.4L235.7,130.3L235.7,130.3z"/>
<path class="st3" d="M235.7,130.3c7.4-13.2,10.4-30.6,7.1-45.8c-1.6-7.8-6-14-11.2-17.8c-1-0.7-2.1-1.3-3.3-1.8c0,0-0.4,0.6-0.4,0.6
	c0.6,1.4,1.2,2.6,1.9,3.8c1.2,2.4,2.4,4.8,3.5,7.3c1.6,3.5,3,7.2,4.3,10.9c2.8,7.5,3.1,16.6,2,25.1c-0.8,5.9-2.2,11.8-4.3,17.4
	L235.7,130.3L235.7,130.3z"/>
<g>
	<path class="st10" d="M210.4,60.3c-1.3,29.9,29,46,29,46s32.4-13.4,33.7-43.3s-37-61.8-37-61.8S211.7,30.4,210.4,60.3z"/>
	<polygon class="st11" points="237.6,99.8 216.5,69.6 237.1,90.3 233.2,60 223.8,38.1 236.9,54.1 236.6,21.4 239.8,78.6 239.6,82.6 
		253.6,65.2 	"/>
	<path class="st11" d="M236.1,1.1c0,0,1.6,1.4,4.2,3.8c-7.1,10.1-19.8,31.5-21.2,53.2c-1.2,18.5,10.6,27.7,18,31.7
		c1.2,0.6,1.7,2,1.2,3.3c-1.5,4.3,1.1,13.2,1.1,13.2s-30.3-16.1-29-46S236.1,1.1,236.1,1.1z"/>
	<polygon points="242,106.2 236.7,18.8 236.9,106.4 242,106.2 	"/>
	<polygon points="258.7,58 237.6,83.1 239.7,84.7 258.7,58 	"/>
	<polygon points="239.1,57.3 224.2,38.5 237,58.8 239.1,57.3 	"/>
	<polygon points="239.3,91.6 224.3,77.3 237.4,93.4 239.3,91.6 	"/>
	<path class="st3" d="M210.4,60.3c-1.3,29.9,29,46,29,46s32.4-13.4,33.7-43.3s-37-61.8-37-61.8S211.7,30.4,210.4,60.3z"/>
	<path class="st12" d="M252.8,25.5c0,0,16.4,18.8,16.1,27.4S252.8,44.5,252.8,25.5z"/>
</g>
<g>
	<path class="st10" d="M190.1,89.4c18.6,23.4,52.1,15.7,52.1,15.7s15.7-31.4-3-54.8s-68.4-22.5-68.4-22.5S171.4,66,190.1,89.4z"/>
	<polygon class="st11" points="236.4,101.4 200.7,92.5 229.9,94.6 207.1,74.2 185.6,63.8 206,67.4 184.3,42.9 224.3,84 226.7,87.1 
		225.9,64.8 	"/>
	<path class="st11" d="M170.7,27.9c0,0,2.1,0,5.6,0.1c1.2,12.3,5.7,36.8,18.8,54.1c11.2,14.7,26.2,14,34.3,12.2
		c1.3-0.3,2.6,0.4,3.1,1.7c1.7,4.2,9.5,9.3,9.5,9.3s-33.4,7.7-52.1-15.7S170.7,27.9,170.7,27.9z"/>
	<polygon points="244,103.4 182.7,40.9 240.2,106.9 244,103.4 	"/>
	<polygon points="225.1,56.1 225.6,88.8 228.2,88.6 225.1,56.1 	"/>
	<polygon points="209.8,68.4 186.2,63.9 209.1,70.9 209.8,68.4 	"/>
	<polygon points="232.4,94.2 211.7,93.1 232.1,96.7 232.4,94.2 	"/>
	<path class="st3" d="M190.1,89.4c18.6,23.4,52.1,15.7,52.1,15.7s15.7-31.4-3-54.8s-68.4-22.5-68.4-22.5S171.4,66,190.1,89.4z"/>
	<path class="st12" d="M199.3,35.4c0,0,24.7,3.4,30.1,10.1S211.7,49.7,199.3,35.4z"/>
</g>
<path class="st6" d="M272.3,137c0,0-25.2,15-42,15s-44-19-44-19s29.2,8,46,8S272.3,137,272.3,137z"/>
<path class="st4" d="M206.3,164c0,15.2-16.8,25-32,25c-15.2,0-37-12.8-37-28c0-15.2,20.8-18,36-18C188.5,143,206.3,148.8,206.3,164z
	"/>
<path class="st5" d="M70.2,370.9c-3.7,0-7.1-2.6-7.8-6.4c-0.3-1.4-6.8-35.1,12-61.5c11.2-15.7,28.6-25.3,51.9-28.6
	c4.4-0.6,8.4,2.4,9,6.8c0.6,4.4-2.4,8.4-6.8,9c-18.7,2.6-32.5,10-41,21.9c-14.8,20.7-9.4,49-9.4,49.2c0.8,4.3-2,8.5-6.3,9.4
	C71.2,370.9,70.7,370.9,70.2,370.9z"/>
<path class="st5" d="M437,368.2c-0.5,0-1.1-0.1-1.6-0.2c-4.3-0.9-7.1-5.1-6.3-9.4c0.1-0.4,5.3-28.6-9.4-49.2
	c-8.5-11.9-22.3-19.3-41-21.9c-4.4-0.6-7.4-4.7-6.8-9c0.6-4.4,4.6-7.4,9-6.8c23.3,3.3,40.7,12.9,51.9,28.6
	c18.7,26.4,12.2,60.1,12,61.5C444.1,365.6,440.8,368.2,437,368.2z"/>
<g>
	<path d="M128.4,290.2c-28.3,4.9-46.5,20.9-49.2,50.2c-0.6,6.3-0.4,12.7,0.4,19c0.1,0.5,0.2,1.4,0.3,1.9c1.1,5.7-3.7,11.5-9.5,11.6
		c-4.9,0.2-9.5-3.6-10.2-8.5c-1.7-10.6-1.6-21.2,0.2-31.7c2.7-15.7,10.2-30.8,22.4-41.2c12-10.3,27.8-15.6,43.3-17
		c-10.2,1.9-20.2,5-29.2,10c-11.2,6.2-20.4,15.7-25.9,27.2c-8,15.9-9.6,34.7-6.9,52.1c0.5,4.2,5.3,6.7,8.9,4.5
		c2.3-1.3,3.5-4.1,2.9-6.7c-1.1-7.1-1.1-14.3-0.3-21.4C79,310,98.9,292.9,128.4,290.2L128.4,290.2z"/>
</g>
<g>
	<path d="M381,271.7c22.5,2,44.2,12.3,56.1,32.2c10.3,17.2,12.8,38.2,9.8,57.8c-2,11.6-18.6,11.1-19.8-0.7c-0.1-1.1,0.1-2.3,0.3-3.4
		c0.2-1.6,0.4-3.1,0.6-4.7c1.3-15-1-31.1-9.9-43.6c-9-12.8-24.2-19.1-39.3-21.9c10.3,1,20.7,3.8,29.7,9.6
		c18.7,11.7,25,35.3,23.3,56.2c-0.1,1.7-0.3,3.3-0.6,5c-0.1,0.8-0.3,1.6-0.2,2.4c0.2,4.1,5.1,6.9,8.7,4.9c1.7-0.8,2.9-2.4,3.2-4.2
		c1.8-10.1,1.7-20.7,0.1-30.8C437.6,296.7,414,277.4,381,271.7L381,271.7z"/>
</g>
<g>
	<g>
		<path class="st1" d="M403.3,375c0,18.4,12.8,31.2,31.2,31.2s28.4-11.4,28.4-29.8s-15.6-29.8-34.1-29.8S403.3,356.6,403.3,375z"/>
		<path class="st3" d="M403.3,375c0,18.4,12.8,31.2,31.2,31.2s28.4-11.4,28.4-29.8s-15.6-29.8-34.1-29.8S403.3,356.6,403.3,375z"/>
	</g>
	<path class="st1" d="M443.4,408.9c0.4,0.4,2.3,0.7,2.8,0.8c2.3,0.8,5-0.5,5.9-1c2.8-1.3,4.5-3.6,5.5-5.4c0.4-0.8,0.8-1.5,1-2.1
		c1.5-3.2,1.5-5.9,1.5-7.4c0-2.8,0-6.4-2.6-8.1c-1.5-0.9-3.2-0.8-4.1-0.7"/>
	<path class="st1" d="M422.6,411c0.7,1.3,1.6,2.4,2.9,3.4c4,2.9,10,2.3,13.8-0.2c0.2-0.1,0.3-0.2,0.5-0.3c2.1-1.6,3.4-3.7,4.1-6.1
		c1.2-4,0.9-8.8,0.7-13.1c-0.1-1.5-0.3-2.8-0.5-3.8"/>
	<path class="st1" d="M414.6,381.6c-4.3,0.4-5.7,4.5-7.2,11.1c-0.1,0.4-0.2,0.8-0.3,1.2c-1.7,7.5-3.4,15.5,0.8,18.9
		c0.8,0.6,1.7,1.1,2.9,1.3c4.2,1,8.5-0.3,11.8-3.2c2.7-2.3,4.8-5.7,5.8-9.7c0.7-2.9,0.6-5.7,0-8.3"/>
	<g>
		<path d="M444.8,408.9c-0.2,0-0.5,0.1-0.3,0.1c1.2,0.4,2.7,0.6,4,0.3c5.8-1.5,9.3-7.4,10.2-13.1c0.3-3.7,1.4-10.6-4-10.6
			c1.7-1.1,3.6-0.5,4.9,1c1.8,2.2,1.9,4.9,2,7.5c0.3,6.7-3.6,14.5-10.5,16.2c-2.1,0.7-4.3,0.4-6.2-0.7c-0.2-0.2-0.6-0.2-0.7-0.5
			C444.4,408.8,444.6,408.9,444.8,408.9L444.8,408.9z"/>
	</g>
	<path class="st14" d="M424.8,413.8c1.2-0.2,2.4-0.7,3.5-1.5c3.2-2.5,3.8-7.2,1.3-10.4c-0.3-0.4-0.7-0.8-1.1-1.1
		c0,0.2-0.1,0.3-0.1,0.5c-0.9,4-3,7.4-5.8,9.7C423.1,412,423.8,413,424.8,413.8z"/>
	<path class="st2" d="M444.7,398.5c0.3,4.3,0.4,5.3-0.8,9.3c-0.7,2.4-2,4.5-4.1,6.1c-0.2,0.1-0.3,0.2-0.5,0.3
		c-3.8,2.6-9.8,3.1-13.8,0.2c-0.3-0.2-0.5-0.4-0.7-0.6"/>
	<g>
		<path d="M414.6,381.6c-5.4,1.3-5.3,8.3-6.4,12.8c-0.7,5.6-4.4,17.2,3.6,18.5c7.6,1.4,14.2-4.6,16.7-11.7
			c-0.6,8-8.5,15.9-17.1,14.5c-10.6-1.5-7.4-14.7-5.3-21.8C407.3,389.4,408.5,381.7,414.6,381.6L414.6,381.6z"/>
	</g>
	<path class="st14" d="M443.5,408.9c2,0.8,4.3,0.5,6.1-0.9c2.7-2.1,3.2-6,1.1-8.7c-1.5-1.9-3.8-2.7-6-2.3c0.2,3.7,0.2,7.5-0.8,10.8
		C443.7,408.1,443.6,408.5,443.5,408.9z"/>
	<g>
		<path d="M422.6,411c5.3,7,17.7,4.6,20.1-3.9c1.2-2.8,1.5-5.6,2-8.6c1.1,3,1.4,6.3,0.6,9.4c-0.7,3.3-2.9,6.4-5.9,8
			C433.7,419.1,424.7,417.8,422.6,411L422.6,411z"/>
	</g>
	<path class="st14" d="M390.1,374.2c-3,9.4-0.3,18.7,6,20.8c4.9,1.6,10.6-1.7,14.3-7.7c1-1.7,1.9-3.6,2.6-5.6c3-9.4,0.3-18.7-6-20.8
		c-2.4-0.8-4.9-0.4-7.3,0.8C395.7,363.8,392,368.3,390.1,374.2z"/>
	<path class="st1" d="M397.1,367.3c-3,9.4-0.3,18.7,6,20.8c2.4,0.8,4.9,0.4,7.3-0.8c1-1.7,1.9-3.6,2.6-5.6c3-9.4,0.3-18.7-6-20.8
		c-2.4-0.8-4.9-0.4-7.3,0.8C398.7,363.4,397.8,365.3,397.1,367.3z"/>
	<g>
		<path d="M414.1,375c0.3,7.6-3.1,15.9-9.8,20.1c-9,5.4-16.6-2.5-16.9-11.6c-0.3-7.9,2.8-16.2,9.2-21.1c5.2-4.1,12.6-3.7,15.5,2.8
			c0.8,1.7,1.3,3.6,1.6,5.5c-5.9-18.3-21.1-5.8-22.9,7.4c-1.1,6.1,0.3,15.5,7.7,16.2C407.3,394.1,413.3,382.9,414.1,375L414.1,375z"
			/>
	</g>
</g>
<g>
	<g>
		<path class="st1" d="M103.9,377.8c0,18.4-12.8,31.2-31.2,31.2s-28.4-11.4-28.4-29.8s15.6-29.8,34.1-29.8S103.9,359.4,103.9,377.8z
			"/>
		<path class="st3" d="M103.9,377.8c0,18.4-12.8,31.2-31.2,31.2s-28.4-11.4-28.4-29.8s15.6-29.8,34.1-29.8S103.9,359.4,103.9,377.8z
			"/>
	</g>
	<path class="st1" d="M63.8,411.6c-0.4,0.4-2.3,0.7-2.8,0.8c-2.3,0.8-5-0.5-5.9-1c-2.8-1.3-4.5-3.6-5.5-5.4c-0.4-0.8-0.8-1.5-1-2.1
		c-1.5-3.2-1.5-5.9-1.5-7.4c0-2.8,0-6.4,2.6-8.1c1.5-0.9,3.2-0.8,4.1-0.7"/>
	<path class="st1" d="M84.6,413.7c-0.7,1.3-1.6,2.4-2.9,3.4c-4,2.9-10,2.3-13.8-0.2c-0.2-0.1-0.3-0.2-0.5-0.3
		c-2.1-1.6-3.4-3.7-4.1-6.1c-1.2-4-0.9-8.8-0.7-13.1c0.1-1.5,0.3-2.8,0.5-3.8"/>
	<path class="st1" d="M92.6,384.4c4.3,0.4,5.7,4.5,7.2,11.1c0.1,0.4,0.2,0.8,0.3,1.2c1.7,7.5,3.4,15.5-0.8,18.9
		c-0.8,0.6-1.7,1.1-2.9,1.3c-4.2,1-8.5-0.3-11.8-3.2c-2.7-2.3-4.8-5.7-5.8-9.7c-0.7-2.9-0.6-5.7,0-8.3"/>
	<g>
		<path d="M62.4,411.7c0.2,0,0.4-0.1,0.5,0.1c-0.1,0.3-0.4,0.3-0.7,0.5c-1.9,1.1-4.1,1.4-6.2,0.7c-6.9-1.8-10.8-9.5-10.5-16.2
			c0.1-2.6,0.2-5.3,2-7.5c0.9-1.1,2.4-1.8,3.7-1.5c0.4,0.1,0.8,0.4,1.1,0.5c-0.4,0.1-0.9,0-1.2,0.1c-2.6,0.8-3.1,3.5-3,6
			c0,3,0.2,6,1.5,8.7c1.2,2.8,2.7,5.3,5,7c2.2,1.5,4.7,2.7,7.4,1.8c0.2,0,0.4-0.1,0.6-0.2C62.9,411.7,62.6,411.7,62.4,411.7
			L62.4,411.7z"/>
	</g>
	<path class="st14" d="M82.4,416.5c-1.2-0.2-2.4-0.7-3.5-1.5c-3.2-2.5-3.8-7.2-1.3-10.4c0.3-0.4,0.7-0.8,1.1-1.1
		c0,0.2,0.1,0.3,0.1,0.5c0.9,4,3,7.4,5.8,9.7C84,414.8,83.3,415.7,82.4,416.5z"/>
	<path class="st2" d="M62.5,401.2c-0.3,4.3-0.4,5.3,0.8,9.3c0.7,2.4,2,4.5,4.1,6.1c0.2,0.1,0.3,0.2,0.5,0.3
		c3.8,2.6,9.8,3.1,13.8,0.2c0.3-0.2,0.5-0.4,0.7-0.6"/>
	<g>
		<path d="M92.6,384.4c6,0.1,7.2,7.8,8.7,12.3c2,7.1,5.2,20.3-5.3,21.8c-8.6,1.4-16.5-6.4-17.1-14.5c2.5,7.1,9.1,13,16.7,11.7
			c8-1.3,4.3-12.9,3.6-18.5C97.9,392.7,98,385.7,92.6,384.4L92.6,384.4z"/>
	</g>
	<path class="st14" d="M63.7,411.6c-2,0.8-4.3,0.5-6.1-0.9c-2.7-2.1-3.2-6-1.1-8.7c1.5-1.9,3.8-2.7,6-2.3c-0.2,3.7-0.2,7.5,0.8,10.8
		C63.4,410.9,63.6,411.2,63.7,411.6z"/>
	<g>
		<path d="M84.6,413.7c-2.1,6.7-11.1,8.1-16.7,4.9c-3-1.6-5.2-4.7-5.9-8c-0.9-3.1-0.5-6.4,0.6-9.4c0.5,3,0.8,5.8,2,8.6
			C66.9,418.3,79.3,420.7,84.6,413.7L84.6,413.7z"/>
	</g>
	<path class="st14" d="M117,377c3,9.4,0.3,18.7-6,20.8c-4.9,1.6-10.6-1.7-14.3-7.7c-1-1.7-1.9-3.6-2.6-5.6c-3-9.4-0.3-18.7,6-20.8
		c2.4-0.8,4.9-0.4,7.3,0.8C111.5,366.5,115.2,371,117,377z"/>
	<path class="st1" d="M110,370.1c3,9.4,0.3,18.7-6,20.8c-2.4,0.8-4.9,0.4-7.3-0.8c-1-1.7-1.9-3.6-2.6-5.6c-3-9.4-0.3-18.7,6-20.8
		c2.4-0.8,4.9-0.4,7.3,0.8C108.5,366.1,109.4,368,110,370.1z"/>
	<g>
		<path d="M93,377.7c0.9,7.9,6.8,19.1,15.7,19.2c7.4-0.7,8.8-10.1,7.7-16.2c-1.8-13.2-17.1-25.7-22.9-7.4c0.3-1.9,0.7-3.7,1.6-5.5
			c2.8-6.5,10.3-6.9,15.5-2.8c6.4,4.9,9.5,13.2,9.2,21.1c-0.3,9.2-7.8,17-16.9,11.6C96.2,393.6,92.7,385.3,93,377.7L93,377.7z"/>
	</g>
</g>
</svg>
