
<svg version="1.1" id="Layer_1" xmlns="http://www.w3.org/2000/svg" xmlns:xlink="http://www.w3.org/1999/xlink" x="0px" y="0px"
	 viewBox="0 0 500 500" style="enable-background:new 0 0 500 500;" xml:space="preserve">
<style type="text/css">
	.st0{fill:#C5C6C9;}
	.st1{fill:#5B4B4B;}
	.st2{fill:#666060;}
	.st3{fill:#61665D;}
	.st4{fill:#596057;}
	.st5{fill:#EDE837;}
	.st6{fill:none;}
	.st7{fill:#3D3D39;}
</style>
<rect x="0" class="st0" width="500" height="500"/>
<g>
	<path class="st1" d="M161.9,187.9c0,35.1-28.9,71.3-64,71.3h-0.3L99,142.3C133.6,142.5,161.9,153.2,161.9,187.9z"/>
	<path class="st2" d="M99,142.3l-1.4,116.9c-35-0.2-62.9-36.3-62.9-71.3c0-35.1,28.1-45.6,63.2-45.6C98.3,142.3,98.7,142.3,99,142.3
		z"/>
	<path class="st3" d="M111.1,149.7c-0.3,0.3-0.5,0.6-0.8,0.8c-6.9,7.4-16.9,9.3-27-0.1c-8.8-8.2-14.8-33.1-16.2-39.2L111.1,149.7z"
		/>
	<path class="st4" d="M111.1,149.7l-43.9-38.5c-0.2-0.9-0.3-1.4-0.3-1.4s31.5,4.4,41.6,13.8C118.2,132.7,117.4,142.4,111.1,149.7z"
		/>
</g>
<g>
	<g>
		<path class="st2" d="M332.9,332h14.7c-0.2,0.8-0.4,1.5-0.7,2.2c-14.1,46.6-53.5,80.2-99.8,80.2c-35.4,0-66.7-19.6-85.8-49.6
			c-2.7-4.3-5.2-8.8-7.4-13.5l19.3,0c19.1,19,44.4,30.6,72,30.6c35.5,0,67.1-19.1,86.9-48.7C332.4,332.8,332.7,332.4,332.9,332z"/>
		<path class="st5" d="M335.9,327.2c2.3,1.7,4.7,3.3,7.2,4.8h-10.2C334,330.4,335,328.8,335.9,327.2z"/>
		<path class="st1" d="M335.1,314.9c4.6,3.4,9.5,6.4,14.5,8.9c-0.6,2.8-1.3,5.5-2,8.2h-4.5c-2.4-1.5-4.8-3.1-7.2-4.8
			c-1,1.7-2,3.3-3,4.8c-0.2,0.4-0.5,0.8-0.8,1.2c-19.8,29.6-51.4,48.7-86.9,48.7c-27.6,0-52.9-11.6-72-30.6h0.6l0-16.7
			c18.9,20.6,44.8,33.3,73.3,33.3c34.5,0,65.1-18.6,84.3-47.3C332.7,318.8,334,316.9,335.1,314.9z"/>
		<line class="st6" x1="173.2" y1="351.4" x2="169.6" y2="351.4"/>
		<path class="st7" d="M167.9,327.8c1.9,2.4,3.8,4.6,5.8,6.8v16.7l-19.8,0c-1.3-2.7-2.5-5.5-3.6-8.3
			C156.7,338.7,162.6,333.6,167.9,327.8z"/>
		<path class="st7" d="M335.1,314.9c4.6,3.4,9.5,6.4,14.5,8.9c-0.6,2.8-1.3,5.5-2,8.2h-16.1v-11.3
			C332.7,318.8,334,316.9,335.1,314.9z"/>
	</g>
</g>
<g>
	<path class="st1" d="M460.6,194.1c0,32.2-26.2,58.4-58.4,58.4c-24.3,0-45.1-14.8-53.9-35.9C359,228,374.1,235,390.8,235
		c32.3,0,58.4-26.1,58.4-58.4c0-8-1.6-15.6-4.5-22.5C454.6,164.6,460.6,178.6,460.6,194.1z"/>
	<path class="st2" d="M449.2,176.6c0,32.3-26.1,58.4-58.4,58.4c-16.7,0-31.9-7.1-42.5-18.4c-2.9-6.9-4.5-14.6-4.5-22.5
		c0-32.3,26.1-58.4,58.4-58.4c16.7,0,31.9,7.1,42.5,18.4C447.6,161,449.2,168.7,449.2,176.6z"/>
	<path class="st3" d="M401.2,136.3c4.3,6,4.4,13.3,0.1,16.4c-4.3,3.1-11.2,0.8-15.6-5.2c-4.3-6-0.1-16.4-0.1-16.4
		S396.8,130.3,401.2,136.3z"/>
</g>
</svg>
