<svg version="1.1" id="Layer_1" xmlns="http://www.w3.org/2000/svg" xmlns:xlink="http://www.w3.org/1999/xlink" x="0px" y="0px"
	 viewBox="0 0 500 500" style="enable-background:new 0 0 500 500;" xml:space="preserve">
<style type="text/css">
	.st0{fill:#9E8415;}
	.st1{fill:none;stroke:#000000;stroke-width:4;stroke-miterlimit:10;}
	.st2{fill:#FFFFFF;stroke:#000000;stroke-width:3;stroke-miterlimit:10;}
	.st3{fill:#FFFFFF;}
	.st4{fill:#CCCAC8;}
	.st5{fill:none;stroke:#000000;stroke-width:3;stroke-miterlimit:10;}
	.st6{fill:none;stroke:#000000;stroke-width:3;stroke-linecap:round;stroke-miterlimit:10;}
	.st7{fill:none;}
	.st8{fill:#D8B421;}
	.st9{fill:#DDCE8E;}
	.st10{fill:none;stroke:#000000;stroke-width:6;stroke-miterlimit:10;}
	.st11{fill:#B7991C;}
	.st12{fill:#A84C0E;}
	.st13{fill:#74C610;}
	.st14{fill:#4E8A2A;}
	.st15{fill:none;stroke:#000000;stroke-width:3.6289;stroke-miterlimit:10;}
	.st16{fill:#A0D37F;}
	.st17{fill:#891918;}
	.st18{fill:#D8CECE;}
	.st19{fill:#D4222E;}
	.st20{fill:#BA2230;}
</style>
<path class="st0" d="M422.1,316.9c-23.4,0-41.1-5.6-52.6-16.6c-12.2-11.7-12.6-25-12.6-26.5l18-0.1l0-0.1c0,1.1,1.6,27.1,52.3,25.2
	l0.7,18C425.9,316.8,423.9,316.9,422.1,316.9z"/>
<path class="st1" d="M422.1,316.9c-23.4,0-41.1-5.6-52.6-16.6c-12.2-11.7-12.6-25-12.6-26.5l18-0.1l0-0.1c0,1.1,1.6,27.1,52.3,25.2
	l0.7,18C425.9,316.8,423.9,316.9,422.1,316.9z"/>
<g>
	<path class="st2" d="M424.3,308.9c0,10.8-3.8,19.6-8.5,19.6c-4.7,0-3.3-10.1-3.3-20.9c0-10.8-1.4-18.3,3.3-18.3
		C420.5,289.3,424.3,298.1,424.3,308.9z"/>
	<ellipse class="st2" cx="453.7" cy="306.3" rx="34.6" ry="31.4"/>
	<path class="st3" d="M478.6,330.4c-2,4.2-5.5,6.5-8.5,7.8c-1.2,0.6-2.4,1-3.3,1.3c-5.1,1.8-9.4,1.5-11.8,1.3
		c-4.5-0.4-10.3-0.9-13.1-5.2c-1.6-2.5-1.4-5.1-1.3-6.5c0.5-7.7,7.2-12.6,7.8-13.1c2.5-1.8,5.5-2.9,8.7-3.4
		c9.6-1.6,20.5,2.3,22.7,8.6C481.2,325,479.2,329.1,478.6,330.4z"/>
	<path class="st2" d="M449.8,301.7"/>
	<path class="st4" d="M470.1,338.3c-1.2,0.6-2.4,1-3.3,1.3c-5.1,1.8-9.4,1.5-11.8,1.3c-4.5-0.4-10.3-0.9-13.1-5.2
		c-1.6-2.5-1.4-5.1-1.3-6.5c0.5-7.7,7.2-12.6,7.8-13.1c2.5-1.8,5.5-2.9,8.7-3.4c2.3,1.7,3.8,4.6,3.1,6c-1.1,2.1-6.3-0.4-9.1,2.6
		c-2.2,2.3-1.4,6.1-1.3,6.5c1,4.3,5.4,7.1,9.1,7.8c4.7,0.9,6.7-1.6,9.1,0C469,336.2,469.6,337.2,470.1,338.3z"/>
	<path class="st5" d="M479.9,321.3c-2.2-6.3-13.1-10.2-22.7-8.6c-3.1,0.5-6.1,1.6-8.7,3.4c-0.7,0.5-7.4,5.4-7.8,13.1
		c-0.1,1.4-0.2,4.1,1.3,6.5c2.7,4.3,8.6,4.8,13.1,5.2c2.4,0.2,6.7,0.5,11.8-1.3c0.9-0.3,2-0.7,3.3-1.3c3-1.4,6.5-3.6,8.5-7.8
		C479.2,329.1,481.2,325,479.9,321.3z"/>
	<path class="st4" d="M432,296.5c4.1-0.9,13.2,10.7,10,18.5c-1.9,4.7-7.7,7.2-8.8,6.2c-1.2-1.1,4.1-5.6,2.8-10.9
		c-1.2-4.9-7-6-6.7-10C429.4,298.7,430.6,296.8,432,296.5z"/>
	<path class="st3" d="M489.5,318.1c-0.1,0.2-0.3,0.4-0.4,0.6c-5.6,7-16,6.1-24.8,5.2c-4.3-0.4-6.9-1.3-9.1-2.6
		c-1.3-0.8-7.2-4.3-7.8-10.5c-0.6-5.1,2.8-9.1,3.9-10.5c5.3-6.3,14-7.9,21.3-7.5c2.2,0.2,4.3,0.5,6.2,0.9c4.1,1,8.9,2.2,11.8,6.5
		C493.8,305.7,492.9,313.3,489.5,318.1z"/>
	<path class="st4" d="M489.5,318.1c-0.1,0.2-0.3,0.4-0.4,0.6c-5.6,7-16,6.1-24.8,5.2c-4.3-0.4-6.9-1.3-9.1-2.6
		c-1.3-0.8-7.2-4.3-7.8-10.5c-0.6-5.1,2.8-9.1,3.9-10.5c5.3-6.3,14-7.9,21.3-7.5c1,0.5,2.2,1.3,2.2,2.2c0,3-11.7,3-14.4,9.1
		c-1.4,3.2-0.3,8.3,2.6,10.5c5.9,4.3,16.1-5,23.5,0C488,315.8,488.9,317.1,489.5,318.1z"/>
	<path class="st5" d="M490.3,300.4c-2.9-4.4-7.7-5.6-11.8-6.5c-1.8-0.4-3.9-0.8-6.2-0.9c-7.3-0.5-16,1.1-21.3,7.5
		c-1.1,1.4-4.5,5.3-3.9,10.5c0.7,6.2,6.5,9.7,7.8,10.5c2.2,1.3,4.8,2.2,9.1,2.6c8.8,0.8,19.2,1.8,24.8-5.2c0.2-0.2,0.3-0.4,0.4-0.6
		C492.9,313.3,493.8,305.7,490.3,300.4z"/>
	<path class="st4" d="M491,283.4c0,10.1-9.5,18.3-21.2,18.3c-11.7,0-21.2-8.2-21.2-18.3c0-1.9,0.2-3.4,0.7-4.6
		c1.9-5.6,8-5.8,17.5-5.8c9.9,0,20.4,0.2,23.4,6.4C490.7,280.5,491,281.8,491,283.4z"/>
	<path class="st3" d="M490.1,279.4c-2.8,3.9-10.2,12.8-20.4,13.2c-4.1,0.2-9.7-1.1-10.1-3.3c-0.4-2.4,5.5-4.3,5.2-6.5
		c-0.2-1.5-3.4-3.2-15.7-4c3-1.9,9.1-5.8,17.5-5.8C476.6,272.9,487.1,273.2,490.1,279.4z"/>
	<path class="st5" d="M491,283.4c0,10.1-9.5,18.3-21.2,18.3c-11.7,0-21.2-8.2-21.2-18.3c0-1.9,0.2-3.4,0.7-4.6
		c1.9-5.6,8-5.8,17.5-5.8c9.9,0,20.4,0.2,23.4,6.4C490.7,280.5,491,281.8,491,283.4z"/>
	<path class="st6" d="M450.5,285.4c0,0,1.3-6.5,17-3.9"/>
	<path class="st4" d="M455.9,291.9c-2.1,10.8-9.6,18.4-16.6,17c-5.5-1.1-9.2-7.4-9.5-15.2c-0.1-2.2,0.1-4.5,0.6-6.9
		c2.1-10.8,9.6-18.4,16.6-17c2.6,0.5,4.8,2.2,6.5,4.7C456.2,278.7,457.2,285.1,455.9,291.9z"/>
	<path class="st3" d="M452.9,281.4c-2.1,10.8-9.6,18.4-16.6,17c-2.6-0.5-4.8-2.2-6.5-4.7c-0.1-2.2,0.1-4.5,0.6-6.9
		c2.1-10.8,9.6-18.4,16.6-17c2.6,0.5,4.8,2.2,6.5,4.7C453.5,276.8,453.4,279.1,452.9,281.4z"/>
	<path class="st5" d="M432.8,279.6c-1.6,2.9-2.1,5.5-2.4,7.2c-0.2,0.9-0.7,4-0.6,6.9c0.3,7.8,3.9,14.1,9.5,15.2
		c7,1.4,14.5-6.2,16.6-17c1.3-6.8,0.3-13.2-2.4-17.3c-1.6-2.5-3.8-4.2-6.5-4.7c-5.4-1.1-10.3,4.5-11.5,5.7L432.8,279.6z"/>
</g>
<path class="st0" d="M80,322.6c-1.9,0-3.8,0-5.7-0.1l0.7-18c50.6,1.9,52.2-24.1,52.3-25.2l0,0.1l18,0.1c0,1.5-0.4,14.8-12.6,26.5
	C121,317,103.4,322.6,80,322.6z"/>
<path class="st1" d="M80,322.6c-1.9,0-3.8,0-5.7-0.1l0.7-18c50.6,1.9,52.2-24.1,52.3-25.2l0,0.1l18,0.1c0,1.5-0.4,14.8-12.6,26.5
	C121,317,103.4,322.6,80,322.6z"/>
<g>
	<path class="st2" d="M83.3,314.4c0,10.8,3.8,19.6,8.5,19.6s3.3-10.1,3.3-20.9c0-10.8,1.4-18.3-3.3-18.3S83.3,303.6,83.3,314.4z"/>
	<ellipse class="st2" cx="53.9" cy="311.8" rx="34.6" ry="31.4"/>
	<path class="st3" d="M29.1,336c2,4.2,5.5,6.5,8.5,7.8c1.2,0.6,2.4,1,3.3,1.3c5.1,1.8,9.4,1.5,11.8,1.3c4.5-0.4,10.3-0.9,13.1-5.2
		c1.6-2.5,1.4-5.1,1.3-6.5c-0.5-7.7-7.2-12.6-7.8-13.1c-2.5-1.8-5.5-2.9-8.7-3.4c-9.6-1.6-20.5,2.3-22.7,8.6
		C26.5,330.6,28.4,334.6,29.1,336z"/>
	<path class="st2" d="M57.8,307.2"/>
	<path class="st4" d="M37.6,343.8c1.2,0.6,2.4,1,3.3,1.3c5.1,1.8,9.4,1.5,11.8,1.3c4.5-0.4,10.3-0.9,13.1-5.2
		c1.6-2.5,1.4-5.1,1.3-6.5c-0.5-7.7-7.2-12.6-7.8-13.1c-2.5-1.8-5.5-2.9-8.7-3.4c-2.3,1.7-3.8,4.6-3.1,6c1.1,2.1,6.3-0.4,9.1,2.6
		c2.2,2.3,1.4,6.1,1.3,6.5c-1,4.3-5.4,7.1-9.1,7.8c-4.7,0.9-6.7-1.6-9.1,0C38.7,341.8,38,342.7,37.6,343.8z"/>
	<path class="st5" d="M27.8,326.8c2.2-6.3,13.1-10.2,22.7-8.6c3.1,0.5,6.1,1.6,8.7,3.4c0.7,0.5,7.4,5.4,7.8,13.1
		c0.1,1.4,0.2,4.1-1.3,6.5c-2.7,4.3-8.6,4.8-13.1,5.2c-2.4,0.2-6.7,0.5-11.8-1.3c-0.9-0.3-2-0.7-3.3-1.3c-3-1.4-6.5-3.6-8.5-7.8
		C28.4,334.6,26.5,330.6,27.8,326.8z"/>
	<path class="st4" d="M75.7,302c-4.1-0.9-13.2,10.7-10,18.5c1.9,4.7,7.7,7.2,8.8,6.2c1.2-1.1-4.1-5.6-2.8-10.9c1.2-4.9,7-6,6.7-10
		C78.3,304.2,77.1,302.3,75.7,302z"/>
	<path class="st3" d="M18.2,323.6c0.1,0.2,0.3,0.4,0.4,0.6c5.6,7,16,6.1,24.8,5.2c4.3-0.4,6.9-1.3,9.1-2.6c1.3-0.8,7.2-4.3,7.8-10.5
		c0.6-5.1-2.8-9.1-3.9-10.5c-5.3-6.3-14-7.9-21.3-7.5c-2.2,0.2-4.3,0.5-6.2,0.9c-4.1,1-8.9,2.2-11.8,6.5
		C13.9,311.2,14.8,318.8,18.2,323.6z"/>
	<path class="st4" d="M18.2,323.6c0.1,0.2,0.3,0.4,0.4,0.6c5.6,7,16,6.1,24.8,5.2c4.3-0.4,6.9-1.3,9.1-2.6c1.3-0.8,7.2-4.3,7.8-10.5
		c0.6-5.1-2.8-9.1-3.9-10.5c-5.3-6.3-14-7.9-21.3-7.5c-1,0.5-2.2,1.3-2.2,2.2c0,3,11.7,3,14.4,9.1c1.4,3.2,0.3,8.3-2.6,10.5
		c-5.9,4.3-16.1-5-23.5,0C19.7,321.4,18.7,322.7,18.2,323.6z"/>
	<path class="st5" d="M17.3,305.9c2.9-4.4,7.7-5.6,11.8-6.5c1.8-0.4,3.9-0.8,6.2-0.9c7.3-0.5,16,1.1,21.3,7.5
		c1.1,1.4,4.5,5.3,3.9,10.5c-0.7,6.2-6.5,9.7-7.8,10.5c-2.2,1.3-4.8,2.2-9.1,2.6c-8.8,0.8-19.2,1.8-24.8-5.2
		c-0.2-0.2-0.3-0.4-0.4-0.6C14.8,318.8,13.9,311.2,17.3,305.9z"/>
	<path class="st4" d="M16.7,289c0,10.1,9.5,18.3,21.2,18.3s21.2-8.2,21.2-18.3c0-1.9-0.2-3.4-0.7-4.6c-1.9-5.6-8-5.8-17.5-5.8
		c-9.9,0-20.4,0.2-23.4,6.4C17,286.1,16.7,287.4,16.7,289z"/>
	<path class="st3" d="M17.5,284.9c2.8,3.9,10.2,12.8,20.4,13.2c4.1,0.2,9.7-1.1,10.1-3.3c0.4-2.4-5.5-4.3-5.2-6.5
		c0.2-1.5,3.4-3.2,15.7-4c-3-1.9-9.1-5.8-17.5-5.8C31,278.5,20.6,278.7,17.5,284.9z"/>
	<path class="st5" d="M16.7,289c0,10.1,9.5,18.3,21.2,18.3s21.2-8.2,21.2-18.3c0-1.9-0.2-3.4-0.7-4.6c-1.9-5.6-8-5.8-17.5-5.8
		c-9.9,0-20.4,0.2-23.4,6.4C17,286.1,16.7,287.4,16.7,289z"/>
	<path class="st6" d="M57.2,290.9c0,0-1.3-6.5-17-3.9"/>
	<path class="st4" d="M51.8,297.5c2.1,10.8,9.6,18.4,16.6,17c5.5-1.1,9.2-7.4,9.5-15.2c0.1-2.2-0.1-4.5-0.6-6.9
		c-2.1-10.8-9.6-18.4-16.6-17c-2.6,0.5-4.8,2.2-6.5,4.7C51.5,284.3,50.4,290.7,51.8,297.5z"/>
	<path class="st3" d="M54.8,287c2.1,10.8,9.6,18.4,16.6,17c2.6-0.5,4.8-2.2,6.5-4.7c0.1-2.2-0.1-4.5-0.6-6.9
		c-2.1-10.8-9.6-18.4-16.6-17c-2.6,0.5-4.8,2.2-6.5,4.7C54.1,282.3,54.3,284.6,54.8,287z"/>
	<path class="st5" d="M74.9,285.2c1.6,2.9,2.1,5.5,2.4,7.2c0.2,0.9,0.7,4,0.6,6.9c-0.3,7.8-3.9,14.1-9.5,15.2
		c-7,1.4-14.5-6.2-16.6-17c-1.3-6.8-0.3-13.2,2.4-17.3c1.6-2.5,3.8-4.2,6.5-4.7c5.4-1.1,10.3,4.5,11.5,5.7L74.9,285.2z"/>
</g>
<g>
	<g>
		<path class="st4" d="M357,468.1c0.5,5.1-0.6,9.5-0.8,10.2c-0.6,2.1-2.2,8.2-7.8,12.7c-8.5,6.9-19.6,4.9-26.3,3.7
			c-7.3-1.3-11.9-3.8-20.7-8.6c-12-6.5-18.1-9.9-20.6-17c-0.3-0.9-2.2-6.5-0.3-12.5c0.2-0.8,0.5-1.5,0.9-2.3
			c0.7-1.5,2.7-5.4,6.6-6.8c3.3-1.2,5.5,0.2,12.1,1.7c5.8,1.3,10.2,1.5,14.9,1.7c8.5,0.4,8.9-0.9,15.6-0.6
			c8.2,0.3,16.1,0.6,21.4,6.2C355.3,459.9,356.6,464.2,357,468.1z"/>
		<path class="st3" d="M357,468.1c-0.1,0.5-0.2,0.9-0.3,1.1c-0.6,2.1-2.2,8.2-7.8,12.7c-8.5,6.9-19.6,4.9-26.3,3.7
			c-7.3-1.3-11.9-3.8-20.7-8.6c-12-6.5-18.1-9.9-20.6-17c-0.1-0.4-0.5-1.6-0.8-3.4c0.2-0.8,0.5-1.5,0.9-2.3c0.7-1.5,2.7-5.4,6.6-6.8
			c3.3-1.2,5.5,0.2,12.1,1.7c5.8,1.3,10.2,1.5,14.9,1.7c8.5,0.4,8.9-0.9,15.6-0.6c8.2,0.3,16.1,0.6,21.4,6.2
			C355.3,459.9,356.6,464.2,357,468.1z"/>
		<path class="st7" d="M357,468.1c0.5,5.1-0.6,9.5-0.8,10.2c-0.6,2.1-2.2,8.2-7.8,12.7c-8.5,6.9-19.6,4.9-26.3,3.7
			c-7.3-1.3-11.9-3.8-20.7-8.6c-12-6.5-18.1-9.9-20.6-17c-0.3-0.9-2.2-6.5-0.3-12.5c0.2-0.8,0.5-1.5,0.9-2.3
			c0.7-1.5,2.7-5.4,6.6-6.8c3.3-1.2,5.5,0.2,12.1,1.7c5.8,1.3,10.2,1.5,14.9,1.7c8.5,0.4,8.9-0.9,15.6-0.6
			c8.2,0.3,16.1,0.6,21.4,6.2C355.3,459.9,356.6,464.2,357,468.1z"/>
		<path class="st5" d="M357,468.1c0.5,5.1-0.6,9.5-0.8,10.2c-0.6,2.1-2.2,8.2-7.8,12.7c-8.5,6.9-19.6,4.9-26.3,3.7
			c-7.3-1.3-11.9-3.8-20.7-8.6c-12-6.5-18.1-9.9-20.6-17c-0.3-0.9-2.2-6.5-0.3-12.5c0.2-0.8,0.5-1.5,0.9-2.3
			c0.7-1.5,2.7-5.4,6.6-6.8c3.3-1.2,5.5,0.2,12.1,1.7c5.8,1.3,10.2,1.5,14.9,1.7c8.5,0.4,8.9-0.9,15.6-0.6
			c8.2,0.3,16.1,0.6,21.4,6.2C355.3,459.9,356.6,464.2,357,468.1z"/>
		<g>
			<path d="M310.3,464.8c1.7-9.5,15.3-13.6,23.5-15.5c0,0,0.4,2.3,0.4,2.3l-3.6,0.6C323.4,453.7,312.4,456.6,310.3,464.8
				L310.3,464.8z"/>
		</g>
		<g>
			<path d="M284.4,465.4c3.9,3,8,5.9,12,8.7C291.7,472.7,287.2,469.6,284.4,465.4L284.4,465.4z"/>
		</g>
		<g>
			<path d="M330.9,486.7c7.6-0.3,15.3-2.2,20.8-7.7C347.5,485.8,338.5,488.1,330.9,486.7L330.9,486.7z"/>
		</g>
		<path class="st4" d="M335.4,454.5c-4.8,0.9-8.6,4.2-10.3,8.4c1.7-1.2,3.6-2.1,5.8-2.5c7.5-1.4,14.7,3.6,16.1,11.1
			c0.5,2.7,0.2,5.3-0.8,7.7c4.1-3.1,6.3-8.2,5.3-13.6C350.2,458.1,342.9,453.2,335.4,454.5z"/>
		<g>
			<path d="M346.2,479.2c6.8-5.5,6.8-16.4-0.2-21.6c-6.8-5.4-17.3-2.6-20.9,5.3c2.1-6.3,9.1-10.3,15.6-8.9
				C352.8,456.3,356.5,472.3,346.2,479.2L346.2,479.2z"/>
		</g>
		
			<ellipse transform="matrix(0.9835 -0.1812 0.1812 0.9835 -75.9499 61.9898)" class="st3" cx="301.4" cy="446.8" rx="20.5" ry="13.3"/>
		<g>
			<path d="M286.7,457.6c-7-3-8.4-10.8-3.7-16.6c4.1-5.2,10.6-8,17-9c6.5-0.8,13.6,0,18.7,4.5c5.8,5.1,4.1,13-1.8,17.1
				c7.8-8.6,2.7-17-7.7-18.6c-5.8-1-12,0-17.4,2.4C283.3,441.2,277.2,450.7,286.7,457.6L286.7,457.6z"/>
		</g>
	</g>
	<ellipse transform="matrix(0.9835 -0.1812 0.1812 0.9835 -75.6759 61.9403)" cx="301.2" cy="445.2" rx="9.5" ry="8.2"/>
	<path class="st0" d="M302.7,451.4c-1,0.2-1.9,0.2-3,0c-4.9-0.7-8.3-5.3-7.6-10.2c6.1-41.3-9.7-63.5-9.9-63.7
		c-2.9-4-2.1-9.6,1.9-12.6c4-2.9,9.6-2.1,12.6,1.9c0.8,1.1,20.4,28.5,13.2,77C309.4,447.8,306.4,450.7,302.7,451.4z"/>
	<g>
		<path d="M296.8,366.9c10.9,14.7,15.4,33.5,16.5,51.5c0.1,2.6,0.1,5.6,0.1,8.3c-0.1,1.7-0.3,6.4-0.4,8.2c-0.3,2.9-0.7,6-1,8.9
			c-0.8,8-10.2,12.4-16.8,7.9c-3.5-2.2-5.5-6.6-4.8-10.7c2.2-14.3,2.5-29.1-0.7-43.3c-1.6-7-3.7-13.9-7.3-20.2
			c4.3,5.9,7.1,12.8,9.2,19.7c4.2,14.1,4.5,29.1,2.6,43.7c-0.2,1.4-0.2,3,0.4,4.3c3.1,7,13.3,5,13.6-2.7c0.5-4.1,1.1-9.2,1.3-13.3
			c0.1-1.4,0.2-3.9,0.2-5.4C310,404.3,306.6,384.1,296.8,366.9L296.8,366.9z"/>
	</g>
</g>
<g>
	<g>
		<path class="st4" d="M144.6,466.3c-0.5,5.1,0.6,9.5,0.8,10.2c0.6,2.1,2.2,8.2,7.8,12.7c8.5,6.9,19.6,4.9,26.3,3.7
			c7.3-1.3,11.9-3.8,20.7-8.6c12-6.5,18.1-9.9,20.6-17c0.3-0.9,2.2-6.5,0.3-12.5c-0.2-0.8-0.5-1.5-0.9-2.3c-0.7-1.5-2.7-5.4-6.6-6.8
			c-3.3-1.2-5.5,0.2-12.1,1.7c-5.8,1.3-10.2,1.5-14.9,1.7c-8.5,0.4-8.9-0.9-15.6-0.6c-8.2,0.3-16.1,0.6-21.4,6.2
			C146.3,458.1,145,462.4,144.6,466.3z"/>
		<path class="st3" d="M144.6,466.3c0.1,0.5,0.2,0.9,0.3,1.1c0.6,2.1,2.2,8.2,7.8,12.7c8.5,6.9,19.6,4.9,26.3,3.7
			c7.3-1.3,11.9-3.8,20.7-8.6c12-6.5,18.1-9.9,20.6-17c0.1-0.4,0.5-1.6,0.8-3.4c-0.2-0.8-0.5-1.5-0.9-2.3c-0.7-1.5-2.7-5.4-6.6-6.8
			c-3.3-1.2-5.5,0.2-12.1,1.7c-5.8,1.3-10.2,1.5-14.9,1.7c-8.5,0.4-8.9-0.9-15.6-0.6c-8.2,0.3-16.1,0.6-21.4,6.2
			C146.3,458.1,145,462.4,144.6,466.3z"/>
		<path class="st7" d="M144.6,466.3c-0.5,5.1,0.6,9.5,0.8,10.2c0.6,2.1,2.2,8.2,7.8,12.7c8.5,6.9,19.6,4.9,26.3,3.7
			c7.3-1.3,11.9-3.8,20.7-8.6c12-6.5,18.1-9.9,20.6-17c0.3-0.9,2.2-6.5,0.3-12.5c-0.2-0.8-0.5-1.5-0.9-2.3c-0.7-1.5-2.7-5.4-6.6-6.8
			c-3.3-1.2-5.5,0.2-12.1,1.7c-5.8,1.3-10.2,1.5-14.9,1.7c-8.5,0.4-8.9-0.9-15.6-0.6c-8.2,0.3-16.1,0.6-21.4,6.2
			C146.3,458.1,145,462.4,144.6,466.3z"/>
		<path class="st5" d="M144.6,466.3c-0.5,5.1,0.6,9.5,0.8,10.2c0.6,2.1,2.2,8.2,7.8,12.7c8.5,6.9,19.6,4.9,26.3,3.7
			c7.3-1.3,11.9-3.8,20.7-8.6c12-6.5,18.1-9.9,20.6-17c0.3-0.9,2.2-6.5,0.3-12.5c-0.2-0.8-0.5-1.5-0.9-2.3c-0.7-1.5-2.7-5.4-6.6-6.8
			c-3.3-1.2-5.5,0.2-12.1,1.7c-5.8,1.3-10.2,1.5-14.9,1.7c-8.5,0.4-8.9-0.9-15.6-0.6c-8.2,0.3-16.1,0.6-21.4,6.2
			C146.3,458.1,145,462.4,144.6,466.3z"/>
		<g>
			<path d="M191.3,463c-2.1-8.2-13-11.1-20.3-12.6c0,0-3.6-0.6-3.6-0.6l0.4-2.3C175.9,449.5,189.6,453.5,191.3,463L191.3,463z"/>
		</g>
		<g>
			<path d="M217.2,463.6c-2.8,4.2-7.2,7.3-12,8.7C209.1,469.5,213.3,466.6,217.2,463.6L217.2,463.6z"/>
		</g>
		<g>
			<path d="M170.6,484.9c-7.5,1.4-16.5-1-20.8-7.6C155.4,482.8,163,484.6,170.6,484.9L170.6,484.9z"/>
		</g>
		<path class="st4" d="M166.2,452.8c4.8,0.9,8.6,4.2,10.3,8.4c-1.7-1.2-3.6-2.1-5.8-2.5c-7.5-1.4-14.7,3.6-16.1,11.1
			c-0.5,2.7-0.2,5.3,0.8,7.7c-4.1-3.1-6.3-8.2-5.3-13.6C151.4,456.3,158.6,451.4,166.2,452.8z"/>
		<g>
			<path d="M155.4,477.4c-10.2-6.9-6.6-22.9,5.5-25.2c6.5-1.3,13.6,2.6,15.6,8.9c-3.6-8-14.1-10.7-20.9-5.3
				C148.6,461,148.6,472,155.4,477.4L155.4,477.4z"/>
		</g>
		
			<ellipse transform="matrix(0.1812 -0.9835 0.9835 0.1812 -273.6525 561.2657)" class="st3" cx="200.2" cy="445" rx="13.3" ry="20.5"/>
		<g>
			<path d="M214.8,455.8c9.5-6.9,3.5-16.4-5.2-20.2c-5.4-2.4-11.6-3.4-17.4-2.4c-10.4,1.6-15.5,10-7.7,18.6
				c-5.9-4.1-7.6-12-1.8-17.1c5.1-4.5,12.3-5.3,18.7-4.5c6.4,1,13,3.8,17,9C223.2,445,221.9,452.8,214.8,455.8L214.8,455.8z"/>
		</g>
	</g>
	<ellipse transform="matrix(0.1812 -0.9835 0.9835 0.1812 -272.0435 560.1487)" cx="200.4" cy="443.4" rx="8.2" ry="9.5"/>
	<path class="st0" d="M198.9,449.6c1,0.2,1.9,0.2,3,0c4.9-0.7,8.3-5.3,7.6-10.2c-6.1-41.3,9.7-63.5,9.9-63.7c2.9-4,2.1-9.6-1.9-12.6
		c-4-2.9-9.6-2.1-12.6,1.9c-0.8,1.1-20.4,28.5-13.2,77C192.2,446,195.2,448.9,198.9,449.6z"/>
	<g>
		<path d="M204.8,365.1c-9.8,17.2-13.2,37.4-12.9,57c0,1.4,0.1,3.9,0.2,5.4c0.2,4.2,0.8,9.2,1.3,13.3c0.3,7.6,10.5,9.7,13.6,2.7
			c0.6-1.4,0.6-2.9,0.4-4.3c-1.9-14.5-1.5-29.5,2.6-43.7c2.1-7,4.9-13.9,9.2-19.7c-3.6,6.3-5.8,13.2-7.3,20.2
			c-3.2,14.2-2.8,29-0.7,43.3c0.6,4.1-1.3,8.4-4.8,10.7c-6.7,4.5-16.1,0.1-16.8-7.9c-0.3-2.9-0.7-6-1-8.9c-0.1-1.8-0.3-6.5-0.4-8.2
			c0.1-2.7,0-5.6,0.1-8.3C189.4,398.6,193.9,379.8,204.8,365.1L204.8,365.1z"/>
	</g>
</g>
<path class="st8" d="M306.2,114.6c34.6-5.6,64.8,20,67.4,22.3c27.7,24.2,30.1,60.1,31.3,77c6.6,97.6-80.9,188.9-119.8,180.3
	c-7-1.5-16.5-6.1-33.6-6.4c-20.7-0.3-31.5,6.3-41.3,7.9c-34.6,6-78.7-45.9-98.5-89.8c-5.2-11.6-43.6-96.8,2-152.5
	c22.8-27.8,65.7-47.1,88.9-39.1c2.9,1,11.6,4.6,24.8,7.8c3.4,0.8,17.3,4.3,28.9,4.9C279.4,128.4,287,117.7,306.2,114.6z"/>
<g>
	<path class="st9" d="M249.4,128.2c-11.5-0.6-25.5-4.1-28.9-4.9c-13.2-3.3-21.9-6.8-24.8-7.8c-5.2-1.8-11.3-2.2-18-1.5
		c9.3-1.9,17.8-1.9,24.7,0.5c2.9,1,11.6,4.6,24.8,7.8c3.4,0.8,17.3,4.3,28.9,4.9c3.5,0.2,6.6,0.1,9.4-0.2
		C260.9,128,255.8,128.5,249.4,128.2z"/>
	<path class="st9" d="M398.2,215c-1.2-16.9-3.6-52.8-31.3-77c-2.5-2.2-30.8-26.2-63.9-22.8c1-0.2,2-0.4,3.1-0.6
		c34.6-5.6,64.8,20,67.4,22.3c27.7,24.2,30.1,60.1,31.3,77c6.3,91.9-70.9,178.1-112.4,180.8C335,384.2,404.2,302.1,398.2,215z"/>
	<path class="st9" d="M233.2,389.4c-9.8,2-16.7,5.2-23.1,6.3c-1.2,0.2-2.4,0.3-3.6,0.4C213.5,394.4,221.4,390.8,233.2,389.4z"/>
</g>
<path class="st0" d="M113.5,153.4c11.4-13.9,27.9-25.7,44.4-33c-6.7,5.1-12.8,10.9-17.9,17.1c-44.2,53.9-7,136.5-1.9,147.8
	c19.2,42.6,61.9,92.8,95.5,87.1c9.5-1.6,20-8,40-7.7c16.6,0.3,25.8,4.7,32.6,6.2c14.6,3.2,36.3-8.1,57-28.7
	c-26.1,34.9-58.5,56.3-78.2,52c-7-1.5-16.5-6.1-33.6-6.4c-20.7-0.3-31.5,6.3-41.3,7.9c-34.6,6-78.7-45.9-98.5-89.8
	C106.3,294.3,67.9,209.1,113.5,153.4z"/>
<path class="st10" d="M306.2,114.6c34.6-5.6,64.8,20,67.4,22.3c27.7,24.2,30.1,60.1,31.3,77c6.6,97.6-80.9,188.9-119.8,180.3
	c-7-1.5-16.5-6.1-33.6-6.4c-20.7-0.3-31.5,6.3-41.3,7.9c-34.6,6-78.7-45.9-98.5-89.8c-5.2-11.6-43.6-96.8,2-152.5
	c22.8-27.8,65.7-47.1,88.9-39.1c2.9,1,11.6,4.6,24.8,7.8c3.4,0.8,17.3,4.3,28.9,4.9C279.4,128.4,287,117.7,306.2,114.6z"/>
<path class="st0" d="M212.6,154.4c0,0.5,0,1.1,0.2,1.6c43.4,16.2,78.9,6.5,97.9-1.8c-7.3-6.2-25.2-11.3-46.4-12.5
	C236.3,140,213.1,145.7,212.6,154.4z"/>
<g>
	<path d="M325.8,146c-10.9,9-24.3,14.6-37.9,18.2c-16.9,4.3-34.7,4.6-51.7,1.2c-18.4-3.8-36.2-11.7-51.1-23
		c22.1,10.7,45.6,18.3,70.1,19.2C279.6,162.6,304.2,157.2,325.8,146L325.8,146z"/>
</g>
<path class="st9" d="M301.7,169.3c0,0-25.2,15-42,15s-44-19-44-19s29.2,8,46,8S301.7,169.3,301.7,169.3z"/>
<path class="st11" d="M193.7,184.3c0,15.2-16.8,25-32,25s-37-12.8-37-28c0-15.2,20.8-18,36-18S193.7,169.1,193.7,184.3z"/>
<g>
	<path class="st12" d="M255.4,163.3c12.5-17.6,17-41,10.3-61.8c-3.4-10.6-11.5-19.3-21.1-24.8c-1.9-1-3.9-1.9-6-2.7
		c0,0-0.6,0.8-0.6,0.8c1.1,1.9,2.4,3.6,3.5,5.3c2.2,3.3,4.6,6.6,6.6,10.1c3,4.8,5.7,9.9,8.3,15c5.5,10.4,6.4,22.6,4.9,34.2
		c-1.1,7.9-3.3,15.9-6.8,23.3L255.4,163.3L255.4,163.3z"/>
	<path class="st5" d="M255.4,163.3c12.5-17.6,17-41,10.3-61.8c-3.4-10.6-11.5-19.3-21.1-24.8c-1.9-1-3.9-1.9-6-2.7
		c0,0-0.6,0.8-0.6,0.8c1.1,1.9,2.4,3.6,3.5,5.3c2.2,3.3,4.6,6.6,6.6,10.1c3,4.8,5.7,9.9,8.3,15c5.5,10.4,6.4,22.6,4.9,34.2
		c-1.1,7.9-3.3,15.9-6.8,23.3L255.4,163.3L255.4,163.3z"/>
</g>
<g>
	<path class="st13" d="M220.7,85.7c3.1,36.1,41.9,50.7,41.9,50.7s36.8-21.1,33.8-57.2c-3.1-36.1-53.9-68.5-53.9-68.5
		S217.6,49.7,220.7,85.7z"/>
	<polygon class="st14" points="259.4,128.9 229.4,96 257.4,117.6 248,81.9 233.4,57 251.6,74.2 246.2,35 258.8,103.2 259.2,108 
		273.3,85 	"/>
	<path class="st14" d="M242.5,10.8c0,0,2.2,1.4,5.6,3.9c-7,13.2-18.9,40.8-17.3,67.1c1.4,22.3,17,31.7,26.4,35.3
		c1.5,0.6,2.3,2.2,2,3.7c-1.1,5.3,3.4,15.7,3.4,15.7s-38.8-14.7-41.9-50.7S242.5,10.8,242.5,10.8z"/>
	<polygon points="265.7,136 245.9,31.9 259.5,137 265.7,136 	"/>
	<polygon points="278.3,75.6 256.9,108.9 259.6,110.5 278.3,75.6 	"/>
	<polygon points="254.7,77.7 234,57.5 252.4,79.8 254.7,77.7 	"/>
	<polygon points="260.1,118.9 240,103.9 258.1,121.3 260.1,118.9 	"/>
	<path class="st15" d="M220.7,85.7c3.1,36.1,41.9,50.7,41.9,50.7s36.8-21.1,33.8-57.2c-3.1-36.1-53.9-68.5-53.9-68.5
		S217.6,49.7,220.7,85.7z"/>
	<path class="st16" d="M266.2,37.5c0,0,22.6,20,23.5,30.4C290.5,78.2,269.2,60.2,266.2,37.5z"/>
</g>
<g>
	<path d="M216,207.9c-4.9,0-9.3,4.6-12.2,11.9c-0.7-0.3-1.3-0.6-2-0.9c-3.8-2.1-7-5.6-8.8-10c0.8,5.8,4.3,11.5,9.4,14.9
		c-0.2,0.7-0.4,1.4-0.6,2.2l3.2,1.8l14,8.1l-14,8.1l-4.8,2.8c1.2,16,7.8,28.2,15.8,28.2c8.8,0,16-15,16-33.5S224.8,207.9,216,207.9z
		"/>
	<g>
		<path class="st8" d="M180.9,186.6c0,0,22.3,26.6,45,32.1s8.9-18.6,8.9-18.6"/>
		<path d="M180.9,186.6c12.8,10.9,25.8,22.3,41.5,28.6c3.7,1.2,8.1,2.8,11.9,2.1c6.3-1.4,1.9-12.9,0.5-17.1c1.1,1.5,2.1,3,3,4.6
			c2.9,5.1,4.9,13.9-2.4,16.2c-5.1,1.5-9.9,0-14.6-1.3c0,0-2.6-1-2.6-1C202.7,212.2,190.1,200.2,180.9,186.6L180.9,186.6z"/>
	</g>
	<path d="M294.2,207.9c4.9,0,9.3,4.6,12.2,11.9c0.7-0.3,1.3-0.6,2-0.9c3.8-2.1,7-5.6,8.8-10c-0.8,5.8-4.3,11.5-9.4,14.9
		c0.2,0.7,0.4,1.4,0.6,2.2l-3.2,1.8l-14,8.1l14,8.1l4.8,2.8c-1.2,16-7.8,28.2-15.8,28.2c-8.8,0-16-15-16-33.5
		S285.4,207.9,294.2,207.9z"/>
	<g>
		<path class="st8" d="M329.3,186.6c0,0-22.3,26.6-45,32.1c-22.7,5.5-8.9-18.6-8.9-18.6"/>
		<path d="M329.3,186.6c-12.8,10.9-25.8,22.3-41.5,28.6c-3.7,1.2-8.1,2.8-11.9,2.1c-6.3-1.4-1.9-12.9-0.5-17.1c-1.1,1.5-2.1,3-3,4.6
			c-2.9,5.1-4.9,13.9,2.4,16.2c5.1,1.5,9.9,0,14.6-1.3c0,0,2.6-1,2.6-1C307.5,212.2,320.1,200.2,329.3,186.6L329.3,186.6z"/>
	</g>
</g>
<g>
	<path class="st17" d="M305.9,291.1c-0.2,0.4-11.6,20.6-28,33.7c-7.7,6.1-16.4,10.6-25.6,10.8c-6.3,0.1-11.8-1.6-16.7-4.4
		c-17.8-10.2-26.7-34.6-26.7-34.6c6.1,2.8,12.4,4.7,18.6,6c25.4,5.2,50.2-0.8,64.9-5.9C300.6,293.7,305.6,291.2,305.9,291.1z"/>
	<path class="st3" d="M292.4,296.6c-15.7,25.5-64.3,15.3-64.3,15.1l-0.3-3.7l-0.4-5.5c23.8,4.9,47-0.1,61.9-4.9
		C290.5,297.2,291.5,296.9,292.4,296.6z"/>
	<path class="st18" d="M289.4,297.5c-17.8,17.9-55.7,11.6-61.6,10.4l-0.4-5.5C251.3,307.3,274.5,302.4,289.4,297.5z"/>
	<path class="st19" d="M278,324.7c-7.7,6.1-16.4,10.6-25.6,10.8c-1.4,0-2.7,0-4-0.2c-4.7-0.5-8.9-2.1-12.7-4.3
		c3.2-3.1,8.3-6.7,16.5-9.3c8.9-2.9,15.2-3.7,19.7-2C274.4,320.6,276.4,322.3,278,324.7z"/>
	<path class="st20" d="M278,324.7c-7.7,6.1-16.4,10.6-25.6,10.8c-1.4,0-2.7,0-4-0.2c2.7-3.5,7.1-7.8,14.6-11.7
		c3.3-1.7,6.3-3,8.9-3.9C274.4,320.6,276.4,322.3,278,324.7z"/>
	<g>
		<path d="M194.4,286.6c16.6,12.2,37.6,18.1,58.1,15.8c24.9-3.1,48.9-10.8,72.5-19.2c-22.8,12.2-57.1,24.1-83.1,23.5
			C224.4,305.8,206.9,298.8,194.4,286.6L194.4,286.6z"/>
	</g>
	<g>
		<path d="M208.8,296.6c17.6,36.8,43.6,50.9,76.1,19.7c8.1-7.7,15.2-16.5,21.6-25.7c-5,10.2-11.6,19.6-19.4,27.9
			c-17.2,18.5-41.4,27.8-61.5,7.6C217.6,317.9,212.1,307.6,208.8,296.6L208.8,296.6z"/>
	</g>
	<g>
		<path d="M228.1,311.6c20.1,2.8,50.3,4.3,63.6-14.1c-1.5,2.4-3.4,4.6-5.6,6.5C271.2,316.5,246.2,315.5,228.1,311.6L228.1,311.6z"/>
	</g>
	<g>
		<path d="M236.9,330.1c5.3-5,12.4-7.8,19.3-10.1c5.2-1.6,11.1-2.5,16.3-0.3c1.7,0.8,3.3,1.9,4.2,3.5c-1.1-1.5-2.7-2.5-4.4-3
			c-5.1-1.8-10.8-0.7-15.8,0.8C249.7,323.2,242.7,325.7,236.9,330.1L236.9,330.1z"/>
	</g>
</g>
<path class="st0" d="M267.5,344.2c-0.3,4-7.1,7.2-15.5,7.2c-6.4,0-11.9-1.9-14.3-4.6C242.6,344.3,252,341.6,267.5,344.2z"/>
<g>
	<path d="M273.5,345.4c-13.2-1.4-28.7-3.4-40.3,4.5c1.1-1.4,2.5-2.5,4.1-3.4C248.3,340.2,261.9,341.5,273.5,345.4L273.5,345.4z"/>
</g>
<path class="st0" d="M187.6,285.9c-4,5.7-8.6,8.2-10.2,5.5c0,0-0.1-0.1-0.1-0.1l0,0c0.1-0.8,0.5-3.3,1.7-6.2
	c1.5-3.8,4.1-8.3,8.7-10.8c1.4-0.8,3-1.3,4.9-1.6C192.8,276,190.9,281.3,187.6,285.9z"/>
<g>
	<path d="M177.3,291.5c-0.4-8.8,6.1-19.4,15.9-18.6C184.3,275.1,179.9,283.5,177.3,291.5L177.3,291.5z"/>
</g>
<path class="st0" d="M330.7,277.3c-3.6-6-4-11.2-0.9-11.6c0,0,0.1,0,0.1,0l0,0c0.6,0.4,2.8,1.8,5,4c2.9,2.9,6,7.1,6.3,12.3
	c0.1,1.6,0,3.3-0.5,5.1C337.7,286.1,333.6,282.2,330.7,277.3z"/>
<g>
	<path d="M329.7,265.7c8.2,3.2,15.3,13.4,10.6,22C341.9,278.7,336,271.3,329.7,265.7L329.7,265.7z"/>
</g>
</svg>
