<svg version="1.1" id="Layer_1" xmlns="http://www.w3.org/2000/svg" xmlns:xlink="http://www.w3.org/1999/xlink" x="0px" y="0px"
	 viewBox="0 0 500 500" style="enable-background:new 0 0 500 500;" xml:space="preserve">
<style type="text/css">
	.st0{fill:#EFB229;}
	.st1{fill:#CCCAC8;}
	.st2{fill:#FFFFFF;}
	.st3{fill:none;}
	.st4{fill:none;stroke:#000000;stroke-width:3;stroke-miterlimit:10;}
	.st5{fill:#D8B421;}
	.st6{fill:#EDB74A;}
	.st7{fill:#F7CC81;}
	.st8{fill:none;stroke:#010200;stroke-width:5;stroke-miterlimit:10;}
	.st9{fill:none;stroke:#010200;stroke-width:3;stroke-miterlimit:10;}
	.st10{fill:#010200;}
	.st11{fill:#FFC817;}
	.st12{fill:none;stroke:#010200;stroke-miterlimit:10;}
	.st13{fill:#FFFFFF;stroke:#000000;stroke-width:1.8459;stroke-miterlimit:10;}
	.st14{fill:#E8E2E2;}
	.st15{fill:none;stroke:#000000;stroke-width:1.8459;stroke-miterlimit:10;}
	.st16{fill:none;stroke:#000000;stroke-width:1.8459;stroke-linecap:round;stroke-miterlimit:10;}
	.st17{fill:#FFFFFF;stroke:#000000;stroke-width:2;stroke-miterlimit:10;}
	.st18{fill:#FFFFFF;stroke:#000000;stroke-width:1.9463;stroke-miterlimit:10;}
	.st19{fill:none;stroke:#000000;stroke-width:2;stroke-miterlimit:10;}
	.st20{fill:#D8D8D8;}
	.st21{fill:none;stroke:#000000;stroke-width:2.1115;stroke-miterlimit:10;}
	.st22{fill:#CE9628;}
</style>
<path class="st0" d="M343.9,297.1c0.3,2.3-0.9,4.7-3,5.9c-0.8,0.4-19.1,10.4-38.6,2.1c-15.9-6.9-27.4-23.6-34.2-49.8
	c-0.8-3.2,1.1-6.5,4.3-7.3c3.2-0.8,6.5,1.1,7.3,4.3c5.7,22.4,14.9,36.4,27.2,41.8c14,6.1,28.1-1.4,28.2-1.5c2.9-1.6,6.5-0.5,8.1,2.4
	C343.6,295.6,343.8,296.4,343.9,297.1z"/>
<g>
	<path d="M279.7,252.3c7.7,26.7,24,53.4,55.4,38.7c7.6-3.1,13.9,6.4,8.1,12.2c-0.9,0.9-2,1.4-3.1,1.9c-7.9,3.6-16.6,5.3-25.3,4.6
		c-20.3-1.5-34.6-18.3-41.3-36.2c-2.3-5.9-4.1-12-5.4-18.2c2.5,8,5.3,16,9.3,23.3c7.4,14.5,20.8,27.2,37.7,28.2
		c8.1,0.6,16.4-1,23.8-4.4c3.4-1.1,4.9-5.1,2.3-7.8c-1.4-1.5-3.8-1.8-5.6-0.7c-9.3,4.4-20.8,5.4-30.1,0.7
		C289.8,286.6,283.4,268.3,279.7,252.3L279.7,252.3z"/>
</g>
<g>
	<g>
		<path class="st1" d="M325.6,467.2c-0.5,5.1-2.3,9.2-2.7,9.9c-0.9,1.9-3.7,7.6-10,11.1c-9.6,5.2-20.2,1.3-26.6-1.1
			c-6.9-2.6-11-5.9-18.8-12.2c-10.6-8.6-16-13-17.2-20.5c-0.1-1-1-6.8,2-12.3c0.4-0.7,0.8-1.4,1.3-2.1c1-1.3,3.6-4.8,7.7-5.5
			c3.5-0.6,5.3,1.2,11.6,3.9c5.5,2.3,9.8,3.3,14.4,4.4c8.2,2,8.9,0.8,15.5,2.2c8,1.8,15.7,3.5,19.9,10
			C325.5,458.9,326,463.4,325.6,467.2z"/>
		<path class="st2" d="M325.6,467.2c-0.2,0.5-0.4,0.9-0.5,1c-0.9,1.9-3.7,7.6-10,11.1c-9.6,5.2-20.2,1.3-26.6-1.1
			c-6.9-2.6-11-5.9-18.8-12.2c-10.6-8.6-16-13-17.2-20.5c-0.1-0.4-0.2-1.7-0.2-3.5c0.4-0.7,0.8-1.4,1.3-2.1c1-1.3,3.6-4.8,7.7-5.5
			c3.5-0.6,5.3,1.2,11.6,3.9c5.5,2.3,9.8,3.3,14.4,4.4c8.2,2,8.9,0.8,15.5,2.2c8,1.8,15.7,3.5,19.9,10
			C325.5,458.9,326,463.4,325.6,467.2z"/>
		<path class="st3" d="M325.6,467.2c-0.5,5.1-2.3,9.2-2.7,9.9c-0.9,1.9-3.7,7.6-10,11.1c-9.6,5.2-20.2,1.3-26.6-1.1
			c-6.9-2.6-11-5.9-18.8-12.2c-10.6-8.6-16-13-17.2-20.5c-0.1-1-1-6.8,2-12.3c0.4-0.7,0.8-1.4,1.3-2.1c1-1.3,3.6-4.8,7.7-5.5
			c3.5-0.6,5.3,1.2,11.6,3.9c5.5,2.3,9.8,3.3,14.4,4.4c8.2,2,8.9,0.8,15.5,2.2c8,1.8,15.7,3.5,19.9,10
			C325.5,458.9,326,463.4,325.6,467.2z"/>
		<path class="st4" d="M325.6,467.2c-0.5,5.1-2.3,9.2-2.7,9.9c-0.9,1.9-3.7,7.6-10,11.1c-9.6,5.2-20.2,1.3-26.6-1.1
			c-6.9-2.6-11-5.9-18.8-12.2c-10.6-8.6-16-13-17.2-20.5c-0.1-1-1-6.8,2-12.3c0.4-0.7,0.8-1.4,1.3-2.1c1-1.3,3.6-4.8,7.7-5.5
			c3.5-0.6,5.3,1.2,11.6,3.9c5.5,2.3,9.8,3.3,14.4,4.4c8.2,2,8.9,0.8,15.5,2.2c8,1.8,15.7,3.5,19.9,10
			C325.5,458.9,326,463.4,325.6,467.2z"/>
		<g>
			<path d="M280.4,455.5c3.4-9,17.5-10.6,25.9-10.9c0,0,0,2.3,0,2.3l-3.6-0.1C295.2,447,284,447.9,280.4,455.5L280.4,455.5z"/>
		</g>
		<g>
			<path d="M254.8,451.5c3.2,3.7,6.8,7.2,10.3,10.7C260.6,459.9,256.8,456.1,254.8,451.5L254.8,451.5z"/>
		</g>
		<g>
			<path d="M296.7,480.8c7.5,1.1,15.4,0.6,21.8-3.8C313.1,482.9,303.8,483.6,296.7,480.8L296.7,480.8z"/>
		</g>
		<path class="st1" d="M306.9,450c-4.9,0-9.2,2.6-11.7,6.4c1.9-0.9,3.9-1.5,6.1-1.5c7.6,0,13.8,6.2,13.8,13.8c0,2.7-0.8,5.3-2.2,7.4
			c4.6-2.3,7.7-7,7.7-12.4C320.8,456.2,314.6,450,306.9,450z"/>
		<g>
			<path d="M313.1,476.2c7.7-4.2,9.6-14.9,3.7-21.2c-5.7-6.6-16.6-5.7-21.5,1.5c3.2-5.8,10.8-8.4,17-6
				C323.7,454.9,324.4,471.3,313.1,476.2L313.1,476.2z"/>
		</g>
		<ellipse class="st2" cx="274.8" cy="436.2" rx="20.5" ry="13.3"/>
		<g>
			<path d="M258.5,444.2c-6.3-4.2-6.3-12.2-0.6-17c5-4.4,11.9-6,18.4-5.8c6.5,0.3,13.4,2.5,17.6,7.8c4.8,6.1,1.7,13.5-4.8,16.5
				c9.2-7,5.8-16.2-4.2-19.6c-5.5-2-11.8-2.2-17.5-0.8C258,427.4,250.4,435.7,258.5,444.2L258.5,444.2z"/>
		</g>
	</g>
	<ellipse cx="275" cy="434.7" rx="9.5" ry="8.2"/>
	<path class="st0" d="M275.3,441c-1,0-1.9-0.2-2.9-0.5c-4.7-1.6-7.2-6.7-5.6-11.4c13.5-39.5,1.9-64.2,1.8-64.4
		c-2.2-4.5-0.3-9.9,4.2-12c4.5-2.2,9.9-0.3,12,4.2c0.6,1.3,14.9,31.7-1,78.1C282.5,438.6,279,441,275.3,441z"/>
	<g>
		<path d="M284.8,356.8c7,14.9,8.4,31.9,7,48.2c-0.4,4.3-1.2,9.4-2,13.6c-0.4,1.7-1.5,6.2-1.9,8c-0.7,2.5-1.6,5.3-2.4,7.9
			c-1.8,7.8-11.6,10.8-17.4,5.2c-2.9-2.7-4-7.1-2.7-10.9c4.7-13.8,7.6-28.3,7-42.9c-0.3-7.2-1.3-14.4-3.8-21.2
			c1.6,3.3,2.6,6.8,3.5,10.3c2.5,10.7,2.7,21.8,1.2,32.7c-1,7.5-2.9,14.8-5.2,22c-0.1,0.5-0.3,1.1-0.3,1.7
			c-0.5,9.4,12.6,11.4,14.9,2.2c1.3-4,2.8-8.8,3.7-12.9c0.9-3.4,1.5-7.1,2.2-10.5C291.3,392.3,291.1,373.7,284.8,356.8L284.8,356.8z
			"/>
	</g>
</g>
<g>
	<path class="st5" d="M235.3,97.8c-4.5,2.6-16.1,10-23,25.5c-3.7,8.3-4.7,16-5,21.1"/>
	<path class="st0" d="M396.3,398.4c-1.7,4-4.4,7-4.9,7.7c-5.3,6.5-12.7,8.2-17,8.8c-0.4,0.1-0.9,0.1-1.2,0.2
		c-87.5,11.9-140.8-24.7-140.8-24.7c-12.5-8.6-71.7-49.3-84.1-130.4c-9.1-59.7,12.7-106.2,19.2-119.1c2.3-4.5,24.5-47.1,60.8-67.4
		c20.6-11.6,39.5-14.6,39.5-14.6c12.1-1.9,12.5,0.2,18.2-2.2c20.9-9,18.4-39.7,34.4-43.8c0.5-0.1,0.9-0.2,1.4-0.3
		c8.5-1.3,17.6,5.5,21.9,12.6c3.8,6.3,5.9,16.5,2,21.4c-1.6,2-3.5,2.1-6.1,2.4c-1.4,0.2-3.1,0.3-5.1,1c-0.8,0.2-1.6,0.6-2.4,0.9
		c-8.8,3.9-15.6,13.5-17.8,21.6c-3.8,13.7,6.3,20.1,6.1,36c-0.3,16.6-11.5,26.9-19.2,37.1c-28.2,37.3-22.9,95.6-22.3,101.1
		c7.6,69.3,70.4,114.2,85.6,119.7c6.9,2.5,11,5,19.2,10.1c0.8,0.5,1.5,1,2.2,1.4c9,5.8,10.8,8.7,11.4,11.5
		C398.2,392.5,397.5,395.7,396.3,398.4z"/>
	<path class="st6" d="M396.3,398.4c-15.1-8.5-50.9-6.8-84.4-17.6c-6.1-2-16.2-5.6-28.4-12.4c-11.6-5.5-35.9-19.1-54.7-48.3
		c-16.8-26.1-20.7-51.4-22.8-65.7c-7.5-51.8,8.4-91.7,19.2-119.1c11.3-28.4,22.9-57.8,43-61.2c6.9-1.2,16.5,0.3,27.3-6.7
		c2.7-1.8,10.6-6.9,15.2-16.9c1.8-3.8,1.3-4.5,3-7.9c4.9-9.4,14.9-16,18.2-13.5c3.7,2.9-1.5,16.6,0.1,21.7
		c-8.8,3.9-15.6,13.5-17.8,21.6c-1.6,5.8-0.7,10.3,0.8,14.8c2.1,6,5.4,12,5.2,21.2c-0.3,16.6-11.5,26.9-19.2,37.1
		c-28.2,37.3-22.9,95.6-22.3,101.1c7.6,69.3,70.4,114.2,85.6,119.7c6.9,2.5,11,5,19.2,10.1c0.8,0.5,1.5,1,2.2,1.4
		c2.5,1.6,4.5,3,6,4.2c3.9,3.2,5,5.2,5.4,7.3C398.2,392.5,397.5,395.7,396.3,398.4z"/>
	<path class="st7" d="M392.1,382c-4.1-1-8.2-2.1-12.3-3.4c-6.1-2-16.2-5.6-28.4-12.4c-34.7-19.3-54.7-48.3-54.7-48.3
		c-19.6-28.4-25-56.7-26.4-64.8c-2.7-15.9-10.7-62.8,12-95.4c9-12.9,19.5-18.8,27-38.8c4.7-12.6,5.8-24.1,6-31.7
		c2.5,4.8,5.4,12.2,5.2,21.2c-0.3,16.6-11.5,26.9-19.2,37.1c-28.2,37.3-22.9,95.6-22.3,101.1c7.6,69.3,70.4,114.2,85.6,119.7
		c6.9,2.5,11,5,19.2,10.1c0.8,0.5,1.5,1,2.2,1.4C388.6,379.4,390.6,380.7,392.1,382z"/>
	<path class="st8" d="M396.4,398.4c-1.7,4-4.4,7-4.9,7.7c-5.3,6.5-12.7,8.2-17,8.8c-0.5,0.1-0.9,0.1-1.2,0.2
		c-87.5,11.9-140.8-24.7-140.8-24.7c-12.5-8.6-71.7-49.3-84.1-130.4c-9.1-59.7,12.7-106.2,19.2-119.1c2.3-4.5,24.5-47.1,60.8-67.4
		c20.6-11.6,39.5-14.6,39.5-14.6c12.1-1.9,12.6,0.2,18.2-2.3c20.9-9,18.4-39.7,34.4-43.8c0.5-0.1,0.9-0.2,1.4-0.3
		c8.5-1.3,17.6,5.5,21.9,12.6c3.8,6.3,5.9,16.5,2,21.4c-1.6,2-3.5,2.1-6.1,2.4c-1.4,0.2-3.1,0.4-5.1,1c-0.8,0.3-1.6,0.6-2.4,0.9
		c-8.8,3.9-15.6,13.5-17.8,21.5c-0.7,2.6-0.9,4.9-0.8,7c0,0.2,0,0.4,0,0.6c0,0.3,0,0.6,0.1,0.8c0,0.3,0.1,0.6,0.1,0.8
		c0,0.1,0,0.2,0.1,0.3c0,0.3,0.1,0.7,0.2,1c0.1,0.3,0.1,0.5,0.2,0.8c0.1,0.3,0.1,0.5,0.2,0.8c0.2,0.9,0.5,1.8,0.8,2.7
		c0.2,0.7,0.5,1.5,0.8,2.2c0.9,2.5,2,5,2.8,7.9c0.1,0.3,0.2,0.5,0.2,0.8c0.2,0.7,0.4,1.3,0.5,2c0,0.2,0.1,0.4,0.1,0.7
		c0.1,0.3,0.1,0.7,0.2,1c0.1,0.4,0.1,0.8,0.2,1.3c0.1,0.6,0.2,1.3,0.2,1.9c0,0.3,0.1,0.7,0.1,1c0,0.1,0,0.2,0,0.3c0,0.5,0,1,0,1.5
		v0.6c-0.3,16.6-11.5,26.9-19.2,37.1c-28.2,37.3-22.9,95.6-22.3,101.1c7.6,69.3,70.4,114.2,85.6,119.7c6.9,2.5,11,5,19.2,10.1
		c0.8,0.5,1.5,1,2.2,1.4c1.7,1.1,3.1,2.1,4.4,3c0.2,0.2,0.4,0.3,0.6,0.4c0.2,0.1,0.4,0.3,0.6,0.4c0.2,0.1,0.3,0.3,0.5,0.4
		c0,0,0,0,0,0c0.3,0.3,0.7,0.6,1,0.8c0.3,0.3,0.6,0.5,0.8,0.8c0,0,0.1,0.1,0.1,0.1c0.2,0.2,0.4,0.4,0.6,0.6c0.3,0.4,0.7,0.7,0.9,1
		c0.2,0.2,0.3,0.4,0.4,0.6c0.4,0.5,0.7,1,0.9,1.5c0.1,0.2,0.2,0.5,0.3,0.7c0.1,0.4,0.2,0.8,0.3,1.2
		C398.2,392.5,397.5,395.6,396.4,398.4z"/>
	<path class="st9" d="M391.6,381.6c0.2,0.1,0.3,0.3,0.5,0.4c0,0,0,0,0,0C391.9,381.8,391.7,381.7,391.6,381.6z"/>
	<path class="st9" d="M392.1,382C392.1,382,392.1,382,392.1,382c-0.2-0.1-0.3-0.3-0.5-0.4C391.7,381.7,391.9,381.8,392.1,382z"/>
	<path class="st10" d="M391.4,406.1c-5.3,6.5-12.7,8.2-17,8.8c-3-4.6-4.8-10.3-4.8-17.2c0-14,6.6-18.6,16.4-19.9
		c9,5.8,10.8,8.7,11.4,11.5C399.3,397.2,392.4,404.9,391.4,406.1z"/>
	<path class="st10" d="M345.8,46.5c-1.6,2-3.5,2.1-6.1,2.4c-11.2-2.1-19.8-13-19.8-26c0-3.7,0.7-7.2,1.9-10.4
		c8.5-1.3,17.6,5.5,21.9,12.6C347.6,31.5,349.7,41.7,345.8,46.5z"/>
	<path class="st6" d="M235.3,97.8c-3.4-1.7-15.7,23.4-20,32.2c-7.2,14.6-7.1,17.4-6,18.9c2.8,3.9,14.8,1.3,20-6.7
		c2.4-3.7,2.1-6.7,3-16.6C234.1,105.2,237,98.6,235.3,97.8z"/>
	<path class="st0" d="M262.3,366.3c-0.6-5.3,1.8-11.7,6-14.4c10-6.4,20.7,14.3,46,15.5c6.3,0.3,12.3-0.7,20,3.3
		c5.4,2.8,12.8,8.7,12,13.3c-1.2,6.4-17.8,7.5-22,7.8C298.9,393.5,264.2,383.7,262.3,366.3z"/>
	<g>
		<path class="st10" d="M374.8,395c-26.6-4.5-53.3-9.9-78.5-19.8c6.4,2.1,12.9,3.7,19.5,5.2c13.1,2.9,26.4,4.9,39.7,6.6
			c6.6,0.8,13.3,1.5,20,2.1L374.8,395L374.8,395z"/>
	</g>
	<g>
		<path class="st10" d="M303.3,61.2c4.5-11.8,10.9-23.2,20.1-32.1c0,0,2.6,3,2.6,3c-4.8,3.7-9.1,8.3-12.8,13.2
			C309.5,50.3,306.1,55.6,303.3,61.2L303.3,61.2z"/>
	</g>
	<g>
		<path class="st10" d="M238.3,104.9c2.2-12.1,10.9-22.7,21.8-28c1.5-0.8,3.2-1.3,4.8-2c-0.7,0.5-1.5,1-2.2,1.4
			C251.9,83,243.2,93,238.3,104.9L238.3,104.9z"/>
	</g>
	<path class="st11" d="M312.3,249.8"/>
</g>
<path d="M206.5,181.4c-3.6-0.7-7.6,2.4-10.9,7.7l2.1,4.1l3,5.7l-6.5-0.3l-2.9-0.1c-0.7,2.2-1.3,4.6-1.8,7.1
	c-2.9,14.6,0.1,27.5,6.6,28.8c6.5,1.3,14.1-9.6,16.9-24.2C216,195.6,213,182.7,206.5,181.4z"/>
<path class="st6" d="M218.9,181.4c0,0,2,13.3-1.3,15c-9,4.7-35.2-20.3-35.2-20.3"/>
<path class="st0" d="M218.1,175.1c0,0,2.1,14.1-1.4,15.9c-9.6,5-37.4-21.6-37.4-21.6"/>
<g>
	<path d="M218.9,181.4c0.9,2.3,1.4,4.7,1.8,7.1c0.3,2.7,0.6,5.5-0.7,8.1c-0.8,1.5-2.6,2.2-4.1,2.5c-8.6,0.8-17.9-6.8-23.9-12.1
		c-3.6-3.3-6.9-6.9-9.7-10.9c4.2,2.5,8.2,5.2,12.1,7.8c3.9,2.6,7.9,5.2,11.8,7.5c3,1.6,6.1,3.4,9.4,3.3c0.2,0,0.4,0,0.5-0.1
		c0.5-0.2,0.2,0.1,0.5-0.1c0.5-0.6,0.8-1.7,1-2.6C218.5,188.6,218.6,185,218.9,181.4L218.9,181.4z"/>
</g>
<path d="M243.4,181.4c3.6-0.7,7.6,2.4,10.9,7.7l-2.1,4.1l-3,5.7l6.5-0.3l2.9-0.1c0.7,2.2,1.3,4.6,1.8,7.1
	c2.9,14.6-0.1,27.5-6.6,28.8c-6.5,1.3-14.1-9.6-16.9-24.2C233.9,195.6,236.9,182.7,243.4,181.4z"/>
<path class="st6" d="M233,181.4c0,0-2,13.3,1.3,15c9,4.7,35.2-20.3,35.2-20.3"/>
<g>
	<path d="M233,181.4c0.3,3.6,0.5,7.1,1.2,10.6c0.2,0.8,0.5,2,1,2.6c0.2,0.2,0-0.1,0.5,0.1c0.1,0.1,0.4,0.1,0.5,0.1
		c3.3,0.1,6.4-1.7,9.4-3.3c4-2.2,7.9-4.9,11.8-7.5c4-2.6,7.9-5.3,12.1-7.8c-2.8,4-6.1,7.6-9.7,10.9c-6,5.3-15.3,12.8-23.9,12.1
		c-1.6-0.3-3.3-1-4.1-2.5c-1.3-2.6-1-5.4-0.7-8.1C231.6,186.1,232.1,183.7,233,181.4L233,181.4z"/>
</g>
<g>
	<path class="st10" d="M291.5,152.5c4.9-7.8,11-14.4,15.6-22.3C305.5,138.5,298,147.2,291.5,152.5L291.5,152.5z"/>
</g>
<g>
	<path class="st10" d="M291.5,314.4c5.8,6.7,13.8,16.2,19.9,22.5c6.9,7.2,14,14.3,22.5,19.5C317.5,349.6,300.9,329.3,291.5,314.4
		L291.5,314.4z"/>
</g>
<path class="st12" d="M177.9,233.3"/>
<g>
	<g>
		<path class="st1" d="M150.6,472.6c0.5,5.1,2.3,9.2,2.7,9.9c0.9,1.9,3.7,7.6,10,11.1c9.6,5.2,20.2,1.3,26.6-1.1
			c6.9-2.6,11-5.9,18.8-12.2c10.6-8.6,16-13,17.2-20.5c0.1-1,1-6.8-2-12.3c-0.4-0.7-0.8-1.4-1.3-2.1c-1-1.3-3.6-4.8-7.7-5.5
			c-3.5-0.6-5.3,1.2-11.6,3.9c-5.5,2.3-9.8,3.3-14.4,4.4c-8.2,2-8.9,0.8-15.5,2.2c-8,1.8-15.7,3.5-19.9,10
			C150.7,464.2,150.2,468.7,150.6,472.6z"/>
		<path class="st2" d="M150.6,472.6c0.2,0.5,0.4,0.9,0.5,1c0.9,1.9,3.7,7.6,10,11.1c9.6,5.2,20.2,1.3,26.6-1.1
			c6.9-2.6,11-5.9,18.8-12.2c10.6-8.6,16-13,17.2-20.5c0.1-0.4,0.2-1.7,0.2-3.5c-0.4-0.7-0.8-1.4-1.3-2.1c-1-1.3-3.6-4.8-7.7-5.5
			c-3.5-0.6-5.3,1.2-11.6,3.9c-5.5,2.3-9.8,3.3-14.4,4.4c-8.2,2-8.9,0.8-15.5,2.2c-8,1.8-15.7,3.5-19.9,10
			C150.7,464.2,150.2,468.7,150.6,472.6z"/>
		<path class="st3" d="M150.6,472.6c0.5,5.1,2.3,9.2,2.7,9.9c0.9,1.9,3.7,7.6,10,11.1c9.6,5.2,20.2,1.3,26.6-1.1
			c6.9-2.6,11-5.9,18.8-12.2c10.6-8.6,16-13,17.2-20.5c0.1-1,1-6.8-2-12.3c-0.4-0.7-0.8-1.4-1.3-2.1c-1-1.3-3.6-4.8-7.7-5.5
			c-3.5-0.6-5.3,1.2-11.6,3.9c-5.5,2.3-9.8,3.3-14.4,4.4c-8.2,2-8.9,0.8-15.5,2.2c-8,1.8-15.7,3.5-19.9,10
			C150.7,464.2,150.2,468.7,150.6,472.6z"/>
		<path class="st4" d="M150.6,472.6c0.5,5.1,2.3,9.2,2.7,9.9c0.9,1.9,3.7,7.6,10,11.1c9.6,5.2,20.2,1.3,26.6-1.1
			c6.9-2.6,11-5.9,18.8-12.2c10.6-8.6,16-13,17.2-20.5c0.1-1,1-6.8-2-12.3c-0.4-0.7-0.8-1.4-1.3-2.1c-1-1.3-3.6-4.8-7.7-5.5
			c-3.5-0.6-5.3,1.2-11.6,3.9c-5.5,2.3-9.8,3.3-14.4,4.4c-8.2,2-8.9,0.8-15.5,2.2c-8,1.8-15.7,3.5-19.9,10
			C150.7,464.2,150.2,468.7,150.6,472.6z"/>
		<g>
			<path d="M195.8,460.9c-3.6-7.7-14.8-8.6-22.3-8.7c0,0-3.6,0.1-3.6,0.1l0-2.3C178.3,450.3,192.4,451.8,195.8,460.9L195.8,460.9z"
				/>
		</g>
		<g>
			<path d="M221.4,456.8c-2,4.6-5.8,8.5-10.3,10.7C214.6,464,218.2,460.5,221.4,456.8L221.4,456.8z"/>
		</g>
		<g>
			<path d="M179.5,486.2c-7.1,2.8-16.4,2.1-21.8-3.8C164.1,486.8,172,487.3,179.5,486.2L179.5,486.2z"/>
		</g>
		<path class="st1" d="M169.3,455.3c4.9,0,9.2,2.6,11.7,6.4c-1.9-0.9-3.9-1.5-6.1-1.5c-7.6,0-13.8,6.2-13.8,13.8
			c0,2.7,0.8,5.3,2.2,7.4c-4.6-2.3-7.7-7-7.7-12.4C155.4,461.5,161.6,455.3,169.3,455.3z"/>
		<g>
			<path d="M163.1,481.6c-11.3-5-10.6-21.4,0.8-25.7c6.2-2.5,13.8,0.1,17,6c-4.9-7.2-15.8-8-21.5-1.5
				C153.5,466.7,155.5,477.4,163.1,481.6L163.1,481.6z"/>
		</g>
		<ellipse class="st2" cx="201.4" cy="441.5" rx="20.5" ry="13.3"/>
		<g>
			<path d="M217.7,449.5c8.1-8.5,0.5-16.8-8.8-18.9c-5.7-1.4-12-1.2-17.5,0.8c-10,3.4-13.5,12.6-4.2,19.6c-6.5-3-9.6-10.4-4.8-16.5
				c4.2-5.3,11.1-7.5,17.6-7.8c6.5-0.2,13.4,1.3,18.4,5.8C224,437.3,224,445.3,217.7,449.5L217.7,449.5z"/>
		</g>
	</g>
	<ellipse cx="201.2" cy="440" rx="9.5" ry="8.2"/>
</g>
<path class="st0" d="M201.3,445.2c-4.5,0-8.4-3.3-8.9-7.9c-8.4-69,12.9-104.2,13.9-105.6c2.6-4.2,8.2-5.5,12.4-2.9
	c4.2,2.6,5.5,8.1,2.9,12.4c-0.3,0.6-18.8,32.1-11.3,94c0.6,4.9-2.9,9.4-7.8,10C202,445.2,201.7,445.2,201.3,445.2z"/>
<g>
	<path d="M221.5,341.1c-9.3,19.7-11.6,41.9-11.8,63.5c0,4.2,0.2,10.3,0.5,14.4c0.2,4.2,0.9,10.1,1.3,14.4c0,0,0.2,1.8,0.2,1.8
		c0.6,5-2.9,9.9-7.8,11.1c-6,1.7-12.5-2.8-13-9c-0.4-4.5-1-9.2-1.3-13.6c-1.4-21.8-0.2-44.1,5.6-65.2c2.7-9.3,5.9-18.6,11-26.9
		c-2.3,4.3-4.1,8.8-5.6,13.3c-9.9,29.5-10.3,61.4-6.7,92c1.9,10.8,17.1,7.7,14.8-3.2c-1.2-12-1.9-24.4-1.1-36.5
		c0.7-12.1,2.4-24.3,5.8-35.9C215.4,354.3,217.9,347.4,221.5,341.1L221.5,341.1z"/>
</g>
<g>
	<path class="st0" d="M108.8,335.1c-2.3,0-4.6-1.4-5.5-3.7c-0.3-0.8-8.2-20.2,2.3-38.6c8.6-15.1,26.6-24.6,53.4-28.4
		c3.3-0.5,6.3,1.8,6.8,5.1s-1.8,6.3-5.1,6.8c-22.9,3.2-37.8,10.7-44.5,22.3c-7.6,13.2-1.8,28-1.7,28.2c1.2,3.1-0.2,6.6-3.3,7.8
		C110.4,334.9,109.6,335.1,108.8,335.1z"/>
	<g>
		<path d="M160.6,276.3c-27.4,4.6-55.8,17.9-44.6,50.7c2.2,7.9-7.9,13.1-13,6.7c-0.8-0.9-1.2-2.1-1.6-3.3
			c-2.7-8.2-3.4-17.1-1.7-25.7c3.8-20,22.1-32.3,40.6-37c6.1-1.6,12.4-2.7,18.7-3.4c-8.3,1.6-16.5,3.4-24.2,6.6
			c-15.2,5.7-29.4,17.6-32.3,34.3c-1.5,8-0.8,16.4,1.7,24.1c0.7,3.5,4.5,5.5,7.5,3.2c1.6-1.2,2.2-3.6,1.3-5.5
			c-3.3-9.7-3.1-21.2,2.7-30C125.4,282.5,144.2,278.2,160.6,276.3L160.6,276.3z"/>
	</g>
</g>
<g>
	<path class="st13" d="M325.4,303.9c0,6.7-2.3,12.1-5.1,12.1c-2.9,0-2.1-6.2-2.1-12.8c0-6.7-1-11.2,1.9-11.3
		C322.9,291.8,325.3,297.2,325.4,303.9z"/>
	
		<ellipse transform="matrix(1 -7.227172e-03 7.227172e-03 1 -2.1745 2.49)" class="st13" cx="343.4" cy="302.1" rx="21.3" ry="19.3"/>
	<path class="st2" d="M358.8,316.9c-1.2,2.6-3.4,4-5.2,4.9c-0.8,0.4-1.5,0.6-2,0.8c-3.1,1.2-5.8,1-7.2,0.9c-2.7-0.2-6.4-0.5-8.1-3.2
		c-1-1.5-0.9-3.2-0.8-4c0.3-4.7,4.3-7.8,4.8-8.1c1.5-1.1,3.4-1.8,5.3-2.1c5.9-1,12.6,1.3,14,5.2C360.4,313.6,359.2,316,358.8,316.9z
		"/>
	<path class="st13" d="M341,299.3"/>
	<path class="st14" d="M353.6,321.7c-0.8,0.4-1.5,0.6-2,0.8c-3.1,1.2-5.8,1-7.2,0.9c-2.7-0.2-6.4-0.5-8.1-3.2c-1-1.5-0.9-3.2-0.8-4
		c0.3-4.7,4.3-7.8,4.8-8.1c1.5-1.1,3.4-1.8,5.3-2.1c1.4,1,2.4,2.8,1.9,3.7c-0.7,1.3-3.9-0.2-5.6,1.6c-1.3,1.4-0.8,3.8-0.8,4
		c0.6,2.6,3.4,4.3,5.7,4.8c2.9,0.6,4.1-1,5.6,0C352.9,320.5,353.4,321.1,353.6,321.7z"/>
	<path class="st15" d="M359.6,311.2c-1.4-3.9-8.1-6.2-14-5.2c-1.9,0.3-3.8,1-5.3,2.1c-0.4,0.3-4.5,3.3-4.8,8.1
		c-0.1,0.9-0.1,2.5,0.8,4c1.7,2.7,5.3,2.9,8.1,3.2c1.5,0.1,4.1,0.3,7.2-0.9c0.6-0.2,1.3-0.5,2-0.8c1.8-0.9,4-2.3,5.2-4.9
		C359.2,316,360.4,313.6,359.6,311.2z"/>
	<path class="st14" d="M327.8,297.4c2-1.6,10.2,2.3,10.6,7.5c0.2,3.1-2.3,6.1-3.2,5.8c-1-0.3,0.8-4.2-1.4-6.8
		c-2-2.4-5.5-1.4-6.4-3.7C327,299.3,327.1,297.9,327.8,297.4z"/>
	<path class="st2" d="M365.5,309.2c-0.1,0.1-0.2,0.3-0.3,0.4c-3.4,4.4-9.8,3.8-15.3,3.3c-2.7-0.2-4.3-0.8-5.6-1.6
		c-0.8-0.5-4.4-2.6-4.9-6.4c-0.4-3.1,1.7-5.6,2.4-6.4c3.2-3.9,8.6-4.9,13.1-4.7c1.4,0.1,2.7,0.3,3.8,0.5c2.5,0.6,5.5,1.3,7.3,4
		C368.1,301.6,367.6,306.2,365.5,309.2z"/>
	<path class="st14" d="M365.5,309.2c-0.1,0.1-0.2,0.3-0.3,0.4c-3.4,4.4-9.8,3.8-15.3,3.3c-2.7-0.2-4.3-0.8-5.6-1.6
		c-0.8-0.5-4.4-2.6-4.9-6.4c-0.4-3.1,1.7-5.6,2.4-6.4c3.2-3.9,8.6-4.9,13.1-4.7c0.6,0.3,1.4,0.8,1.4,1.4c0,1.9-7.2,1.9-8.8,5.7
		c-0.8,2-0.2,5.1,1.7,6.4c3.6,2.6,9.9-3.1,14.5-0.1C364.5,307.8,365.1,308.7,365.5,309.2z"/>
	<path class="st15" d="M365.9,298.3c-1.8-2.7-4.8-3.4-7.3-4c-1.1-0.3-2.4-0.5-3.8-0.5c-4.5-0.2-9.8,0.8-13.1,4.7
		c-0.7,0.8-2.7,3.3-2.4,6.4c0.4,3.8,4.1,5.9,4.9,6.4c1.4,0.8,3,1.3,5.6,1.6c5.4,0.5,11.9,1,15.3-3.3c0.1-0.1,0.2-0.2,0.3-0.4
		C367.6,306.2,368.1,301.6,365.9,298.3z"/>
	<path class="st14" d="M366.3,287.9c0,6.2-5.8,11.3-13,11.3c-7.2,0.1-13.1-4.9-13.1-11.2c0-1.1,0.1-2.1,0.4-2.9
		c1.1-3.4,4.9-3.6,10.8-3.7c6.1,0,12.6,0.1,14.4,3.9C366.1,286.1,366.2,286.9,366.3,287.9z"/>
	<path class="st2" d="M365.7,285.4c-1.7,2.4-6.2,7.9-12.5,8.2c-2.6,0.1-6-0.6-6.2-2c-0.3-1.5,3.4-2.7,3.2-4c-0.1-0.9-2.1-2-9.7-2.4
		c1.8-1.2,5.6-3.6,10.8-3.7C357.4,281.5,363.8,281.6,365.7,285.4z"/>
	<path class="st15" d="M366.3,287.9c0,6.2-5.8,11.3-13,11.3c-7.2,0.1-13.1-4.9-13.1-11.2c0-1.1,0.1-2.1,0.4-2.9
		c1.1-3.4,4.9-3.6,10.8-3.7c6.1,0,12.6,0.1,14.4,3.9C366.1,286.1,366.2,286.9,366.3,287.9z"/>
	<path class="st16" d="M341.3,289.3c0,0,0.8-4,10.4-2.5"/>
	<path class="st14" d="M344.7,293.3c-1.3,6.6-5.8,11.4-10.2,10.5c-3.4-0.7-5.7-4.5-5.9-9.3c-0.1-1.4,0-2.8,0.3-4.2
		c1.3-6.6,5.8-11.4,10.2-10.5c1.6,0.3,3,1.3,4,2.9C344.8,285.2,345.5,289.1,344.7,293.3z"/>
	<path class="st2" d="M342.8,286.8c-1.3,6.6-5.8,11.4-10.2,10.5c-1.6-0.3-3-1.4-4-2.9c-0.1-1.4,0-2.8,0.3-4.2
		c1.3-6.6,5.8-11.4,10.2-10.5c1.6,0.3,3,1.3,4,2.9C343.2,284,343.1,285.4,342.8,286.8z"/>
	<path class="st15" d="M332.1,283.3c0.7-0.8,3.7-4.2,7-3.6c1.6,0.3,3,1.3,4,2.9c1.7,2.6,2.4,6.5,1.6,10.7
		c-1.3,6.6-5.8,11.4-10.2,10.5c-3.4-0.7-5.7-4.5-5.9-9.3c-0.1-1.7,0.2-3.7,0.3-4.2c0.2-1,0.5-2.6,1.5-4.5L332.1,283.3z"/>
</g>
<g>
	<path class="st17" d="M115,359.9c-11.1,1.9-22.2-8.1-24.2-20.4c-2.1-12.2,5.2-23.6,16.3-25.5c11.1-1.9,21.7,6.5,23.8,18.7
		C132.9,345,126.1,358,115,359.9z"/>
	<path class="st18" d="M113.7,336.4"/>
	<path class="st17" d="M105.7,319.2c-7.3,1.2-13.6-0.2-14.1-3.2s6.4-3.2,13.7-4.5c7.3-1.2,12.2-3,12.7,0S113,318,105.7,319.2z"/>
	<path class="st2" d="M138.9,342c-1.5,0.9-3.2,1.2-5.1,0.7c-0.1,0-0.2,0-0.3-0.1c-2-5.2-3.6-8.4-7.2-8.3c-0.7,0-1.4,0.1-2.2,0.4
		c-3.2-5.7-3-11.9,0.7-14.3c3.1-2,7.6-0.7,11.3,2.8c1,1,2,2.1,2.8,3.4C142.8,332.6,142.8,339.5,138.9,342z"/>
	<path class="st2" d="M105.6,360c-0.3,0.3-1.8,0.8-2.2,1c-1.8,0.9-4.2,0.1-5-0.1c-2.5-0.8-4.1-2.4-5.1-3.9c-0.5-0.6-0.8-1.2-1.1-1.6
		c-1.6-2.5-1.9-4.7-2.1-5.9c-0.3-2.3-0.8-5.3,1.2-6.9c1.1-0.9,2.6-1,3.3-1"/>
	<path class="st2" d="M123,359.4c-0.4,1.1-1,2.2-2,3.1c-3,2.8-7.9,3-11.4,1.4c-0.1-0.1-0.3-0.1-0.4-0.2c-1.9-1-3.2-2.6-4-4.5
		c-1.4-3.2-1.7-7.2-2-10.8c-0.1-1.3-0.1-2.3,0-3.2"/>
	<path class="st2" d="M126.3,334.3c3.6-0.1,5.2,3.1,7.2,8.3c0.1,0.3,0.2,0.6,0.4,1c2.3,6,4.5,12.4,1.5,15.7
		c-0.6,0.6-1.3,1.1-2.2,1.4c-3.4,1.3-7,0.7-10.1-1.3c-2.5-1.6-4.6-4.2-5.8-7.4c-0.9-2.3-1.2-4.7-1-6.9"/>
	<g>
		<path d="M104.5,360.2c0.8-0.2,0.2,0.3-0.1,0.4c-1.4,1.1-3.2,1.5-5,1.1c-5.8-0.8-9.7-6.6-10.2-12.1c-0.2-2.1-0.5-4.3,0.7-6.3
			c0.9-1.4,2.3-2,3.8-1.4c-2.8,0.1-3.5,3.1-3,5.5c0.5,6.4,5.4,14.6,12.7,13.3C103.5,360.7,105.5,360.1,104.5,360.2L104.5,360.2z"/>
	</g>
	<path class="st2" d="M138.7,342.1c-1.4,0.9-3.1,1-4.9,0.6c-0.1,0-0.2,0-0.3-0.1c-1.5-3.8-2.7-6.5-4.6-7.7c1.3-0.9,3.1-1.2,4.5-0.7
		c1.2,0.4,2.1,1.8,4.1,4.6c0.8,1.2,1.2,2,1.3,3C138.7,341.9,138.7,342,138.7,342.1z"/>
	<path class="st14" d="M138.7,342.1c-1.4,0.9-3.1,1-4.9,0.6c-0.1,0-0.2,0-0.3-0.1c-1.5-3.8-2.7-6.5-4.6-7.7c1.3-0.9,3.1-1.2,4.5-0.7
		c1.2,0.4,2.1,1.8,4.1,4.6c0.8,1.2,1.2,2,1.3,3C138.7,341.9,138.7,342,138.7,342.1z"/>
	<path class="st19" d="M123.8,321.1c3.1-2,8.6-1.5,12.3,2c1,1,2,2.1,2.8,3.4c3.9,6,3.9,12.9,0,15.4c-1.5,0.9-3.2,1.2-5.1,0.7
		c-0.1,0-0.2,0-0.3-0.1"/>
	<path class="st14" d="M121.5,362c-1,0-2.1-0.3-3-0.8c-2.9-1.7-3.9-5.5-2.2-8.4c0.2-0.4,0.5-0.7,0.8-1c0,0.1,0.1,0.2,0.1,0.4
		c1.2,3.2,3.3,5.8,5.8,7.4C122.6,360.3,122.1,361.2,121.5,362z"/>
	<path class="st3" d="M103.4,351.6c0.3,3.6,0.3,4.4,1.7,7.5c0.9,1.9,2.1,3.5,4,4.5c0.1,0.1,0.3,0.1,0.4,0.2
		c3.5,1.7,8.4,1.4,11.4-1.4c0.2-0.2,0.4-0.4,0.5-0.6"/>
	<g>
		<path d="M126.3,334.3c5-0.5,6.7,5.7,8.3,9.2c2.3,5.5,6.4,15.8-1.9,18.3c-6.9,2.1-14.1-3.3-15.7-9.8c2.7,5.7,8.9,10,15.1,8
			c6.7-2.1,2.3-11.3,1-15.9C131.7,340.5,131,334.8,126.3,334.3L126.3,334.3z"/>
	</g>
	<path class="st14" d="M105.5,360c-1.5,0.9-3.5,0.9-5.1,0c-2.5-1.4-3.3-4.6-1.9-7.1c1-1.7,2.9-2.6,4.7-2.6c0.3,3,0.7,6.2,1.9,8.8
		C105.2,359.4,105.4,359.7,105.5,360z"/>
	<g>
		<path d="M123,359.4c-1.1,5.7-8.2,7.7-13.1,5.7c-4.1-1.5-6.2-5.6-6.6-9.6c-0.1-1.3,0-2.6,0.2-3.9c0.4,1.2,0.6,2.5,0.9,3.7
			c1.2,3.2,2.8,6.7,6.2,8C114.9,365,120.7,363.9,123,359.4L123,359.4z"/>
	</g>
</g>
<g>
	<path class="st10" d="M179.3,197.8c2,3.9,5.8,7.1,10.2,7.7c1.3,0.2,2.7,0.1,4.1,0c0,0,0,5,0,5C186.7,209.8,180.6,204.6,179.3,197.8
		L179.3,197.8z"/>
</g>
<g>
	<path class="st10" d="M177.7,206.9c4.1,1.7,9.1,1.7,12.8-0.7c1.2-0.7,2.2-1.7,3.1-2.7c0,0,3.2,3.8,3.2,3.8
		C191.1,211.3,183.1,211.3,177.7,206.9L177.7,206.9z"/>
</g>
<g>
	<path class="st10" d="M268.6,197.8c-1.3,6.8-7.4,12-14.3,12.6c0,0,0-5,0-5c2.8,0.4,5.6,0.1,8.1-1.2
		C265,202.8,267.2,200.5,268.6,197.8L268.6,197.8z"/>
</g>
<g>
	<path class="st10" d="M270.2,206.9c-5.4,4.3-13.4,4.4-19.1,0.4c0,0,3.2-3.8,3.2-3.8c0.9,1,1.9,2,3.1,2.7
		C261.1,208.6,266.1,208.6,270.2,206.9L270.2,206.9z"/>
</g>
<g>
	<path class="st2" d="M190.7,270.4c6.6,4.4,12.6,7,19.3,8.2c30.5,5.5,48.5-2.6,48.5-2.6c-2.3-7.3-0.5-13.8-0.5-13.8
		c-36.2,4.1-63.7-13.6-63.7-13.6l-2.8,10.1l-0.4,5l0,0.7L190.7,270.4z"/>
	<g>
		<path d="M268.5,260.9c-25.2,8.1-54,2.3-75.7-12.4c-2.1-1.5-4.5-3.3-6.5-4.9c3.3,1.6,6.3,3.5,9.6,5
			C218.2,259.9,243.7,264.6,268.5,260.9L268.5,260.9z"/>
	</g>
	<path class="st20" d="M190.7,270.4c6.6,4.4,13.6,6.1,19.8,8.2c3.6,0.2,7.1,1.6,11.3,1.3c28.2-1.8,20.3-7.8,20.3-7.8
		c-29.6,0.1-50.4-10.8-50.4-10.8l-0.6,2.4l0,0.7L190.7,270.4z"/>
	<g>
		<path d="M251.2,270c-7.5,4.7-17.6,4.3-25.6,1c1.1,0,2.2,0.1,3.3,0.1C236.4,271.5,243.8,271.6,251.2,270L251.2,270z"/>
	</g>
	<line class="st21" x1="194.3" y1="248.6" x2="190.7" y2="271.4"/>
	<path d="M218.3,270"/>
	<g>
		<path d="M221.9,270.5c-9.2-0.1-18.4-2.6-26.2-7.4c3.9,0.8,9.3,2.4,13.2,3.4C212.7,267.7,218.1,269.1,221.9,270.5L221.9,270.5z"/>
	</g>
	<g>
		<path d="M272.3,270c-20.8,13.4-48.2,15.4-71.2,6.7c-7.7-2.9-14.9-6.9-21.6-11.7c14,8.1,29.6,13.8,45.8,14.8
			C241.5,280.6,257.9,277.4,272.3,270L272.3,270z"/>
	</g>
	<path class="st21" d="M258.2,276.4c-0.5-3.4-0.7-8.7-0.1-14.1"/>
	
		<ellipse transform="matrix(0.7508 -0.6605 0.6605 0.7508 -113.0724 177.0897)" class="st22" cx="178.2" cy="238.4" rx="8.8" ry="5.6"/>
	<g>
		<path d="M185.3,230.2c-5.4,4-11.2,5.6-15.6,10.9C168.2,233.1,178.5,228,185.3,230.2L185.3,230.2z"/>
	</g>
	<path class="st0" d="M241.3,295.9c-0.4,2.9-9.9,5.5-21,4c-11.1-1.5-19.6-6.5-19.2-9.4c0.4-2.9,9.7-4,20.8-2.6
		C232.9,289.5,241.6,293,241.3,295.9z"/>
	<g>
		<path d="M188.8,290.2c17.6-6.9,38.5-6,54.8,3.8c2.3,1.4,4.5,2.9,6.7,4.4c-2.5-0.9-5-2-7.4-3c-7.3-3.1-14.9-4.9-22.7-6
			C209.8,287.9,199.2,288.9,188.8,290.2L188.8,290.2z"/>
	</g>
</g>
</svg>
