<svg version="1.1" id="Layer_6" xmlns="http://www.w3.org/2000/svg" xmlns:xlink="http://www.w3.org/1999/xlink" x="0px" y="0px"
	 viewBox="0 0 150 150" style="enable-background:new 0 0 150 150;" xml:space="preserve">
<style type="text/css">
	.st0{fill:#FFB703;}
	.st1{fill:#2B2D42;}
</style>
<path class="st0" d="M82.8,51c-3.7,2.5-8,5-12.7,7.4c-17.6,9-33.7,12.5-36.1,7.9c-2.4-4.6,10-15.6,27.5-24.6c0.1,0,0.1-0.1,0.2-0.1
	c-10.4,7-16.6,13.8-14.8,17.2C49.3,63.3,65.3,59.8,82.8,51z"/>
<path class="st0" d="M55.2,39.8c26.5-13.3,51.5-17,55.8-8.5c0.8,1.6,0.8,3.6,0.1,5.8c4.1-5.2,5.7-9.8,4.1-13.1
	c-4.3-8.6-29.3-4.8-55.8,8.5C37.9,43.2,22,56.9,19,66.2C25.6,57.8,38.8,48,55.2,39.8z"/>
<path class="st0" d="M16.7,71.9c0,0,3.6,18,27.1,18c36,0,66.9-23,73.8-38c6.9-14.9,4.6-20.9,4.6-20.9S81.8,82.2,16.7,71.9z"/>
<path class="st0" d="M31.5,93.1c0,0,2.4,14.2,21.3,15.2c18.9,1.1,69.1-11.3,65.6-51.2C118.4,57,90.3,95.9,31.5,93.1z"/>
<path class="st0" d="M104.6,99.3c0.2,13.9-12.8,25.4-29.1,25.6c-11.9,0.2-22.2-5.6-27-14.2c2.6,1.1,5.8,1.9,9.8,2
	c10.6,0.4,31.4-3.7,46.3-14.7C104.6,98.5,104.6,98.9,104.6,99.3z"/>
<g>
	<path class="st1" d="M4.9,57c10.8,22.1,21.9,46.9,31.9,69.5c0,0-1.8-1.5-1.8-1.5c13.3,2.6,31.9,6.5,45,9.3c0,0-1.5,0.1-1.5,0.1
		c8.6-2.9,25.9-8.5,34.5-11.2c0,0-1.9,2.1-1.9,2.1c6.7-26.8,14.2-55,21.9-81.6c2.6-9,5.2-18,8.1-27c-2.6,13.9-5.4,27.6-8.4,41.4
		c-4.8,22.2-10.4,46.5-15.8,68.6c0,0-0.4,1.6-0.4,1.6c-9.3,3.1-26.6,8.8-36,11.8c0,0-0.8,0.2-0.8,0.2l-0.8-0.2
		c-13.6-2.9-32.5-7.3-46.2-10.4c0,0-0.5-1.2-0.5-1.2C23.1,105.5,13.2,80.2,4.9,57L4.9,57z"/>
</g>
<path class="st0" d="M72.9,49.9c11-5.1,17-9.2,14-10C84,39.1,73,41.8,60,46.4c14.8-5.6,28.3-9.2,31.5-8.4
	C94.7,38.9,86.6,44,72.9,49.9z"/>
</svg>
