<svg version="1.1" id="Layer_1" xmlns="http://www.w3.org/2000/svg" xmlns:xlink="http://www.w3.org/1999/xlink" x="0px" y="0px"
	 viewBox="0 0 500 500" style="enable-background:new 0 0 500 500;" xml:space="preserve">
<style type="text/css">
	.st0{fill:#CCCAC8;}
	.st1{fill:#FFFFFF;}
	.st2{fill:none;}
	.st3{fill:none;stroke:#000000;stroke-width:3;stroke-miterlimit:10;}
	.st4{fill:#020001;}
	.st5{fill:#5D630A;}
	.st6{fill:#81910A;}
	.st7{fill:#DBDB3E;}
	.st8{fill:none;stroke:#000000;stroke-width:6;stroke-miterlimit:10;}
	.st9{fill:#A2AD17;}
	.st10{fill:#A84C0E;}
	.st11{fill:none;stroke:#000000;stroke-width:2.0237;stroke-miterlimit:10;}
	.st12{fill:#FFFFFF;stroke:#000000;stroke-width:3;stroke-miterlimit:10;}
	.st13{fill:none;stroke:#000000;stroke-width:3;stroke-linecap:round;stroke-miterlimit:10;}
</style>
<g>
	<path class="st0" d="M347.1,450.5c-0.5,5.1-2.3,9.2-2.7,9.9c-0.9,1.9-3.7,7.6-10,11.1c-9.6,5.2-20.2,1.3-26.6-1.1
		c-6.9-2.6-11-5.9-18.8-12.2c-10.6-8.6-16-13-17.2-20.5c-0.1-1-1-6.8,2-12.3c0.4-0.7,0.8-1.4,1.3-2.1c1-1.3,3.6-4.8,7.7-5.5
		c3.5-0.6,5.3,1.2,11.6,3.9c5.5,2.3,9.8,3.3,14.4,4.4c8.2,2,8.9,0.8,15.5,2.2c8,1.8,15.7,3.5,19.9,10
		C347,442.1,347.4,446.6,347.1,450.5z"/>
	<path class="st1" d="M347.1,450.5c-0.2,0.5-0.4,0.9-0.5,1c-0.9,1.9-3.7,7.6-10,11.1c-9.6,5.2-20.2,1.3-26.6-1.1
		c-6.9-2.6-11-5.9-18.8-12.2c-10.6-8.6-16-13-17.2-20.5c-0.1-0.4-0.2-1.7-0.2-3.5c0.4-0.7,0.8-1.4,1.3-2.1c1-1.3,3.6-4.8,7.7-5.5
		c3.5-0.6,5.3,1.2,11.6,3.9c5.5,2.3,9.8,3.3,14.4,4.4c8.2,2,8.9,0.8,15.5,2.2c8,1.8,15.7,3.5,19.9,10
		C347,442.1,347.4,446.6,347.1,450.5z"/>
	<path class="st2" d="M347.1,450.5c-0.5,5.1-2.3,9.2-2.7,9.9c-0.9,1.9-3.7,7.6-10,11.1c-9.6,5.2-20.2,1.3-26.6-1.1
		c-6.9-2.6-11-5.9-18.8-12.2c-10.6-8.6-16-13-17.2-20.5c-0.1-1-1-6.8,2-12.3c0.4-0.7,0.8-1.4,1.3-2.1c1-1.3,3.6-4.8,7.7-5.5
		c3.5-0.6,5.3,1.2,11.6,3.9c5.5,2.3,9.8,3.3,14.4,4.4c8.2,2,8.9,0.8,15.5,2.2c8,1.8,15.7,3.5,19.9,10
		C347,442.1,347.4,446.6,347.1,450.5z"/>
	<path class="st3" d="M347.1,450.5c-0.5,5.1-2.3,9.2-2.7,9.9c-0.9,1.9-3.7,7.6-10,11.1c-9.6,5.2-20.2,1.3-26.6-1.1
		c-6.9-2.6-11-5.9-18.8-12.2c-10.6-8.6-16-13-17.2-20.5c-0.1-1-1-6.8,2-12.3c0.4-0.7,0.8-1.4,1.3-2.1c1-1.3,3.6-4.8,7.7-5.5
		c3.5-0.6,5.3,1.2,11.6,3.9c5.5,2.3,9.8,3.3,14.4,4.4c8.2,2,8.9,0.8,15.5,2.2c8,1.8,15.7,3.5,19.9,10
		C347,442.1,347.4,446.6,347.1,450.5z"/>
	<g>
		<path d="M301.8,438.8c3.4-9,17.5-10.6,25.9-10.9c0,0,0,2.3,0,2.3l-3.6-0.1C316.7,430.2,305.4,431.1,301.8,438.8L301.8,438.8z"/>
	</g>
	<g>
		<path d="M276.3,434.7c3.2,3.7,6.8,7.2,10.3,10.7C282.1,443.1,278.2,439.3,276.3,434.7L276.3,434.7z"/>
	</g>
	<g>
		<path d="M318.1,464.1c7.5,1.1,15.4,0.6,21.8-3.8C334.6,466.1,325.3,466.8,318.1,464.1L318.1,464.1z"/>
	</g>
	<path class="st0" d="M328.4,433.2c-4.9,0-9.2,2.6-11.7,6.4c1.9-0.9,3.9-1.5,6.1-1.5c7.6,0,13.8,6.2,13.8,13.8
		c0,2.7-0.8,5.3-2.2,7.4c4.6-2.3,7.7-7,7.7-12.4C342.2,439.4,336,433.2,328.4,433.2z"/>
	<g>
		<path d="M334.5,459.5c7.7-4.2,9.6-14.9,3.7-21.2c-5.7-6.6-16.6-5.7-21.5,1.5c3.2-5.8,10.8-8.4,17-6
			C345.2,438.1,345.9,454.5,334.5,459.5L334.5,459.5z"/>
	</g>
	<ellipse class="st1" cx="296.3" cy="419.4" rx="20.5" ry="13.3"/>
	<g>
		<path d="M280,427.4c-6.3-4.2-6.3-12.2-0.6-17c5-4.4,11.9-6,18.4-5.8c6.5,0.3,13.4,2.5,17.6,7.8c4.8,6.1,1.7,13.5-4.8,16.5
			c9.2-7,5.8-16.2-4.2-19.6c-5.5-2-11.8-2.2-17.5-0.8C279.5,410.6,271.8,418.9,280,427.4L280,427.4z"/>
	</g>
</g>
<circle class="st4" cx="296.3" cy="414.8" r="10.7"/>
<g>
	<g>
		<path class="st0" d="M165.9,451.8c0.5,5.1,2.3,9.2,2.7,9.9c0.9,1.9,3.7,7.6,10,11.1c9.6,5.2,20.2,1.3,26.6-1.1
			c6.9-2.6,11-5.9,18.8-12.2c10.6-8.6,16-13,17.2-20.5c0.1-1,1-6.8-2-12.3c-0.4-0.7-0.8-1.4-1.3-2.1c-1-1.3-3.6-4.8-7.7-5.5
			c-3.5-0.6-5.3,1.2-11.6,3.9c-5.5,2.3-9.8,3.3-14.4,4.4c-8.2,2-8.9,0.8-15.5,2.2c-8,1.8-15.7,3.5-19.9,10
			C166.1,443.5,165.6,447.9,165.9,451.8z"/>
		<path class="st1" d="M165.9,451.8c0.2,0.5,0.4,0.9,0.5,1c0.9,1.9,3.7,7.6,10,11.1c9.6,5.2,20.2,1.3,26.6-1.1
			c6.9-2.6,11-5.9,18.8-12.2c10.6-8.6,16-13,17.2-20.5c0.1-0.4,0.2-1.7,0.2-3.5c-0.4-0.7-0.8-1.4-1.3-2.1c-1-1.3-3.6-4.8-7.7-5.5
			c-3.5-0.6-5.3,1.2-11.6,3.9c-5.5,2.3-9.8,3.3-14.4,4.4c-8.2,2-8.9,0.8-15.5,2.2c-8,1.8-15.7,3.5-19.9,10
			C166.1,443.5,165.6,447.9,165.9,451.8z"/>
		<path class="st2" d="M165.9,451.8c0.5,5.1,2.3,9.2,2.7,9.9c0.9,1.9,3.7,7.6,10,11.1c9.6,5.2,20.2,1.3,26.6-1.1
			c6.9-2.6,11-5.9,18.8-12.2c10.6-8.6,16-13,17.2-20.5c0.1-1,1-6.8-2-12.3c-0.4-0.7-0.8-1.4-1.3-2.1c-1-1.3-3.6-4.8-7.7-5.5
			c-3.5-0.6-5.3,1.2-11.6,3.9c-5.5,2.3-9.8,3.3-14.4,4.4c-8.2,2-8.9,0.8-15.5,2.2c-8,1.8-15.7,3.5-19.9,10
			C166.1,443.5,165.6,447.9,165.9,451.8z"/>
		<path class="st3" d="M165.9,451.8c0.5,5.1,2.3,9.2,2.7,9.9c0.9,1.9,3.7,7.6,10,11.1c9.6,5.2,20.2,1.3,26.6-1.1
			c6.9-2.6,11-5.9,18.8-12.2c10.6-8.6,16-13,17.2-20.5c0.1-1,1-6.8-2-12.3c-0.4-0.7-0.8-1.4-1.3-2.1c-1-1.3-3.6-4.8-7.7-5.5
			c-3.5-0.6-5.3,1.2-11.6,3.9c-5.5,2.3-9.8,3.3-14.4,4.4c-8.2,2-8.9,0.8-15.5,2.2c-8,1.8-15.7,3.5-19.9,10
			C166.1,443.5,165.6,447.9,165.9,451.8z"/>
		<g>
			<path d="M211.2,440.1c-3.6-7.7-14.8-8.6-22.3-8.7c0,0-3.6,0.1-3.6,0.1l0-2.3C193.7,429.5,207.8,431.1,211.2,440.1L211.2,440.1z"
				/>
		</g>
		<g>
			<path d="M236.8,436c-2,4.6-5.8,8.5-10.3,10.7C230,443.2,233.5,439.7,236.8,436L236.8,436z"/>
		</g>
		<g>
			<path d="M194.9,465.4c-7.1,2.8-16.4,2.1-21.8-3.8C179.5,466,187.3,466.5,194.9,465.4L194.9,465.4z"/>
		</g>
		<path class="st0" d="M184.7,434.6c4.9,0,9.2,2.6,11.7,6.4c-1.9-0.9-3.9-1.5-6.1-1.5c-7.6,0-13.8,6.2-13.8,13.8
			c0,2.7,0.8,5.3,2.2,7.4c-4.6-2.3-7.7-7-7.7-12.4C170.8,440.8,177,434.6,184.7,434.6z"/>
		<g>
			<path d="M178.5,460.8c-11.3-5-10.6-21.4,0.8-25.7c6.2-2.5,13.8,0.1,17,6c-4.9-7.2-15.8-8-21.5-1.5
				C168.9,445.9,170.9,456.6,178.5,460.8L178.5,460.8z"/>
		</g>
		<ellipse class="st1" cx="216.7" cy="420.7" rx="20.5" ry="13.3"/>
		<g>
			<path d="M233.1,428.7c8.1-8.5,0.5-16.8-8.8-18.9c-5.7-1.4-12-1.2-17.5,0.8c-10,3.4-13.5,12.6-4.2,19.6c-6.5-3-9.6-10.4-4.8-16.5
				c4.2-5.3,11.1-7.5,17.6-7.8c6.5-0.2,13.4,1.3,18.4,5.8C239.4,416.6,239.4,424.5,233.1,428.7L233.1,428.7z"/>
		</g>
	</g>
</g>
<circle class="st4" cx="218.1" cy="419" r="10.7"/>
<path class="st5" d="M217.2,427.3c2.3,0,4.5-0.8,6.3-2.4c3.9-3.5,4.2-9.5,0.7-13.4c-20.5-22.9-4.4-47.6-3.8-48.6
	c3-4.3,1.9-10.2-2.5-13.2c-4.3-3-10.3-1.8-13.2,2.5c-8.9,12.9-19.2,44.6,5.3,72C212,426.3,214.6,427.3,217.2,427.3z"/>
<path class="st5" d="M296.8,423.1c-2.3,0-4.5-0.8-6.3-2.4c-3.9-3.5-4.2-9.5-0.7-13.4c7.3-8.2,10.1-17.4,8.2-27.6
	c-1.4-7.6-5-13.1-5-13.1c-3-4.3-1.9-10.2,2.5-13.2c4.3-3,10.2-1.9,13.2,2.5c7.9,11.5,17.1,39.8-4.7,64.1
	C302,422.1,299.5,423.1,296.8,423.1z"/>
<path class="st3" d="M217.2,427.3c2.3,0,4.5-0.8,6.3-2.4c3.9-3.5,4.2-9.5,0.7-13.4c-20.5-22.9-4.4-47.6-3.8-48.6
	c3-4.3,1.9-10.2-2.5-13.2c-4.3-3-10.3-1.8-13.2,2.5c-8.9,12.9-19.2,44.6,5.3,72C212,426.3,214.6,427.3,217.2,427.3z"/>
<path class="st3" d="M296.8,423.1c-2.3,0-4.5-0.8-6.3-2.4c-3.9-3.5-4.2-9.5-0.7-13.4c7.3-8.2,10.1-17.4,8.2-27.6
	c-1.4-7.6-5-13.1-5-13.1c-3-4.3-1.9-10.2,2.5-13.2c4.3-3,10.2-1.9,13.2,2.5c7.9,11.5,17.1,39.8-4.7,64.1
	C302,422.1,299.5,423.1,296.8,423.1z"/>
<path class="st5" d="M396.7,332.4c-24.3-45.3-31.1-77.4-31.3-78.7l15.7-3.2l-7.8,1.6l7.8-1.6c0.1,0.3,6.6,31.3,29.8,74.3
	L396.7,332.4z"/>
<path class="st3" d="M396.7,332.4c-24.3-45.3-31.1-77.4-31.3-78.7l15.7-3.2l-7.8,1.6l7.8-1.6c0.1,0.3,6.6,31.3,29.8,74.3
	L396.7,332.4z"/>
<path class="st6" d="M309.2,94.1c34.6-5.6,64.8,20,67.4,22.3c27.7,24.2,30.1,60.1,31.3,77c6.6,97.6-80.9,188.9-119.8,180.3
	c-7-1.5-16.5-6.1-33.6-6.4c-20.7-0.3-31.5,6.3-41.3,7.9c-34.6,6-78.7-45.9-98.5-89.8c-5.2-11.6-43.6-96.8,2-152.5
	c22.8-27.8,65.7-47.1,88.9-39.1c2.9,1,11.6,4.6,24.8,7.8c3.4,0.8,17.3,4.3,28.9,4.9C282.4,107.9,290,97.3,309.2,94.1z"/>
<g>
	<path class="st7" d="M252.5,107.7c-11.5-0.6-25.5-4.1-28.9-4.9c-13.2-3.3-21.9-6.8-24.8-7.8c-5.2-1.8-11.3-2.2-18-1.5
		c9.3-1.9,17.8-1.9,24.7,0.5c2.9,1,11.6,4.6,24.8,7.8c3.4,0.8,17.3,4.3,28.9,4.9c3.5,0.2,6.6,0.1,9.4-0.2
		C264,107.5,258.8,108,252.5,107.7z"/>
	<path class="st7" d="M401.3,194.5c-1.2-16.9-3.6-52.8-31.3-77c-2.5-2.2-30.8-26.2-63.9-22.8c1-0.2,2-0.4,3.1-0.6
		c34.6-5.6,64.8,20,67.4,22.3c27.7,24.2,30.1,60.1,31.3,77c6.3,91.9-70.9,178.1-112.4,180.8C338,363.7,407.2,281.7,401.3,194.5z"/>
	<path class="st7" d="M236.3,368.9c-9.8,2-16.7,5.2-23.1,6.3c-1.2,0.2-2.4,0.3-3.6,0.4C216.5,373.9,224.5,370.3,236.3,368.9z"/>
</g>
<path class="st5" d="M116.6,133c11.4-13.9,27.9-25.7,44.4-33c-6.7,5.1-12.8,10.9-17.9,17.1c-44.2,53.9-7,136.5-1.9,147.8
	c19.2,42.6,61.9,92.8,95.5,87.1c9.5-1.6,20-8,40-7.7c16.6,0.3,25.8,4.7,32.6,6.2c14.6,3.2,36.3-8.1,57-28.7
	c-26.1,34.9-58.5,56.3-78.2,52c-7-1.5-16.5-6.1-33.6-6.4c-20.7-0.3-31.5,6.3-41.3,7.9c-34.6,6-78.7-45.9-98.5-89.8
	C109.4,273.8,71,188.6,116.6,133z"/>
<path class="st8" d="M309.2,94.1c34.6-5.6,64.8,20,67.4,22.3c27.7,24.2,30.1,60.1,31.3,77c6.6,97.6-80.9,188.9-119.8,180.3
	c-7-1.5-16.5-6.1-33.6-6.4c-20.7-0.3-31.5,6.3-41.3,7.9c-34.6,6-78.7-45.9-98.5-89.8c-5.2-11.6-43.6-96.8,2-152.5
	c22.8-27.8,65.7-47.1,88.9-39.1c2.9,1,11.6,4.6,24.8,7.8c3.4,0.8,17.3,4.3,28.9,4.9C282.4,107.9,290,97.3,309.2,94.1z"/>
<path class="st5" d="M215.7,133.9c0,0.5,0,1.1,0.2,1.6c43.4,16.2,78.9,6.5,97.9-1.8c-7.3-6.2-25.2-11.3-46.4-12.5
	C239.3,119.5,216.2,125.2,215.7,133.9z"/>
<g>
	<path d="M328.9,125.5c-10.9,9-24.3,14.6-37.9,18.2c-16.9,4.3-34.7,4.6-51.7,1.2c-18.4-3.8-36.2-11.7-51.1-23
		c22.1,10.7,45.6,18.3,70.1,19.2C282.6,142.1,307.3,136.7,328.9,125.5L328.9,125.5z"/>
</g>
<path class="st7" d="M304.8,148.8c0,0-25.2,15-42,15s-44-19-44-19s29.2,8,46,8S304.8,148.8,304.8,148.8z"/>
<path class="st9" d="M196.8,163.8c0,15.2-16.8,25-32,25c-15.2,0-37-12.8-37-28c0-15.2,20.8-18,36-18
	C179,142.8,196.8,148.6,196.8,163.8z"/>
<g>
	<path class="st10" d="M261.4,143.2c8.5-11.8,11.5-27.7,6.9-41.7c-2.3-7.2-7.7-13-14.2-16.7c-1.3-0.7-2.6-1.3-4-1.8
		c0,0-0.4,0.5-0.4,0.5c0.8,1.3,1.6,2.4,2.4,3.6c1.5,2.2,3.1,4.5,4.5,6.8c2,3.3,3.8,6.7,5.6,10.1c3.7,7,4.3,15.3,3.3,23.1
		c-0.7,5.4-2.3,10.7-4.6,15.7L261.4,143.2L261.4,143.2z"/>
	<path class="st11" d="M261.4,143.2c8.5-11.8,11.5-27.7,6.9-41.7c-2.3-7.2-7.7-13-14.2-16.7c-1.3-0.7-2.6-1.3-4-1.8
		c0,0-0.4,0.5-0.4,0.5c0.8,1.3,1.6,2.4,2.4,3.6c1.5,2.2,3.1,4.5,4.5,6.8c2,3.3,3.8,6.7,5.6,10.1c3.7,7,4.3,15.3,3.3,23.1
		c-0.7,5.4-2.3,10.7-4.6,15.7L261.4,143.2L261.4,143.2z"/>
</g>
<path class="st9" d="M210.2,208.2c0,0,9.5-24.3,31.7-26.3s45.2,8,48.2,15l-1.8,1.8c0,0-41.5-20.4-73.8,9.4
	C214.5,208.2,209.4,213.5,210.2,208.2z"/>
<g>
	<path d="M293.8,202.2c-20.3-9.1-43-7.2-63.5,0c-6.9,2.4-13.5,5.6-20.1,9.4c4.7-6,11-10.9,17.9-14.5
		C248.1,186.8,276.9,185.4,293.8,202.2L293.8,202.2z"/>
</g>
<path d="M278,207.3c0,21.6-8.1,39.2-18,39.2c-4.6,0-8.8-3.8-12-10l10-8.3l-13.6-1c-1.6-5.8-2.5-12.7-2.5-19.9H278z"/>
<path d="M367,197.5c0,19.3-7.2,35-16.1,35c-4.1,0-7.9-3.4-10.7-8.9l9-7.4l-12.1-0.9c-1.4-5.2-2.2-11.3-2.2-17.8H367z"/>
<path class="st9" d="M319.6,197.5c0,0,15-34,33-33s19.9,16.5,20,21s-9-16-22-11S319.6,197.5,319.6,197.5z"/>
<g>
	<path d="M314.8,204.3c7.3-13.3,21.9-26.1,36.4-30.9c11.2-3.3,20.3,4.7,22,15.5c0.6,3.6,0.6,7.1,0.3,10.7c-1.2-3.3-2.2-6.7-3.6-9.7
		c-2.4-5.4-6.6-10.5-12.7-10.5c-4.1,0-8.9,2.6-12.8,4.7C333.8,189.8,324.4,196.7,314.8,204.3L314.8,204.3z"/>
</g>
<path class="st5" d="M321.5,319.4c0,3.6-10.8,2.5-26,2.5s-29,1.1-29-2.5s12.3-6.5,27.5-6.5S321.5,315.8,321.5,319.4z"/>
<g>
	<path d="M264.7,318.8c3.4-4.1,8.9-5.8,14-7c15.3-3,31.4-0.5,45.6,5.8c-7.6,0.3-15.2-0.3-22.8-0.7c-7.1-0.4-15.1-0.7-22.2-0.4
		C274.4,316.7,269.4,316.9,264.7,318.8L264.7,318.8z"/>
</g>
<path class="st5" d="M117.4,347.8c-3.2,0-6.2-1.9-7.5-5.1c-0.4-1.1-10.6-28-4.5-56.3c5-23.4,15.8-31.7,17-32.6l9.3,13
	c0,0,0.1,0,0.2-0.1c-0.1,0.1-7.1,5.8-10.8,23c-5.1,23.7,3.7,47,3.8,47.2c1.6,4.1-0.5,8.8-4.6,10.3
	C119.3,347.6,118.3,347.8,117.4,347.8z"/>
<g>
	<path d="M131.7,266.8c-6.1,6.7-9.3,17.9-10.6,27.4c-0.2,1.7-0.5,4.3-0.5,5.9c-0.5,11.9,1.4,24,5.2,35.2c3.4,7.1-2.2,15.1-10.1,13.8
		c-5.2-0.9-7.2-5.1-8.4-9.7c-1.8-5.9-3.1-11.8-4-17.9c-2.8-20-0.3-41.7,10.9-58.8c2.3-3.3,4.9-6.5,8.2-8.9
		c-9,8.1-13.2,20.1-15.8,31.7c-3.6,17.6-1.8,36,3.4,53.1c0.6,1.7,1.1,3.7,2.1,5.1c4.5,5.9,13.7,1.1,11.5-5.9
		c-5.2-15.4-6.9-32.3-3.3-48.2C122.3,281.4,126,271.8,131.7,266.8L131.7,266.8z"/>
</g>
<g>
	<path class="st12" d="M133.1,373.7c-13.2,4.7-29-5.2-34.2-19.8c-4.7-13.1,1.8-29.8,14.5-34.8c13.7-5.4,28.7,5.4,32.9,11.6
		c0.6,0.9,1.5,2.5,3.4,4.8c5.2,6.5,9.4,8.1,9,10c-0.5,2-5.8,0.6-10.5,2.8C137.4,353.3,141.8,370.6,133.1,373.7z"/>
	<path class="st12" d="M126.4,345.1"/>
	<path class="st12" d="M112.8,325.8c-8.7,3.1-16.8,2.7-18.1-0.9c-1.3-3.6,7.2-5.4,15.9-8.5s14.3-6.3,15.6-2.7
		C127.6,317.3,121.5,322.7,112.8,325.8z"/>
	<path class="st1" d="M158.5,346.6c-1.6,1.5-3.7,2.1-6.1,2c-0.1,0-0.2,0-0.4,0c-3.6-6-6.2-9.6-10.6-8.7c-0.8,0.2-1.7,0.5-2.6,1
		c-5.2-6.3-6.3-14-2.3-17.8c3.3-3.1,9.2-2.5,14.4,1c1.5,1,2.9,2.2,4.2,3.6C161.3,334.2,162.8,342.6,158.5,346.6z"/>
	<path class="st1" d="M122.2,374c-0.3,0.5-2.1,1.4-2.5,1.7c-2.1,1.5-5.1,1.1-6.2,0.9c-3.2-0.4-5.5-2.1-7.2-3.6
		c-0.7-0.6-1.2-1.2-1.7-1.7c-2.5-2.7-3.4-5.3-3.8-6.8c-0.9-2.7-2.1-6.4,0-8.8c1.2-1.4,2.9-1.8,3.8-2"/>
	<path class="st1" d="M143.4,369.6c-0.3,1.5-0.8,2.9-1.8,4.3c-3.1,4.1-9.1,5.4-13.7,4.1c-0.2-0.1-0.4-0.1-0.6-0.2
		c-2.6-0.9-4.5-2.6-5.9-4.7c-2.5-3.6-3.7-8.4-4.8-12.8c-0.4-1.5-0.6-2.8-0.7-4"/>
	<path class="st1" d="M142.1,338c4.4-0.9,7,2.7,10.6,8.7c0.2,0.4,0.4,0.7,0.7,1.1c4.1,6.9,8.2,14.3,5.2,18.9
		c-0.6,0.8-1.4,1.6-2.4,2.2c-3.9,2.3-8.5,2.3-12.7,0.6c-3.4-1.4-6.6-4.1-8.8-7.8c-1.6-2.6-2.4-5.5-2.7-8.2"/>
	<g>
		<path d="M120.8,374.5c0.2,0,0.4-0.2,0.5-0.1c0,0.1,0,0.2-0.1,0.2c-0.4,0.5-0.9,0.9-1.4,1.3c-1.3,1.3-3.2,1.7-5,1.8
			c-7.4,0.4-13.6-6-15.4-12.7c-0.7-2.6-1.5-5.3-0.4-8c0.6-1.3,1.7-2.5,3.2-2.6c0.5,0,0.9,0.1,1.3,0.1c-3.4,0.9-3.4,4.5-2.3,7.4
			c2,7.2,8,14.6,16,14.2c1.3,0,2.7-0.8,3.8-1.5C121.4,374.4,121,374.5,120.8,374.5L120.8,374.5z"/>
	</g>
	<path class="st0" d="M158.3,346.8c-1.6,1.4-3.6,2-5.9,1.8c-0.1,0,0.2-1.5,0-1.5c-2.6-4.3-2.7-6.8-5.3-7.8c1.4-1.4,1.1-1.3,3-1
		c1.5,0.2,3,1.7,6,4.8c1.3,1.4,1.9,2.2,2.2,3.4C158.3,346.5,158.3,346.6,158.3,346.8z"/>
	<path class="st3" d="M135.5,324.2c3.3-3.1,10.2-3.7,15.5-0.2c1.5,1,2.9,2.2,4.2,3.6c6.1,6.5,7.5,15,3.3,18.9
		c-1.6,1.5-2.8,1.3-5.2,1.2"/>
	<path class="st0" d="M142.1,373c-1.3,0.2-2.6,0.1-3.9-0.4c-4-1.5-6-5.9-4.5-9.9c0.2-0.5,0.4-1,0.7-1.4c0.1,0.2,0.2,0.3,0.2,0.4
		c2.2,3.7,5.3,6.3,8.8,7.8C143.2,370.8,142.8,371.9,142.1,373z"/>
	<path class="st2" d="M117.7,364.2c1.1,4.4,1.3,5.3,3.7,8.9c1.5,2.1,3.4,3.8,5.9,4.7c0.2,0.1,0.4,0.1,0.6,0.2
		c4.6,1.3,10.6,0,13.7-4.1c0.2-0.3,0.4-0.5,0.5-0.8"/>
	<g>
		<path d="M142.1,338c6-1.8,9.6,5.4,12.4,9.4c4.2,6.4,11.5,18.3,1.6,23.2c-8.1,4.1-18.3-1.1-21.5-8.8c4.7,6.3,13.1,10.1,20.2,6.3
			c7.5-3.8,0.2-14.2-2.3-19.5C150,344.6,147.9,337.6,142.1,338L142.1,338z"/>
	</g>
	<path class="st0" d="M122.1,374c-1.7,1.4-4.1,1.9-6.3,1c-3.3-1.2-5.1-5-3.8-8.3c0.9-2.3,2.9-3.9,5.2-4.2c1,3.7,2.2,7.5,4.2,10.4
		C121.6,373.4,121.8,373.7,122.1,374z"/>
	<g>
		<path d="M143.4,369.6c0,7.3-8.4,11.4-15,10c-3.5-0.6-6.6-3-8.3-6c-1.8-2.8-2.6-6.2-2.5-9.4c1.4,2.9,2.6,5.5,4.7,7.9
			C127.3,379.7,140.4,378.2,143.4,369.6L143.4,369.6z"/>
	</g>
</g>
<g>
	<path class="st12" d="M398,318.7c-8.2,4.9-16.6,5.9-18.7,2.3s6.2-7,14.4-11.8s13.2-9.3,15.3-5.7C411.2,307,406.2,313.8,398,318.7z"
		/>
	
		<ellipse transform="matrix(0.8608 -0.509 0.509 0.8608 -115.428 257.6068)" class="st12" cx="413.2" cy="339.8" rx="27.6" ry="30.5"/>
	<path class="st1" d="M406,369.5c-4.1,0.3-7.4-1.3-9.7-2.9c-1-0.7-1.8-1.4-2.5-1.9c-3.7-3-5.4-6.4-6.3-8.3c-1.7-3.6-4-8.2-1.9-12.2
		c1.2-2.3,3.3-3.4,4.4-3.9c6.1-3.1,12.7-0.2,13.4,0.1c2.5,1.1,4.7,2.9,6.5,5c5.5,6.6,7.4,16.6,3.6,21.1
		C411.3,369,407.3,369.4,406,369.5z"/>
	<path class="st12" d="M414.9,334.8"/>
	<path class="st0" d="M396.3,366.6c-1-0.7-1.8-1.4-2.5-1.9c-3.7-3-5.4-6.4-6.3-8.3c-1.7-3.6-4-8.2-1.9-12.2c1.2-2.3,3.3-3.4,4.4-3.9
		c6.1-3.1,12.7-0.2,13.4,0.1c2.5,1.1,4.7,2.9,6.5,5c-0.2,2.5-1.8,5-3.2,5c-2.1,0.1-2.5-4.9-6.1-5.8c-2.7-0.6-5.3,1.7-5.5,1.9
		c-2.8,2.7-3,7.3-1.8,10.4c1.4,3.9,4.2,4.4,4.1,6.9C397.3,364.8,396.9,365.7,396.3,366.6z"/>
	<path class="st3" d="M413.5,366.4c3.8-4.5,1.9-14.5-3.6-21.1c-1.8-2.1-4-3.9-6.5-5c-0.7-0.3-7.4-3.2-13.4-0.1
		c-1.1,0.6-3.2,1.6-4.4,3.9c-2.1,4,0.2,8.7,1.9,12.2c0.9,1.9,2.6,5.3,6.3,8.3c0.7,0.5,1.5,1.2,2.5,1.9c2.4,1.6,5.7,3.3,9.7,2.9
		C407.3,369.4,411.3,369,413.5,366.4z"/>
	<path class="st0" d="M407.9,317.1c3.4,1.4,4.4,14.2-1.7,18.5c-3.6,2.5-9.2,1.5-9.5,0.3c-0.3-1.4,5.7-2.1,7.4-6.6
		c1.5-4.2-2.2-7.8,0-10.6C404.9,317.4,406.7,316.6,407.9,317.1z"/>
	<path class="st1" d="M420.3,372.2c-0.2,0-0.4,0-0.7-0.1c-7.8-1.1-11.8-9.4-15.1-16.5c-1.6-3.5-2.1-5.8-2.1-8.1
		c0-1.3,0-7.3,4.4-10.6c3.6-2.7,8.1-2,9.7-1.7c7.2,1.2,12.3,7.1,15.2,12.8c0.9,1.8,1.6,3.5,2.1,5.1c1.1,3.5,2.3,7.7,0.3,11.8
		C431.6,369.9,425.5,372.6,420.3,372.2z"/>
	<path class="st0" d="M420.3,372.2c-0.2,0-0.4,0-0.7-0.1c-7.8-1.1-11.8-9.4-15.1-16.5c-1.6-3.5-2.1-5.8-2.1-8.1
		c0-1.3,0-7.3,4.4-10.6c3.6-2.7,8.1-2,9.7-1.7c7.2,1.2,12.3,7.1,15.2,12.8c0.1,1,0,2.3-0.7,2.7c-2.3,1.4-7.5-7.6-13.4-6.8
		c-3.1,0.4-6.4,3.4-6.8,6.7c-0.6,6.4,11,10,10.5,17.8C421.3,370,420.7,371.4,420.3,372.2z"/>
	<path class="st3" d="M434.1,364.9c2-4.2,0.8-8.3-0.3-11.8c-0.5-1.6-1.2-3.3-2.1-5.1c-2.9-5.7-8-11.6-15.2-12.8
		c-1.6-0.3-6.1-1-9.7,1.7c-4.4,3.3-4.4,9.3-4.4,10.6c0,2.3,0.5,4.6,2.1,8.1c3.3,7.1,7.3,15.4,15.1,16.5c0.2,0,0.4,0.1,0.7,0.1
		C425.5,372.6,431.6,369.9,434.1,364.9z"/>
	<path class="st0" d="M447.2,357.8c-7.7,4.5-18.1,1-23.4-7.9c-5.3-8.9-3.3-19.8,4.4-24.3c1.4-0.8,2.7-1.3,3.8-1.6
		c5.1-1.1,8,3.4,12.3,10.7c4.4,7.5,9,15.6,5.6,20.6C449.3,356.3,448.4,357.1,447.2,357.8z"/>
	<path class="st1" d="M449.9,355.3c-4.2-0.4-14.3-2-19.1-9.5c-2-3.1-3.6-7.9-2.1-9.1c1.6-1.4,5.7,2.3,7.3,1c1.1-0.9,0.9-4-4-13.7
		c2.8,1.4,8.5,4.3,12.3,10.7C448.7,342.2,453.2,350.3,449.9,355.3z"/>
	<path class="st3" d="M447.2,357.8c-7.7,4.5-18.1,1-23.4-7.9c-5.3-8.9-3.3-19.8,4.4-24.3c1.4-0.8,2.7-1.3,3.8-1.6
		c5.1-1.1,8,3.4,12.3,10.7c4.4,7.5,9,15.6,5.6,20.6C449.3,356.3,448.4,357.1,447.2,357.8z"/>
	<path class="st13" d="M427.6,328c0,0,5.5-1.9,10.6,11.1"/>
	<path class="st0" d="M425,335c-9.1,3.2-18.2,1-20.4-5c-1.6-4.7,1.5-10.2,7.3-14c1.6-1.1,3.5-2,5.5-2.7c9.1-3.2,18.2-1,20.3,5
		c0.8,2.2,0.5,4.7-0.7,7C435.2,329.3,430.8,333,425,335z"/>
	<path class="st1" d="M431.6,328c-9.1,3.2-18.2,1-20.4-5c-0.8-2.2-0.5-4.7,0.7-7c1.6-1.1,3.5-2,5.5-2.7c9.1-3.2,18.2-1,20.3,5
		c0.8,2.2,0.5,4.7-0.7,7C435.5,326.4,433.6,327.3,431.6,328z"/>
	<path class="st3" d="M424,312c-2.9,0.1-5.1,0.9-6.6,1.4c-0.8,0.3-3.3,1.3-5.5,2.7c-5.8,3.7-8.9,9.3-7.3,14c2.1,6,11.2,8.2,20.4,5
		c5.7-2,10.1-5.7,12.1-9.6c1.2-2.3,1.5-4.8,0.7-7c-1.6-4.6-8-5.8-9.5-6.1L424,312z"/>
</g>
<g>
	<path d="M195.8,261.5c43.7,20.2,105.1,45.4,151.7,23.2c6.9-3.3,13.1-7.7,18.9-12.6c-4.7,6.3-10.5,11.7-17,16
		C303.6,317.4,235.3,291.4,195.8,261.5L195.8,261.5z"/>
</g>
<path class="st5" d="M201.9,255.9c-3.4-1.3-7.1-2.3-10.2-2.1c-5.3,0.3-5,9.7-3.9,17.2c-2.2-1.7-4.4-3.9-6.3-6.4
	c-0.7-0.9-1.2-1.8-1.8-2.7c0,0,0,0,0,0c-1.2-7.6-1.6-17.5,3.9-17.8c3.4-0.2,7.5,1,11.2,2.5c1.6,1.4,3.1,3.1,4.4,4.9
	C200.2,253,201.1,254.4,201.9,255.9z"/>
<g>
	<path d="M205.3,252.2c-3.3-1.5-6.6-3-10-4.2c-4-1.4-8.3-2.9-12.3-2.4c-4,1.8-2.5,13-2.5,15.9c0,0,0.1,0.2,0.1,0.2l0,0l0.4,4.4
		l0.4,4.4c-1.1-2.6-2.2-6.5-2.6-8.5c-1.3-6.2-3.7-20.6,6.7-19.4C193,243.6,199.6,247.5,205.3,252.2L205.3,252.2z"/>
</g>
<path class="st5" d="M374.7,277.8c0-3.7-0.5-7.4-1.8-10.3c-2.2-4.8-10.9-1-17.5,2.8c0.7-2.7,1.9-5.5,3.6-8.2
	c0.6-0.9,1.2-1.8,1.8-2.6c0,0,0,0,0,0c6.6-3.9,15.7-8,18-3.1c1.5,3.1,1.9,7.3,1.8,11.3c-0.7,2-1.7,4-2.9,5.9
	C376.8,275.1,375.8,276.5,374.7,277.8z"/>
<g>
	<path d="M379.4,279.6c0.2-3.7,0.3-7.3,0.2-10.8c-0.2-4.2-0.4-8.8-2.4-12.3c-3.1-3.1-13,2.5-15.7,3.6c0,0,0,0,0,0l-0.1,0.1l0,0
		l-3.9,2l-3.9,2c1.9-1.9,5.2-4.4,6.8-5.5c5.3-3.6,17.8-11.2,20.6-1.1C382.8,265,381.6,272.5,379.4,279.6L379.4,279.6z"/>
</g>
</svg>
