<svg version="1.1" id="Layer_1" xmlns="http://www.w3.org/2000/svg" xmlns:xlink="http://www.w3.org/1999/xlink" x="0px" y="0px"
	 viewBox="0 0 500 500" style="enable-background:new 0 0 500 500;" xml:space="preserve">
<style type="text/css">
	.st0{fill:#CCCAC8;}
	.st1{fill:#FFFFFF;}
	.st2{fill:none;}
	.st3{fill:none;stroke:#000000;stroke-width:3;stroke-miterlimit:10;}
	.st4{fill:#683507;}
	.st5{fill:none;stroke:#000000;stroke-width:4;stroke-miterlimit:10;}
	.st6{fill:#D67218;}
	.st7{fill:#FF931E;}
	.st8{fill:none;stroke:#000000;stroke-width:6;stroke-miterlimit:10;}
	.st9{fill:#D17315;}
	.st10{fill:#140101;}
	.st11{fill:#811717;}
	.st12{fill:#330A0A;}
	.st13{fill:#D41F26;}
	.st14{fill:#B51A25;}
	.st15{fill:#E23D4A;}
	.st16{fill:#BFBAB6;}
	.st17{fill:#FFFFFF;stroke:#000000;stroke-width:3;stroke-miterlimit:10;}
	.st18{fill:none;stroke:#000000;stroke-width:3;stroke-linecap:round;stroke-miterlimit:10;}
</style>
<g>
	<g>
		<path class="st0" d="M360.6,468.4c0.5,5.1-0.6,9.5-0.8,10.2c-0.6,2.1-2.2,8.2-7.8,12.7c-8.5,6.9-19.6,4.9-26.3,3.7
			c-7.3-1.3-11.9-3.8-20.7-8.6c-12-6.5-18.1-9.9-20.6-17c-0.3-0.9-2.2-6.5-0.3-12.5c0.2-0.8,0.5-1.5,0.9-2.3
			c0.7-1.5,2.7-5.4,6.6-6.8c3.3-1.2,5.5,0.2,12.1,1.7c5.8,1.3,10.2,1.5,14.9,1.7c8.5,0.4,8.9-0.9,15.6-0.6
			c8.2,0.3,16.1,0.6,21.4,6.2C359,460.2,360.3,464.5,360.6,468.4z"/>
		<path class="st1" d="M360.6,468.4c-0.1,0.5-0.2,0.9-0.3,1.1c-0.6,2.1-2.2,8.2-7.8,12.7c-8.5,6.9-19.6,4.9-26.3,3.7
			c-7.3-1.3-11.9-3.8-20.7-8.6c-12-6.5-18.1-9.9-20.6-17c-0.1-0.4-0.5-1.6-0.8-3.4c0.2-0.8,0.5-1.5,0.9-2.3c0.7-1.5,2.7-5.4,6.6-6.8
			c3.3-1.2,5.5,0.2,12.1,1.7c5.8,1.3,10.2,1.5,14.9,1.7c8.5,0.4,8.9-0.9,15.6-0.6c8.2,0.3,16.1,0.6,21.4,6.2
			C359,460.2,360.3,464.5,360.6,468.4z"/>
		<path class="st2" d="M360.6,468.4c0.5,5.1-0.6,9.5-0.8,10.2c-0.6,2.1-2.2,8.2-7.8,12.7c-8.5,6.9-19.6,4.9-26.3,3.7
			c-7.3-1.3-11.9-3.8-20.7-8.6c-12-6.5-18.1-9.9-20.6-17c-0.3-0.9-2.2-6.5-0.3-12.5c0.2-0.8,0.5-1.5,0.9-2.3
			c0.7-1.5,2.7-5.4,6.6-6.8c3.3-1.2,5.5,0.2,12.1,1.7c5.8,1.3,10.2,1.5,14.9,1.7c8.5,0.4,8.9-0.9,15.6-0.6
			c8.2,0.3,16.1,0.6,21.4,6.2C359,460.2,360.3,464.5,360.6,468.4z"/>
		<path class="st3" d="M360.6,468.4c0.5,5.1-0.6,9.5-0.8,10.2c-0.6,2.1-2.2,8.2-7.8,12.7c-8.5,6.9-19.6,4.9-26.3,3.7
			c-7.3-1.3-11.9-3.8-20.7-8.6c-12-6.5-18.1-9.9-20.6-17c-0.3-0.9-2.2-6.5-0.3-12.5c0.2-0.8,0.5-1.5,0.9-2.3
			c0.7-1.5,2.7-5.4,6.6-6.8c3.3-1.2,5.5,0.2,12.1,1.7c5.8,1.3,10.2,1.5,14.9,1.7c8.5,0.4,8.9-0.9,15.6-0.6
			c8.2,0.3,16.1,0.6,21.4,6.2C359,460.2,360.3,464.5,360.6,468.4z"/>
		<g>
			<path d="M314,465.1c1.7-9.5,15.3-13.6,23.5-15.5c0,0,0.4,2.3,0.4,2.3l-3.6,0.6C327.1,453.9,316.1,456.9,314,465.1L314,465.1z"/>
		</g>
		<g>
			<path d="M288.1,465.7c3.9,3,8,5.9,12,8.7C295.4,473,290.9,469.9,288.1,465.7L288.1,465.7z"/>
		</g>
		<g>
			<path d="M334.6,487c7.6-0.3,15.3-2.2,20.8-7.7C351.2,486,342.2,488.4,334.6,487L334.6,487z"/>
		</g>
		<path class="st0" d="M339.1,454.8c-4.8,0.9-8.6,4.2-10.3,8.4c1.7-1.2,3.6-2.1,5.8-2.5c7.5-1.4,14.7,3.6,16.1,11.1
			c0.5,2.7,0.2,5.3-0.8,7.7c4.1-3.1,6.3-8.2,5.3-13.6C353.8,458.4,346.6,453.4,339.1,454.8z"/>
		<g>
			<path d="M349.9,479.5c6.8-5.5,6.8-16.4-0.2-21.6c-6.8-5.4-17.3-2.6-20.9,5.3c2.1-6.3,9.1-10.3,15.6-8.9
				C356.5,456.5,360.1,472.5,349.9,479.5L349.9,479.5z"/>
		</g>
		
			<ellipse transform="matrix(0.9835 -0.1812 0.1812 0.9835 -75.9381 62.6634)" class="st1" cx="305.1" cy="447" rx="20.5" ry="13.3"/>
		<g>
			<path d="M290.4,457.9c-7-3-8.4-10.8-3.7-16.6c4.1-5.2,10.6-8,17-9c6.5-0.8,13.6,0,18.7,4.5c5.8,5.1,4.1,13-1.8,17.1
				c7.8-8.6,2.7-17-7.7-18.6c-5.8-1-12,0-17.4,2.4C286.9,441.4,280.9,451,290.4,457.9L290.4,457.9z"/>
		</g>
	</g>
	<ellipse transform="matrix(0.9835 -0.1812 0.1812 0.9835 -75.6641 62.6139)" cx="304.9" cy="445.5" rx="9.5" ry="8.2"/>
	<path class="st4" d="M306.4,451.7c-1,0.2-1.9,0.2-3,0c-4.9-0.7-8.3-5.3-7.6-10.2c6.1-41.3-9.7-63.5-9.9-63.7
		c-2.9-4-2.1-9.6,1.9-12.6c4-2.9,9.6-2.1,12.6,1.9c0.8,1.1,20.4,28.5,13.2,77C313.1,448.1,310.1,451,306.4,451.7z"/>
	<g>
		<path d="M300.5,367.2c10.9,14.7,15.4,33.5,16.5,51.5c0.1,2.6,0.1,5.6,0.1,8.3c-0.1,1.7-0.3,6.4-0.4,8.2c-0.3,2.9-0.7,6-1,8.9
			c-0.8,8-10.2,12.4-16.8,7.9c-3.5-2.2-5.5-6.6-4.8-10.7c2.2-14.3,2.5-29.1-0.7-43.3c-1.6-7-3.7-13.9-7.3-20.2
			c4.3,5.9,7.1,12.8,9.2,19.7c4.2,14.1,4.5,29.1,2.6,43.7c-0.2,1.4-0.2,3,0.4,4.3c3.1,7,13.3,5,13.6-2.7c0.5-4.1,1.1-9.2,1.3-13.3
			c0.1-1.4,0.2-3.9,0.2-5.4C313.7,404.6,310.3,384.4,300.5,367.2L300.5,367.2z"/>
	</g>
</g>
<g>
	<g>
		<path class="st0" d="M148.3,466.6c-0.5,5.1,0.6,9.5,0.8,10.2c0.6,2.1,2.2,8.2,7.8,12.7c8.5,6.9,19.6,4.9,26.3,3.7
			c7.3-1.3,11.9-3.8,20.7-8.6c12-6.5,18.1-9.9,20.6-17c0.3-0.9,2.2-6.5,0.3-12.5c-0.2-0.8-0.5-1.5-0.9-2.3c-0.7-1.5-2.7-5.4-6.6-6.8
			c-3.3-1.2-5.5,0.2-12.1,1.7c-5.8,1.3-10.2,1.5-14.9,1.7c-8.5,0.4-8.9-0.9-15.6-0.6c-8.2,0.3-16.1,0.6-21.4,6.2
			C149.9,458.4,148.7,462.7,148.3,466.6z"/>
		<path class="st1" d="M148.3,466.6c0.1,0.5,0.2,0.9,0.3,1.1c0.6,2.1,2.2,8.2,7.8,12.7c8.5,6.9,19.6,4.9,26.3,3.7
			c7.3-1.3,11.9-3.8,20.7-8.6c12-6.5,18.1-9.9,20.6-17c0.1-0.4,0.5-1.6,0.8-3.4c-0.2-0.8-0.5-1.5-0.9-2.3c-0.7-1.5-2.7-5.4-6.6-6.8
			c-3.3-1.2-5.5,0.2-12.1,1.7c-5.8,1.3-10.2,1.5-14.9,1.7c-8.5,0.4-8.9-0.9-15.6-0.6c-8.2,0.3-16.1,0.6-21.4,6.2
			C149.9,458.4,148.7,462.7,148.3,466.6z"/>
		<path class="st2" d="M148.3,466.6c-0.5,5.1,0.6,9.5,0.8,10.2c0.6,2.1,2.2,8.2,7.8,12.7c8.5,6.9,19.6,4.9,26.3,3.7
			c7.3-1.3,11.9-3.8,20.7-8.6c12-6.5,18.1-9.9,20.6-17c0.3-0.9,2.2-6.5,0.3-12.5c-0.2-0.8-0.5-1.5-0.9-2.3c-0.7-1.5-2.7-5.4-6.6-6.8
			c-3.3-1.2-5.5,0.2-12.1,1.7c-5.8,1.3-10.2,1.5-14.9,1.7c-8.5,0.4-8.9-0.9-15.6-0.6c-8.2,0.3-16.1,0.6-21.4,6.2
			C149.9,458.4,148.7,462.7,148.3,466.6z"/>
		<path class="st3" d="M148.3,466.6c-0.5,5.1,0.6,9.5,0.8,10.2c0.6,2.1,2.2,8.2,7.8,12.7c8.5,6.9,19.6,4.9,26.3,3.7
			c7.3-1.3,11.9-3.8,20.7-8.6c12-6.5,18.1-9.9,20.6-17c0.3-0.9,2.2-6.5,0.3-12.5c-0.2-0.8-0.5-1.5-0.9-2.3c-0.7-1.5-2.7-5.4-6.6-6.8
			c-3.3-1.2-5.5,0.2-12.1,1.7c-5.8,1.3-10.2,1.5-14.9,1.7c-8.5,0.4-8.9-0.9-15.6-0.6c-8.2,0.3-16.1,0.6-21.4,6.2
			C149.9,458.4,148.7,462.7,148.3,466.6z"/>
		<g>
			<path d="M195,463.3c-2.1-8.2-13-11.1-20.3-12.6c0,0-3.6-0.6-3.6-0.6l0.4-2.3C179.6,449.7,193.3,453.8,195,463.3L195,463.3z"/>
		</g>
		<g>
			<path d="M220.9,463.9c-2.8,4.2-7.2,7.3-12,8.7C212.8,469.8,217,466.9,220.9,463.9L220.9,463.9z"/>
		</g>
		<g>
			<path d="M174.3,485.2c-7.5,1.4-16.5-1-20.8-7.6C159.1,483,166.7,484.9,174.3,485.2L174.3,485.2z"/>
		</g>
		<path class="st0" d="M169.9,453c4.8,0.9,8.6,4.2,10.3,8.4c-1.7-1.2-3.6-2.1-5.8-2.5c-7.5-1.4-14.7,3.6-16.1,11.1
			c-0.5,2.7-0.2,5.3,0.8,7.7c-4.1-3.1-6.3-8.2-5.3-13.6C155.1,456.6,162.3,451.6,169.9,453z"/>
		<g>
			<path d="M159.1,477.7c-10.2-6.9-6.6-22.9,5.5-25.2c6.5-1.3,13.6,2.6,15.6,8.9c-3.6-8-14.1-10.7-20.9-5.3
				C152.3,461.3,152.3,472.2,159.1,477.7L159.1,477.7z"/>
		</g>
		
			<ellipse transform="matrix(0.1812 -0.9835 0.9835 0.1812 -270.8962 565.1206)" class="st1" cx="203.9" cy="445.2" rx="13.3" ry="20.5"/>
		<g>
			<path d="M218.5,456.1c9.5-6.9,3.5-16.4-5.2-20.2c-5.4-2.4-11.6-3.4-17.4-2.4c-10.4,1.6-15.5,10-7.7,18.6
				c-5.9-4.1-7.6-12-1.8-17.1c5.1-4.5,12.3-5.3,18.7-4.5c6.4,1,13,3.8,17,9C226.9,445.2,225.5,453.1,218.5,456.1L218.5,456.1z"/>
		</g>
	</g>
	<ellipse transform="matrix(0.1812 -0.9835 0.9835 0.1812 -269.2871 564.0037)" cx="204.1" cy="443.7" rx="8.2" ry="9.5"/>
	<path class="st4" d="M202.6,449.9c1,0.2,1.9,0.2,3,0c4.9-0.7,8.3-5.3,7.6-10.2c-6.1-41.3,9.7-63.5,9.9-63.7c2.9-4,2.1-9.6-1.9-12.6
		c-4-2.9-9.6-2.1-12.6,1.9c-0.8,1.1-20.4,28.5-13.2,77C195.9,446.3,198.9,449.2,202.6,449.9z"/>
	<g>
		<path d="M208.5,365.4c-9.8,17.2-13.2,37.4-12.9,57c0,1.4,0.1,3.9,0.2,5.4c0.2,4.2,0.8,9.2,1.3,13.3c0.3,7.6,10.5,9.7,13.6,2.7
			c0.6-1.4,0.6-2.9,0.4-4.3c-1.9-14.5-1.5-29.5,2.6-43.7c2.1-7,4.9-13.9,9.2-19.7c-3.6,6.3-5.8,13.2-7.3,20.2
			c-3.2,14.2-2.8,29-0.7,43.3c0.6,4.1-1.3,8.4-4.8,10.7c-6.7,4.5-16.1,0.1-16.8-7.9c-0.3-2.9-0.7-6-1-8.9c-0.1-1.8-0.3-6.5-0.4-8.2
			c0.1-2.7,0-5.6,0.1-8.3C193.1,398.8,197.6,380.1,208.5,365.4L208.5,365.4z"/>
	</g>
</g>
<path class="st4" d="M74.4,324.1c-1.9,0-3.8,0-5.7-0.1l0.7-18c50.6,1.9,52.2-24.1,52.3-25.2l0,0.1l18,0.1c0,1.5-0.4,14.8-12.6,26.5
	C115.5,318.6,97.8,324.1,74.4,324.1z"/>
<path class="st4" d="M425.8,317.1c-23.4,0-41.1-5.6-52.6-16.6c-12.2-11.7-12.6-25-12.6-26.5l18-0.1l0-0.1c0,1.1,1.6,27.1,52.3,25.2
	l0.7,18C429.5,317.1,427.6,317.1,425.8,317.1z"/>
<path class="st5" d="M74.4,324.1c-1.9,0-3.8,0-5.7-0.1l0.7-18c50.6,1.9,52.2-24.1,52.3-25.2l0,0.1l18,0.1c0,1.5-0.4,14.8-12.6,26.5
	C115.5,318.6,97.8,324.1,74.4,324.1z"/>
<path class="st5" d="M425.8,317.1c-23.4,0-41.1-5.6-52.6-16.6c-12.2-11.7-12.6-25-12.6-26.5l18-0.1l0-0.1c0,1.1,1.6,27.1,52.3,25.2
	l0.7,18C429.5,317.1,427.6,317.1,425.8,317.1z"/>
<path class="st6" d="M413.9,228.5c0,92.5-64.5,155-157,155s-171-63-171-155.5s62.5-152.5,155-152.5S413.9,136,413.9,228.5z"/>
<path class="st4" d="M278.9,358.5c-92.5,0-171-63-171-155.5c0-35.5,9.2-66.2,25.7-90.5C103.4,139.1,85.9,179,85.9,228
	c0,92.5,78.5,155.5,171,155.5c56.9,0,103.1-23.6,130.3-63.3C359.9,344.6,322.5,358.5,278.9,358.5z"/>
<path class="st7" d="M240.9,75.5c-35.6,0-66.8,8.9-91.6,25.1c21.8-10.5,47.3-16.1,75.6-16.1c92.5,0,173,60.5,173,153
	c0,57.3-24.8,103.2-65.7,129.7c50.3-24.3,81.7-74.2,81.7-138.7C413.9,136,333.4,75.5,240.9,75.5z"/>
<path class="st8" d="M413.9,228.5c0,92.5-64.5,155-157,155s-171-63-171-155.5s62.5-152.5,155-152.5S413.9,136,413.9,228.5z"/>
<path class="st4" d="M220.5,341.2c-4.5,2.8-10.3,1.4-13.1-3.1c-0.6-1-1.1-2.2-1.3-3.3c-1,2.7-0.8,5.7,0.8,8.3
	c2.8,4.5,8.6,5.8,13.1,3.1c3.4-2.1,5-6,4.4-9.8C223.7,338.4,222.3,340.1,220.5,341.2z"/>
<path class="st4" d="M194.5,330.9c-5.2,0.5-9.9-3.4-10.3-8.6c-0.1-1.2,0-2.4,0.3-3.5c-2.1,1.9-3.2,4.8-3,7.8
	c0.5,5.2,5.1,9.1,10.3,8.6c4-0.4,7.2-3.2,8.2-6.8C198.6,329.7,196.7,330.7,194.5,330.9z"/>
<path class="st4" d="M173.7,314.3c-5.2,0.5-9.9-3.4-10.3-8.6c-0.1-1.2,0-2.4,0.3-3.5c-2.1,1.9-3.2,4.8-3,7.8
	c0.5,5.2,5.1,9.1,10.3,8.6c4-0.4,7.2-3.2,8.2-6.8C177.8,313.2,175.9,314.1,173.7,314.3z"/>
<path class="st9" d="M323.5,115.8c5.1-1.1,10.2,2.2,11.2,7.4c0.3,1.2,0.3,2.4,0.1,3.6c1.8-2.2,2.7-5.1,2.1-8.1
	c-1.1-5.1-6.1-8.4-11.2-7.4c-3.9,0.8-6.8,4-7.4,7.7C319.5,117.4,321.4,116.3,323.5,115.8z"/>
<path class="st7" d="M258.9,101c0,0.5-0.1,0.9-0.2,1.3c-23.4,5.8-41.8,2.6-52.8-1c0-0.1,0-0.2,0-0.4c0-5.8,11.9-10.5,26.5-10.5
	S258.9,95.2,258.9,101z"/>
<g>
	<path d="M270.9,97.6c-20.1,11.7-46.3,14-67.5,4.1c-3-1.5-5.9-3.1-8.5-5.3c3.1,1.2,6.2,2.2,9.3,3C226.2,105.4,249,103,270.9,97.6
		L270.9,97.6z"/>
</g>
<path d="M211.5,166.6c-6.6-0.3-12.6,12.1-15,29.2l19.1,12.1l-20,10.5c1,17.2,6.1,30,12.7,30.3c8,0.3,15.1-17.8,16-40.5
	C225.2,185.5,219.4,166.9,211.5,166.6z"/>
<path d="M284.7,167.2c6.6-0.1,12.2,12.5,14.1,29.7l-19.5,11.5l19.7,11.1c-1.6,17.2-7,29.8-13.6,29.8c-8,0.1-14.6-18.3-14.8-40.9
	C270.4,185.7,276.7,167.3,284.7,167.2z"/>
<path class="st6" d="M174.3,167.7c0,0,30.4,20.3,55,19.2s3.5-21.4,3.5-21.4"/>
<path class="st6" d="M321.8,169.5c0,0-31,19.3-55.6,17.4c-24.6-1.9-2.8-21.5-2.8-21.5"/>
<g>
	<path class="st10" d="M174.3,167.7c17.2,7.8,39.4,18.3,58.5,16.6c2.4-0.4,4.7-0.8,6.2-2.6c2.7-4.5-3.4-12.4-6.1-16.3
		c5.8,4.3,15.1,14.7,6.7,20.9c-4.6,3-9.9,2.9-15.1,3c0,0-3-0.2-3-0.2C204.1,187,187.6,178.6,174.3,167.7L174.3,167.7z"/>
</g>
<g>
	<path class="st10" d="M321.8,169.5c-13.6,10.5-30.4,18.4-47.8,19.8c0,0-3,0.2-3,0.2c-5.2-0.2-10.5-0.3-15-3.4
		c-8.2-6.4,1.5-16.5,7.4-20.6c-2.8,3.8-9.2,11.6-6.6,16.1c1.4,1.9,3.7,2.3,6.1,2.8C281.8,186.6,304.3,176.8,321.8,169.5L321.8,169.5
		z"/>
</g>
<path class="st4" d="M192.9,349.5c0,0,20.1,1,34-10s-1.7-46.5,9.7-39.8c11.3,6.8,22.2,5.1,24.8,16.4s0.4,14.1,5,23.2
	c4.6,9.1,10.3,16.9,10.3,16.9l6.6,10L192.9,349.5z"/>
<path class="st7" d="M273.2,111.7c0,0-25.2,15-42,15s-44-19-44-19s29.2,8,46,8S273.2,111.7,273.2,111.7z"/>
<path class="st11" d="M278.2,320.2c-5.4,7.5-23.4,8-37,5.4c-5.3-1-9.9-2.4-12.9-4.1c-2.7-1.5-5.7-4.9-8.7-9.1
	c-8.8-12.4-17.6-32.1-17.6-32.1l80.5,13C282.5,293.4,285.7,309.8,278.2,320.2z"/>
<path class="st12" d="M243.9,321.5c-0.6,1.5-1.5,2.9-2.7,4.2c-5.3-1-9.9-2.4-12.9-4.1c-2.7-1.5-5.7-4.9-8.7-9.1
	c0.9-0.8,2.2-1.5,3.6-2c0,0,6.5-3.6,12.1-2.3C240.9,309.5,246.9,313.5,243.9,321.5z"/>
<path class="st3" d="M202,280.4c0,0,15.7,35.3,26.3,41.2s42.4,9.1,49.9-1.3s4.3-26.8,4.3-26.8L202,280.4z"/>
<path class="st13" d="M291,359.3c-1.5,6.6-16.1,11.1-28.1,8.4c-12.3-2.8-23.7-13.8-24.7-25c-0.6-6.6,2.8-10,0-16
	c-2.8-6.2-8.3-7.1-8.4-12.1c-0.1-4.4,4.1-7.7,5.7-9c0.5-0.4,1-0.8,1.6-1.1c3.6-2.3,8.8-3.9,13.2-2.2c2.6,1,3.6,2.6,5.7,3.5
	c0.6,0.2,1.2,0.4,1.9,0.5l0.3,0c2.8,0.3,3.6-1,6.2-1c5.1,0.2,10.3,5.4,11.7,10.8c1.4,5.3-1.9,6.5-1.3,12.7c0.4,3.8,1.8,5.4,8.1,15.3
	c2.6,4.1,4.4,7,5.6,9.1C291.2,357.7,291.2,358.5,291,359.3z"/>
<path class="st14" d="M291,359.3c-1.5,6.6-16.1,11.1-28.1,8.4c-12.3-2.8-23.7-13.8-24.7-25c-0.6-6.6,2.8-10,0-16
	c-2.8-6.2-8.3-7.1-8.4-12.1c-0.1-4.4,4.1-7.7,5.7-9c0.5-0.4,1-0.8,1.6-1.1c4.2,2.9,8,7.2,10.1,12c3.8,8.5-0.7,12.5,4.1,22.9
	c1.3,2.8,4.9,10.8,13,14.2c4.8,2,9.6,1.7,14.3,1.5c4.6-0.3,7.7-1.1,9.9-1.7C291.2,357.7,291.2,358.5,291,359.3z"/>
<path class="st14" d="M261.3,320.9c-0.4,2.3-1.6,4.7-2.1,4.6c-0.6-0.1,0.6-3.6-0.8-8.1c-0.9-3-2-3.7-2.5-6.7
	c-0.3-2.1-0.1-3.9,0.1-5.1c0.6,0.2,1.2,0.4,1.9,0.5l0.3,0c1.1,2.2,1.8,4.2,2.2,5.7C261.5,315.5,261.7,318.3,261.3,320.9z"/>
<path class="st3" d="M291,359.3c-1.5,6.6-16.1,11.1-28.1,8.4c-12.3-2.8-23.7-13.8-24.7-25c-0.6-6.6,2.8-10,0-16
	c-2.8-6.2-8.3-7.1-8.4-12.1c-0.1-4.4,4.1-7.7,5.7-9c0.5-0.4,1-0.8,1.6-1.1c3.6-2.3,8.8-3.9,13.2-2.2c2.6,1,3.6,2.6,5.7,3.5
	c0.6,0.2,1.2,0.4,1.9,0.5l0.3,0c2.8,0.3,3.6-1,6.2-1c5.1,0.2,10.3,5.4,11.7,10.8c1.4,5.3-1.9,6.5-1.3,12.7c0.4,3.8,1.8,5.4,8.1,15.3
	c2.6,4.1,4.4,7,5.6,9.1C291.2,357.7,291.2,358.5,291,359.3z"/>
<path class="st15" d="M264.1,308.4c0.8-0.9,5,0.9,7.6,4c0.6,0.7,2.7,3.3,2.5,6.7c0,0.4-0.2,3.9-2.1,4.6c-0.5,0.2-1.2,0.2-1.6-0.2
	c-0.4-0.5,0-1.3,0.3-3.2c0.3-1.7,0.5-2.5,0.3-3.2c-0.4-1.7-1.8-2.8-2.9-3.5c-1.5-1.1-2.1-0.9-3-1.9
	C264.4,310.7,263.6,308.9,264.1,308.4z"/>
<path class="st15" d="M269.4,327.4c-1.8,0.8-1.3,9.6,3.1,16.4c2.5,3.8,7.2,8.5,10.5,7.5c0.6-0.2,1.8-0.8,1.8-1.4
	c0-0.8-1.6-1.2-3-1.9c0,0-3.6-1.7-5.9-5.4c-1.9-3.1-2.2-6.8-2.4-8.3c-0.2-2,0-3.4-1.1-4.9C271.7,328.3,270.3,327,269.4,327.4z"/>
<g>
	<path d="M259.2,325.5c3.8-4.5,0.9-14.4-1.8-19c0,0,1.8-0.8,1.8-0.8C261.6,310.8,263.6,321.2,259.2,325.5L259.2,325.5z"/>
</g>
<path class="st1" d="M306.3,265.3l-2.7,25.6c0,0-13.7,9.7-53.8,8.8s-52.3-21.9-52.3-21.9l1.2-12.2l6.4,0.6
	C274.8,293.8,305.2,266.3,306.3,265.3C306.2,265.3,306.3,265.3,306.3,265.3z"/>
<path class="st16" d="M306.2,266.4l-1.9,17.6c0,0-13.7,9.7-53.8,8.8c-40-0.9-52.3-21.9-52.3-21.9l0.4-4.2l6.4,0.6
	C276.9,291.5,305.2,267.3,306.2,266.4z"/>
<g>
	<path d="M185,250.5c-1,17.7,54.4,22.5,67.9,23.8c12.5,1.2,25.3,1.5,37.5-1.8c12-3,23.5-11.7,24.9-24.8c0.2,6.5-2.7,12.9-7.2,17.7
		c-9.3,9.7-23.2,12.7-36.1,13.4c-6.5,0.3-13,0-19.5-0.6c-19.1-2.1-38.9-4.5-56.3-13.3C191.2,262.3,183.4,257.2,185,250.5L185,250.5z
		"/>
</g>
<path class="st3" d="M198.9,265.5l-1.5,12.3c0,0,12.3,21.7,53.5,22c41.3,0.3,52.6-8.8,52.6-8.8l2.7-25.6"/>
<g>
	<path class="st17" d="M428,309.1c0,10.8-3.8,19.6-8.5,19.6c-4.7,0-3.3-10.1-3.3-20.9s-1.4-18.3,3.3-18.3
		C424.2,289.6,428,298.3,428,309.1z"/>
	<ellipse class="st17" cx="457.4" cy="306.5" rx="34.6" ry="31.4"/>
	<path class="st1" d="M482.3,330.7c-2,4.2-5.5,6.5-8.5,7.8c-1.2,0.6-2.4,1-3.3,1.3c-5.1,1.8-9.4,1.5-11.8,1.3
		c-4.5-0.4-10.3-0.9-13.1-5.2c-1.6-2.5-1.4-5.1-1.3-6.5c0.5-7.7,7.2-12.6,7.8-13.1c2.5-1.8,5.5-2.9,8.7-3.4
		c9.6-1.6,20.5,2.3,22.7,8.6C484.9,325.3,482.9,329.3,482.3,330.7z"/>
	<path class="st17" d="M453.5,302"/>
	<path class="st0" d="M473.8,338.5c-1.2,0.6-2.4,1-3.3,1.3c-5.1,1.8-9.4,1.5-11.8,1.3c-4.5-0.4-10.3-0.9-13.1-5.2
		c-1.6-2.5-1.4-5.1-1.3-6.5c0.5-7.7,7.2-12.6,7.8-13.1c2.5-1.8,5.5-2.9,8.7-3.4c2.3,1.7,3.8,4.6,3.1,6c-1.1,2.1-6.3-0.4-9.1,2.6
		c-2.2,2.3-1.4,6.1-1.3,6.5c1,4.3,5.4,7.1,9.1,7.8c4.7,0.9,6.7-1.6,9.1,0C472.7,336.5,473.3,337.4,473.8,338.5z"/>
	<path class="st3" d="M483.6,321.6c-2.2-6.3-13.1-10.2-22.7-8.6c-3.1,0.5-6.1,1.6-8.7,3.4c-0.7,0.5-7.4,5.4-7.8,13.1
		c-0.1,1.4-0.2,4.1,1.3,6.5c2.7,4.3,8.6,4.8,13.1,5.2c2.4,0.2,6.7,0.5,11.8-1.3c0.9-0.3,2-0.7,3.3-1.3c3-1.4,6.5-3.6,8.5-7.8
		C482.9,329.3,484.9,325.3,483.6,321.6z"/>
	<path class="st0" d="M435.7,296.8c4.1-0.9,13.2,10.7,10,18.5c-1.9,4.7-7.7,7.2-8.8,6.2c-1.2-1.1,4.1-5.6,2.8-10.9
		c-1.2-4.9-7-6-6.7-10C433.1,298.9,434.2,297.1,435.7,296.8z"/>
	<path class="st1" d="M493.2,318.3c-0.1,0.2-0.3,0.4-0.4,0.6c-5.6,7-16,6.1-24.8,5.2c-4.3-0.4-6.9-1.3-9.1-2.6
		c-1.3-0.8-7.2-4.3-7.8-10.5c-0.6-5.1,2.8-9.1,3.9-10.5c5.3-6.3,14-7.9,21.3-7.5c2.2,0.2,4.3,0.5,6.2,0.9c4.1,1,8.9,2.2,11.8,6.5
		C497.5,305.9,496.6,313.5,493.2,318.3z"/>
	<path class="st0" d="M493.2,318.3c-0.1,0.2-0.3,0.4-0.4,0.6c-5.6,7-16,6.1-24.8,5.2c-4.3-0.4-6.9-1.3-9.1-2.6
		c-1.3-0.8-7.2-4.3-7.8-10.5c-0.6-5.1,2.8-9.1,3.9-10.5c5.3-6.3,14-7.9,21.3-7.5c1,0.5,2.2,1.3,2.2,2.2c0,3-11.7,3-14.4,9.1
		c-1.4,3.2-0.3,8.3,2.6,10.5c5.9,4.3,16.1-5,23.5,0C491.7,316.1,492.6,317.4,493.2,318.3z"/>
	<path class="st3" d="M494,300.7c-2.9-4.4-7.7-5.6-11.8-6.5c-1.8-0.4-3.9-0.8-6.2-0.9c-7.3-0.5-16,1.1-21.3,7.5
		c-1.1,1.4-4.5,5.3-3.9,10.5c0.7,6.2,6.5,9.7,7.8,10.5c2.2,1.3,4.8,2.2,9.1,2.6c8.8,0.8,19.2,1.8,24.8-5.2c0.2-0.2,0.3-0.4,0.4-0.6
		C496.6,313.5,497.5,305.9,494,300.7z"/>
	<path class="st0" d="M494.7,283.7c0,10.1-9.5,18.3-21.2,18.3c-11.7,0-21.2-8.2-21.2-18.3c0-1.9,0.2-3.4,0.7-4.6
		c1.9-5.6,8-5.8,17.5-5.8c9.9,0,20.4,0.2,23.4,6.4C494.4,280.8,494.7,282.1,494.7,283.7z"/>
	<path class="st1" d="M493.8,279.6c-2.8,3.9-10.2,12.8-20.4,13.2c-4.1,0.2-9.7-1.1-10.1-3.3c-0.4-2.4,5.5-4.3,5.2-6.5
		c-0.2-1.5-3.4-3.2-15.7-4c3-1.9,9.1-5.8,17.5-5.8C480.3,273.2,490.8,273.5,493.8,279.6z"/>
	<path class="st3" d="M494.7,283.7c0,10.1-9.5,18.3-21.2,18.3c-11.7,0-21.2-8.2-21.2-18.3c0-1.9,0.2-3.4,0.7-4.6
		c1.9-5.6,8-5.8,17.5-5.8c9.9,0,20.4,0.2,23.4,6.4C494.4,280.8,494.7,282.1,494.7,283.7z"/>
	<path class="st18" d="M454.2,285.6c0,0,1.3-6.5,17-3.9"/>
	<path class="st0" d="M459.6,292.2c-2.1,10.8-9.6,18.4-16.6,17c-5.5-1.1-9.2-7.4-9.5-15.2c-0.1-2.2,0.1-4.5,0.6-6.9
		c2.1-10.8,9.6-18.4,16.6-17c2.6,0.5,4.8,2.2,6.5,4.7C459.9,279,460.9,285.4,459.6,292.2z"/>
	<path class="st1" d="M456.6,281.7c-2.1,10.8-9.6,18.4-16.6,17c-2.6-0.5-4.8-2.2-6.5-4.7c-0.1-2.2,0.1-4.5,0.6-6.9
		c2.1-10.8,9.6-18.4,16.6-17c2.6,0.5,4.8,2.2,6.5,4.7C457.2,277,457.1,279.3,456.6,281.7z"/>
	<path class="st3" d="M436.5,279.9c-1.6,2.9-2.1,5.5-2.4,7.2c-0.2,0.9-0.7,4-0.6,6.9c0.3,7.8,3.9,14.1,9.5,15.2
		c7,1.4,14.5-6.2,16.6-17c1.3-6.8,0.3-13.2-2.4-17.3c-1.6-2.5-3.8-4.2-6.5-4.7c-5.4-1.1-10.3,4.5-11.5,5.7L436.5,279.9z"/>
</g>
<ellipse class="st4" cx="232.9" cy="96.5" rx="11.2" ry="3.9"/>
<ellipse cx="232.9" cy="96.5" rx="8" ry="2.6"/>
<g>
	<path class="st17" d="M77.8,316c0,10.8,3.8,19.6,8.5,19.6c4.7,0,3.3-10.1,3.3-20.9c0-10.8,1.4-18.3-3.3-18.3
		C81.6,296.4,77.8,305.1,77.8,316z"/>
	<ellipse class="st17" cx="48.4" cy="313.4" rx="34.6" ry="31.4"/>
	<path class="st1" d="M23.5,337.5c2,4.2,5.5,6.5,8.5,7.8c1.2,0.6,2.4,1,3.3,1.3c5.1,1.8,9.4,1.5,11.8,1.3c4.5-0.4,10.3-0.9,13.1-5.2
		c1.6-2.5,1.4-5.1,1.3-6.5c-0.5-7.7-7.2-12.6-7.8-13.1c-2.5-1.8-5.5-2.9-8.7-3.4c-9.6-1.6-20.5,2.3-22.7,8.6
		C20.9,332.1,22.9,336.2,23.5,337.5z"/>
	<path class="st17" d="M52.3,308.8"/>
	<path class="st0" d="M32,345.4c1.2,0.6,2.4,1,3.3,1.3c5.1,1.8,9.4,1.5,11.8,1.3c4.5-0.4,10.3-0.9,13.1-5.2c1.6-2.5,1.4-5.1,1.3-6.5
		c-0.5-7.7-7.2-12.6-7.8-13.1c-2.5-1.8-5.5-2.9-8.7-3.4c-2.3,1.7-3.8,4.6-3.1,6c1.1,2.1,6.3-0.4,9.1,2.6c2.2,2.3,1.4,6.1,1.3,6.5
		c-1,4.3-5.4,7.1-9.1,7.8c-4.7,0.9-6.7-1.6-9.1,0C33.2,343.3,32.5,344.3,32,345.4z"/>
	<path class="st3" d="M22.2,328.4c2.2-6.3,13.1-10.2,22.7-8.6c3.1,0.5,6.1,1.6,8.7,3.4c0.7,0.5,7.4,5.4,7.8,13.1
		c0.1,1.4,0.2,4.1-1.3,6.5c-2.7,4.3-8.6,4.8-13.1,5.2c-2.4,0.2-6.7,0.5-11.8-1.3c-0.9-0.3-2-0.7-3.3-1.3c-3-1.4-6.5-3.6-8.5-7.8
		C22.9,336.2,20.9,332.1,22.2,328.4z"/>
	<path class="st0" d="M70.1,303.6c-4.1-0.9-13.2,10.7-10,18.5c1.9,4.7,7.7,7.2,8.8,6.2c1.2-1.1-4.1-5.6-2.8-10.9c1.2-4.9,7-6,6.7-10
		C72.7,305.8,71.6,303.9,70.1,303.6z"/>
	<path class="st1" d="M12.7,325.2c0.1,0.2,0.3,0.4,0.4,0.6c5.6,7,16,6.1,24.8,5.2c4.3-0.4,6.9-1.3,9.1-2.6c1.3-0.8,7.2-4.3,7.8-10.5
		c0.6-5.1-2.8-9.1-3.9-10.5c-5.3-6.3-14-7.9-21.3-7.5c-2.2,0.2-4.3,0.5-6.2,0.9c-4.1,1-8.9,2.2-11.8,6.5
		C8.3,312.8,9.2,320.4,12.7,325.2z"/>
	<path class="st0" d="M12.7,325.2c0.1,0.2,0.3,0.4,0.4,0.6c5.6,7,16,6.1,24.8,5.2c4.3-0.4,6.9-1.3,9.1-2.6c1.3-0.8,7.2-4.3,7.8-10.5
		c0.6-5.1-2.8-9.1-3.9-10.5c-5.3-6.3-14-7.9-21.3-7.5c-1,0.5-2.2,1.3-2.2,2.2c0,3,11.7,3,14.4,9.1c1.4,3.2,0.3,8.3-2.6,10.5
		c-5.9,4.3-16.1-5-23.5,0C14.1,322.9,13.2,324.2,12.7,325.2z"/>
	<path class="st3" d="M11.8,307.5c2.9-4.4,7.7-5.6,11.8-6.5c1.8-0.4,3.9-0.8,6.2-0.9c7.3-0.5,16,1.1,21.3,7.5
		c1.1,1.4,4.5,5.3,3.9,10.5c-0.7,6.2-6.5,9.7-7.8,10.5c-2.2,1.3-4.8,2.2-9.1,2.6c-8.8,0.8-19.2,1.8-24.8-5.2
		c-0.2-0.2-0.3-0.4-0.4-0.6C9.2,320.4,8.3,312.8,11.8,307.5z"/>
	<path class="st0" d="M11.1,290.5c0,10.1,9.5,18.3,21.2,18.3s21.2-8.2,21.2-18.3c0-1.9-0.2-3.4-0.7-4.6c-1.9-5.6-8-5.8-17.5-5.8
		c-9.9,0-20.4,0.2-23.4,6.4C11.4,287.6,11.1,288.9,11.1,290.5z"/>
	<path class="st1" d="M12,286.5c2.8,3.9,10.2,12.8,20.4,13.2c4.1,0.2,9.7-1.1,10.1-3.3c0.4-2.4-5.5-4.3-5.2-6.5
		c0.2-1.5,3.4-3.2,15.7-4c-3-1.9-9.1-5.8-17.5-5.8C25.5,280,15,280.3,12,286.5z"/>
	<path class="st3" d="M11.1,290.5c0,10.1,9.5,18.3,21.2,18.3s21.2-8.2,21.2-18.3c0-1.9-0.2-3.4-0.7-4.6c-1.9-5.6-8-5.8-17.5-5.8
		c-9.9,0-20.4,0.2-23.4,6.4C11.4,287.6,11.1,288.9,11.1,290.5z"/>
	<path class="st18" d="M51.6,292.5c0,0-1.3-6.5-17-3.9"/>
	<path class="st0" d="M46.2,299c2.1,10.8,9.6,18.4,16.6,17c5.5-1.1,9.2-7.4,9.5-15.2c0.1-2.2-0.1-4.5-0.6-6.9
		c-2.1-10.8-9.6-18.4-16.6-17c-2.6,0.5-4.8,2.2-6.5,4.7C45.9,285.8,44.9,292.2,46.2,299z"/>
	<path class="st1" d="M49.2,288.5c2.1,10.8,9.6,18.4,16.6,17c2.6-0.5,4.8-2.2,6.5-4.7c0.1-2.2-0.1-4.5-0.6-6.9
		c-2.1-10.8-9.6-18.4-16.6-17c-2.6,0.5-4.8,2.2-6.5,4.7C48.6,283.9,48.8,286.2,49.2,288.5z"/>
	<path class="st3" d="M69.3,286.7c1.6,2.9,2.1,5.5,2.4,7.2c0.2,0.9,0.7,4,0.6,6.9c-0.3,7.8-3.9,14.1-9.5,15.2
		c-7,1.4-14.5-6.2-16.6-17c-1.3-6.8-0.3-13.2,2.4-17.3c1.6-2.5,3.8-4.2,6.5-4.7c5.4-1.1,10.3,4.5,11.5,5.7L69.3,286.7z"/>
</g>
</svg>
