<svg version="1.1" xmlns="http://www.w3.org/2000/svg" xmlns:xlink="http://www.w3.org/1999/xlink" x="0px" y="0px"
	 viewBox="0 0 150 150" style="enable-background:new 0 0 150 150;" xml:space="preserve">
<style type="text/css">
	.st0{fill:#0A487C;}
	.st1{fill:#DDE9F2;stroke:#3BB209;stroke-width:4;stroke-miterlimit:10;}
	.st2{fill:#3E4E51;}
	.st3{fill:#5E7075;}
	.st4{fill:#332105;}
	.st5{fill:none;}
	.st6{fill:#AA5B13;}
	.st7{fill:#EA8326;}
	.st8{fill:#138713;}
</style>
<g id="Layer_2">
	<polygon class="st0" points="95.6,11.7 54.4,11.7 21.2,35.9 8.5,75 21.2,114.1 54.4,138.3 95.6,138.3 128.8,114.1 141.5,75 
		128.8,35.9 	"/>
	<polygon class="st1" points="93.5,18.1 56.5,18.1 26.6,39.8 15.1,75 26.6,110.2 56.5,131.9 93.5,131.9 123.4,110.2 134.9,75 
		123.4,39.8 	"/>
</g>
<g id="Layer_6">
	<g>
		<g>
			<polygon class="st2" points="48.2,55.9 91.4,107.4 108.8,112.8 55.7,49.6 			"/>
			<polygon class="st3" points="55.7,49.6 108.8,112.8 106.4,94.8 63.3,43.3 			"/>
		</g>
		<g>
			
				<rect x="41.7" y="46.7" transform="matrix(-0.7666 0.6422 -0.6422 -0.7666 128.5789 50.7528)" class="st4" width="26.7" height="4.1"/>
			
				<rect x="48.4" y="37.2" transform="matrix(-0.7666 0.6422 -0.6422 -0.7666 119.3533 46.1464)" class="st4" width="5.7" height="15"/>
			<circle class="st4" cx="45.3" cy="37.7" r="4.3"/>
			<line class="st5" x1="53.6" y1="47.5" x2="55.5" y2="49.8"/>
		</g>
	</g>
	<g>
		<g>
			<polygon class="st2" points="101.5,55.9 58.4,107.4 41,112.8 94,49.6 			"/>
			<polygon class="st3" points="94,49.6 41,112.8 43.3,94.8 86.5,43.3 			"/>
		</g>
		<g>
			
				<rect x="81.3" y="46.7" transform="matrix(0.7666 0.6422 -0.6422 0.7666 53.406 -49.4191)" class="st4" width="26.7" height="4.1"/>
			
				<rect x="95.6" y="37.2" transform="matrix(0.7666 0.6422 -0.6422 0.7666 51.7318 -52.7729)" class="st4" width="5.7" height="15"/>
			<circle class="st4" cx="104.4" cy="37.7" r="4.3"/>
			<line class="st5" x1="94.3" y1="49.8" x2="96.2" y2="47.5"/>
		</g>
	</g>
	<g>
		<path class="st6" d="M99.5,75.6c0,12.6-10.2,22.8-22.8,22.8c-9.5,0-17.6-5.8-21.1-14c4.2,4.4,10.1,7.2,16.6,7.2
			c12.6,0,22.8-10.2,22.8-22.8c0-3.1-0.6-6.1-1.8-8.8C97.1,64,99.5,69.5,99.5,75.6z"/>
		<path class="st7" d="M95.1,68.7c0,12.6-10.2,22.8-22.8,22.8c-6.6,0-12.5-2.8-16.6-7.2c-1.1-2.7-1.8-5.7-1.8-8.8
			C53.8,63,64,52.7,76.7,52.7c6.6,0,12.5,2.8,16.6,7.2C94.4,62.6,95.1,65.6,95.1,68.7z"/>
		<path class="st8" d="M76.3,53c1.7,2.3,1.7,5.2,0.1,6.4c-1.7,1.2-4.4,0.3-6.1-2c-1.7-2.3-0.1-6.4-0.1-6.4S74.6,50.6,76.3,53z"/>
	</g>
</g>
</svg>
