<svg version="1.1" id="Layer_1" xmlns="http://www.w3.org/2000/svg" xmlns:xlink="http://www.w3.org/1999/xlink" x="0px" y="0px"
	 viewBox="0 0 500 500" style="enable-background:new 0 0 500 500;" xml:space="preserve">
<style type="text/css">
	.st0{fill:#CCCAC8;}
	.st1{fill:#FFFFFF;}
	.st2{fill:none;}
	.st3{fill:none;stroke:#000000;stroke-width:3;stroke-miterlimit:10;}
	.st4{fill:#AF5104;}
	.st5{fill:#E27203;}
	.st6{fill:none;stroke:#000000;stroke-width:6;stroke-miterlimit:10;}
	.st7{fill:#FFFFFF;stroke:#000000;stroke-width:3;stroke-miterlimit:10;}
	.st8{fill:#E8E2E2;}
	.st9{fill:none;stroke:#000000;stroke-width:3;stroke-linecap:round;stroke-miterlimit:10;}
	.st10{fill:#EFA765;}
	.st11{fill:#EA8124;}
	.st12{fill:#74C610;}
	.st13{fill:#4E8A2A;}
	.st14{fill:#A0D37F;}
	.st15{fill:#A84C0E;}
	.st16{fill:#F7A654;}
	.st17{fill:#E07C22;}
	.st18{fill:#D8D8D8;}
	.st19{fill:none;stroke:#000000;stroke-width:3.1574;stroke-miterlimit:10;}
</style>
<g>
	<g>
		<path class="st0" d="M371.1,446.2c0.5,5.1-0.6,9.5-0.8,10.2c-0.6,2.1-2.2,8.2-7.8,12.7c-8.5,6.9-19.6,4.9-26.3,3.7
			c-7.3-1.3-11.9-3.8-20.7-8.6c-12-6.5-18.1-9.9-20.6-17c-0.3-0.9-2.2-6.5-0.3-12.5c0.2-0.8,0.5-1.5,0.9-2.3
			c0.7-1.5,2.7-5.4,6.6-6.8c3.3-1.2,5.5,0.2,12.1,1.7c5.8,1.3,10.2,1.5,14.9,1.7c8.5,0.4,8.9-0.9,15.6-0.6
			c8.2,0.3,16.1,0.6,21.4,6.2C369.4,438,370.7,442.3,371.1,446.2z"/>
		<path class="st1" d="M371.1,446.2c-0.1,0.5-0.2,0.9-0.3,1.1c-0.6,2.1-2.2,8.2-7.8,12.7c-8.5,6.9-19.6,4.9-26.3,3.7
			c-7.3-1.3-11.9-3.8-20.7-8.6c-12-6.5-18.1-9.9-20.6-17c-0.1-0.4-0.5-1.6-0.8-3.4c0.2-0.8,0.5-1.5,0.9-2.3c0.7-1.5,2.7-5.4,6.6-6.8
			c3.3-1.2,5.5,0.2,12.1,1.7c5.8,1.3,10.2,1.5,14.9,1.7c8.5,0.4,8.9-0.9,15.6-0.6c8.2,0.3,16.1,0.6,21.4,6.2
			C369.4,438,370.7,442.3,371.1,446.2z"/>
		<path class="st2" d="M371.1,446.2c0.5,5.1-0.6,9.5-0.8,10.2c-0.6,2.1-2.2,8.2-7.8,12.7c-8.5,6.9-19.6,4.9-26.3,3.7
			c-7.3-1.3-11.9-3.8-20.7-8.6c-12-6.5-18.1-9.9-20.6-17c-0.3-0.9-2.2-6.5-0.3-12.5c0.2-0.8,0.5-1.5,0.9-2.3
			c0.7-1.5,2.7-5.4,6.6-6.8c3.3-1.2,5.5,0.2,12.1,1.7c5.8,1.3,10.2,1.5,14.9,1.7c8.5,0.4,8.9-0.9,15.6-0.6
			c8.2,0.3,16.1,0.6,21.4,6.2C369.4,438,370.7,442.3,371.1,446.2z"/>
		<path class="st3" d="M371.1,446.2c0.5,5.1-0.6,9.5-0.8,10.2c-0.6,2.1-2.2,8.2-7.8,12.7c-8.5,6.9-19.6,4.9-26.3,3.7
			c-7.3-1.3-11.9-3.8-20.7-8.6c-12-6.5-18.1-9.9-20.6-17c-0.3-0.9-2.2-6.5-0.3-12.5c0.2-0.8,0.5-1.5,0.9-2.3
			c0.7-1.5,2.7-5.4,6.6-6.8c3.3-1.2,5.5,0.2,12.1,1.7c5.8,1.3,10.2,1.5,14.9,1.7c8.5,0.4,8.9-0.9,15.6-0.6
			c8.2,0.3,16.1,0.6,21.4,6.2C369.4,438,370.7,442.3,371.1,446.2z"/>
		<g>
			<path d="M324.4,442.9c1.7-9.5,15.3-13.6,23.5-15.5c0,0,0.4,2.3,0.4,2.3l-3.6,0.6C337.5,431.7,326.5,434.7,324.4,442.9
				L324.4,442.9z"/>
		</g>
		<g>
			<path d="M298.5,443.5c3.9,3,8,5.9,12,8.7C305.8,450.8,301.3,447.7,298.5,443.5L298.5,443.5z"/>
		</g>
		<g>
			<path d="M345.1,464.8c7.6-0.3,15.3-2.2,20.8-7.7C361.6,463.8,352.6,466.2,345.1,464.8L345.1,464.8z"/>
		</g>
		<path class="st0" d="M349.5,432.6c-4.8,0.9-8.6,4.2-10.3,8.4c1.7-1.2,3.6-2.1,5.8-2.5c7.5-1.4,14.7,3.6,16.1,11.1
			c0.5,2.7,0.2,5.3-0.8,7.7c4.1-3.1,6.3-8.2,5.3-13.6C364.3,436.2,357.1,431.2,349.5,432.6z"/>
		<g>
			<path d="M360.3,457.3c6.8-5.5,6.8-16.4-0.2-21.6c-6.8-5.4-17.3-2.6-20.9,5.3c2.1-6.3,9.1-10.3,15.6-8.9
				C366.9,434.4,370.6,450.3,360.3,457.3L360.3,457.3z"/>
		</g>
		
			<ellipse transform="matrix(0.9835 -0.1812 0.1812 0.9835 -71.745 64.1828)" class="st1" cx="315.5" cy="424.8" rx="20.5" ry="13.3"/>
		<g>
			<path d="M300.9,435.7c-7-3-8.4-10.8-3.7-16.6c4.1-5.2,10.6-8,17-9c6.5-0.8,13.6,0,18.7,4.5c5.8,5.1,4.1,13-1.8,17.1
				c7.8-8.6,2.7-17-7.7-18.6c-5.8-1-12,0-17.4,2.4C297.4,419.2,291.3,428.8,300.9,435.7L300.9,435.7z"/>
		</g>
	</g>
	<ellipse transform="matrix(0.9835 -0.1812 0.1812 0.9835 -71.4709 64.1334)" cx="315.3" cy="423.3" rx="9.5" ry="8.2"/>
	<path class="st4" d="M316.8,429.5c-1,0.2-1.9,0.2-3,0c-4.9-0.7-8.3-5.3-7.6-10.2c6.1-41.3-9.7-63.5-9.9-63.7
		c-2.9-4-2.1-9.6,1.9-12.6c4-2.9,9.6-2.1,12.6,1.9c0.8,1.1,20.4,28.5,13.2,77C323.5,425.9,320.5,428.8,316.8,429.5z"/>
	<g>
		<path d="M310.9,345c10.9,14.7,15.4,33.5,16.5,51.5c0.1,2.6,0.1,5.6,0.1,8.3c-0.1,1.7-0.3,6.4-0.4,8.2c-0.3,2.9-0.7,6-1,8.9
			c-0.8,8-10.2,12.4-16.8,7.9c-3.5-2.2-5.5-6.6-4.8-10.7c2.2-14.3,2.5-29.1-0.7-43.3c-1.6-7-3.7-13.9-7.3-20.2
			c4.3,5.9,7.1,12.8,9.2,19.7c4.2,14.1,4.5,29.1,2.6,43.7c-0.2,1.4-0.2,3,0.4,4.3c3.1,7,13.3,5,13.6-2.7c0.5-4.1,1.1-9.2,1.3-13.3
			c0.1-1.4,0.2-3.9,0.2-5.4C324.1,382.4,320.7,362.2,310.9,345L310.9,345z"/>
	</g>
</g>
<g>
	<g>
		<path class="st0" d="M135.9,445.1c-0.5,5.1,0.6,9.5,0.8,10.2c0.6,2.1,2.2,8.2,7.8,12.7c8.5,6.9,19.6,4.9,26.3,3.7
			c7.3-1.3,11.9-3.8,20.7-8.6c12-6.5,18.1-9.9,20.6-17c0.3-0.9,2.2-6.5,0.3-12.5c-0.2-0.8-0.5-1.5-0.9-2.3c-0.7-1.5-2.7-5.4-6.6-6.8
			c-3.3-1.2-5.5,0.2-12.1,1.7c-5.8,1.3-10.2,1.5-14.9,1.7c-8.5,0.4-8.9-0.9-15.6-0.6c-8.2,0.3-16.1,0.6-21.4,6.2
			C137.5,436.9,136.2,441.2,135.9,445.1z"/>
		<path class="st1" d="M135.9,445.1c0.1,0.5,0.2,0.9,0.3,1.1c0.6,2.1,2.2,8.2,7.8,12.7c8.5,6.9,19.6,4.9,26.3,3.7
			c7.3-1.3,11.9-3.8,20.7-8.6c12-6.5,18.1-9.9,20.6-17c0.1-0.4,0.5-1.6,0.8-3.4c-0.2-0.8-0.5-1.5-0.9-2.3c-0.7-1.5-2.7-5.4-6.6-6.8
			c-3.3-1.2-5.5,0.2-12.1,1.7c-5.8,1.3-10.2,1.5-14.9,1.7c-8.5,0.4-8.9-0.9-15.6-0.6c-8.2,0.3-16.1,0.6-21.4,6.2
			C137.5,436.9,136.2,441.2,135.9,445.1z"/>
		<path class="st2" d="M135.9,445.1c-0.5,5.1,0.6,9.5,0.8,10.2c0.6,2.1,2.2,8.2,7.8,12.7c8.5,6.9,19.6,4.9,26.3,3.7
			c7.3-1.3,11.9-3.8,20.7-8.6c12-6.5,18.1-9.9,20.6-17c0.3-0.9,2.2-6.5,0.3-12.5c-0.2-0.8-0.5-1.5-0.9-2.3c-0.7-1.5-2.7-5.4-6.6-6.8
			c-3.3-1.2-5.5,0.2-12.1,1.7c-5.8,1.3-10.2,1.5-14.9,1.7c-8.5,0.4-8.9-0.9-15.6-0.6c-8.2,0.3-16.1,0.6-21.4,6.2
			C137.5,436.9,136.2,441.2,135.9,445.1z"/>
		<path class="st3" d="M135.9,445.1c-0.5,5.1,0.6,9.5,0.8,10.2c0.6,2.1,2.2,8.2,7.8,12.7c8.5,6.9,19.6,4.9,26.3,3.7
			c7.3-1.3,11.9-3.8,20.7-8.6c12-6.5,18.1-9.9,20.6-17c0.3-0.9,2.2-6.5,0.3-12.5c-0.2-0.8-0.5-1.5-0.9-2.3c-0.7-1.5-2.7-5.4-6.6-6.8
			c-3.3-1.2-5.5,0.2-12.1,1.7c-5.8,1.3-10.2,1.5-14.9,1.7c-8.5,0.4-8.9-0.9-15.6-0.6c-8.2,0.3-16.1,0.6-21.4,6.2
			C137.5,436.9,136.2,441.2,135.9,445.1z"/>
		<g>
			<path d="M182.5,441.8c-2.1-8.2-13-11.1-20.3-12.6c0,0-3.6-0.6-3.6-0.6l0.4-2.3C167.2,428.2,180.8,432.3,182.5,441.8L182.5,441.8z
				"/>
		</g>
		<g>
			<path d="M208.4,442.4c-2.8,4.2-7.2,7.3-12,8.7C200.4,448.3,204.6,445.4,208.4,442.4L208.4,442.4z"/>
		</g>
		<g>
			<path d="M161.9,463.7c-7.5,1.4-16.5-1-20.8-7.6C146.6,461.5,154.3,463.4,161.9,463.7L161.9,463.7z"/>
		</g>
		<path class="st0" d="M157.4,431.5c4.8,0.9,8.6,4.2,10.3,8.4c-1.7-1.2-3.6-2.1-5.8-2.5c-7.5-1.4-14.7,3.6-16.1,11.1
			c-0.5,2.7-0.2,5.3,0.8,7.7c-4.1-3.1-6.3-8.2-5.3-13.6C142.7,435.1,149.9,430.1,157.4,431.5z"/>
		<g>
			<path d="M146.6,456.2c-10.2-6.9-6.6-22.9,5.5-25.2c6.5-1.3,13.6,2.6,15.6,8.9c-3.6-8-14.1-10.7-20.9-5.3
				C139.8,439.8,139.8,450.7,146.6,456.2L146.6,456.2z"/>
		</g>
		
			<ellipse transform="matrix(0.1812 -0.9835 0.9835 0.1812 -259.9532 535.2728)" class="st1" cx="191.5" cy="423.7" rx="13.3" ry="20.5"/>
		<g>
			<path d="M206.1,434.6c9.5-6.9,3.5-16.4-5.2-20.2c-5.4-2.4-11.6-3.4-17.4-2.4c-10.4,1.6-15.5,10-7.7,18.6
				c-5.9-4.1-7.6-12-1.8-17.1c5.1-4.5,12.3-5.3,18.7-4.5c6.4,1,13,3.8,17,9C214.5,423.7,213.1,431.6,206.1,434.6L206.1,434.6z"/>
		</g>
	</g>
	<ellipse transform="matrix(0.1812 -0.9835 0.9835 0.1812 -258.3441 534.1558)" cx="191.6" cy="422.2" rx="8.2" ry="9.5"/>
	<path class="st4" d="M190.1,428.4c1,0.2,1.9,0.2,3,0c4.9-0.7,8.3-5.3,7.6-10.2c-6.1-41.3,9.7-63.5,9.9-63.7c2.9-4,2.1-9.6-1.9-12.6
		c-4-2.9-9.6-2.1-12.6,1.9c-0.8,1.1-20.4,28.5-13.2,77C183.5,424.8,186.5,427.7,190.1,428.4z"/>
	<g>
		<path d="M196.1,343.9c-9.8,17.2-13.2,37.4-12.9,57c0,1.4,0.1,3.9,0.2,5.4c0.2,4.2,0.8,9.2,1.3,13.3c0.3,7.6,10.5,9.7,13.6,2.7
			c0.6-1.4,0.6-2.9,0.4-4.3c-1.9-14.5-1.5-29.5,2.6-43.7c2.1-7,4.9-13.9,9.2-19.7c-3.6,6.3-5.8,13.2-7.3,20.2
			c-3.2,14.2-2.8,29-0.7,43.3c0.6,4.1-1.3,8.4-4.8,10.7c-6.7,4.5-16.1,0.1-16.8-7.9c-0.3-2.9-0.7-6-1-8.9c-0.1-1.8-0.3-6.5-0.4-8.2
			c0.1-2.7,0-5.6,0.1-8.3C180.7,377.3,185.2,358.6,196.1,343.9L196.1,343.9z"/>
	</g>
</g>
<path class="st5" d="M426.2,324.1c-22.9,0-40.1-5.4-51.2-16c-11.8-11.3-12-24.5-12-25.1l14-0.1l-7,0l7-0.1c0,0.3,0.3,8.2,8,15.4
	c9.1,8.5,25.1,12.6,46.4,11.8l0.5,14C430,324.1,428.1,324.1,426.2,324.1z"/>
<path class="st6" d="M426.2,324.1c-22.9,0-40.1-5.4-51.2-16c-11.8-11.3-12-24.5-12-25.1l14-0.1l-7,0l7-0.1c0,0.3,0.3,8.2,8,15.4
	c9.1,8.5,25.1,12.6,46.4,11.8l0.5,14C430,324.1,428.1,324.1,426.2,324.1z"/>
<g>
	<path class="st7" d="M425.9,316.8c0,9.8-3.4,17.7-7.7,17.7c-4.2,0-2.9-9.1-2.9-18.9c0-9.8-1.3-16.5,2.9-16.5
		C422.5,299.1,425.9,307.1,425.9,316.8z"/>
	<ellipse class="st7" cx="452.5" cy="314.5" rx="31.2" ry="28.3"/>
	<path class="st1" d="M474.9,336.3c-1.8,3.8-5,5.8-7.6,7.1c-1.1,0.5-2.1,0.9-3,1.2c-4.6,1.7-8.5,1.4-10.6,1.2
		c-4-0.4-9.3-0.8-11.8-4.7c-1.4-2.2-1.3-4.6-1.2-5.9c0.4-6.9,6.5-11.4,7.1-11.8c2.3-1.6,5-2.6,7.8-3.1c8.7-1.4,18.5,2.1,20.5,7.8
		C477.2,331.4,475.5,335,474.9,336.3z"/>
	<path class="st7" d="M448.9,310.3"/>
	<path class="st8" d="M467.2,343.3c-1.1,0.5-2.1,0.9-3,1.2c-4.6,1.7-8.5,1.4-10.6,1.2c-4-0.4-9.3-0.8-11.8-4.7
		c-1.4-2.2-1.3-4.6-1.2-5.9c0.4-6.9,6.5-11.4,7.1-11.8c2.3-1.6,5-2.6,7.8-3.1c2.1,1.5,3.5,4.1,2.8,5.4c-1,1.9-5.7-0.3-8.3,2.4
		c-2,2.1-1.3,5.5-1.2,5.9c0.9,3.9,4.9,6.4,8.3,7.1c4.2,0.8,6.1-1.4,8.3,0C466.2,341.5,466.8,342.3,467.2,343.3z"/>
	<path class="st3" d="M476,328c-2-5.7-11.8-9.2-20.5-7.8c-2.8,0.5-5.5,1.4-7.8,3.1c-0.6,0.4-6.6,4.8-7.1,11.8
		c-0.1,1.2-0.2,3.7,1.2,5.9c2.5,3.9,7.8,4.4,11.8,4.7c2.1,0.2,6,0.5,10.6-1.2c0.8-0.3,1.8-0.7,3-1.2c2.7-1.2,5.8-3.3,7.6-7.1
		C475.5,335,477.2,331.4,476,328z"/>
	<path class="st8" d="M429.6,307.3c3-2.3,14.9,3.5,15.4,11.1c0.3,4.5-3.4,8.9-4.7,8.5c-1.4-0.4,1.2-6.1-2-9.9
		c-2.9-3.5-8-2.1-9.4-5.5C428.4,310.1,428.6,308.1,429.6,307.3z"/>
	<path class="st1" d="M484.7,325.1c-0.1,0.2-0.3,0.4-0.4,0.5c-5,6.4-14.4,5.5-22.4,4.7c-3.9-0.4-6.2-1.2-8.3-2.4
		c-1.2-0.7-6.5-3.9-7.1-9.4c-0.5-4.6,2.5-8.2,3.5-9.4c4.8-5.7,12.6-7.1,19.2-6.7c2,0.1,3.9,0.4,5.6,0.8c3.7,0.9,8,1.9,10.6,5.9
		C488.6,313.9,487.8,320.8,484.7,325.1z"/>
	<path class="st8" d="M484.7,325.1c-0.1,0.2-0.3,0.4-0.4,0.5c-5,6.4-14.4,5.5-22.4,4.7c-3.9-0.4-6.2-1.2-8.3-2.4
		c-1.2-0.7-6.5-3.9-7.1-9.4c-0.5-4.6,2.5-8.2,3.5-9.4c4.8-5.7,12.6-7.1,19.2-6.7c0.9,0.5,2,1.2,2,2c0,2.7-10.6,2.7-13,8.3
		c-1.2,2.9-0.3,7.5,2.4,9.4c5.3,3.9,14.5-4.5,21.2,0C483.3,323.1,484.2,324.3,484.7,325.1z"/>
	<path class="st3" d="M485.5,309.2c-2.6-3.9-7-5-10.6-5.9c-1.7-0.4-3.5-0.7-5.6-0.8c-6.6-0.4-14.4,1-19.2,6.7c-1,1.2-4,4.8-3.5,9.4
		c0.6,5.6,5.9,8.7,7.1,9.4c2,1.2,4.3,2,8.3,2.4c8,0.8,17.4,1.6,22.4-4.7c0.1-0.2,0.3-0.4,0.4-0.5
		C487.8,320.8,488.6,313.9,485.5,309.2z"/>
	<path class="st8" d="M486,293.8c0,9.1-8.6,16.5-19.2,16.5c-10.6,0-19.2-7.4-19.2-16.5c0-1.7,0.2-3.1,0.6-4.2
		c1.7-5,7.2-5.2,15.8-5.2c8.9,0,18.4,0.2,21.1,5.8C485.8,291.2,486,292.4,486,293.8z"/>
	<path class="st1" d="M485.3,290.2c-2.6,3.5-9.2,11.5-18.4,11.9c-3.7,0.1-8.8-1-9.1-2.9c-0.4-2.2,5-3.9,4.7-5.9
		c-0.2-1.4-3-2.9-14.1-3.6c2.7-1.7,8.2-5.2,15.8-5.2C473.1,284.4,482.6,284.6,485.3,290.2z"/>
	<path class="st3" d="M486,293.8c0,9.1-8.6,16.5-19.2,16.5c-10.6,0-19.2-7.4-19.2-16.5c0-1.7,0.2-3.1,0.6-4.2
		c1.7-5,7.2-5.2,15.8-5.2c8.9,0,18.4,0.2,21.1,5.8C485.8,291.2,486,292.4,486,293.8z"/>
	<path class="st9" d="M449.5,295.6c0,0,1.2-5.9,15.3-3.5"/>
	<path class="st8" d="M454.4,301.5c-1.9,9.7-8.7,16.6-15,15.3c-5-1-8.3-6.6-8.5-13.7c-0.1-2,0.1-4.1,0.5-6.2
		c1.9-9.7,8.7-16.6,15-15.3c2.4,0.5,4.4,2,5.8,4.3C454.7,289.6,455.6,295.4,454.4,301.5z"/>
	<path class="st1" d="M451.7,292.1c-1.9,9.7-8.7,16.6-15,15.3c-2.4-0.5-4.4-2-5.8-4.3c-0.1-2,0.1-4.1,0.5-6.2
		c1.9-9.7,8.7-16.6,15-15.3c2.4,0.5,4.4,2,5.8,4.3C452.3,287.9,452.1,289.9,451.7,292.1z"/>
	<path class="st3" d="M436,286.8c1-1.1,5.4-6.2,10.3-5.2c2.4,0.5,4.4,2,5.8,4.3c2.5,3.8,3.4,9.5,2.2,15.6c-1.9,9.7-8.7,16.6-15,15.3
		c-5-1-8.3-6.6-8.5-13.7c-0.1-2.6,0.3-5.4,0.5-6.2c0.3-1.5,0.8-3.9,2.2-6.5L436,286.8z"/>
</g>
<path class="st5" d="M403.5,228.4c0,92.5-64.5,155-157,155s-171-63-171-155.5S138,75.4,230.5,75.4S403.5,135.9,403.5,228.4z"/>
<path class="st4" d="M266.5,358.4c-92.5,0-171-63-171-155.5c0-35.5,9.2-66.2,25.7-90.5C91,139.1,73.5,178.9,73.5,227.9
	c0,92.5,78.5,155.5,171,155.5c56.9,0,103.1-23.6,130.3-63.3C347.5,344.5,310.1,358.4,266.5,358.4z"/>
<path class="st10" d="M228.5,75.4c-35.6,0-66.8,8.9-91.6,25.1c21.8-10.5,47.3-16.1,75.6-16.1c92.5,0,173,60.5,173,153
	c0,57.3-24.8,103.2-65.7,129.7c50.3-24.3,81.7-74.2,81.7-138.7C401.5,135.9,321,75.4,228.5,75.4z"/>
<path class="st6" d="M401.5,228.4c0,92.5-64.5,155-157,155s-171-63-171-155.5S136,75.4,228.5,75.4S401.5,135.9,401.5,228.4z"/>
<path class="st4" d="M208,341.2c-4.5,2.8-10.3,1.4-13.1-3.1c-0.6-1-1.1-2.2-1.3-3.3c-1,2.7-0.8,5.7,0.8,8.3
	c2.8,4.5,8.6,5.8,13.1,3.1c3.4-2.1,5-6,4.4-9.8C211.2,338.3,209.9,340,208,341.2z"/>
<path class="st4" d="M182,330.8c-5.2,0.5-9.9-3.4-10.3-8.6c-0.1-1.2,0-2.4,0.3-3.5c-2.1,1.9-3.2,4.8-3,7.8c0.5,5.2,5.1,9.1,10.3,8.6
	c4-0.4,7.2-3.2,8.2-6.8C186.2,329.7,184.2,330.6,182,330.8z"/>
<path class="st4" d="M161.2,314.3c-5.2,0.5-9.9-3.4-10.3-8.6c-0.1-1.2,0-2.4,0.3-3.5c-2.1,1.9-3.2,4.8-3,7.8
	c0.5,5.2,5.1,9.1,10.3,8.6c4-0.4,7.2-3.2,8.2-6.8C165.3,313.1,163.4,314.1,161.2,314.3z"/>
<path class="st4" d="M351.5,318.9c-1.3,5.1-6.5,8.2-11.5,6.9c-1.2-0.3-2.3-0.8-3.2-1.5c1.1,2.6,3.4,4.7,6.4,5.4
	c5.1,1.3,10.3-1.8,11.5-6.9c1-3.9-0.6-7.8-3.7-10C351.8,314.6,352,316.7,351.5,318.9z"/>
<path class="st10" d="M342.3,141.7c5.2,0.8,8.7,5.7,7.9,10.9c-0.2,1.2-0.6,2.3-1.2,3.3c2.5-1.4,4.3-3.8,4.8-6.8
	c0.8-5.2-2.7-10.1-7.9-10.9c-4-0.6-7.7,1.3-9.7,4.5C338,141.8,340.2,141.4,342.3,141.7z"/>
<path class="st10" d="M328.1,127.3c5.1-1.1,10.2,2.2,11.2,7.4c0.3,1.2,0.3,2.4,0.1,3.6c1.8-2.2,2.7-5.1,2.1-8.1
	c-1.1-5.1-6.1-8.4-11.2-7.4c-3.9,0.8-6.8,4-7.4,7.7C324.1,128.9,325.9,127.8,328.1,127.3z"/>
<path class="st10" d="M311,115.8c5.1-1.1,10.2,2.2,11.2,7.4c0.3,1.2,0.3,2.4,0.1,3.6c1.8-2.2,2.7-5.1,2.1-8.1
	c-1.1-5.1-6.1-8.4-11.2-7.4c-3.9,0.8-6.8,4-7.4,7.7C307.1,117.4,308.9,116.2,311,115.8z"/>
<path class="st11" d="M246.5,100.9c0,0.5-0.1,0.9-0.2,1.3c-23.4,5.8-41.8,2.6-52.8-1c0-0.1,0-0.2,0-0.4c0-5.8,11.9-10.5,26.5-10.5
	C234.6,90.4,246.5,95.1,246.5,100.9z"/>
<g>
	<path d="M258.5,97.6c-20.1,11.7-46.3,14-67.5,4.1c-3-1.5-5.9-3.1-8.5-5.3c3.1,1.2,6.2,2.2,9.3,3C213.8,105.3,236.6,103,258.5,97.6
		L258.5,97.6z"/>
</g>
<g>
	<path d="M253.2,168.5c-4.9,0-9.3,4.6-12.2,11.9c-0.7-0.3-1.3-0.6-2-0.9c-3.8-2.1-7-5.6-8.8-10c0.8,5.8,4.3,11.5,9.4,14.9
		c-0.2,0.7-0.4,1.4-0.6,2.2l3.2,1.8l14,8.1l-14,8.1l-4.8,2.8c1.2,16,7.8,28.2,15.8,28.2c8.8,0,16-15,16-33.5S262,168.5,253.2,168.5z
		"/>
	<g>
		<path class="st5" d="M218.1,147.2c0,0,22.3,26.6,45,32.1s8.9-18.6,8.9-18.6"/>
		<path d="M218.1,147.2c12.8,10.9,25.8,22.3,41.5,28.6c3.7,1.2,8.1,2.8,11.9,2.1c6.3-1.4,1.9-12.9,0.5-17.1c1.1,1.5,2.1,3,3,4.6
			c2.9,5.1,4.9,13.9-2.4,16.2c-5.1,1.5-9.9,0-14.6-1.3c0,0-2.6-1-2.6-1C239.9,172.8,227.3,160.8,218.1,147.2L218.1,147.2z"/>
	</g>
	<path d="M312.4,166.5c4.9,0,9.3,4.6,12.2,11.9c0.7-0.3,1.3-0.6,2-0.9c3.8-2.1,7-5.6,8.8-10c-0.8,5.8-4.3,11.5-9.4,14.9
		c0.2,0.7,0.4,1.4,0.6,2.2l-3.2,1.8l-14,8.1l14,8.1l4.8,2.8c-1.2,16-7.8,28.2-15.8,28.2c-8.8,0-16-15-16-33.5
		S303.6,166.5,312.4,166.5z"/>
	<g>
		<path class="st5" d="M347.5,145.2c0,0-22.3,26.6-45,32.1c-22.7,5.5-8.9-18.6-8.9-18.6"/>
		<path d="M347.5,145.2c-12.8,10.9-25.8,22.3-41.5,28.6c-3.7,1.2-8.1,2.8-11.9,2.1c-6.3-1.4-1.9-12.9-0.5-17.1c-1.1,1.5-2.1,3-3,4.6
			c-2.9,5.1-4.9,13.9,2.4,16.2c5.1,1.5,9.9,0,14.6-1.3c0,0,2.6-1,2.6-1C325.7,170.8,338.3,158.8,347.5,145.2L347.5,145.2z"/>
	</g>
</g>
<g>
	<path class="st12" d="M258,11.6c-28.7,8.5-34,42.4-34,42.4s23.2,26.3,51.9,17.8s46.4-55.1,46.4-55.1S286.7,3.1,258,11.6z"/>
	<polygon class="st13" points="229.5,50.2 251.2,20.4 238.3,46.6 265.7,33.1 283.4,17.1 272.5,34.7 303.3,23.7 250.3,45.4 
		246.4,46.5 267.4,54.1 	"/>
	<path class="st13" d="M322.3,16.8c0,0-0.8,2-2.2,5.2c-11.8-3.5-36.2-8.5-57.2-2.8c-17.8,4.9-22.8,19-24.1,27.3
		c-0.2,1.3-1.4,2.2-2.7,2.2c-4.5,0-12.1,5.4-12.1,5.4s5.4-33.9,34-42.4S322.3,16.8,322.3,16.8z"/>
	<polygon points="224.8,56.5 305.8,23 223,51.7 224.8,56.5 	"/>
	<polygon points="275.8,56.6 245.3,44.8 244.5,47.3 275.8,56.6 	"/>
	<polygon points="270.2,37.8 283.1,17.6 268.1,36.3 270.2,37.8 	"/>
	<polygon points="237.8,49.1 246.5,30.3 235.5,47.9 237.8,49.1 	"/>
	<path class="st3" d="M258,11.6c-28.7,8.5-34,42.4-34,42.4s23.2,26.3,51.9,17.8s46.4-55.1,46.4-55.1S286.7,3.1,258,11.6z"/>
	<path class="st14" d="M304.7,40.4c0,0-12.4,21.6-20.7,24.1C275.8,66.9,286.8,46.6,304.7,40.4z"/>
</g>
<path class="st15" d="M224.2,104.9c7.4-13.2,10.4-30.6,7.1-45.8c-1.6-7.8-6-14-11.2-17.8c-1-0.7-2.1-1.3-3.3-1.8
	c0,0-0.4,0.6-0.4,0.6c0.6,1.4,1.2,2.6,1.9,3.8c1.2,2.4,2.4,4.8,3.5,7.3c1.6,3.5,3,7.2,4.3,10.9c2.8,7.5,3.1,16.6,2,25.1
	c-0.8,5.9-2.2,11.8-4.3,17.4L224.2,104.9L224.2,104.9z"/>
<path class="st3" d="M224.2,104.9c7.4-13.2,10.4-30.6,7.1-45.8c-1.6-7.8-6-14-11.2-17.8c-1-0.7-2.1-1.3-3.3-1.8c0,0-0.4,0.6-0.4,0.6
	c0.6,1.4,1.2,2.6,1.9,3.8c1.2,2.4,2.4,4.8,3.5,7.3c1.6,3.5,3,7.2,4.3,10.9c2.8,7.5,3.1,16.6,2,25.1c-0.8,5.9-2.2,11.8-4.3,17.4
	L224.2,104.9L224.2,104.9z"/>
<path class="st16" d="M260.7,111.6c0,0-25.2,15-42,15s-44-19-44-19s29.2,8,46,8S260.7,111.6,260.7,111.6z"/>
<path class="st17" d="M194.7,138.6c0,15.2-16.8,25-32,25s-37-12.8-37-28s20.8-18,36-18S194.7,123.5,194.7,138.6z"/>
<g>
	<path class="st1" d="M210.5,283.6c11.3,7.5,21.5,12,32.8,14c52,9.3,82.7-4.4,82.7-4.4c-3.9-12.4-0.8-23.5-0.8-23.5
		c-61.7,7-108.5-23.1-108.5-23.1l-4.7,17.1l-0.7,8.5l-0.1,1.2L210.5,283.6z"/>
	<g>
		<path d="M343,267.3c-47,14.7-102.3,1.4-140.1-29.4C244.7,263,294.5,275.2,343,267.3L343,267.3z"/>
	</g>
	<path class="st18" d="M210.5,283.6c11.3,7.5,23.2,10.4,33.8,14c6.2,0.4,12,2.7,19.3,2.3c48.1-3.1,34.7-13.3,34.7-13.3
		c-50.4,0.2-85.9-18.4-85.9-18.4l-1,4.1l-0.1,1.2L210.5,283.6z"/>
	<g>
		<path d="M313.5,282.8c-12.6,7.6-30.2,7-43.6,1.7c1.9,0,3.7,0.2,5.6,0.3C288.2,285.7,301,285.7,313.5,282.8L313.5,282.8z"/>
	</g>
	<line class="st19" x1="216.5" y1="246.4" x2="210.5" y2="285.1"/>
	<path d="M257.4,282.8"/>
	<g>
		<path d="M263.6,283.7c-7.8,0-15.6-1.5-23.1-3.5c-7.5-2.2-14.9-4.9-21.6-9.1c6.6,1.5,15.8,4.3,22.4,6.1
			C247.9,279.1,257.1,281.5,263.6,283.7L263.6,283.7z"/>
	</g>
	<g>
		<path d="M349.5,282.8c-23.6,15.2-52.4,21.4-80.2,20c-10.4-0.8-21-2.4-31-5.5c-0.7-0.2-5.6-1.7-6.3-1.9c-4.4-1.8-9.1-3.3-13.4-5.4
			c-2.6-1.3-6.9-3.1-9.4-4.6c-2.5-1.5-6.6-3.6-9-5.3c-2.9-1.9-5.8-3.8-8.7-5.8c18,10.5,37.2,18.7,57.6,22.7c10,2.1,20.5,3,30.7,2.9
			c1.7-0.1,6.1-0.1,7.7-0.3c4.1-0.2,8.7-0.7,12.8-1.3C317.4,295.9,334.2,291,349.5,282.8L349.5,282.8z"/>
	</g>
	<path class="st19" d="M325.4,293.7c-0.9-5.9-1.1-14.9-0.1-24.1"/>
	<ellipse class="st4" cx="201.5" cy="230.1" rx="7.4" ry="4.7"/>
	<g>
		<path d="M210.5,228.9c-5.5-0.8-10.3-3-15.9-1.8C198.3,221.5,207.3,224,210.5,228.9L210.5,228.9z"/>
	</g>
	<path class="st4" d="M290.1,312.1c0,3.4-9.9,0-22.2,0c-12.2,0-22.2,3.4-22.2,0c0-3.4,9.9-6.2,22.2-6.2
		C280.2,305.9,290.1,308.7,290.1,312.1z"/>
	<g>
		<path d="M232.5,313.7c17.9-10.3,40.8-12.5,59.9-3.9c2.7,1.2,5.3,2.5,7.9,3.9c-2.8-0.7-5.6-1.7-8.4-2.5c-8.3-2.5-16.8-3.6-25.5-3.6
			C254.9,307.5,243.5,310.3,232.5,313.7L232.5,313.7z"/>
	</g>
</g>
<path class="st5" d="M97.5,330.7c-1.2,0-2.4-0.3-3.5-0.9c-0.4-0.2-10.3-6-18.7-15c-12.1-13.1-15.2-27.2-8.5-39.6
	c12.1-22.6,39.4-22.4,52.2-19.1c3.7,1,6,4.8,5,8.5c-1,3.7-4.8,6-8.5,5c-1.1-0.3-26.5-6.4-36.4,12.1c-9.2,17.3,21.5,35.7,21.8,35.9
	c3.3,1.9,4.5,6.2,2.6,9.6C102.2,329.4,99.9,330.7,97.5,330.7z"/>
<g>
	<path d="M115.5,269.6c-13.4-2.3-31.2,0.8-35.7,15.5c-2.9,12.2,13.1,24.2,22.3,29.9c10.1,5.7,4.2,20.8-7,18.3
		c-3.9-1.2-7.1-4-10.5-6.3c-11.2-8.5-21.8-19.9-23.7-34.4c-2.2-17.5,12-33.4,28.4-37.4c9.7-2.5,20.1-2.2,29.6,0.8
		c-4.9-0.9-9.8-1.1-14.6-0.8c-9.5,0.6-19.2,3.5-26.5,9.6c-8.7,7.2-14.3,19.2-10.9,30.4c3.2,11.3,11.9,19.9,21.3,27
		c1.9,1.4,3.9,2.8,5.9,4.1c1.4,1,2.8,1.8,4.5,1.2c3.7-1.1,3.9-6,0.6-7.7c-9.8-6.6-20.7-15.4-23.5-27.5c-1.9-8.2,3.7-16.2,10.4-20.4
		C95,266.7,105.9,266.9,115.5,269.6L115.5,269.6z"/>
</g>
<g>
	<path class="st7" d="M112,345.1c-10.7,9-29,5.2-38.9-6.7c-9.9-11.8-9.2-28.7,1.5-37.7c10.7-9,27.5-6.7,37.4,5.2
		S122.7,336.1,112,345.1z"/>
	<path class="st7" d="M95.7,320.6"/>
	<path class="st7" d="M76.3,307.2c-7.1,5.9-14.8,8.4-17.2,5.5c-2.4-2.9,4.9-7.5,12-13.5s11.2-10.9,13.7-8
		C87.2,294.1,83.4,301.2,76.3,307.2z"/>
	<path class="st1" d="M126.4,310.8c-1,1.9-2.8,3.3-5.1,4c-0.1,0-0.2,0.1-0.4,0.1c-5.5-4.4-9.2-6.9-13-4.5c-0.7,0.4-1.4,1-2.1,1.8
		c-7.1-4.1-10.7-11-8.3-15.9c2-4.1,7.7-5.6,13.9-4.1c1.7,0.4,3.5,1,5.2,1.9C124.7,298.2,129,305.6,126.4,310.8z"/>
	<path class="st1" d="M101.9,349.1c-0.1,0.6-1.5,2-1.8,2.5c-1.4,2.1-4.4,2.8-5.5,3c-3.1,0.7-5.9-0.1-8-0.9c-0.9-0.4-1.6-0.7-2.2-1
		c-3.3-1.7-5-3.8-6-5c-1.8-2.3-4.1-5.2-3-8.2c0.6-1.7,2.1-2.7,2.9-3.2"/>
	<path class="st1" d="M120.2,337.6c0.3,1.5,0.3,3-0.2,4.6c-1.5,4.9-6.6,8.3-11.4,8.6c-0.2,0-0.4,0-0.6,0c-2.7,0.1-5.1-0.8-7.2-2.4
		c-3.5-2.5-6.4-6.6-8.9-10.3c-0.9-1.3-1.5-2.4-2-3.5"/>
	<path class="st1" d="M108,308.5c3.8-2.4,7.5,0.1,13,4.5c0.3,0.3,0.7,0.5,1,0.8c6.2,5,12.7,10.5,11.4,15.9c-0.2,1-0.7,2-1.5,3
		c-2.8,3.5-7.2,5.1-11.7,5c-3.7-0.2-7.6-1.6-10.9-4.3c-2.4-1.9-4.2-4.3-5.4-6.8"/>
	<g>
		<path d="M100.8,350c0.1-0.1,0.2-0.3,0.4-0.3c0.1,0.1,0,0.2,0,0.2c-0.2,0.6-0.5,1.2-0.8,1.7c-0.8,1.6-2.4,2.7-4,3.4
			c-6.8,2.9-14.8-0.9-18.9-6.6c-1.5-2.2-3.2-4.4-3.1-7.4c0.1-1.4,0.7-3,2.1-3.6c0.4-0.2,0.9-0.2,1.3-0.3c-2.9,2-1.6,5.4,0.4,7.7
			c4.4,6,12.6,10.9,19.9,7.7c1.3-0.5,2.3-1.7,3-2.8C101.3,349.8,100.9,350,100.8,350L100.8,350z"/>
	</g>
	<path class="st1" d="M126.3,311c-1,1.8-2.7,3.1-4.9,3.8c-0.1,0-0.2,0.1-0.4,0.1c-4-3.2-7-5.3-9.8-5.4c0.8-1.8,2.6-3.2,4.4-3.6
		c1.5-0.3,3.4,0.6,7.3,2.4c1.7,0.8,2.6,1.4,3.2,2.4C126.1,310.8,126.2,310.9,126.3,311z"/>
	<path class="st8" d="M126.3,311c-1,1.8-2.7,3.1-4.9,3.8c-0.1,0-0.2,0.1-0.4,0.1c-4-3.2-7-5.3-9.8-5.4c0.8-1.8,2.6-3.2,4.4-3.6
		c1.5-0.3,3.4,0.6,7.3,2.4c1.7,0.8,2.6,1.4,3.2,2.4C126.1,310.8,126.2,310.9,126.3,311z"/>
	<path class="st3" d="M97,297.8c2-4.1,8.3-7,14.5-5.5c1.7,0.4,3.5,1,5.2,1.9c7.9,4,12.3,11.4,9.7,16.6c-1,1.9-2.1,2.2-4.4,2.9"/>
	<path class="st8" d="M120.2,341.3c-1.1,0.6-2.4,1-3.8,1c-4.2,0-7.7-3.4-7.7-7.7c0-0.5,0.1-1.1,0.2-1.6c0.1,0.1,0.2,0.2,0.4,0.3
		c3.3,2.7,7.2,4.1,10.9,4.3C120.4,338.8,120.5,340,120.2,341.3z"/>
	<path class="st2" d="M94.2,341.5c2.5,3.7,3,4.6,6.6,7.1c2.1,1.5,4.5,2.4,7.2,2.4c0.2,0,0.4,0,0.6,0c4.8-0.4,9.9-3.7,11.4-8.6
		c0.1-0.3,0.2-0.6,0.2-0.9"/>
	<g>
		<path d="M108,308.5c5-3.8,10.9,1.8,14.9,4.5c6.2,4.5,17.2,13.2,9.6,21.2c-6.1,6.7-17.5,5.3-23.2-0.8c6.6,4.2,15.8,4.9,21.1-1.1
			c5.7-6.2-4.8-13.4-8.9-17.4C117.7,311.9,113.3,306.1,108,308.5L108,308.5z"/>
	</g>
	<path class="st8" d="M101.8,349.2c-1.1,1.9-3.2,3.2-5.6,3.2c-3.6,0-6.5-2.9-6.5-6.5c0-2.5,1.4-4.6,3.5-5.7c2.2,3.1,4.6,6.3,7.6,8.3
		C101.1,348.8,101.5,349,101.8,349.2z"/>
	<g>
		<path d="M120.2,337.6c2.5,6.8-3.9,13.7-10.5,14.6c-3.5,0.6-7.3-0.5-9.9-2.8c-2.7-2-4.6-4.9-5.6-8c2.3,2.2,4.3,4.3,7.1,5.8
			C108.6,352.7,120.4,346.7,120.2,337.6L120.2,337.6z"/>
	</g>
</g>
</svg>
