<svg version="1.1" xmlns="http://www.w3.org/2000/svg" xmlns:xlink="http://www.w3.org/1999/xlink" x="0px" y="0px"
	 viewBox="0 0 500 500" style="enable-background:new 0 0 500 500;" xml:space="preserve">
<style type="text/css">
	.st0{fill:#996E0D;}
	.st1{fill:#CCCAC8;}
	.st2{fill:#FFFFFF;}
	.st3{fill:none;}
	.st4{fill:none;stroke:#000000;stroke-width:3;stroke-miterlimit:10;}
	.st5{fill:#D8B421;}
	.st6{fill:#CE9915;}
	.st7{fill:#EAB215;}
	.st8{fill:none;stroke:#010200;stroke-width:5;stroke-miterlimit:10;}
	.st9{fill:none;stroke:#010200;stroke-width:3;stroke-miterlimit:10;}
	.st10{fill:#010200;}
	.st11{fill:#FFC817;}
	.st12{fill:none;stroke:#010200;stroke-miterlimit:10;}
	.st13{fill:#FFFFFF;stroke:#000000;stroke-width:2.2074;stroke-miterlimit:10;}
	.st14{fill:#E8E2E2;}
	.st15{fill:none;stroke:#000000;stroke-width:2.2074;stroke-miterlimit:10;}
	.st16{fill:none;stroke:#000000;stroke-width:2.2074;stroke-linecap:round;stroke-miterlimit:10;}
	.st17{fill:#FFFFFF;stroke:#000000;stroke-width:2.3799;stroke-miterlimit:10;}
	.st18{fill:#FFFFFF;stroke:#000000;stroke-width:2.316;stroke-miterlimit:10;}
	.st19{fill:none;stroke:#000000;stroke-width:2.3799;stroke-miterlimit:10;}
	.st20{fill:#604207;}
	.st21{fill:#490505;}
	.st22{fill:#FFFFFF;stroke:#000000;stroke-width:0.846;stroke-miterlimit:10;}
	.st23{fill:#93311D;}
	.st24{fill:none;stroke:#000000;stroke-width:0.846;stroke-miterlimit:10;}
</style>
<g id="Layer_1">
	<path class="st0" d="M361.5,249.2c2.3,1.6,3.5,4.5,2.8,7.4c-0.2,1-5.9,25.4-28.9,36.1c-18.8,8.8-42.9,5.7-71.7-9.2
		c-3.5-1.8-4.9-6.2-3.1-9.7c1.8-3.5,6.2-4.9,9.7-3.1c24.5,12.7,44.3,15.7,58.9,9c16.6-7.6,21.1-26.2,21.1-26.3
		c0.9-3.8,4.7-6.3,8.6-5.4C359.9,248.2,360.7,248.6,361.5,249.2z"/>
	<g>
		<path d="M270.3,270.7c17.6,7.9,38.4,15.9,57.2,8.2c10.8-4.6,18.2-15.1,21.2-26.2c2.8-9.7,16.9-8.2,17.5,1.9
			c0.1,1.5-0.3,2.9-0.7,4.3c-3.1,9.9-8.5,19.1-16.1,26.2c-19.8,18.9-49.2,15.7-72.2,5.2c-4.6-2-9.1-4.4-13.5-6.8
			c6.8,3.2,13.8,6,21,8.3c21.1,6.8,45.7,7.2,62.4-9.2c7-6.7,12.2-15.5,15-24.8c0.7-1.9,0.9-4-0.3-5.8c-2.1-3.5-7.7-3.2-9.4,0.5
			c-0.2,0.3-0.3,0.7-0.4,1c-0.6,2.1-1.3,4.1-2.1,6C334.1,294.7,297.7,286.5,270.3,270.7L270.3,270.7z"/>
	</g>
	<g>
		<g>
			<path class="st1" d="M325.6,456.1c-0.5,5.1-2.3,9.2-2.7,9.9c-0.9,1.9-3.7,7.6-10,11.1c-9.6,5.2-20.2,1.3-26.6-1.1
				c-6.9-2.6-11-5.9-18.8-12.2c-10.6-8.6-16-13-17.2-20.5c-0.1-1-1-6.8,2-12.3c0.4-0.7,0.8-1.4,1.3-2.1c1-1.3,3.6-4.8,7.7-5.5
				c3.5-0.6,5.3,1.2,11.6,3.9c5.5,2.3,9.8,3.3,14.4,4.4c8.2,2,8.9,0.8,15.5,2.2c8,1.8,15.7,3.5,19.9,10
				C325.5,447.8,326,452.2,325.6,456.1z"/>
			<path class="st2" d="M325.6,456.1c-0.2,0.5-0.4,0.9-0.5,1c-0.9,1.9-3.7,7.6-10,11.1c-9.6,5.2-20.2,1.3-26.6-1.1
				c-6.9-2.6-11-5.9-18.8-12.2c-10.6-8.6-16-13-17.2-20.5c-0.1-0.4-0.2-1.7-0.2-3.5c0.4-0.7,0.8-1.4,1.3-2.1c1-1.3,3.6-4.8,7.7-5.5
				c3.5-0.6,5.3,1.2,11.6,3.9c5.5,2.3,9.8,3.3,14.4,4.4c8.2,2,8.9,0.8,15.5,2.2c8,1.8,15.7,3.5,19.9,10
				C325.5,447.8,326,452.2,325.6,456.1z"/>
			<path class="st3" d="M325.6,456.1c-0.5,5.1-2.3,9.2-2.7,9.9c-0.9,1.9-3.7,7.6-10,11.1c-9.6,5.2-20.2,1.3-26.6-1.1
				c-6.9-2.6-11-5.9-18.8-12.2c-10.6-8.6-16-13-17.2-20.5c-0.1-1-1-6.8,2-12.3c0.4-0.7,0.8-1.4,1.3-2.1c1-1.3,3.6-4.8,7.7-5.5
				c3.5-0.6,5.3,1.2,11.6,3.9c5.5,2.3,9.8,3.3,14.4,4.4c8.2,2,8.9,0.8,15.5,2.2c8,1.8,15.7,3.5,19.9,10
				C325.5,447.8,326,452.2,325.6,456.1z"/>
			<path class="st4" d="M325.6,456.1c-0.5,5.1-2.3,9.2-2.7,9.9c-0.9,1.9-3.7,7.6-10,11.1c-9.6,5.2-20.2,1.3-26.6-1.1
				c-6.9-2.6-11-5.9-18.8-12.2c-10.6-8.6-16-13-17.2-20.5c-0.1-1-1-6.8,2-12.3c0.4-0.7,0.8-1.4,1.3-2.1c1-1.3,3.6-4.8,7.7-5.5
				c3.5-0.6,5.3,1.2,11.6,3.9c5.5,2.3,9.8,3.3,14.4,4.4c8.2,2,8.9,0.8,15.5,2.2c8,1.8,15.7,3.5,19.9,10
				C325.5,447.8,326,452.2,325.6,456.1z"/>
			<g>
				<path d="M280.4,444.4c3.4-9,17.5-10.6,25.9-10.9c0,0,0,2.3,0,2.3l-3.6-0.1C295.2,435.8,284,436.7,280.4,444.4L280.4,444.4z"/>
			</g>
			<g>
				<path d="M254.8,440.3c3.2,3.7,6.8,7.2,10.3,10.7C260.6,448.8,256.8,444.9,254.8,440.3L254.8,440.3z"/>
			</g>
			<g>
				<path d="M296.7,469.7c7.5,1.1,15.4,0.6,21.8-3.8C313.1,471.7,303.8,472.4,296.7,469.7L296.7,469.7z"/>
			</g>
			<path class="st1" d="M306.9,438.9c-4.9,0-9.2,2.6-11.7,6.4c1.9-0.9,3.9-1.5,6.1-1.5c7.6,0,13.8,6.2,13.8,13.8
				c0,2.7-0.8,5.3-2.2,7.4c4.6-2.3,7.7-7,7.7-12.4C320.8,445,314.6,438.9,306.9,438.9z"/>
			<g>
				<path d="M313.1,465.1c7.7-4.2,9.6-14.9,3.7-21.2c-5.7-6.6-16.6-5.7-21.5,1.5c3.2-5.8,10.8-8.4,17-6
					C323.7,443.7,324.4,460.1,313.1,465.1L313.1,465.1z"/>
			</g>
			<ellipse class="st2" cx="274.8" cy="425" rx="20.5" ry="13.3"/>
			<g>
				<path d="M258.5,433c-6.3-4.2-6.3-12.2-0.6-17c5-4.4,11.9-6,18.4-5.8c6.5,0.3,13.4,2.5,17.6,7.8c4.8,6.1,1.7,13.5-4.8,16.5
					c9.2-7,5.8-16.2-4.2-19.6c-5.5-2-11.8-2.2-17.5-0.8C258,416.3,250.4,424.5,258.5,433L258.5,433z"/>
			</g>
		</g>
		<ellipse cx="275" cy="423.5" rx="9.5" ry="8.2"/>
		<path class="st0" d="M275.3,429.8c-1,0-1.9-0.2-2.9-0.5c-4.7-1.6-7.2-6.7-5.6-11.4c13.5-39.5,1.9-64.2,1.8-64.4
			c-2.2-4.5-0.3-9.9,4.2-12c4.5-2.2,9.9-0.3,12,4.2c0.6,1.3,14.9,31.7-1,78.1C282.5,427.5,279,429.8,275.3,429.8z"/>
		<g>
			<path d="M284.8,345.6c7,14.9,8.4,31.9,7,48.2c-0.4,4.3-1.2,9.4-2,13.6c-0.4,1.7-1.5,6.2-1.9,8c-0.7,2.5-1.6,5.3-2.4,7.9
				c-1.8,7.8-11.6,10.8-17.4,5.2c-2.9-2.7-4-7.1-2.7-10.9c4.7-13.8,7.6-28.3,7-42.9c-0.3-7.2-1.3-14.4-3.8-21.2
				c1.6,3.3,2.6,6.8,3.5,10.3c2.5,10.7,2.7,21.8,1.2,32.7c-1,7.5-2.9,14.8-5.2,22c-0.1,0.5-0.3,1.1-0.3,1.7
				c-0.5,9.4,12.6,11.4,14.9,2.2c1.3-4,2.8-8.8,3.7-12.9c0.9-3.4,1.5-7.1,2.2-10.5C291.3,381.2,291.1,362.6,284.8,345.6L284.8,345.6
				z"/>
		</g>
	</g>
	<g>
		<path class="st5" d="M235.3,99.3c-4.5,2.6-16.1,10-23,25.5c-3.7,8.3-4.7,16-5,21.1"/>
		<path class="st0" d="M396.3,399.8c-1.7,4-4.4,7-4.9,7.7c-5.3,6.5-12.7,8.2-17,8.8c-0.4,0.1-0.9,0.1-1.2,0.2
			c-87.5,11.9-140.8-24.7-140.8-24.7c-12.5-8.6-71.7-49.3-84.1-130.4c-9.1-59.7,12.7-106.2,19.2-119.1c2.3-4.5,24.5-47.1,60.8-67.4
			c20.6-11.6,39.5-14.6,39.5-14.6c12.1-1.9,12.5,0.2,18.2-2.2c20.9-9,18.4-39.7,34.4-43.8c0.5-0.1,0.9-0.2,1.4-0.3
			c8.5-1.3,17.6,5.5,21.9,12.6c3.8,6.3,5.9,16.5,2,21.4c-1.6,2-3.5,2.1-6.1,2.4c-1.4,0.2-3.1,0.3-5.1,1c-0.8,0.2-1.6,0.6-2.4,0.9
			c-8.8,3.9-15.6,13.5-17.8,21.6c-3.8,13.7,6.3,20.1,6.1,36c-0.3,16.6-11.5,26.9-19.2,37.1c-28.2,37.3-22.9,95.6-22.3,101.1
			c7.6,69.3,70.4,114.2,85.6,119.7c6.9,2.5,11,5,19.2,10.1c0.8,0.5,1.5,1,2.2,1.4c9,5.8,10.8,8.7,11.4,11.5
			C398.2,393.9,397.5,397.1,396.3,399.8z"/>
		<path class="st6" d="M396.3,399.8c-15.1-8.5-50.9-6.8-84.4-17.6c-6.1-2-16.2-5.6-28.4-12.4c-11.6-5.5-35.9-19.1-54.7-48.3
			c-16.8-26.1-20.7-51.4-22.8-65.7c-7.5-51.8,8.4-91.7,19.2-119.1c11.3-28.4,22.9-57.8,43-61.2c6.9-1.2,16.5,0.3,27.3-6.7
			c2.7-1.8,10.6-6.9,15.2-16.9c1.8-3.8,1.3-4.5,3-7.9c4.9-9.4,14.9-16,18.2-13.5c3.7,2.9-1.5,16.6,0.1,21.7
			c-8.8,3.9-15.6,13.5-17.8,21.6c-1.6,5.8-0.7,10.3,0.8,14.8c2.1,6,5.4,12,5.2,21.2c-0.3,16.6-11.5,26.9-19.2,37.1
			c-28.2,37.3-22.9,95.6-22.3,101.1c7.6,69.3,70.4,114.2,85.6,119.7c6.9,2.5,11,5,19.2,10.1c0.8,0.5,1.5,1,2.2,1.4
			c2.5,1.6,4.5,3,6,4.2c3.9,3.2,5,5.2,5.4,7.3C398.2,393.9,397.5,397.1,396.3,399.8z"/>
		<path class="st7" d="M392.1,383.4c-4.1-1-8.2-2.1-12.3-3.4c-6.1-2-16.2-5.6-28.4-12.4c-34.7-19.3-54.7-48.3-54.7-48.3
			c-19.6-28.4-25-56.7-26.4-64.8c-2.7-15.9-10.7-62.8,12-95.4c9-12.9,19.5-18.8,27-38.8c4.7-12.6,5.8-24.1,6-31.7
			c2.5,4.8,5.4,12.2,5.2,21.2c-0.3,16.6-11.5,26.9-19.2,37.1c-28.2,37.3-22.9,95.6-22.3,101.1c7.6,69.3,70.4,114.2,85.6,119.7
			c6.9,2.5,11,5,19.2,10.1c0.8,0.5,1.5,1,2.2,1.4C388.6,380.8,390.6,382.2,392.1,383.4z"/>
		<path class="st8" d="M396.4,399.8c-1.7,4-4.4,7-4.9,7.7c-5.3,6.5-12.7,8.2-17,8.8c-0.5,0.1-0.9,0.1-1.2,0.2
			c-87.5,11.9-140.8-24.7-140.8-24.7c-12.5-8.6-71.7-49.3-84.1-130.4c-9.1-59.7,12.7-106.2,19.2-119.1c2.3-4.5,24.5-47.1,60.8-67.4
			c20.6-11.6,39.5-14.6,39.5-14.6c12.1-1.9,12.6,0.2,18.2-2.3c20.9-9,18.4-39.7,34.4-43.8c0.5-0.1,0.9-0.2,1.4-0.3
			c8.5-1.3,17.6,5.5,21.9,12.6c3.8,6.3,5.9,16.5,2,21.4c-1.6,2-3.5,2.1-6.1,2.4c-1.4,0.2-3.1,0.4-5.1,1c-0.8,0.3-1.6,0.6-2.4,0.9
			c-8.8,3.9-15.6,13.5-17.8,21.5c-0.7,2.6-0.9,4.9-0.8,7c0,0.2,0,0.4,0,0.6c0,0.3,0,0.6,0.1,0.8c0,0.3,0.1,0.6,0.1,0.8
			c0,0.1,0,0.2,0.1,0.3c0,0.3,0.1,0.7,0.2,1c0.1,0.3,0.1,0.5,0.2,0.8c0.1,0.3,0.1,0.5,0.2,0.8c0.2,0.9,0.5,1.8,0.8,2.7
			c0.2,0.7,0.5,1.5,0.8,2.2c0.9,2.5,2,5,2.8,7.9c0.1,0.3,0.2,0.5,0.2,0.8c0.2,0.7,0.4,1.3,0.5,2c0,0.2,0.1,0.4,0.1,0.7
			c0.1,0.3,0.1,0.7,0.2,1c0.1,0.4,0.1,0.8,0.2,1.3c0.1,0.6,0.2,1.3,0.2,1.9c0,0.3,0.1,0.7,0.1,1c0,0.1,0,0.2,0,0.3c0,0.5,0,1,0,1.5
			v0.6c-0.3,16.6-11.5,26.9-19.2,37.1c-28.2,37.3-22.9,95.6-22.3,101.1c7.6,69.3,70.4,114.2,85.6,119.7c6.9,2.5,11,5,19.2,10.1
			c0.8,0.5,1.5,1,2.2,1.4c1.7,1.1,3.1,2.1,4.4,3c0.2,0.2,0.4,0.3,0.6,0.4c0.2,0.1,0.4,0.3,0.6,0.4c0.2,0.1,0.3,0.3,0.5,0.4
			c0,0,0,0,0,0c0.3,0.3,0.7,0.6,1,0.8s0.6,0.5,0.8,0.8c0,0,0.1,0.1,0.1,0.1c0.2,0.2,0.4,0.4,0.6,0.6c0.3,0.4,0.7,0.7,0.9,1
			c0.2,0.2,0.3,0.4,0.4,0.6c0.4,0.5,0.7,1,0.9,1.5c0.1,0.2,0.2,0.5,0.3,0.7c0.1,0.4,0.2,0.8,0.3,1.2
			C398.2,393.9,397.5,397.1,396.4,399.8z"/>
		<path class="st9" d="M391.6,383c0.2,0.1,0.3,0.3,0.5,0.4c0,0,0,0,0,0C391.9,383.3,391.7,383.2,391.6,383z"/>
		<path class="st9" d="M392.1,383.4C392.1,383.4,392.1,383.4,392.1,383.4c-0.2-0.1-0.3-0.3-0.5-0.4
			C391.7,383.2,391.9,383.3,392.1,383.4z"/>
		<path class="st10" d="M391.4,407.6c-5.3,6.5-12.7,8.2-17,8.8c-3-4.6-4.8-10.3-4.8-17.2c0-14,6.6-18.6,16.4-19.9
			c9,5.8,10.8,8.7,11.4,11.5C399.3,398.7,392.4,406.4,391.4,407.6z"/>
		<path class="st10" d="M345.8,48c-1.6,2-3.5,2.1-6.1,2.4c-11.2-2.1-19.8-13-19.8-26c0-3.7,0.7-7.2,1.9-10.4
			c8.5-1.3,17.6,5.5,21.9,12.6C347.6,32.9,349.7,43.1,345.8,48z"/>
		<path class="st6" d="M235.3,99.3c-3.4-1.7-15.7,23.4-20,32.2c-7.2,14.6-7.1,17.4-6,18.9c2.8,3.9,14.8,1.3,20-6.7
			c2.4-3.7,2.1-6.7,3-16.6C234.1,106.7,237,100.1,235.3,99.3z"/>
		<path class="st6" d="M262.3,367.8c-0.6-5.3,1.8-11.7,6-14.4c10-6.4,20.7,14.3,46,15.5c6.3,0.3,12.3-0.7,20,3.3
			c5.4,2.8,12.8,8.7,12,13.3c-1.2,6.4-17.8,7.5-22,7.8C298.9,395,264.2,385.2,262.3,367.8z"/>
		<g>
			<path class="st10" d="M374.8,396.5c-26.6-4.5-53.3-9.9-78.5-19.8c6.4,2.1,12.9,3.7,19.5,5.2c13.1,2.9,26.4,4.9,39.7,6.6
				c6.6,0.8,13.3,1.5,20,2.1C375.5,390.5,374.8,396.5,374.8,396.5L374.8,396.5z"/>
		</g>
		<g>
			<path class="st10" d="M303.3,62.6c4.5-11.8,10.9-23.2,20.1-32.1c0,0,2.6,3,2.6,3c-4.8,3.7-9.1,8.3-12.8,13.2
				C309.5,51.7,306.1,57,303.3,62.6L303.3,62.6z"/>
		</g>
		<g>
			<path class="st10" d="M216.6,297.8c6.1,11.2,12.2,22.4,19.5,32.8c4.3,6.2,9.2,12.3,14.9,17.3C235.1,337.5,223,315.3,216.6,297.8
				L216.6,297.8z"/>
		</g>
		<g>
			<path class="st10" d="M238.3,106.3c2.2-12.1,10.9-22.7,21.8-28c1.5-0.8,3.2-1.3,4.8-2c-0.7,0.5-1.5,1-2.2,1.4
				C251.9,84.4,243.2,94.5,238.3,106.3L238.3,106.3z"/>
		</g>
		<path class="st11" d="M312.3,251.3"/>
	</g>
	<path d="M221,144.8c-3.6-0.7-7.6,2.4-10.9,7.7l2.1,4.1l3,5.7l-6.5-0.3l-2.9-0.1c-0.7,2.2-1.3,4.6-1.8,7.1
		c-2.9,14.6,0.1,27.5,6.6,28.8c6.5,1.3,14.1-9.6,16.9-24.2C230.4,158.9,227.5,146,221,144.8z"/>
	<path class="st6" d="M233.4,144.8c0,0,2,13.3-1.3,15c-9,4.7-35.2-20.3-35.2-20.3"/>
	<path class="st0" d="M230.4,137.8c0,0,2,13.3-1.3,15c-9,4.7-35.2-20.3-35.2-20.3"/>
	<g>
		<path d="M233.4,144.8c0.8,3.9,2.5,12.5-0.6,15.5c-2,1.3-4.7,1.1-6.8,0.5c-7.1-2.1-13-6.7-18.6-11.3c-3.7-3.1-7.2-6.4-10.4-10
			c5.7,4.4,11.3,8.9,17.2,12.9c3.9,2.6,7.9,5.2,12.4,6.6c1.3,0.4,2.7,0.7,4,0.5c0.7-0.1,1.4-0.3,1.8-0.8c1.1-1.8,1.2-4.4,1.3-6.6
			C233.5,149.5,233.5,147.2,233.4,144.8L233.4,144.8z"/>
	</g>
	<path d="M258.1,143.7c3.7,0.1,6.9,3.9,9,9.8l-2.9,3.5l-4.1,5l6.4,1.1l2.8,0.5c0.2,2.3,0.4,4.8,0.3,7.3
		c-0.3,14.9-5.9,26.9-12.5,26.8c-6.6-0.1-11.8-12.3-11.5-27.2C245.8,155.6,251.4,143.6,258.1,143.7z"/>
	<path class="st6" d="M247.9,141.5c0,0-4.7,12.6-1.8,14.9c7.8,6.5,38.7-12.5,38.7-12.5"/>
	<g>
		<path d="M247.9,141.5c-0.6,2.3-1.2,4.7-1.6,7c-0.3,2.1-0.8,4.7-0.1,6.7c0.2,0.6,0.9,0.9,1.6,1.2c1.3,0.5,2.6,0.5,4,0.4
			c4.6-0.4,9.1-2.1,13.5-3.8c6.7-2.7,13.1-5.8,19.5-9c-3.9,2.8-8,5.3-12.3,7.6c-6.4,3.3-13.2,6.6-20.6,7.1c-2.2,0.1-4.9-0.2-6.6-1.9
			C242.8,153.2,246.3,145.2,247.9,141.5L247.9,141.5z"/>
	</g>
	<g>
		<path class="st10" d="M291.5,153.9c4.9-7.8,11-14.4,15.6-22.3C305.5,139.9,298,148.7,291.5,153.9L291.5,153.9z"/>
	</g>
	<g>
		<path class="st10" d="M291.5,314.4c5.8,6.7,13.8,16.2,19.9,22.5c6.9,7.2,14,14.3,22.5,19.5C317.5,349.6,300.9,329.3,291.5,314.4
			L291.5,314.4z"/>
	</g>
	<path class="st12" d="M177.9,234.7"/>
	<g>
		<g>
			<path class="st1" d="M150.6,461.4c0.5,5.1,2.3,9.2,2.7,9.9c0.9,1.9,3.7,7.6,10,11.1c9.6,5.2,20.2,1.3,26.6-1.1
				c6.9-2.6,11-5.9,18.8-12.2c10.6-8.6,16-13,17.2-20.5c0.1-1,1-6.8-2-12.3c-0.4-0.7-0.8-1.4-1.3-2.1c-1-1.3-3.6-4.8-7.7-5.5
				c-3.5-0.6-5.3,1.2-11.6,3.9c-5.5,2.3-9.8,3.3-14.4,4.4c-8.2,2-8.9,0.8-15.5,2.2c-8,1.8-15.7,3.5-19.9,10
				C150.7,453.1,150.2,457.5,150.6,461.4z"/>
			<path class="st2" d="M150.6,461.4c0.2,0.5,0.4,0.9,0.5,1c0.9,1.9,3.7,7.6,10,11.1c9.6,5.2,20.2,1.3,26.6-1.1
				c6.9-2.6,11-5.9,18.8-12.2c10.6-8.6,16-13,17.2-20.5c0.1-0.4,0.2-1.7,0.2-3.5c-0.4-0.7-0.8-1.4-1.3-2.1c-1-1.3-3.6-4.8-7.7-5.5
				c-3.5-0.6-5.3,1.2-11.6,3.9c-5.5,2.3-9.8,3.3-14.4,4.4c-8.2,2-8.9,0.8-15.5,2.2c-8,1.8-15.7,3.5-19.9,10
				C150.7,453.1,150.2,457.5,150.6,461.4z"/>
			<path class="st3" d="M150.6,461.4c0.5,5.1,2.3,9.2,2.7,9.9c0.9,1.9,3.7,7.6,10,11.1c9.6,5.2,20.2,1.3,26.6-1.1
				c6.9-2.6,11-5.9,18.8-12.2c10.6-8.6,16-13,17.2-20.5c0.1-1,1-6.8-2-12.3c-0.4-0.7-0.8-1.4-1.3-2.1c-1-1.3-3.6-4.8-7.7-5.5
				c-3.5-0.6-5.3,1.2-11.6,3.9c-5.5,2.3-9.8,3.3-14.4,4.4c-8.2,2-8.9,0.8-15.5,2.2c-8,1.8-15.7,3.5-19.9,10
				C150.7,453.1,150.2,457.5,150.6,461.4z"/>
			<path class="st4" d="M150.6,461.4c0.5,5.1,2.3,9.2,2.7,9.9c0.9,1.9,3.7,7.6,10,11.1c9.6,5.2,20.2,1.3,26.6-1.1
				c6.9-2.6,11-5.9,18.8-12.2c10.6-8.6,16-13,17.2-20.5c0.1-1,1-6.8-2-12.3c-0.4-0.7-0.8-1.4-1.3-2.1c-1-1.3-3.6-4.8-7.7-5.5
				c-3.5-0.6-5.3,1.2-11.6,3.9c-5.5,2.3-9.8,3.3-14.4,4.4c-8.2,2-8.9,0.8-15.5,2.2c-8,1.8-15.7,3.5-19.9,10
				C150.7,453.1,150.2,457.5,150.6,461.4z"/>
			<g>
				<path d="M195.8,449.7c-3.6-7.7-14.8-8.6-22.3-8.7c0,0-3.6,0.1-3.6,0.1l0-2.3C178.3,439.2,192.4,440.7,195.8,449.7L195.8,449.7z"
					/>
			</g>
			<g>
				<path d="M221.4,445.6c-2,4.6-5.8,8.5-10.3,10.7C214.6,452.9,218.2,449.3,221.4,445.6L221.4,445.6z"/>
			</g>
			<g>
				<path d="M179.5,475c-7.1,2.8-16.4,2.1-21.8-3.8C164.1,475.6,172,476.1,179.5,475L179.5,475z"/>
			</g>
			<path class="st1" d="M169.3,444.2c4.9,0,9.2,2.6,11.7,6.4c-1.9-0.9-3.9-1.5-6.1-1.5c-7.6,0-13.8,6.2-13.8,13.8
				c0,2.7,0.8,5.3,2.2,7.4c-4.6-2.3-7.7-7-7.7-12.4C155.4,450.4,161.6,444.2,169.3,444.2z"/>
			<g>
				<path d="M163.1,470.4c-11.3-5-10.6-21.4,0.8-25.7c6.2-2.5,13.8,0.1,17,6c-4.9-7.2-15.8-8-21.5-1.5
					C153.5,455.5,155.5,466.2,163.1,470.4L163.1,470.4z"/>
			</g>
			<ellipse class="st2" cx="201.4" cy="430.3" rx="20.5" ry="13.3"/>
			<g>
				<path d="M217.7,438.3c8.1-8.5,0.5-16.8-8.8-18.9c-5.7-1.4-12-1.2-17.5,0.8c-10,3.4-13.5,12.6-4.2,19.6c-6.5-3-9.6-10.4-4.8-16.5
					c4.2-5.3,11.1-7.5,17.6-7.8c6.5-0.2,13.4,1.3,18.4,5.8C224,426.2,224,434.1,217.7,438.3L217.7,438.3z"/>
			</g>
		</g>
		<ellipse cx="201.2" cy="428.8" rx="9.5" ry="8.2"/>
	</g>
	<path class="st0" d="M201.3,434c-4.5,0-8.4-3.3-8.9-7.9c-8.4-69,12.9-104.2,13.9-105.6c2.6-4.2,8.2-5.5,12.4-2.9
		c4.2,2.6,5.5,8.1,2.9,12.4c-0.3,0.6-18.8,32.1-11.3,94c0.6,4.9-2.9,9.4-7.8,10C202,434,201.7,434,201.3,434z"/>
	<g>
		<path d="M221.5,330c-9.3,19.7-11.6,41.9-11.8,63.5c0,4.2,0.2,10.3,0.5,14.4c0.2,4.2,0.9,10.1,1.3,14.4c0,0,0.2,1.8,0.2,1.8
			c0.6,5-2.9,9.9-7.8,11.1c-6,1.7-12.5-2.8-13-9c-0.4-4.5-1-9.2-1.3-13.6c-1.4-21.8-0.2-44.1,5.6-65.2c2.7-9.3,5.9-18.6,11-26.9
			c-2.3,4.3-4.1,8.8-5.6,13.3c-9.9,29.5-10.3,61.4-6.7,92c1.9,10.8,17.1,7.7,14.8-3.2c-1.2-12-1.9-24.4-1.1-36.5
			c0.7-12.1,2.4-24.3,5.8-35.9C215.4,343.2,217.9,336.2,221.5,330L221.5,330z"/>
	</g>
	<g>
		<path class="st0" d="M110.2,350.9c-2.8,0-5.4-1.6-6.6-4.4c-0.4-1-9.8-24,2.7-46c10.2-17.9,31.6-29.3,63.5-33.8
			c3.9-0.5,7.5,2.2,8.1,6.1s-2.2,7.5-6.1,8.1c-27.2,3.8-45,12.7-53,26.6c-9.1,15.8-2.1,33.4-2,33.5c1.5,3.6-0.2,7.8-3.9,9.3
			C112,350.7,111.1,350.9,110.2,350.9z"/>
		<g>
			<path d="M171.8,281c-18.8,3.7-40.3,9.2-51.2,26.3c-6.1,10-6.1,22.7-2.1,33.5c3.3,9.5-9,16.4-15.3,8.5c-0.9-1.1-1.4-2.6-1.9-3.9
				c-3.2-9.8-4.1-20.4-2-30.5c5.2-26.7,30.9-41.1,55.7-45.7c4.9-1.1,9.9-1.7,14.9-2.3c-7.3,1.3-14.7,3.1-21.8,5.3
				c-21,6.6-41.2,20.4-45.4,43.4c-1.8,9.5-1,19.6,2.1,28.7c0.6,1.9,1.6,3.8,3.5,4.5c3.7,1.6,8.1-1.8,7.3-5.8c-0.2-1.1-0.8-2.2-1-3.3
				c-1.8-6.2-2.4-12.8-1.5-19.3C116.6,292.7,147.9,283.2,171.8,281L171.8,281z"/>
		</g>
	</g>
	<g>
		<path class="st13" d="M352.7,271.1c6,5.3,9,11.6,6.7,14.2c-2.3,2.6-7.2-3.1-13.1-8.4c-6-5.3-10.8-8.1-8.5-10.7
			S346.7,265.8,352.7,271.1z"/>
		
			<ellipse transform="matrix(0.6606 -0.7508 0.7508 0.6606 -66.2755 360.4929)" class="st13" cx="365.5" cy="253.5" rx="25.5" ry="23.1"/>
		<path class="st2" d="M391,251.6c1.3,3.2,0.9,6.2,0.2,8.5c-0.3,1-0.6,1.8-0.9,2.4c-1.5,3.7-3.7,5.9-5,7.1c-2.4,2.3-5.5,5.3-9.2,4.7
			c-2.1-0.3-3.5-1.7-4.2-2.5c-4-4-3.5-10.1-3.4-10.7c0.2-2.3,1.1-4.5,2.3-6.4c3.8-6.1,11.2-10.2,15.8-8.3
			C389.3,247.5,390.5,250.5,391,251.6z"/>
		<path class="st13" d="M361.1,253.5"/>
		<path class="st14" d="M391.2,260.1c-0.3,1-0.6,1.8-0.9,2.4c-1.5,3.7-3.7,5.9-5,7.1c-2.4,2.3-5.5,5.3-9.2,4.7
			c-2.1-0.3-3.5-1.7-4.2-2.5c-4-4-3.5-10.1-3.4-10.7c0.2-2.3,1.1-4.5,2.3-6.4c2.1-0.5,4.4,0.1,4.8,1.2c0.6,1.6-3.2,3.3-3,6.3
			c0.2,2.3,2.7,3.7,3,3.9c2.9,1.6,6.5,0.5,8.8-1.2c2.8-2.1,2.4-4.5,4.4-5.1C389.5,259.7,390.3,259.8,391.2,260.1z"/>
		<path class="st15" d="M386.5,246.4c-4.6-1.8-12,2.3-15.8,8.3c-1.2,2-2.1,4.2-2.3,6.4c-0.1,0.6-0.6,6.7,3.4,10.7
			c0.7,0.7,2.1,2.1,4.2,2.5c3.7,0.6,6.9-2.4,9.2-4.7c1.3-1.2,3.5-3.4,5-7.1c0.3-0.7,0.6-1.5,0.9-2.4c0.7-2.3,1.1-5.3-0.2-8.5
			C390.5,250.5,389.3,247.5,386.5,246.4z"/>
		<path class="st14" d="M348.9,263.7c0.2-3.1,10.2-7.2,15.1-3.4c2.9,2.2,3.6,6.9,2.7,7.5c-1,0.6-3.1-4-7.2-4.1
			c-3.7-0.1-5.6,3.8-8.4,2.8C349.9,265.9,348.8,264.7,348.9,263.7z"/>
		<path class="st2" d="M389.4,239.5c0,0.2,0.1,0.4,0.1,0.5c1.2,6.5-4.4,11.8-9.2,16.3c-2.3,2.2-4.1,3.2-5.9,3.8
			c-1.1,0.3-5.8,1.9-9.6-0.7c-3.1-2.2-3.7-5.9-3.9-7.2c-0.9-6,2.4-11.6,6.2-15.4c1.2-1.2,2.4-2.2,3.5-2.9c2.5-1.8,5.5-3.9,9.3-3.3
			C384.7,231.1,388.4,235.3,389.4,239.5z"/>
		<path class="st14" d="M389.4,239.5c0,0.2,0.1,0.4,0.1,0.5c1.2,6.5-4.4,11.8-9.2,16.3c-2.3,2.2-4.1,3.2-5.9,3.8
			c-1.1,0.3-5.8,1.9-9.6-0.7c-3.1-2.2-3.7-5.9-3.9-7.2c-0.9-6,2.4-11.6,6.2-15.4c0.8-0.3,1.8-0.6,2.3-0.1c1.7,1.4-4.1,7.9-1.9,12.4
			c1.1,2.3,4.4,4.2,7,3.6c5.2-1.1,5.1-11.3,11.4-13C387.4,239.3,388.6,239.4,389.4,239.5z"/>
		<path class="st15" d="M380.1,230.5c-3.8-0.5-6.8,1.6-9.3,3.3c-1.1,0.8-2.3,1.8-3.5,2.9c-3.8,3.8-7.1,9.4-6.2,15.4
			c0.2,1.3,0.8,5.1,3.9,7.2c3.7,2.6,8.5,1.1,9.6,0.7c1.8-0.6,3.6-1.6,5.9-3.8c4.7-4.5,10.4-9.7,9.2-16.3c0-0.2-0.1-0.4-0.1-0.5
			C388.4,235.3,384.7,231.1,380.1,230.5z"/>
		<path class="st14" d="M371,221.9c5.6,4.9,5.5,14.1-0.2,20.6c-5.7,6.5-14.8,7.7-20.4,2.8c-1-0.9-1.8-1.8-2.2-2.6
			c-2.2-3.8,0.7-7.2,5.3-12.5c4.8-5.5,10.1-11.1,14.9-9.8C369.3,220.6,370.1,221.1,371,221.9z"/>
		<path class="st2" d="M368.4,220.4c0.8,3.5,2.1,11.8-2.6,17.7c-1.9,2.4-5.3,4.9-6.7,4c-1.5-0.9,0.3-5.1-1.1-6.1
			c-1-0.6-3.4,0.3-9.8,6.7c0.4-2.6,1.2-7.9,5.3-12.5C358.3,224.7,363.5,219,368.4,220.4z"/>
		<path class="st15" d="M371,221.9c5.6,4.9,5.5,14.1-0.2,20.6c-5.7,6.5-14.8,7.7-20.4,2.8c-1-0.9-1.8-1.8-2.2-2.6
			c-2.2-3.8,0.7-7.2,5.3-12.5c4.8-5.5,10.1-11.1,14.9-9.8C369.3,220.6,370.1,221.1,371,221.9z"/>
		<path class="st16" d="M352.4,245.2c0,0-3-3.9,6.1-11.3"/>
		<path class="st14" d="M358.7,245.4c4.9,6.4,5.5,14.2,1.3,17.5c-3.3,2.5-8.5,1.5-13-2.2c-1.3-1-2.4-2.2-3.5-3.6
			c-4.9-6.4-5.5-14.2-1.3-17.5c1.6-1.2,3.6-1.6,5.7-1.3C351.5,238.8,355.6,241.3,358.7,245.4z"/>
		<path class="st2" d="M351.4,241.9c4.9,6.4,5.5,14.2,1.3,17.5c-1.6,1.2-3.6,1.6-5.8,1.3c-1.3-1-2.4-2.2-3.5-3.6
			c-4.9-6.4-5.5-14.2-1.3-17.5c1.6-1.2,3.6-1.6,5.7-1.3C349.1,239.3,350.3,240.5,351.4,241.9z"/>
		<path class="st15" d="M339.7,248.7c-0.1-1.2-0.8-6.6,2.4-9.1c1.6-1.2,3.6-1.6,5.7-1.3c3.6,0.5,7.7,3.1,10.8,7.1
			c4.9,6.4,5.5,14.2,1.3,17.5c-3.3,2.5-8.5,1.5-13-2.2c-1.6-1.3-3.1-3.1-3.5-3.6c-0.8-1-2-2.5-2.8-4.9L339.7,248.7z"/>
	</g>
	<g>
		<path class="st17" d="M118.8,379c-13.2,2.2-26.4-9.7-28.8-24.2c-2.5-14.5,6.2-28.1,19.4-30.3s25.8,7.8,28.3,22.3
			C140.1,361.3,132,376.8,118.8,379z"/>
		<path class="st18" d="M117.2,351.1"/>
		<path class="st17" d="M107.7,330.6c-8.7,1.5-16.2-0.2-16.8-3.8c-0.6-3.6,7.7-3.9,16.4-5.3s14.5-3.6,15.1,0
			C122.9,325.1,116.4,329.2,107.7,330.6z"/>
		<path class="st2" d="M147.2,357.8c-1.7,1.1-3.9,1.4-6.1,0.9c-0.1,0-0.2-0.1-0.3-0.1c-2.4-6.2-4.2-10.1-8.5-9.9
			c-0.8,0-1.6,0.2-2.6,0.5c-3.8-6.8-3.6-14.2,0.8-17.1c3.6-2.4,9-0.9,13.4,3.3c1.2,1.2,2.4,2.5,3.4,4.1
			C151.9,346.5,151.8,354.7,147.2,357.8z"/>
		<path class="st2" d="M107.6,379.2c-0.4,0.4-2.2,1-2.7,1.2c-2.2,1-5,0.1-5.9-0.2c-2.9-0.9-4.9-2.9-6.1-4.6c-0.5-0.7-1-1.4-1.3-1.9
			c-1.9-2.9-2.3-5.6-2.5-7c-0.4-2.7-0.9-6.3,1.5-8.2c1.3-1.1,3-1.2,3.9-1.2"/>
		<path class="st2" d="M128.2,378.5c-0.5,1.3-1.2,2.6-2.4,3.7c-3.6,3.3-9.4,3.6-13.6,1.6c-0.2-0.1-0.3-0.2-0.5-0.3
			c-2.3-1.2-3.8-3.1-4.8-5.4c-1.7-3.8-2.1-8.5-2.4-12.8c-0.1-1.5-0.1-2.7,0-3.8"/>
		<path class="st2" d="M132.2,348.6c4.3-0.1,6.1,3.7,8.5,9.9c0.1,0.4,0.3,0.8,0.4,1.1c2.7,7.1,5.4,14.8,1.7,18.6
			c-0.7,0.7-1.5,1.3-2.7,1.7c-4,1.5-8.4,0.8-12-1.6c-3-1.9-5.5-5-6.9-8.8c-1-2.7-1.4-5.5-1.1-8.2"/>
		<g>
			<path d="M106.2,379.4c0.9-0.2,0.3,0.3-0.1,0.5c-1.7,1.3-3.8,1.8-5.9,1.4c-6.9-0.9-11.5-7.9-12.2-14.4c-0.2-2.5-0.6-5.1,0.9-7.5
				c0.7-1.1,2-2.1,3.3-2c0.4,0,0.8,0.2,1.2,0.3c-3.4,0.1-4.1,3.7-3.6,6.5c0.6,7.2,5.1,15.2,12.9,16c1.3,0.2,2.7-0.3,3.8-0.9
				c0.1-0.1,0.1-0.1,0-0.1C106.4,379.4,106.3,379.4,106.2,379.4L106.2,379.4z"/>
		</g>
		<path class="st2" d="M147,357.9c-1.7,1-3.7,1.2-5.9,0.7c-0.1,0-0.2-0.1-0.3-0.1c-1.7-4.5-3.2-7.8-5.5-9.2c1.5-1.1,3.7-1.4,5.4-0.9
			c1.4,0.5,2.6,2.1,4.8,5.5c1,1.5,1.5,2.4,1.5,3.6C147,357.6,147,357.7,147,357.9z"/>
		<path class="st14" d="M147,357.9c-1.7,1-3.7,1.2-5.9,0.7c-0.1,0-0.2-0.1-0.3-0.1c-1.7-4.5-3.2-7.8-5.5-9.2
			c1.5-1.1,3.7-1.4,5.4-0.9c1.4,0.5,2.6,2.1,4.8,5.5c1,1.5,1.5,2.4,1.5,3.6C147,357.6,147,357.7,147,357.9z"/>
		<path class="st19" d="M129.2,332.9c3.6-2.4,10.2-1.7,14.6,2.4c1.2,1.2,2.4,2.5,3.4,4.1c4.6,7.1,4.6,15.3,0,18.3
			c-1.7,1.1-3.9,1.4-6.1,0.9c-0.1,0-0.2-0.1-0.3-0.1"/>
		<path class="st14" d="M126.4,381.5c-1.2,0-2.5-0.3-3.6-1c-3.5-2-4.7-6.5-2.6-10c0.3-0.5,0.6-0.9,0.9-1.2c0,0.2,0.1,0.3,0.2,0.4
			c1.4,3.8,3.9,6.8,6.9,8.8C127.8,379.6,127.3,380.6,126.4,381.5z"/>
		<path class="st3" d="M104.9,369.2c0.3,4.3,0.3,5.2,2,9c1,2.3,2.5,4.2,4.8,5.4c0.2,0.1,0.3,0.2,0.5,0.3c4.1,2,10,1.7,13.6-1.6
			c0.2-0.2,0.4-0.4,0.6-0.7"/>
		<g>
			<path d="M132.2,348.6c5.9-0.6,7.9,6.7,9.9,11c2.8,6.6,7.7,18.9-2.2,21.8c-8.2,2.5-16.8-3.9-18.6-11.6c3.2,6.7,10.6,11.9,18,9.5
				c7.9-2.4,2.7-13.4,1.2-19C138.7,356,137.8,349.1,132.2,348.6L132.2,348.6z"/>
		</g>
		<path class="st14" d="M107.5,379.2c-1.8,1-4.2,1.1-6.1-0.1c-2.9-1.7-3.9-5.5-2.2-8.4c1.2-2,3.4-3.1,5.6-3
			c0.3,3.6,0.8,7.4,2.2,10.5C107.1,378.5,107.3,378.8,107.5,379.2z"/>
		<g>
			<path d="M128.2,378.5c-1.4,6.7-9.8,9.1-15.6,6.7c-3.1-1.1-5.6-3.9-6.7-6.9c-1.3-2.9-1.5-6.1-0.9-9.2c0.8,3,1.3,5.7,2.9,8.3
				C111.1,385.6,124.2,386.4,128.2,378.5L128.2,378.5z"/>
		</g>
	</g>
	<path class="st20" d="M239.7,76.3c2-0.5,4.9,2.1,4.6,3.8c-0.3,1.7-3.7,2.2-6.1,2.6c-0.9,0.1-4,0.6-4.3-0.3
		c-0.2-0.6,1.2-1.2,3.6-3.8C238.8,77,238.9,76.5,239.7,76.3z"/>
	<path class="st20" d="M231.3,79.9c0.7,0.6-0.4,3.3-2.3,4.9c-2.4,1.8-5.8,1.7-6.1,0.8C222.3,83.9,230,78.7,231.3,79.9z"/>
	<path class="st20" d="M235.1,85c1.3,0.6,1.6,3.6,0.3,5.4c-1.6,2.1-5.3,2.3-6.1,1c-0.7-1.1,0.9-3.5,2-4.6
		C231.6,86.4,233.7,84.3,235.1,85z"/>
	<path class="st20" d="M153.2,276.1c1.3,0.6,1.6,3.6,0.3,5.4c-1.6,2.1-5.3,2.3-6.1,1c-0.7-1.1,0.9-3.5,2-4.6
		C149.7,277.5,151.8,275.4,153.2,276.1z"/>
	<path class="st20" d="M315.2,394.3c1.3,0.6,1.6,3.6,0.3,5.4c-1.6,2.1-5.3,2.3-6.1,1c-0.7-1.1,0.9-3.5,2-4.6
		C311.8,395.7,313.9,393.6,315.2,394.3z"/>
	<path class="st20" d="M223.3,90.3c2.1,0.9,3.2,3.6,2.8,5.6c-0.5,2.3-2.5,2.2-5.1,5.4c-3.1,3.8-2.6,6.9-4.3,7.1
		c-1.7,0.2-4-2.5-4.1-5.1c0-1.9,1.3-2.2,3.1-5.9c1.8-3.7,1.3-5.1,3.1-6.4C219.9,90.2,221.7,89.7,223.3,90.3z"/>
	<path class="st20" d="M299.2,391.7c2.1,0.9,3.2,3.6,2.8,5.6c-0.5,2.3-2.5,2.2-5.1,5.4c-3.1,3.8-2.6,6.9-4.3,7.1
		c-1.7,0.2-4-2.5-4.1-5.1c0-1.9,1.3-2.2,3.1-5.9c1.8-3.7,1.3-5.1,3.1-6.4C295.7,391.7,297.6,391.1,299.2,391.7z"/>
	<path class="st20" d="M317.8,406.9c0.2,2.3-1.7,4.5-3.7,5.1c-2.3,0.6-3.1-1.2-7.1-2.1c-4.8-1-7.4,0.8-8.3-0.6c-1-1.4,0.4-4.8,2.7-6
		c1.7-0.9,2.5,0.1,6.6,0.1c4.1-0.1,5.1-1.1,7.1-0.2C316.3,403.8,317.6,405.2,317.8,406.9z"/>
	<path class="st20" d="M209.8,98.7c0.7,1.7-1.2,2.9-1.8,6.1c-0.7,3.6,1.2,5,0,6.6c-1.4,2-4.3,0.5-6.4,2.6c-2.4,2.4-1,6.6-2,6.9
		c-1,0.3-3.8-2.9-3.6-6.4c0.3-4.3,5.1-4.4,7.9-10.7c1.6-3.6,1.4-6.6,3.1-6.9C208,96.7,209.4,97.6,209.8,98.7z"/>
	<circle class="st20" cx="192.4" cy="124.5" r="3.6"/>
	<circle class="st20" cx="191.3" cy="116.6" r="2.5"/>
	<circle class="st20" cx="184.8" cy="129.7" r="4.1"/>
	<path class="st20" d="M183.6,324.3c-1.9-0.1-2.1-2.3-4.7-4.3c-3-2.2-5-1.1-6-2.9c-1.2-2.1,1.5-4,0.5-6.9c-1.1-3.2-5.5-3.8-5.3-4.9
		c0.2-1,4.3-2.1,7.3-0.4c3.7,2.2,1.7,6.5,6.1,11.8c2.5,3,5.3,4.1,4.8,5.8C186.2,323.6,184.8,324.4,183.6,324.3z"/>
	<circle class="st20" cx="168.1" cy="297.3" r="3.6"/>
	<circle class="st20" cx="175.7" cy="299.8" r="2.5"/>
	<circle class="st20" cx="166.9" cy="288.2" r="4.1"/>
	<circle class="st20" cx="141.1" cy="279.6" r="4.1"/>
	<circle class="st20" cx="161.7" cy="275.5" r="4.1"/>
	<path class="st20" d="M358.4,406.3c0.5,2.2-1.1,4.7-3,5.5c-2.1,1-3.3-0.8-7.3-1.1c-4.9-0.4-7.2,1.9-8.3,0.6
		c-1.2-1.3-0.3-4.8,1.8-6.3c1.6-1.1,2.5-0.2,6.6-0.9c4-0.7,4.9-1.9,7-1.2C356.5,403.5,358,404.6,358.4,406.3z"/>
	<path class="st20" d="M345.8,398.4c-0.9,1.6-3,0.9-5.9,2.4c-3.3,1.7-3.2,4-5.2,4.1c-2.4,0.2-3-3-6-3.4c-3.4-0.4-5.8,3.4-6.7,2.7
		c-0.8-0.6-0.1-4.8,2.8-6.8c3.6-2.5,6.6,1.2,13.3-0.5c3.8-1,6-3,7.3-1.9C346.3,395.7,346.4,397.3,345.8,398.4z"/>
	<circle class="st20" cx="329.4" cy="409" r="4.1"/>
</g>
<g id="Layer_2">
	<path class="st21" d="M202,218.4c4.7,5.9,9.2,10.2,13.6,13.4c13.4,9.7,25.5,8.3,34.3,4.3c0.8-0.4,1.6-0.8,2.4-1.2
		c2.8-1.5,5.2-3.2,7.1-4.8c3.8-3.1,5.9-5.8,5.9-5.8l-16.6-3.1l-0.6,6.6L202,218.4z"/>
	<path class="st21" d="M197,211.5c1.7,2.5,3.4,4.8,5,6.9l46.1,9.5l0.6-6.6L197,211.5z"/>
	<polygon class="st22" points="248.7,221.3 230.1,217.8 229.6,224.1 248.2,227.9 	"/>
	<polygon class="st22" points="224.3,216.7 216,215.1 215.4,221.2 223.7,222.9 	"/>
	<path class="st22" d="M197,211.5c1.7,2.5,3.4,4.8,5,6.9l7.2,1.5l0.5-6L197,211.5z"/>
	<path class="st23" d="M215.7,231.9c13.4,9.7,25.5,8.3,34.3,4.3c-4.2-3.6-10.6-6.1-17.8-6.8C226,228.9,220.2,229.8,215.7,231.9z"/>
	<path class="st24" d="M215.7,231.9c13.4,9.7,25.5,8.3,34.3,4.3c-4.2-3.6-10.6-6.1-17.8-6.8C226,228.9,220.2,229.8,215.7,231.9z"/>
	<g>
		<path d="M268.3,223c-0.9,0.6-1.9,1.2-2.8,1.8c0,0-0.2,0-0.2,0c-9-0.8-18.2-2-27.2-3.4c-15-2.3-29.9-5.3-44.7-8.9
			c0,0-0.6-0.2-0.6-0.2c-1.2-2.3-2.4-4.6-3.6-7c-1.1-2.2-2.2-4.4-3.2-6.7c1.5,1.9,3,3.9,4.5,5.9c1.4,2,2.9,4,4.3,6
			c0,0-0.8-0.6-0.8-0.6c15.1,1.9,30.1,4.4,45,7.6c2.2,0.5,6.7,1.4,8.9,2c5.9,1.3,11.8,2.8,17.7,4.5l-0.2,0
			C266.3,223.7,267.3,223.4,268.3,223L268.3,223z"/>
	</g>
	<g>
		<path d="M265.1,224.8c-16.3,18.9-36.9,20.4-55.3,3.4c-5.2-4.7-9.5-10.3-12.9-16.3c4,5.6,8.5,10.9,13.8,15.3
			C229.4,243.3,247.7,241.7,265.1,224.8L265.1,224.8z"/>
	</g>
	<path class="st0" d="M215.4,252.2c0,5.5,8.9,9.9,19.8,9.9c10.9,0,19.8-4.4,19.8-9.9c0-1.2-0.4-2.3-1.2-3.3
		c-8.2-1.8-25.4-4.4-38.4,2.6C215.5,251.8,215.4,252,215.4,252.2z"/>
	<g>
		<path d="M211.9,253.8c10.3-10.8,27.9-10.6,41.1-6.1c1.9,0.7,3.8,1.6,5.7,2.5c-2.1,0-4.1-0.3-6.1-0.5
			C238.9,248.7,224.7,248,211.9,253.8L211.9,253.8z"/>
	</g>
	<path class="st20" d="M174.9,194.3c1.2,1.4,2.6,2.4,4.2,3c0.8-1.4,1.7-2.7,2.8-3.7c1.9-1.8,4.4-1.3,6.8,0.1c1.2-1.6,2-3.7,2.4-6
		c-3.4-3.3-8-6.3-11.2-3.5C177.3,186.6,175.7,190.7,174.9,194.3z"/>
	<g>
		<path d="M173.8,201.8c-0.9-6.1,1-19.1,8.6-20.2c6,0,10.9,6.5,13.4,11.3c-2.5-2.2-4.9-4.3-7.5-6.1c-1.8-1.1-3.7-2.3-5.7-2.2
			C177.6,185.7,175.1,197.3,173.8,201.8L173.8,201.8z"/>
	</g>
	<g>
		<path d="M231.2,213.2c-11.4-0.7-22.8-2.7-33.7-6.1C208.9,207.8,220.3,209.9,231.2,213.2L231.2,213.2z"/>
	</g>
</g>
</svg>
