<svg version="1.1" id="Layer_1" xmlns="http://www.w3.org/2000/svg" xmlns:xlink="http://www.w3.org/1999/xlink" x="0px" y="0px"
	 viewBox="0 0 500 500" style="enable-background:new 0 0 500 500;" xml:space="preserve">
<style type="text/css">
	.st0{fill:#CCCAC8;}
	.st1{fill:#FFFFFF;}
	.st2{fill:none;}
	.st3{fill:none;stroke:#000000;stroke-width:3;stroke-miterlimit:10;}
	.st4{fill:#020001;}
	.st5{fill:#840338;}
	.st6{fill:none;stroke:#000000;stroke-width:4;stroke-miterlimit:10;}
	.st7{fill:#C90D36;}
	.st8{fill:#F799B7;}
	.st9{fill:none;stroke:#000000;stroke-width:6;stroke-miterlimit:10;}
	.st10{fill:#B30041;}
	.st11{fill:#74C610;}
	.st12{fill:#4E8A2A;}
	.st13{fill:#A0D37F;}
	.st14{fill:#A84C0E;}
	.st15{fill:#D31346;}
	.st16{fill:#FFFFFF;stroke:#000000;stroke-width:3;stroke-miterlimit:10;}
	.st17{fill:#E8E2E2;}
	.st18{fill:none;stroke:#000000;stroke-width:3;stroke-linecap:round;stroke-miterlimit:10;}
	.st19{fill:#140101;}
	.st20{fill:#D8D8D8;}
	.st21{fill:none;stroke:#000000;stroke-width:3.1574;stroke-miterlimit:10;}
</style>
<g>
	<path class="st0" d="M338.3,464.1c-0.5,5.1-2.3,9.2-2.7,9.9c-0.9,1.9-3.7,7.6-10,11.1c-9.6,5.2-20.2,1.3-26.6-1.1
		c-6.9-2.6-11-5.9-18.8-12.2c-10.6-8.6-16-13-17.2-20.5c-0.1-1-1-6.8,2-12.3c0.4-0.7,0.8-1.4,1.3-2.1c1-1.3,3.6-4.8,7.7-5.5
		c3.5-0.6,5.3,1.2,11.6,3.9c5.5,2.3,9.8,3.3,14.4,4.4c8.2,2,8.9,0.8,15.5,2.2c8,1.8,15.7,3.5,19.9,10
		C338.2,455.7,338.7,460.2,338.3,464.1z"/>
	<path class="st1" d="M338.3,464.1c-0.2,0.5-0.4,0.9-0.5,1c-0.9,1.9-3.7,7.6-10,11.1c-9.6,5.2-20.2,1.3-26.6-1.1
		c-6.9-2.6-11-5.9-18.8-12.2c-10.6-8.6-16-13-17.2-20.5c-0.1-0.4-0.2-1.7-0.2-3.5c0.4-0.7,0.8-1.4,1.3-2.1c1-1.3,3.6-4.8,7.7-5.5
		c3.5-0.6,5.3,1.2,11.6,3.9c5.5,2.3,9.8,3.3,14.4,4.4c8.2,2,8.9,0.8,15.5,2.2c8,1.8,15.7,3.5,19.9,10
		C338.2,455.7,338.7,460.2,338.3,464.1z"/>
	<path class="st2" d="M338.3,464.1c-0.5,5.1-2.3,9.2-2.7,9.9c-0.9,1.9-3.7,7.6-10,11.1c-9.6,5.2-20.2,1.3-26.6-1.1
		c-6.9-2.6-11-5.9-18.8-12.2c-10.6-8.6-16-13-17.2-20.5c-0.1-1-1-6.8,2-12.3c0.4-0.7,0.8-1.4,1.3-2.1c1-1.3,3.6-4.8,7.7-5.5
		c3.5-0.6,5.3,1.2,11.6,3.9c5.5,2.3,9.8,3.3,14.4,4.4c8.2,2,8.9,0.8,15.5,2.2c8,1.8,15.7,3.5,19.9,10
		C338.2,455.7,338.7,460.2,338.3,464.1z"/>
	<path class="st3" d="M338.3,464.1c-0.5,5.1-2.3,9.2-2.7,9.9c-0.9,1.9-3.7,7.6-10,11.1c-9.6,5.2-20.2,1.3-26.6-1.1
		c-6.9-2.6-11-5.9-18.8-12.2c-10.6-8.6-16-13-17.2-20.5c-0.1-1-1-6.8,2-12.3c0.4-0.7,0.8-1.4,1.3-2.1c1-1.3,3.6-4.8,7.7-5.5
		c3.5-0.6,5.3,1.2,11.6,3.9c5.5,2.3,9.8,3.3,14.4,4.4c8.2,2,8.9,0.8,15.5,2.2c8,1.8,15.7,3.5,19.9,10
		C338.2,455.7,338.7,460.2,338.3,464.1z"/>
	<g>
		<path d="M293.1,452.4c3.4-9,17.5-10.6,25.9-10.9c0,0,0,2.3,0,2.3l-3.6-0.1C307.9,443.8,296.6,444.7,293.1,452.4L293.1,452.4z"/>
	</g>
	<g>
		<path d="M267.5,448.3c3.2,3.7,6.8,7.2,10.3,10.7C273.3,456.7,269.4,452.9,267.5,448.3L267.5,448.3z"/>
	</g>
	<g>
		<path d="M309.4,477.7c7.5,1.1,15.4,0.6,21.8-3.8C325.8,479.7,316.5,480.4,309.4,477.7L309.4,477.7z"/>
	</g>
	<path class="st0" d="M319.6,446.8c-4.9,0-9.2,2.6-11.7,6.4c1.9-0.9,3.9-1.5,6.1-1.5c7.6,0,13.8,6.2,13.8,13.8
		c0,2.7-0.8,5.3-2.2,7.4c4.6-2.3,7.7-7,7.7-12.4C333.5,453,327.3,446.8,319.6,446.8z"/>
	<g>
		<path d="M325.8,473c7.7-4.2,9.6-14.9,3.7-21.2c-5.7-6.6-16.6-5.7-21.5,1.5c3.2-5.8,10.8-8.4,17-6
			C336.4,451.7,337.1,468.1,325.8,473L325.8,473z"/>
	</g>
	<ellipse class="st1" cx="287.5" cy="433" rx="20.5" ry="13.3"/>
	<g>
		<path d="M271.2,441c-6.3-4.2-6.3-12.2-0.6-17c5-4.4,11.9-6,18.4-5.8c6.5,0.3,13.4,2.5,17.6,7.8c4.8,6.1,1.7,13.5-4.8,16.5
			c9.2-7,5.8-16.2-4.2-19.6c-5.5-2-11.8-2.2-17.5-0.8C270.7,424.2,263.1,432.5,271.2,441L271.2,441z"/>
	</g>
</g>
<circle class="st4" cx="287.5" cy="428.4" r="10.7"/>
<g>
	<g>
		<path class="st0" d="M157.2,465.4c0.5,5.1,2.3,9.2,2.7,9.9c0.9,1.9,3.7,7.6,10,11.1c9.6,5.2,20.2,1.3,26.6-1.1
			c6.9-2.6,11-5.9,18.8-12.2c10.6-8.6,16-13,17.2-20.5c0.1-1,1-6.8-2-12.3c-0.4-0.7-0.8-1.4-1.3-2.1c-1-1.3-3.6-4.8-7.7-5.5
			c-3.5-0.6-5.3,1.2-11.6,3.9c-5.5,2.3-9.8,3.3-14.4,4.4c-8.2,2-8.9,0.8-15.5,2.2c-8,1.8-15.7,3.5-19.9,10
			C157.3,457.1,156.8,461.5,157.2,465.4z"/>
		<path class="st1" d="M157.2,465.4c0.2,0.5,0.4,0.9,0.5,1c0.9,1.9,3.7,7.6,10,11.1c9.6,5.2,20.2,1.3,26.6-1.1
			c6.9-2.6,11-5.9,18.8-12.2c10.6-8.6,16-13,17.2-20.5c0.1-0.4,0.2-1.7,0.2-3.5c-0.4-0.7-0.8-1.4-1.3-2.1c-1-1.3-3.6-4.8-7.7-5.5
			c-3.5-0.6-5.3,1.2-11.6,3.9c-5.5,2.3-9.8,3.3-14.4,4.4c-8.2,2-8.9,0.8-15.5,2.2c-8,1.8-15.7,3.5-19.9,10
			C157.3,457.1,156.8,461.5,157.2,465.4z"/>
		<path class="st2" d="M157.2,465.4c0.5,5.1,2.3,9.2,2.7,9.9c0.9,1.9,3.7,7.6,10,11.1c9.6,5.2,20.2,1.3,26.6-1.1
			c6.9-2.6,11-5.9,18.8-12.2c10.6-8.6,16-13,17.2-20.5c0.1-1,1-6.8-2-12.3c-0.4-0.7-0.8-1.4-1.3-2.1c-1-1.3-3.6-4.8-7.7-5.5
			c-3.5-0.6-5.3,1.2-11.6,3.9c-5.5,2.3-9.8,3.3-14.4,4.4c-8.2,2-8.9,0.8-15.5,2.2c-8,1.8-15.7,3.5-19.9,10
			C157.3,457.1,156.8,461.5,157.2,465.4z"/>
		<path class="st3" d="M157.2,465.4c0.5,5.1,2.3,9.2,2.7,9.9c0.9,1.9,3.7,7.6,10,11.1c9.6,5.2,20.2,1.3,26.6-1.1
			c6.9-2.6,11-5.9,18.8-12.2c10.6-8.6,16-13,17.2-20.5c0.1-1,1-6.8-2-12.3c-0.4-0.7-0.8-1.4-1.3-2.1c-1-1.3-3.6-4.8-7.7-5.5
			c-3.5-0.6-5.3,1.2-11.6,3.9c-5.5,2.3-9.8,3.3-14.4,4.4c-8.2,2-8.9,0.8-15.5,2.2c-8,1.8-15.7,3.5-19.9,10
			C157.3,457.1,156.8,461.5,157.2,465.4z"/>
		<g>
			<path d="M202.4,453.7c-3.6-7.7-14.8-8.6-22.3-8.7c0,0-3.6,0.1-3.6,0.1l0-2.3C184.9,443.1,199.1,444.6,202.4,453.7L202.4,453.7z"
				/>
		</g>
		<g>
			<path d="M228,449.6c-2,4.6-5.8,8.5-10.3,10.7C221.2,456.8,224.8,453.3,228,449.6L228,449.6z"/>
		</g>
		<g>
			<path d="M186.1,479c-7.1,2.8-16.4,2.1-21.8-3.8C170.7,479.6,178.6,480.1,186.1,479L186.1,479z"/>
		</g>
		<path class="st0" d="M175.9,448.2c4.9,0,9.2,2.6,11.7,6.4c-1.9-0.9-3.9-1.5-6.1-1.5c-7.6,0-13.8,6.2-13.8,13.8
			c0,2.7,0.8,5.3,2.2,7.4c-4.6-2.3-7.7-7-7.7-12.4C162.1,454.3,168.2,448.2,175.9,448.2z"/>
		<g>
			<path d="M169.7,474.4c-11.3-5-10.6-21.4,0.8-25.7c6.2-2.5,13.8,0.1,17,6c-4.9-7.2-15.8-8-21.5-1.5
				C160.1,459.5,162.1,470.2,169.7,474.4L169.7,474.4z"/>
		</g>
		<ellipse class="st1" cx="208" cy="434.3" rx="20.5" ry="13.3"/>
		<g>
			<path d="M224.3,442.3c8.1-8.5,0.5-16.8-8.8-18.9c-5.7-1.4-12-1.2-17.5,0.8c-10,3.4-13.5,12.6-4.2,19.6c-6.5-3-9.6-10.4-4.8-16.5
				c4.2-5.3,11.1-7.5,17.6-7.8c6.5-0.2,13.4,1.3,18.4,5.8C230.6,430.2,230.7,438.1,224.3,442.3L224.3,442.3z"/>
		</g>
	</g>
</g>
<circle class="st4" cx="209.3" cy="432.6" r="10.7"/>
<path class="st5" d="M208.4,440.9c2.3,0,4.5-0.8,6.3-2.4c3.9-3.5,4.2-9.5,0.7-13.4c-20.5-22.9-4.4-47.6-3.8-48.6
	c3-4.3,1.9-10.2-2.5-13.2c-4.3-3-10.3-1.8-13.2,2.5c-8.9,12.9-19.2,44.6,5.3,72C203.2,439.9,205.8,440.9,208.4,440.9z"/>
<path class="st5" d="M288.1,436.7c-2.3,0-4.5-0.8-6.3-2.4c-3.9-3.5-4.2-9.5-0.7-13.4c7.3-8.2,10.1-17.4,8.2-27.6
	c-1.4-7.6-5-13.1-5-13.1c-3-4.3-1.9-10.2,2.5-13.2c4.3-3,10.2-1.9,13.2,2.5c7.9,11.5,17.1,39.8-4.7,64.1
	C293.3,435.7,290.7,436.7,288.1,436.7z"/>
<path class="st3" d="M208.4,440.9c2.3,0,4.5-0.8,6.3-2.4c3.9-3.5,4.2-9.5,0.7-13.4c-20.5-22.9-4.4-47.6-3.8-48.6
	c3-4.3,1.9-10.2-2.5-13.2c-4.3-3-10.3-1.8-13.2,2.5c-8.9,12.9-19.2,44.6,5.3,72C203.2,439.9,205.8,440.9,208.4,440.9z"/>
<path class="st3" d="M288.1,436.7c-2.3,0-4.5-0.8-6.3-2.4c-3.9-3.5-4.2-9.5-0.7-13.4c7.3-8.2,10.1-17.4,8.2-27.6
	c-1.4-7.6-5-13.1-5-13.1c-3-4.3-1.9-10.2,2.5-13.2c4.3-3,10.2-1.9,13.2,2.5c7.9,11.5,17.1,39.8-4.7,64.1
	C293.3,435.7,290.7,436.7,288.1,436.7z"/>
<path class="st5" d="M404.3,329.2c-23.1,0-40.6-5.5-51.9-16.3c-11.9-11.4-12.3-24.3-12.3-25.8l16-0.1l0-0.1c0,0.3,0.4,7.9,7.7,14.7
	c8.9,8.3,24.7,12.2,45.6,11.5l0.6,16C408.1,329.2,406.2,329.2,404.3,329.2z"/>
<path class="st6" d="M404.3,329.2c-23.1,0-40.6-5.5-51.9-16.3c-11.9-11.4-12.3-24.3-12.3-25.8l16-0.1l0-0.1c0,0.3,0.4,7.9,7.7,14.7
	c8.9,8.3,24.7,12.2,45.6,11.5l0.6,16C408.1,329.2,406.2,329.2,404.3,329.2z"/>
<g>
	<path class="st7" d="M295.6,105.2c34.6-5.6,64.8,20,67.4,22.3c27.7,24.2,30.1,60.1,31.3,77c6.6,97.6-80.9,188.9-119.8,180.3
		c-7-1.5-16.5-6.1-33.6-6.4c-20.7-0.3-31.5,6.3-41.3,7.9c-34.6,6-78.7-45.9-98.5-89.8c-5.2-11.6-43.6-96.8,2-152.5
		c22.8-27.8,65.7-47.1,88.9-39.1c2.9,1,11.6,4.6,24.8,7.8c3.4,0.8,17.3,4.3,28.9,4.9C268.8,119,276.4,108.3,295.6,105.2z"/>
	<g>
		<path class="st8" d="M238.9,118.8c-11.5-0.6-25.5-4.1-28.9-4.9c-13.2-3.3-21.9-6.8-24.8-7.8c-5.2-1.8-11.3-2.2-18-1.5
			c9.3-1.9,17.8-1.9,24.7,0.5c2.9,1,11.6,4.6,24.8,7.8c3.4,0.8,17.3,4.3,28.9,4.9c3.5,0.2,6.6,0.1,9.4-0.2
			C250.4,118.6,245.2,119.1,238.9,118.8z"/>
		<path class="st8" d="M387.7,205.5c-1.2-16.9-3.6-52.8-31.3-77c-2.5-2.2-30.8-26.2-63.9-22.8c1-0.2,2-0.4,3.1-0.6
			c34.6-5.6,64.8,20,67.4,22.3c27.7,24.2,30.1,60.1,31.3,77c6.3,91.9-70.9,178.1-112.4,180.8C324.4,374.8,393.6,292.7,387.7,205.5z"
			/>
		<path class="st8" d="M222.7,380c-9.8,2-16.7,5.2-23.1,6.3c-1.2,0.2-2.4,0.3-3.6,0.4C202.9,385,210.8,381.4,222.7,380z"/>
	</g>
	<path class="st5" d="M103,144c11.4-13.9,27.9-25.7,44.4-33c-6.7,5.1-12.8,10.9-17.9,17.1c-44.2,53.9-7,136.5-1.9,147.8
		c19.2,42.6,61.9,92.8,95.5,87.1c9.5-1.6,20-8,40-7.7c16.6,0.3,25.8,4.7,32.6,6.2c14.6,3.2,36.3-8.1,57-28.7
		c-26.1,34.9-58.5,56.3-78.2,52c-7-1.5-16.5-6.1-33.6-6.4c-20.7-0.3-31.5,6.3-41.3,7.9c-34.6,6-78.7-45.9-98.5-89.8
		C95.8,284.9,57.4,199.7,103,144z"/>
	<path class="st9" d="M295.6,105.2c34.6-5.6,64.8,20,67.4,22.3c27.7,24.2,30.1,60.1,31.3,77c6.6,97.6-80.9,188.9-119.8,180.3
		c-7-1.5-16.5-6.1-33.6-6.4c-20.7-0.3-31.5,6.3-41.3,7.9c-34.6,6-78.7-45.9-98.5-89.8c-5.2-11.6-43.6-96.8,2-152.5
		c22.8-27.8,65.7-47.1,88.9-39.1c2.9,1,11.6,4.6,24.8,7.8c3.4,0.8,17.3,4.3,28.9,4.9C268.8,119,276.4,108.3,295.6,105.2z"/>
	<path class="st10" d="M202,145c0,0.5,0,1.1,0.2,1.6c43.4,16.2,78.9,6.5,97.9-1.8c-7.3-6.2-25.2-11.3-46.4-12.5
		C225.7,130.6,202.6,136.3,202,145z"/>
	<g>
		<path d="M315.3,136.6c-10.9,9-24.3,14.6-37.9,18.2c-16.9,4.3-34.7,4.6-51.7,1.2c-18.4-3.8-36.2-11.7-51.1-23
			c22.1,10.7,45.6,18.3,70.1,19.2C269,153.2,293.6,147.8,315.3,136.6L315.3,136.6z"/>
	</g>
	<g>
		<path class="st11" d="M224.3,36.3c32.6,23.4,24.5,68.6,24.5,68.6s-41,23.1-73.5-0.3s-34.6-90.1-34.6-90.1S191.7,13,224.3,36.3z"/>
		<polygon class="st12" points="243.4,97.6 229,50.4 233.8,89.3 205,60.1 189.7,32.1 195.8,59.2 161.6,31.8 219.2,82.5 223.6,85.6 
			193.7,85.9 		"/>
		<path class="st12" d="M140.6,14.6c0,0,0.1,2.8,0.5,7.5c16.5,0.8,49.6,5.1,73.6,21.6c20.5,14,20.5,34.1,18.6,45.2
			c-0.3,1.8,0.7,3.4,2.4,4c5.7,2,13,12.1,13,12.1s8.1-45.3-24.5-68.6S140.6,14.6,140.6,14.6z"/>
		<polygon points="246.5,107.6 158.8,29.8 251,102.3 246.5,107.6 		"/>
		<polygon points="181.9,85.4 225.8,83.9 225.7,87.4 181.9,85.4 		"/>
		<polygon points="197.3,64.1 189.8,32.9 200.7,63.1 197.3,64.1 		"/>
		<polygon points="233.4,92.7 230.6,65 236.8,92.1 233.4,92.7 		"/>
		<path class="st3" d="M224.3,36.3c32.6,23.4,24.5,68.6,24.5,68.6s-41,23.1-73.5-0.3s-34.6-90.1-34.6-90.1S191.7,13,224.3,36.3z"/>
		<path class="st13" d="M152.5,52.3c0,0,6.2,32.8,15.6,39.6S172.5,68,152.5,52.3z"/>
	</g>
	<path class="st14" d="M253.9,155.9c-12.5-17.6-17-41-10.3-61.8c3.4-10.6,11.5-19.3,21.1-24.8c1.9-1,3.9-1.9,6-2.7
		c0,0,0.6,0.8,0.6,0.8c-1.1,1.9-2.4,3.6-3.5,5.3c-2.2,3.3-4.6,6.6-6.6,10.1c-3,4.8-5.7,9.9-8.3,15c-5.5,10.4-6.4,22.6-4.9,34.2
		c1.1,7.9,3.3,15.9,6.8,23.3L253.9,155.9L253.9,155.9z"/>
	<path class="st8" d="M291.2,159.9c0,0-25.2,15-42,15s-44-19-44-19s29.2,8,46,8S291.2,159.9,291.2,159.9z"/>
	<path class="st15" d="M183.2,174.9c0,15.2-16.8,25-32,25c-15.2,0-37-12.8-37-28c0-15.2,20.8-18,36-18
		C165.4,153.9,183.2,159.7,183.2,174.9z"/>
	<path class="st3" d="M253.9,155.9c-12.5-17.6-17-41-10.3-61.8c3.4-10.6,11.5-19.3,21.1-24.8c1.9-1,3.9-1.9,6-2.7
		c0,0,0.6,0.8,0.6,0.8c-1.1,1.9-2.4,3.6-3.5,5.3c-2.2,3.3-4.6,6.6-6.6,10.1c-3,4.8-5.7,9.9-8.3,15c-5.5,10.4-6.4,22.6-4.9,34.2
		c1.1,7.9,3.3,15.9,6.8,23.3L253.9,155.9L253.9,155.9z"/>
</g>
<g>
	<path class="st16" d="M404.1,321c0,9.8-3.4,17.7-7.7,17.7c-4.2,0-2.9-9.1-2.9-18.9s-1.3-16.5,2.9-16.5
		C400.6,303.3,404.1,311.2,404.1,321z"/>
	<ellipse class="st16" cx="430.6" cy="318.6" rx="31.2" ry="28.3"/>
	<path class="st1" d="M453,340.4c-1.8,3.8-5,5.8-7.6,7.1c-1.1,0.5-2.1,0.9-3,1.2c-4.6,1.7-8.5,1.4-10.6,1.2c-4-0.4-9.3-0.8-11.8-4.7
		c-1.4-2.2-1.3-4.6-1.2-5.9c0.4-6.9,6.5-11.4,7.1-11.8c2.3-1.6,5-2.6,7.8-3.1c8.7-1.4,18.5,2.1,20.5,7.8
		C455.3,335.6,453.6,339.2,453,340.4z"/>
	<path class="st16" d="M427,314.5"/>
	<path class="st17" d="M445.3,347.5c-1.1,0.5-2.1,0.9-3,1.2c-4.6,1.7-8.5,1.4-10.6,1.2c-4-0.4-9.3-0.8-11.8-4.7
		c-1.4-2.2-1.3-4.6-1.2-5.9c0.4-6.9,6.5-11.4,7.1-11.8c2.3-1.6,5-2.6,7.8-3.1c2.1,1.5,3.5,4.1,2.8,5.4c-1,1.9-5.7-0.3-8.3,2.4
		c-2,2.1-1.3,5.5-1.2,5.9c0.9,3.9,4.9,6.4,8.3,7.1c4.2,0.8,6.1-1.4,8.3,0C444.3,345.6,444.9,346.5,445.3,347.5z"/>
	<path class="st3" d="M454.2,332.2c-2-5.7-11.8-9.2-20.5-7.8c-2.8,0.5-5.5,1.4-7.8,3.1c-0.6,0.4-6.6,4.8-7.1,11.8
		c-0.1,1.2-0.2,3.7,1.2,5.9c2.5,3.9,7.8,4.4,11.8,4.7c2.1,0.2,6,0.5,10.6-1.2c0.8-0.3,1.8-0.7,3-1.2c2.7-1.2,5.8-3.3,7.6-7.1
		C453.6,339.2,455.3,335.6,454.2,332.2z"/>
	<path class="st17" d="M407.8,311.5c3-2.3,14.9,3.5,15.4,11.1c0.3,4.5-3.4,8.9-4.7,8.5c-1.4-0.4,1.2-6.1-2-9.9
		c-2.9-3.5-8-2.1-9.4-5.5C406.5,314.3,406.7,312.3,407.8,311.5z"/>
	<path class="st1" d="M462.8,329.3c-0.1,0.2-0.3,0.4-0.4,0.5c-5,6.4-14.4,5.5-22.4,4.7c-3.9-0.4-6.2-1.2-8.3-2.4
		c-1.2-0.7-6.5-3.9-7.1-9.4c-0.5-4.6,2.5-8.2,3.5-9.4c4.8-5.7,12.6-7.1,19.2-6.7c2,0.1,3.9,0.4,5.6,0.8c3.7,0.9,8,1.9,10.6,5.9
		C466.7,318.1,465.9,324.9,462.8,329.3z"/>
	<path class="st17" d="M462.8,329.3c-0.1,0.2-0.3,0.4-0.4,0.5c-5,6.4-14.4,5.5-22.4,4.7c-3.9-0.4-6.2-1.2-8.3-2.4
		c-1.2-0.7-6.5-3.9-7.1-9.4c-0.5-4.6,2.5-8.2,3.5-9.4c4.8-5.7,12.6-7.1,19.2-6.7c0.9,0.5,2,1.2,2,2c0,2.7-10.6,2.7-13,8.3
		c-1.2,2.9-0.3,7.5,2.4,9.4c5.3,3.9,14.5-4.5,21.2,0C461.5,327.2,462.3,328.4,462.8,329.3z"/>
	<path class="st3" d="M463.6,313.3c-2.6-3.9-7-5-10.6-5.9c-1.7-0.4-3.5-0.7-5.6-0.8c-6.6-0.4-14.4,1-19.2,6.7c-1,1.2-4,4.8-3.5,9.4
		c0.6,5.6,5.9,8.7,7.1,9.4c2,1.2,4.3,2,8.3,2.4c8,0.8,17.4,1.6,22.4-4.7c0.1-0.2,0.3-0.4,0.4-0.5
		C465.9,324.9,466.7,318.1,463.6,313.3z"/>
	<path class="st17" d="M464.2,298c0,9.1-8.6,16.5-19.2,16.5c-10.6,0-19.2-7.4-19.2-16.5c0-1.7,0.2-3.1,0.6-4.2
		c1.7-5,7.2-5.2,15.8-5.2c8.9,0,18.4,0.2,21.1,5.8C463.9,295.4,464.2,296.6,464.2,298z"/>
	<path class="st1" d="M463.4,294.4c-2.6,3.5-9.2,11.5-18.4,11.9c-3.7,0.1-8.8-1-9.1-2.9c-0.4-2.2,5-3.9,4.7-5.9
		c-0.2-1.4-3-2.9-14.1-3.6c2.7-1.7,8.2-5.2,15.8-5.2C451.2,288.6,460.7,288.8,463.4,294.4z"/>
	<path class="st3" d="M464.2,298c0,9.1-8.6,16.5-19.2,16.5c-10.6,0-19.2-7.4-19.2-16.5c0-1.7,0.2-3.1,0.6-4.2
		c1.7-5,7.2-5.2,15.8-5.2c8.9,0,18.4,0.2,21.1,5.8C463.9,295.4,464.2,296.6,464.2,298z"/>
	<path class="st18" d="M427.6,299.8c0,0,1.2-5.9,15.3-3.5"/>
	<path class="st17" d="M432.5,305.7c-1.9,9.7-8.7,16.6-15,15.3c-5-1-8.3-6.6-8.5-13.7c-0.1-2,0.1-4.1,0.5-6.2
		c1.9-9.7,8.7-16.6,15-15.3c2.4,0.5,4.4,2,5.8,4.3C432.8,293.8,433.7,299.6,432.5,305.7z"/>
	<path class="st1" d="M429.8,296.2c-1.9,9.7-8.7,16.6-15,15.3c-2.4-0.5-4.4-2-5.8-4.3c-0.1-2,0.1-4.1,0.5-6.2
		c1.9-9.7,8.7-16.6,15-15.3c2.4,0.5,4.4,2,5.8,4.3C430.4,292,430.2,294.1,429.8,296.2z"/>
	<path class="st3" d="M414.2,290.9c1-1.1,5.4-6.2,10.3-5.2c2.4,0.5,4.4,2,5.8,4.3c2.5,3.8,3.4,9.5,2.2,15.6
		c-1.9,9.7-8.7,16.6-15,15.3c-5-1-8.3-6.6-8.5-13.7c-0.1-2.6,0.3-5.4,0.5-6.2c0.3-1.5,0.8-3.9,2.2-6.5L414.2,290.9z"/>
</g>
<g>
	<path d="M251.3,199c-6.3,0.2-11.2,12.3-12.3,28.7l18.9,10.2l-18.2,11.3c2.1,16.2,7.8,28,14,27.8c7.6-0.2,13.1-17.9,12.5-39.4
		C265.5,216,258.8,198.8,251.3,199z"/>
	<path d="M316.5,199c5.6-0.4,11.2,9.9,13.8,24.4l-15.9,10.9l17.4,8.3c-0.3,14.7-4.2,25.7-9.8,26.2c-6.8,0.5-13.5-14.6-15-33.9
		C305.5,215.6,309.7,199.6,316.5,199z"/>
	<path class="st7" d="M216.2,202.5c0,0,30.1,17.2,53.4,14.5c23.2-2.7,1.9-20.5,1.9-20.5"/>
	<path class="st7" d="M348.2,198.7c0,0-25.2,18.3-46.2,18.1s-3.7-18.1-3.7-18.1"/>
	<g>
		<path class="st19" d="M216.2,202.5c15.8,5.8,31.9,11.9,48.8,12.3c3.9-0.2,8.5-0.2,11.9-2.1c5.4-3.5-2.7-12.8-5.5-16.2
			c1.6,1,3,2.1,4.4,3.3c4.5,3.8,9.5,11.3,3.4,16.1c-4.2,3.2-9.2,3.5-14.2,3.8c0,0-2.8,0-2.8,0C245.5,219,229.5,212.1,216.2,202.5
			L216.2,202.5z"/>
	</g>
	<g>
		<path class="st19" d="M348.2,198.7c-12.4,11.6-32.2,22.4-49.7,20.1c-14-2.4-8.1-14.1-0.2-20.1c-2,3.4-6.9,10.3-4.4,13.9
			c0.3,0.4,0.8,0.7,1.2,0.9c2.2,1,5.4,1.1,8.4,0.8c3-0.1,6.2-0.7,9.1-1.4C325,210,336.7,204.3,348.2,198.7L348.2,198.7z"/>
	</g>
</g>
<path class="st5" d="M95.4,340.3c-1.4,0-2.7-0.3-4-1.1c-0.4-0.2-10.5-6.1-18.9-15.2C60,310.6,57,296.2,63.8,283.3
	c12.4-23.2,40.3-23,53.4-19.6c4.3,1.1,6.8,5.5,5.7,9.7c-1.1,4.3-5.5,6.8-9.7,5.7c-1.1-0.3-25.7-6.2-35.3,11.6
	c-8.8,16.4,21.2,34.4,21.5,34.5c3.8,2.2,5.1,7.1,2.9,10.9C100.8,338.9,98.1,340.3,95.4,340.3z"/>
<g>
	<path d="M113.2,279.3c-9.4-1.6-20.4-1.1-28.2,4.9c-5.6,4.4-9.3,11.4-6.2,18.3c2.8,6.7,8.4,11.7,14,16.2c2.7,2.1,5.5,4,8.4,5.8
		c10.3,8.2-0.8,23.2-11.8,16c-15.2-9.7-31.4-24.6-30.9-44.1c0.7-15.9,13.8-29.2,28.8-33c9.8-2.6,20.2-2.4,29.9,0.4
		c-9.7-1.9-19.9-1.5-29.3,1.5c-13.6,4.2-25.4,16.5-25.8,31.2c0.1,18,15.5,31.5,29.5,40.6c4.9,3.7,11.6-0.9,9.6-6.8
		c-0.6-2.1-2.6-3.2-4.3-4.3c-2.1-1.4-4.2-2.9-6.1-4.5c-4-3.2-7.7-6.8-10.7-11c-5-6.7-7.1-15.2-1.6-22.3
		C86,277.1,101.3,276,113.2,279.3L113.2,279.3z"/>
</g>
<g>
	<path class="st16" d="M109.9,353.7c-10.7,9-29,5.2-38.9-6.7s-9.2-28.7,1.5-37.7c10.7-9,27.5-6.7,37.4,5.2
		C119.8,326.4,120.6,344.8,109.9,353.7z"/>
	<path class="st16" d="M93.7,329.2"/>
	<path class="st16" d="M74.3,315.8c-7.1,5.9-14.8,8.4-17.2,5.5c-2.4-2.9,4.9-7.5,12-13.5c7.1-5.9,11.2-10.9,13.7-8
		C85.1,302.7,81.3,309.9,74.3,315.8z"/>
	<path class="st1" d="M124.3,319.4c-1,1.9-2.8,3.3-5.1,4c-0.1,0-0.2,0.1-0.4,0.1c-5.5-4.4-9.2-6.9-13-4.5c-0.7,0.4-1.4,1-2.1,1.8
		c-7.1-4.1-10.7-11-8.3-15.9c2-4.1,7.7-5.6,13.9-4.1c1.7,0.4,3.5,1,5.2,1.9C122.6,306.8,126.9,314.3,124.3,319.4z"/>
	<path class="st1" d="M99.8,357.8c-0.1,0.6-1.5,2-1.8,2.5c-1.4,2.1-4.4,2.8-5.5,3c-3.1,0.7-5.9-0.1-8-0.9c-0.9-0.4-1.6-0.7-2.2-1
		c-3.3-1.7-5-3.8-6-5c-1.8-2.3-4.1-5.2-3-8.2c0.6-1.7,2.1-2.7,2.9-3.2"/>
	<path class="st1" d="M118.1,346.2c0.3,1.5,0.3,3-0.2,4.6c-1.5,4.9-6.6,8.3-11.4,8.6c-0.2,0-0.4,0-0.6,0c-2.7,0.1-5.1-0.8-7.2-2.4
		c-3.5-2.5-6.4-6.6-8.9-10.3c-0.9-1.3-1.5-2.4-2-3.5"/>
	<path class="st1" d="M106,317.1c3.8-2.4,7.5,0.1,13,4.5c0.3,0.3,0.7,0.5,1,0.8c6.2,5,12.7,10.5,11.4,15.9c-0.2,1-0.7,2-1.5,3
		c-2.8,3.5-7.2,5.1-11.7,5c-3.7-0.2-7.6-1.6-10.9-4.3c-2.4-1.9-4.2-4.3-5.4-6.8"/>
	<g>
		<path d="M98.7,358.7c0.1-0.1,0.2-0.3,0.4-0.3c0.1,0.1,0,0.2,0,0.2c-0.2,0.6-0.5,1.2-0.8,1.7c-0.8,1.6-2.4,2.7-4,3.4
			c-6.8,2.9-14.8-0.9-18.9-6.6c-1.5-2.2-3.2-4.4-3.1-7.4c0.1-1.4,0.7-3,2.1-3.6c0.4-0.2,0.9-0.2,1.3-0.3c-2.9,2-1.6,5.4,0.4,7.7
			c4.4,6,12.6,10.9,19.9,7.7c1.3-0.5,2.3-1.7,3-2.8C99.2,358.4,98.9,358.6,98.7,358.7L98.7,358.7z"/>
	</g>
	<path class="st1" d="M124.2,319.7c-1,1.8-2.7,3.1-4.9,3.8c-0.1,0-0.2,0.1-0.4,0.1c-4-3.2-7-5.3-9.8-5.4c0.8-1.8,2.6-3.2,4.4-3.6
		c1.5-0.3,3.4,0.6,7.3,2.4c1.7,0.8,2.6,1.4,3.2,2.4C124.1,319.4,124.1,319.5,124.2,319.7z"/>
	<path class="st17" d="M124.2,319.7c-1,1.8-2.7,3.1-4.9,3.8c-0.1,0-0.2,0.1-0.4,0.1c-4-3.2-7-5.3-9.8-5.4c0.8-1.8,2.6-3.2,4.4-3.6
		c1.5-0.3,3.4,0.6,7.3,2.4c1.7,0.8,2.6,1.4,3.2,2.4C124.1,319.4,124.1,319.5,124.2,319.7z"/>
	<path class="st3" d="M95,306.5c2-4.1,8.3-7,14.5-5.5c1.7,0.4,3.5,1,5.2,1.9c7.9,4,12.3,11.4,9.7,16.6c-1,1.9-2.1,2.2-4.4,2.9"/>
	<path class="st17" d="M118.1,349.9c-1.1,0.6-2.4,1-3.8,1c-4.2,0-7.7-3.4-7.7-7.7c0-0.5,0.1-1.1,0.2-1.6c0.1,0.1,0.2,0.2,0.4,0.3
		c3.3,2.7,7.2,4.1,10.9,4.3C118.3,347.4,118.4,348.7,118.1,349.9z"/>
	<path class="st2" d="M92.1,350.1c2.5,3.7,3,4.6,6.6,7.1c2.1,1.5,4.5,2.4,7.2,2.4c0.2,0,0.4,0,0.6,0c4.8-0.4,9.9-3.7,11.4-8.6
		c0.1-0.3,0.2-0.6,0.2-0.9"/>
	<g>
		<path d="M106,317.1c5-3.8,10.9,1.8,14.9,4.5c6.2,4.5,17.2,13.2,9.6,21.2c-6.1,6.7-17.5,5.3-23.2-0.8c6.6,4.2,15.8,4.9,21.1-1.1
			c5.7-6.2-4.7-13.4-8.9-17.4C115.6,320.5,111.2,314.7,106,317.1L106,317.1z"/>
	</g>
	<path class="st17" d="M99.7,357.8c-1.1,1.9-3.2,3.2-5.6,3.2c-3.6,0-6.5-2.9-6.5-6.5c0-2.5,1.4-4.6,3.5-5.7c2.2,3.1,4.6,6.3,7.6,8.3
		C99,357.4,99.4,357.6,99.7,357.8z"/>
	<g>
		<path d="M118.1,346.2c2.5,6.8-3.9,13.7-10.5,14.6c-3.5,0.6-7.3-0.5-9.9-2.8c-2.7-2-4.6-4.9-5.6-8c2.3,2.2,4.3,4.3,7.1,5.8
			C106.6,361.4,118.3,355.3,118.1,346.2L118.1,346.2z"/>
	</g>
</g>
<g>
	<path class="st1" d="M221.2,319.5c9.9,6.6,18.9,10.5,28.8,12.3c45.7,8.2,72.6-3.8,72.6-3.8c-3.5-10.9-0.7-20.7-0.7-20.7
		c-54.1,6.1-95.2-20.3-95.2-20.3l-4.1,15l-0.6,7.5l-0.1,1.1L221.2,319.5z"/>
	<g>
		<path d="M337.5,305.2c-41.2,13.3-90,1.6-122.9-25.8C251.5,301.1,294.9,311.7,337.5,305.2L337.5,305.2z"/>
	</g>
	<path class="st20" d="M221.2,319.5c9.9,6.6,20.4,9.1,29.7,12.3c5.4,0.3,10.6,2.4,16.9,2c42.2-2.7,30.4-11.7,30.4-11.7
		c-44.2,0.1-75.4-16.2-75.4-16.2l-0.9,3.6l-0.1,1.1L221.2,319.5z"/>
	<g>
		<path d="M311.6,318.8c-10.9,7-26.6,6.4-38.2,1.5c1.7,0,3.3,0.1,4.9,0.2C289.5,321.1,300.6,321.1,311.6,318.8L311.6,318.8z"/>
	</g>
	<line class="st21" x1="226.5" y1="286.9" x2="221.2" y2="320.8"/>
	<path d="M262.4,318.8"/>
	<g>
		<path d="M267.8,319.6c-6.9,0.1-13.7-1.1-20.4-2.9c-6.6-1.9-13.1-4.4-18.9-8.2C241.9,311.7,254.9,315.2,267.8,319.6L267.8,319.6z"
			/>
	</g>
	<g>
		<path d="M343.2,318.8c-20.6,13.5-45.9,19-70.4,17.7c-5.4-0.4-10.8-1.1-16.1-2.1c-3.7-0.9-7.6-1.6-11.2-2.8c-0.6-0.2-5-1.5-5.5-1.7
			c-12.6-4.6-24.7-10.8-35.5-18.7c25,14.5,52.9,23.5,82,22.2C306.1,332.6,325.7,327.9,343.2,318.8L343.2,318.8z"/>
	</g>
	<path class="st21" d="M322,328.4c-0.8-5.1-1-13-0.1-21.1"/>
	<ellipse class="st5" cx="213.3" cy="272.6" rx="6.5" ry="4.2"/>
	<g>
		<path d="M221.2,271.5c-4.9-0.4-9-2.4-14-1.6C210.3,264.8,218.6,267,221.2,271.5L221.2,271.5z"/>
	</g>
	<path class="st5" d="M291.1,344.5c0,3-8.7,0-19.4,0c-10.7,0-19.4,3-19.4,0c0-3,8.7-5.4,19.4-5.4
		C282.4,339.1,291.1,341.5,291.1,344.5z"/>
	<g>
		<path d="M240.5,345.9c18.4-10.9,41.1-11.3,59.5,0c-2.5-0.6-5-1.4-7.4-2.1c-7.3-2.2-14.8-3-22.3-3.1
			C260.2,340.6,250.2,343.1,240.5,345.9L240.5,345.9z"/>
	</g>
</g>
</svg>
